<?xml version="1.0" encoding="UTF-8"?>
<svg xmlns="http://www.w3.org/2000/svg" style="display: none;">
  <defs>
    <symbol id="FaStar" viewBox="0 0 576 512">
      <path d="M316.9 18C311.6 7 300.4 0 288.1 0s-23.4 7-28.8 18L195 150.3 51.4 171.5c-12 1.8-22 10.2-25.7 21.7s-.7 24.2 7.9 32.7L137.8 329 113.2 474.7c-2 12 3 24.2 12.9 31.3s23 8 33.8 2.3L288.1 439l128.3 67.3c10.8 5.7 23.9 4.9 33.8-2.3s14.9-19.3 12.9-31.3L438.5 329 542.7 225.9c8.6-8.5 11.7-21.2 7.9-32.7s-13.7-19.9-25.7-21.7L381.2 150.3 316.9 18z" />
    </symbol>
    <symbol id="FaArrowLeft" viewBox="0 0 448 512">
      <path d="M9.4 233.4c-12.5 12.5-12.5 32.8 0 45.3l160 160c12.5 12.5 32.8 12.5 45.3 0s12.5-32.8 0-45.3L109.2 288 416 288c17.7 0 32-14.3 32-32s-14.3-32-32-32l-306.7 0L214.6 118.6c12.5-12.5 12.5-32.8 0-45.3s-32.8-12.5-45.3 0l-160 160z" />
    </symbol>
    <symbol id="FaPalette" viewBox="0 0 512 512">
      <path d="M512 256c0 .9 0 1.8 0 2.7c-.4 36.5-33.6 61.3-70.1 61.3H344c-26.5 0-48 21.5-48 48c0 3.4 .4 6.7 1 9.9c2.1 10.2 6.5 20.9 10.8 31.9c4.7 12.2 9.6 24.8 11.8 37.7c2.3 13.4-1.2 26.8-9.5 37c-8.3 10.2-21 16.2-34.8 16.2H163.2c-10.2 0-19.9-4.9-25.9-13.2c-5.9-8.3-7.9-19-5.5-29.2c4.9-21.5 13.8-44.3 21.4-64.9c1.8-4.9 3.5-9.6 5-14.1C163.1 325.6 176 304 176 280c0-26.5-21.5-48-48-48H64.9c-36.5 0-69.7-24.8-70.1-61.3C-5.6 152.5 17.8 128 45.1 128H176c26.5 0 48-21.5 48-48c0-26.5-21.5-48-48-48H141.9c-36.5 0-69.7-24.8-70.1-61.3C71.4-7.5 94.8-32 122.1-32H288c141.4 0 256 114.6 256 256z" />
    </symbol>
  </defs>
</svg>
