<?xml version="1.0" encoding="UTF-8"?>
<svg xmlns="http://www.w3.org/2000/svg" style="display: none;">
  <defs>
        <symbol id="FaAddressBook" viewBox="0 0 24 24">
      <circle cx="12" cy="12" r="10" fill="currentColor" opacity="0.1" />
      <circle cx="12" cy="12" r="10" fill="none" stroke="currentColor" stroke-width="1" />
      <text x="12" y="16" text-anchor="middle" font-family="system-ui, sans-serif" font-size="8" font-weight="bold" fill="currentColor">A</text>
    </symbol>
    <symbol id="FaAnchor" viewBox="0 0 24 24">
      <circle cx="12" cy="12" r="10" fill="currentColor" opacity="0.1" />
      <circle cx="12" cy="12" r="10" fill="none" stroke="currentColor" stroke-width="1" />
      <text x="12" y="16" text-anchor="middle" font-family="system-ui, sans-serif" font-size="8" font-weight="bold" fill="currentColor">A</text>
    </symbol>
    <symbol id="FaAngry" viewBox="0 0 24 24">
      <circle cx="12" cy="12" r="10" fill="currentColor" opacity="0.1" />
      <circle cx="12" cy="12" r="10" fill="none" stroke="currentColor" stroke-width="1" />
      <text x="12" y="16" text-anchor="middle" font-family="system-ui, sans-serif" font-size="8" font-weight="bold" fill="currentColor">A</text>
    </symbol>
    <symbol id="FaAnkh" viewBox="0 0 24 24">
      <circle cx="12" cy="12" r="10" fill="currentColor" opacity="0.1" />
      <circle cx="12" cy="12" r="10" fill="none" stroke="currentColor" stroke-width="1" />
      <text x="12" y="16" text-anchor="middle" font-family="system-ui, sans-serif" font-size="8" font-weight="bold" fill="currentColor">A</text>
    </symbol>
    <symbol id="FaAppleAlt" viewBox="0 0 24 24">
      <circle cx="12" cy="12" r="10" fill="currentColor" opacity="0.1" />
      <circle cx="12" cy="12" r="10" fill="none" stroke="currentColor" stroke-width="1" />
      <text x="12" y="16" text-anchor="middle" font-family="system-ui, sans-serif" font-size="8" font-weight="bold" fill="currentColor">A</text>
    </symbol>
    <symbol id="FaArrowLeft" viewBox="0 0 448 512">
      <path d="M257.5 445.1l-22.2 22.2c-9.4 9.4-24.6 9.4-33.9 0L7 273c-9.4-9.4-9.4-24.6 0-33.9L201.4 44.7c9.4-9.4 24.6-9.4 33.9 0l22.2 22.2c9.5 9.5 9.3 25-.4 34.3L136.6 216H424c13.3 0 24 10.7 24 24v32c0 13.3-10.7 24-24 24H136.6l120.5 114.8c9.8 9.3 10 24.8.4 34.3z" />
    </symbol>
    <symbol id="FaArrowRight" viewBox="0 0 448 512">
      <path d="M190.5 66.9l22.2-22.2c9.4-9.4 24.6-9.4 33.9 0L441 239c9.4 9.4 9.4 24.6 0 33.9L246.6 467.3c-9.4 9.4-24.6 9.4-33.9 0l-22.2-22.2c-9.5-9.5-9.3-25 .4-34.3L311.4 296H24c-13.3 0-24-10.7-24-24v-32c0-13.3 10.7-24 24-24h287.4L190.9 101.2c-9.8-9.3-10-24.8-.4-34.3z" />
    </symbol>
    <symbol id="FaArrowsAlt" viewBox="0 0 24 24">
      <circle cx="12" cy="12" r="10" fill="currentColor" opacity="0.1" />
      <circle cx="12" cy="12" r="10" fill="none" stroke="currentColor" stroke-width="1" />
      <text x="12" y="16" text-anchor="middle" font-family="system-ui, sans-serif" font-size="8" font-weight="bold" fill="currentColor">A</text>
    </symbol>
    <symbol id="FaBars" viewBox="0 0 448 512">
      <path d="M16 132h416c8.837 0 16-7.163 16-16V76c0-8.837-7.163-16-16-16H16C7.163 60 0 67.163 0 76v40c0 8.837 7.163 16 16 16zm0 160h416c8.837 0 16-7.163 16-16v-40c0-8.837-7.163-16-16-16H16c-8.837 0-16 7.163-16 16v40c0 8.837 7.163 16 16 16zm0 160h416c8.837 0 16-7.163 16-16v-40c0-8.837-7.163-16-16-16H16c-8.837 0-16 7.163-16 16v40c0 8.837 7.163 16 16 16z" />
    </symbol>
    <symbol id="FaBell" viewBox="0 0 448 512">
      <path d="M224 512c35.32 0 63.97-28.65 63.97-64H160.03c0 35.35 28.65 64 63.97 64zm215.39-149.71c-19.32-20.76-55.47-51.99-55.47-154.29 0-77.7-54.48-139.9-127.94-155.16V32c0-17.67-14.32-32-31.98-32s-31.98 14.33-31.98 32v20.84C118.56 68.1 64.08 130.3 64.08 208c0 102.3-36.15 133.53-55.47 154.29-6 6.45-8.66 14.16-8.61 21.71.11 16.4 12.98 32 32.1 32h383.8c19.12 0 32-15.6 32.1-32 .05-7.55-2.61-15.27-8.61-21.71z" />
    </symbol>
    <symbol id="FaBoxOpen" viewBox="0 0 24 24">
      <circle cx="12" cy="12" r="10" fill="currentColor" opacity="0.1" />
      <circle cx="12" cy="12" r="10" fill="none" stroke="currentColor" stroke-width="1" />
      <text x="12" y="16" text-anchor="middle" font-family="system-ui, sans-serif" font-size="8" font-weight="bold" fill="currentColor">B</text>
    </symbol>
    <symbol id="FaBug" viewBox="0 0 24 24">
      <circle cx="12" cy="12" r="10" fill="currentColor" opacity="0.1" />
      <circle cx="12" cy="12" r="10" fill="none" stroke="currentColor" stroke-width="1" />
      <text x="12" y="16" text-anchor="middle" font-family="system-ui, sans-serif" font-size="8" font-weight="bold" fill="currentColor">B</text>
    </symbol>
    <symbol id="FaBuilding" viewBox="0 0 24 24">
      <circle cx="12" cy="12" r="10" fill="currentColor" opacity="0.1" />
      <circle cx="12" cy="12" r="10" fill="none" stroke="currentColor" stroke-width="1" />
      <text x="12" y="16" text-anchor="middle" font-family="system-ui, sans-serif" font-size="8" font-weight="bold" fill="currentColor">B</text>
    </symbol>
    <symbol id="FaBusinessTime" viewBox="0 0 24 24">
      <circle cx="12" cy="12" r="10" fill="currentColor" opacity="0.1" />
      <circle cx="12" cy="12" r="10" fill="none" stroke="currentColor" stroke-width="1" />
      <text x="12" y="16" text-anchor="middle" font-family="system-ui, sans-serif" font-size="8" font-weight="bold" fill="currentColor">B</text>
    </symbol>
    <symbol id="FaCalendarAlt" viewBox="0 0 24 24">
      <circle cx="12" cy="12" r="10" fill="currentColor" opacity="0.1" />
      <circle cx="12" cy="12" r="10" fill="none" stroke="currentColor" stroke-width="1" />
      <text x="12" y="16" text-anchor="middle" font-family="system-ui, sans-serif" font-size="8" font-weight="bold" fill="currentColor">C</text>
    </symbol>
    <symbol id="FaCamera" viewBox="0 0 512 512">
      <path d="M512 144v288c0 26.5-21.5 48-48 48H48c-26.5 0-48-21.5-48-48V144c0-26.5 21.5-48 48-48h88l12.3-32.9c7-18.7 24.9-31.1 44.9-31.1h125.5c20 0 37.9 12.4 44.9 31.1L376 96h88c26.5 0 48 21.5 48 48zM376 288c0-66.2-53.8-120-120-120s-120 53.8-120 120 53.8 120 120 120 120-53.8 120-120zm-32 0c0 48.5-39.5 88-88 88s-88-39.5-88-88 39.5-88 88-88 88 39.5 88 88z" />
    </symbol>
    <symbol id="FaCaretDown" viewBox="0 0 24 24">
      <circle cx="12" cy="12" r="10" fill="currentColor" opacity="0.1" />
      <circle cx="12" cy="12" r="10" fill="none" stroke="currentColor" stroke-width="1" />
      <text x="12" y="16" text-anchor="middle" font-family="system-ui, sans-serif" font-size="8" font-weight="bold" fill="currentColor">C</text>
    </symbol>
    <symbol id="FaCaretUp" viewBox="0 0 24 24">
      <circle cx="12" cy="12" r="10" fill="currentColor" opacity="0.1" />
      <circle cx="12" cy="12" r="10" fill="none" stroke="currentColor" stroke-width="1" />
      <text x="12" y="16" text-anchor="middle" font-family="system-ui, sans-serif" font-size="8" font-weight="bold" fill="currentColor">C</text>
    </symbol>
    <symbol id="FaChartLine" viewBox="0 0 24 24">
      <circle cx="12" cy="12" r="10" fill="currentColor" opacity="0.1" />
      <circle cx="12" cy="12" r="10" fill="none" stroke="currentColor" stroke-width="1" />
      <text x="12" y="16" text-anchor="middle" font-family="system-ui, sans-serif" font-size="8" font-weight="bold" fill="currentColor">C</text>
    </symbol>
    <symbol id="FaCheck" viewBox="0 0 512 512">
      <path d="M173.898 439.404l-166.4-166.4c-9.997-9.997-9.997-26.206 0-36.204l36.203-36.204c9.997-9.998 26.207-9.998 36.204 0L192 312.69 432.095 72.596c9.997-9.997 26.207-9.997 36.204 0l36.203 36.204c9.997 9.997 9.997 26.206 0 36.204l-294.4 294.401c-9.998 9.997-26.207 9.997-36.204-.001z" />
    </symbol>
    <symbol id="FaCheckCircle" viewBox="0 0 24 24">
      <circle cx="12" cy="12" r="10" fill="currentColor" opacity="0.1" />
      <circle cx="12" cy="12" r="10" fill="none" stroke="currentColor" stroke-width="1" />
      <text x="12" y="16" text-anchor="middle" font-family="system-ui, sans-serif" font-size="8" font-weight="bold" fill="currentColor">C</text>
    </symbol>
    <symbol id="FaChevronDown" viewBox="0 0 448 512">
      <path d="M207.029 381.476L12.686 187.132c-9.373-9.373-9.373-24.569 0-33.941l22.667-22.667c9.357-9.357 24.522-9.375 33.901-.04L224 284.505l154.745-154.021c9.379-9.335 24.544-9.317 33.901.04l22.667 22.667c9.373 9.373 9.373 24.569 0 33.941L240.971 381.476c-9.373 9.372-24.569 9.372-33.942 0z" />
    </symbol>
    <symbol id="FaChevronLeft" viewBox="0 0 320 512">
      <path d="M9.4 233.4c-12.5 12.5-12.5 32.8 0 45.3l192 192c12.5 12.5 32.8 12.5 45.3 0s12.5-32.8 0-45.3L77.3 256 246.6 86.6c12.5-12.5 12.5-32.8 0-45.3s-32.8-12.5-45.3 0l-192 192z" />
    </symbol>
    <symbol id="FaChevronRight" viewBox="0 0 320 512">
      <path d="M310.6 233.4c12.5 12.5 12.5 32.8 0 45.3l-192 192c-12.5 12.5-32.8 12.5-45.3 0s-12.5-32.8 0-45.3L242.7 256 73.4 86.6c-12.5-12.5-12.5-32.8 0-45.3s32.8-12.5 45.3 0l192 192z" />
    </symbol>
    <symbol id="FaChevronUp" viewBox="0 0 448 512">
      <path d="M240.971 130.524l194.343 194.343c9.373 9.373 9.373 24.569 0 33.941l-22.667 22.667c-9.357 9.357-24.522 9.375-33.901.04L224 227.495 69.255 381.516c-9.379 9.335-24.544 9.317-33.901-.04l-22.667-22.667c-9.373-9.373-9.373-24.569 0-33.941L207.03 130.525c9.372-9.373 24.568-9.373 33.941-.001z" />
    </symbol>
    <symbol id="FaCircle" viewBox="0 0 24 24">
      <circle cx="12" cy="12" r="10" fill="currentColor" opacity="0.1" />
      <circle cx="12" cy="12" r="10" fill="none" stroke="currentColor" stroke-width="1" />
      <text x="12" y="16" text-anchor="middle" font-family="system-ui, sans-serif" font-size="8" font-weight="bold" fill="currentColor">C</text>
    </symbol>
    <symbol id="FaClock" viewBox="0 0 512 512">
      <path d="M256 8C119 8 8 119 8 256s111 248 248 248 248-111 248-248S393 8 256 8zm57.1 350.1L224.9 294c-3.1-2.3-4.9-5.9-4.9-9.7V116c0-6.6 5.4-12 12-12h48c6.6 0 12 5.4 12 12v137.7l63.5 46.2c5.4 3.9 6.5 11.4 2.6 16.8l-28.2 38.8c-3.9 5.3-11.4 6.5-16.8 2.6z" />
    </symbol>
    <symbol id="FaCode" viewBox="0 0 640 512">
      <path d="M392.8 1.2c-17-4.9-34.7 5-39.6 22l-128 448c-4.9 17 5 34.7 22 39.6s34.7-5 39.6-22l128-448c4.9-17-5-34.7-22-39.6zm80.6 120.1c-12.5 12.5-12.5 32.8 0 45.3L562.7 256l-89.4 89.4c-12.5 12.5-12.5 32.8 0 45.3s32.8 12.5 45.3 0l112-112c12.5-12.5 12.5-32.8 0-45.3l-112-112c-12.5-12.5-32.8-12.5-45.3 0zm-306.7 0c-12.5-12.5-32.8-12.5-45.3 0l-112 112c-12.5 12.5-12.5 32.8 0 45.3l112 112c12.5 12.5 32.8 12.5 45.3 0s12.5-32.8 0-45.3L77.3 256l89.4-89.4c12.5-12.5 12.5-32.8 0-45.3z" />
    </symbol>
    <symbol id="FaCodeBranch" viewBox="0 0 24 24">
      <circle cx="12" cy="12" r="10" fill="currentColor" opacity="0.1" />
      <circle cx="12" cy="12" r="10" fill="none" stroke="currentColor" stroke-width="1" />
      <text x="12" y="16" text-anchor="middle" font-family="system-ui, sans-serif" font-size="8" font-weight="bold" fill="currentColor">C</text>
    </symbol>
    <symbol id="FaCoffee" viewBox="0 0 24 24">
      <circle cx="12" cy="12" r="10" fill="currentColor" opacity="0.1" />
      <circle cx="12" cy="12" r="10" fill="none" stroke="currentColor" stroke-width="1" />
      <text x="12" y="16" text-anchor="middle" font-family="system-ui, sans-serif" font-size="8" font-weight="bold" fill="currentColor">C</text>
    </symbol>
    <symbol id="FaCog" viewBox="0 0 512 512">
      <path d="M487.4 315.7l-42.6-24.6c4.3-23.2 4.3-47.6 0-70.8l42.6-24.6c4.9-2.8 7.1-8.6 5.5-14-11.1-35.6-30-67.8-54.7-94.6-3.8-4.1-10-5.1-14.8-2.3L380.8 110c-17.9-15.4-38.5-27.3-60.8-35.1V25.8c0-5.6-3.9-10.5-9.4-11.7-36.7-8.2-74.3-7.8-109.2 0-5.5 1.2-9.4 6.1-9.4 11.7V75c-22.2 7.9-42.8 19.8-60.8 35.1L88.7 85.5c-4.9-2.8-11-1.9-14.8 2.3-24.7 26.7-43.6 58.9-54.7 94.6-1.7 5.4.6 11.2 5.5 14L67.3 221c-4.3 23.2-4.3 47.6 0 70.8L24.7 316.4c-4.9 2.8-7.1 8.6-5.5 14 11.1 35.6 30 67.8 54.7 94.6 3.8 4.1 10 5.1 14.8 2.3l42.6-24.6c17.9 15.4 38.5 27.3 60.8 35.1v49.2c0 5.6 3.9 10.5 9.4 11.7 36.7 8.2 74.3 7.8 109.2 0 5.5-1.2 9.4-6.1 9.4-11.7v-49.2c22.2-7.9 42.8-19.8 60.8-35.1l42.6 24.6c4.9 2.8 11 1.9 14.8-2.3 24.7-26.7 43.6-58.9 54.7-94.6 1.5-5.5-.7-11.3-5.6-14.1zM256 336c-44.1 0-80-35.9-80-80s35.9-80 80-80 80 35.9 80 80-35.9 80-80 80z" />
    </symbol>
    <symbol id="FaCommentAlt" viewBox="0 0 512 512">
      <path d="M448 0H64C28.7 0 0 28.7 0 64v288c0 35.3 28.7 64 64 64h96v84c0 9.8 11.2 15.5 19.1 9.7L304 416h144c35.3 0 64-28.7 64-64V64c0-35.3-28.7-64-64-64z" />
    </symbol>
    <symbol id="FaCommentDots" viewBox="0 0 512 512">
      <path d="M448 0H64C28.7 0 0 28.7 0 64v288c0 35.3 28.7 64 64 64h96v84c0 9.8 11.2 15.5 19.1 9.7L304 416h144c35.3 0 64-28.7 64-64V64c0-35.3-28.7-64-64-64zM128 240c0-17.7 14.3-32 32-32s32 14.3 32 32-14.3 32-32 32-32-14.3-32-32zm128 0c0-17.7 14.3-32 32-32s32 14.3 32 32-14.3 32-32 32-32-14.3-32-32zm128 0c0-17.7 14.3-32 32-32s32 14.3 32 32-14.3 32-32 32-32-14.3-32-32z" />
    </symbol>
    <symbol id="FaComments" viewBox="0 0 24 24">
      <circle cx="12" cy="12" r="10" fill="currentColor" opacity="0.1" />
      <circle cx="12" cy="12" r="10" fill="none" stroke="currentColor" stroke-width="1" />
      <text x="12" y="16" text-anchor="middle" font-family="system-ui, sans-serif" font-size="8" font-weight="bold" fill="currentColor">C</text>
    </symbol>
    <symbol id="FaCopy" viewBox="0 0 24 24">
      <circle cx="12" cy="12" r="10" fill="currentColor" opacity="0.1" />
      <circle cx="12" cy="12" r="10" fill="none" stroke="currentColor" stroke-width="1" />
      <text x="12" y="16" text-anchor="middle" font-family="system-ui, sans-serif" font-size="8" font-weight="bold" fill="currentColor">C</text>
    </symbol>
    <symbol id="FaCreditCard" viewBox="0 0 24 24">
      <circle cx="12" cy="12" r="10" fill="currentColor" opacity="0.1" />
      <circle cx="12" cy="12" r="10" fill="none" stroke="currentColor" stroke-width="1" />
      <text x="12" y="16" text-anchor="middle" font-family="system-ui, sans-serif" font-size="8" font-weight="bold" fill="currentColor">C</text>
    </symbol>
    <symbol id="FaDatabase" viewBox="0 0 24 24">
      <circle cx="12" cy="12" r="10" fill="currentColor" opacity="0.1" />
      <circle cx="12" cy="12" r="10" fill="none" stroke="currentColor" stroke-width="1" />
      <text x="12" y="16" text-anchor="middle" font-family="system-ui, sans-serif" font-size="8" font-weight="bold" fill="currentColor">D</text>
    </symbol>
    <symbol id="FaEdit" viewBox="0 0 576 512">
      <path d="M402.6 83.2l90.2 90.2c3.8 3.8 3.8 10 0 13.8L274.4 405.6l-92.8 10.3c-12.4 1.4-22.9-9.1-21.5-21.5l10.3-92.8L388.8 83.2c3.8-3.8 10-3.8 13.8 0zm162-22.9l-48.8-48.8c-15.2-15.2-39.9-15.2-55.2 0l-35.4 35.4c-3.8 3.8-3.8 10 0 13.8l90.2 90.2c3.8 3.8 10 3.8 13.8 0l35.4-35.4c15.2-15.3 15.2-40 0-55.2zM384 346.2V448H64V128h229.8c3.2 0 6.2-1.3 8.5-3.5l40-40c7.6-7.6 2.2-20.5-8.5-20.5H48C21.5 64 0 85.5 0 112v352c0 26.5 21.5 48 48 48h352c26.5 0 48-21.5 48-48V306.2c0-10.7-12.9-16-20.5-8.5l-40 40c-2.2 2.3-3.5 5.3-3.5 8.5z" />
    </symbol>
    <symbol id="FaEnvelope" viewBox="0 0 512 512">
      <path d="M502.3 190.8c3.9-3.1 9.7-.2 9.7 4.7V400c0 26.5-21.5 48-48 48H48c-26.5 0-48-21.5-48-48V195.6c0-5 5.7-7.8 9.7-4.7 22.4 17.4 52.1 39.5 154.1 113.6 21.1 15.4 56.7 47.8 92.2 47.6 35.7.3 72-32.8 92.3-47.6 102-74.1 131.6-96.3 154-113.7zM256 320c23.2.4 56.6-29.2 73.4-41.4 132.7-96.3 142.8-104.7 173.4-128.7 5.8-4.5 9.2-11.5 9.2-18.9v-19c0-26.5-21.5-48-48-48H48C21.5 64 0 85.5 0 112v19c0 7.4 3.4 14.3 9.2 18.9 30.6 23.9 40.7 32.4 173.4 128.7 16.8 12.2 50.2 41.8 73.4 41.4z" />
    </symbol>
    <symbol id="FaExclamationTriangle" viewBox="0 0 24 24">
      <circle cx="12" cy="12" r="10" fill="currentColor" opacity="0.1" />
      <circle cx="12" cy="12" r="10" fill="none" stroke="currentColor" stroke-width="1" />
      <text x="12" y="16" text-anchor="middle" font-family="system-ui, sans-serif" font-size="8" font-weight="bold" fill="currentColor">E</text>
    </symbol>
    <symbol id="FaEye" viewBox="0 0 576 512">
      <path d="M572.52 241.4C518.29 135.59 410.93 64 288 64S57.68 135.64 3.48 241.41a32.35 32.35 0 0 0 0 29.19C57.71 376.41 165.07 448 288 448s230.32-71.64 284.52-177.41a32.35 32.35 0 0 0 0-29.19zM288 400a144 144 0 1 1 144-144 143.93 143.93 0 0 1-144 144zm0-240a95.31 95.31 0 0 0-25.31 3.79 47.85 47.85 0 0 1-66.9 66.9A95.78 95.78 0 1 0 288 160z" />
    </symbol>
    <symbol id="FaEyeSlash" viewBox="0 0 640 512">
      <path d="M320 400c-75.85 0-137.25-58.71-142.9-133.11L72.2 185.82c-13.79 17.3-26.48 35.59-36.72 55.59a32.35 32.35 0 0 0 0 29.19C89.71 376.41 197.07 448 320 448c26.91 0 52.87-4 77.89-10.46L346 397.39a144.13 144.13 0 0 1-26 2.61zm313.82 58.1l-110.55-85.44a331.25 331.25 0 0 0 81.25-102.07 32.35 32.35 0 0 0 0-29.19C550.29 135.59 442.93 64 320 64a308.15 308.15 0 0 0-147.32 37.7L45.46 3.37A16 16 0 0 0 23 6.18L3.37 31.45A16 16 0 0 0 6.18 53.9l588.36 454.73a16 16 0 0 0 22.46-2.81l19.64-25.27a16 16 0 0 0-2.82-22.45zm-183.72-142l-39.3-30.38A94.75 94.75 0 0 0 416 256a94.76 94.76 0 0 0-121.31-92.21A47.65 47.65 0 0 1 304 192a46.64 46.64 0 0 1-1.54 10l-73.61-56.89A142.31 142.31 0 0 1 320 112a143.92 143.92 0 0 1 144 144c0 21.63-5.29 41.79-13.9 60.11z" />
    </symbol>
    <symbol id="FaFacebook" viewBox="0 0 512 512">
      <path d="M504 256C504 119 393 8 256 8S8 119 8 256c0 123.78 90.69 226.38 209.25 245V327.69h-63V256h63v-54.64c0-62.15 37-96.48 93.67-96.48 27.14 0 55.52 4.84 55.52 4.84v61h-31.28c-30.8 0-40.41 19.12-40.41 38.73V256h68.78l-11 71.69h-57.78V501C413.31 482.38 504 379.78 504 256z" />
    </symbol>
    <symbol id="FaFileAlt" viewBox="0 0 24 24">
      <circle cx="12" cy="12" r="10" fill="currentColor" opacity="0.1" />
      <circle cx="12" cy="12" r="10" fill="none" stroke="currentColor" stroke-width="1" />
      <text x="12" y="16" text-anchor="middle" font-family="system-ui, sans-serif" font-size="8" font-weight="bold" fill="currentColor">F</text>
    </symbol>
    <symbol id="FaFilter" viewBox="0 0 512 512">
      <path d="M487.976 0H24.028C2.71 0-8.047 25.866 7.058 40.971L192 225.941V432c0 7.831 3.821 15.17 10.237 19.662l80 55.98C298.02 518.69 320 507.493 320 487.98V225.941l184.947-184.97C520.021 25.896 509.338 0 487.976 0z" />
    </symbol>
    <symbol id="FaFrown" viewBox="0 0 24 24">
      <circle cx="12" cy="12" r="10" fill="currentColor" opacity="0.1" />
      <circle cx="12" cy="12" r="10" fill="none" stroke="currentColor" stroke-width="1" />
      <text x="12" y="16" text-anchor="middle" font-family="system-ui, sans-serif" font-size="8" font-weight="bold" fill="currentColor">F</text>
    </symbol>
    <symbol id="FaGlobe" viewBox="0 0 496 512">
      <path d="M248 8C111.03 8 0 119.03 0 256s111.03 248 248 248 248-111.03 248-248S384.97 8 248 8zm82.29 357.6c-3.9 3.88-7.99 7.95-11.31 11.28-2.99 3-5.1 6.7-6.17 10.71-1.51 5.66-2.73 11.38-4.77 16.87l-17.39 46.85c-13.76 3-28.28 4.69-43.65 4.69v-27.38c1.69-12.62-7.64-36.26-22.63-51.25-6-6-9.37-14.14-9.37-22.63v-32.01c0-11.64-6.27-22.34-16.46-27.97-14.37-7.95-34.81-19.06-48.81-26.11-11.48-5.78-22.1-13.14-31.65-21.75l-.8-.72a114.792 114.792 0 01-18.06-20.74c-9.38-13.77-24.66-36.42-34.59-51.14 20.47-45.5 57.36-82.04 103.2-101.89l24.01 12.01C203.48 89.74 216 82.01 216 70.11v-11.3c7.99-1.29 16.12-2.11 24.39-2.42l28.3 28.3c6.25 6.25 6.25 16.38 0 22.63L264 112l-10.34 10.34c-3.12 3.12-3.12 8.19 0 11.31l4.69 4.69c3.12 3.12 3.12 8.19 0 11.31l-8 8a8.008 8.008 0 01-5.66 2.34h-8.99c-2.08 0-4.08.81-5.58 2.27l-9.92 9.65a8.008 8.008 0 00-1.58 9.31l15.59 31.19c2.66 5.32-1.21 11.58-7.15 11.58h-5.64c-1.93 0-3.79-.7-5.24-1.96l-9.28-8.06a16.017 16.017 0 00-15.55-3.1l-31.17 10.39a11.95 11.95 0 00-8.17 11.34c0 4.53 2.56 8.66 6.61 10.69l11.08 5.54c9.41 4.71 19.79 7.16 30.31 7.16s22.59 27.29 32 32h66.75c8.49 0 16.62 3.37 22.63 9.37l13.69 13.69a30.503 30.503 0 018.93 21.57 46.536 46.536 0 01-13.72 32.98zM417 274.25c-5.79-1.45-10.84-5-14.15-9.97l-17.98-26.97a23.97 23.97 0 010-26.62l19.59-29.38c2.32-3.47 5.5-6.29 9.24-8.15l12.98-6.49C440.47 193.59 448 223.87 448 256c0 8.67-.74 17.16-1.82 25.54L417 274.25z" />
    </symbol>
    <symbol id="FaGrinHearts" viewBox="0 0 24 24">
      <circle cx="12" cy="12" r="10" fill="currentColor" opacity="0.1" />
      <circle cx="12" cy="12" r="10" fill="none" stroke="currentColor" stroke-width="1" />
      <text x="12" y="16" text-anchor="middle" font-family="system-ui, sans-serif" font-size="8" font-weight="bold" fill="currentColor">G</text>
    </symbol>
    <symbol id="FaGoogle" viewBox="0 0 488 512">
      <path d="M488 261.8C488 403.3 391.1 504 248 504 110.8 504 0 393.2 0 256S110.8 8 248 8c66.8 0 123 24.5 166.3 64.9l-67.5 64.9C258.5 52.6 94.3 116.6 94.3 256c0 86.5 69.1 156.6 153.7 156.6 98.2 0 135-70.4 140.8-106.9H248v-85.3h240z" />
    </symbol>
    <symbol id="FaHandsHelping" viewBox="0 0 640 512">
      <path d="M488 192H336v56c0 39.7-32.3 72-72 72s-72-32.3-72-72V126.4l-64.9 39C107.8 177.1 96 197.9 96 220.6V464c0 26.5 21.5 48 48 48h416c26.5 0 48-21.5 48-48V240c0-26.5-21.5-48-48-48zM160 72c0-39.8 32.2-72 72-72s72 32.2 72 72c0 39.8-32.2 72-72 72s-72-32.2-72-72zm624 208c0 26.5-21.5 48-48 48h-416c-26.5 0-48-21.5-48-48v-56l64-40v96c0 66.2 53.8 120 120 120s120-53.8 120-120v-96l64 40v56zm-336-80h224v40H448v-40z" />
    </symbol>
    <symbol id="FaHeart" viewBox="0 0 512 512">
      <path d="M462.3 62.6C407.5 15.9 326 24.3 275.7 76.2L256 96.5l-19.7-20.3C186.1 24.3 104.5 15.9 49.7 62.6c-62.8 53.6-66.1 149.8-9.9 207.9l193.5 199.8c12.5 12.9 32.8 12.9 45.3 0l193.5-199.8c56.3-58.1 53-154.3-9.8-207.9z" />
    </symbol>
    <symbol id="FaHome" viewBox="0 0 576 512">
      <path d="M280.37 148.26L96 300.11V464a16 16 0 0 0 16 16l112.06-.29a16 16 0 0 0 15.92-16V368a16 16 0 0 1 16-16h64a16 16 0 0 1 16 16v95.64a16 16 0 0 0 16 16.05L464 480a16 16 0 0 0 16-16V300L295.67 148.26a12.19 12.19 0 0 0-15.3 0zM571.6 251.47L488 182.56V44.05a12 12 0 0 0-12-12h-56a12 12 0 0 0-12 12v72.61L318.47 43a48 48 0 0 0-61 0L4.34 251.47a12 12 0 0 0-1.6 16.9l25.5 31A12 12 0 0 0 45.15 301l235.22-193.74a12.19 12.19 0 0 1 15.3 0L530.9 301a12 12 0 0 0 16.9-1.6l25.5-31a12 12 0 0 0-1.7-16.93z" />
    </symbol>
    <symbol id="FaImage" viewBox="0 0 512 512">
      <path d="M464 448H48c-26.51 0-48-21.49-48-48V112c0-26.51 21.49-48 48-48h416c26.51 0 48 21.49 48 48v288c0 26.51-21.49 48-48 48zM112 120c-30.928 0-56 25.072-56 56s25.072 56 56 56 56-25.072 56-56-25.072-56-56-56zM64 384h384V272l-87.515-87.515c-4.686-4.686-12.284-4.686-16.971 0L208 320l-55.515-55.515c-4.686-4.686-12.284-4.686-16.971 0L64 336v48z" />
    </symbol>
    <symbol id="FaInfoCircle" viewBox="0 0 512 512">
      <path d="M256 8C119.043 8 8 119.083 8 256c0 136.997 111.043 248 248 248s248-111.003 248-248C504 119.083 392.957 8 256 8zm0 110c23.196 0 42 18.804 42 42s-18.804 42-42 42-42-18.804-42-42 18.804-42 42-42zm56 254c0 6.627-5.373 12-12 12h-88c-6.627 0-12-5.373-12-12v-24c0-6.627 5.373-12 12-12h12v-64h-12c-6.627 0-12-5.373-12-12v-24c0-6.627 5.373-12 12-12h64c6.627 0 12 5.373 12 12v100h12c6.627 0 12 5.373 12 12v24z" />
    </symbol>
    <symbol id="FaKey" viewBox="0 0 24 24">
      <circle cx="12" cy="12" r="10" fill="currentColor" opacity="0.1" />
      <circle cx="12" cy="12" r="10" fill="none" stroke="currentColor" stroke-width="1" />
      <text x="12" y="16" text-anchor="middle" font-family="system-ui, sans-serif" font-size="8" font-weight="bold" fill="currentColor">K</text>
    </symbol>
    <symbol id="FaLeaf" viewBox="0 0 24 24">
      <circle cx="12" cy="12" r="10" fill="currentColor" opacity="0.1" />
      <circle cx="12" cy="12" r="10" fill="none" stroke="currentColor" stroke-width="1" />
      <text x="12" y="16" text-anchor="middle" font-family="system-ui, sans-serif" font-size="8" font-weight="bold" fill="currentColor">L</text>
    </symbol>
    <symbol id="FaLightbulb" viewBox="0 0 384 512">
      <path d="M112.1 454.3c0 6.297 1.816 12.44 5.284 17.69l17.14 25.69c5.25 7.875 17.17 14.28 26.64 14.28h61.67c9.438 0 21.36-6.401 26.61-14.28l17.14-25.69c3.500-5.25 5.250-11.39 5.250-17.69 0-10.16-5.875-19.12-15.05-23.28l-7.148-3.35c-7.312-3.438-15.25-5.447-23.27-5.447h-63.99c-8.018 0-15.95 2.009-23.27 5.447l-7.148 3.35C118.0 435.2 112.1 444.1 112.1 454.3zM191.4 .0132C89.44 .3257 0 82.97 0 176.0c0 44.38 16.44 84.84 43.56 115.8 16.53 18.84 42.34 58.23 52.22 91.45.0313 .25 .0938 .5312 .125 .7812h192.2c.0313-.25 .0938-.5312 .125-.7812 9.875-33.22 35.69-72.61 52.22-91.45C367.6 260.8 384 220.4 384 176.0 384 78.61 297.9-0.2837 191.4 .0132zM192 96.01c-44.13 0-80 35.89-80 79.99s35.88 80 80 80s80-35.89 80-80S236.1 96.01 192 96.01z" />
    </symbol>
    <symbol id="FaLink" viewBox="0 0 512 512">
      <path d="M326.612 185.391c59.747 59.809 58.927 155.698.36 214.59-.11.12-.24.25-.36.37l-67.2 67.2c-59.27 59.27-155.699 59.262-214.96 0-59.27-59.26-59.27-155.7 0-214.96l37.106-37.106c9.84-9.84 26.786-3.3 27.294 10.606.648 17.722 3.826 35.527 9.69 52.721 1.986 5.822.567 12.262-3.783 16.612l-13.087 13.087c-28.026 28.026-28.905 73.66-1.155 101.96 28.024 28.579 74.086 28.749 102.325.51l67.2-67.19c28.191-28.191 28.073-73.757 0-101.83-3.701-3.694-7.429-6.564-10.341-8.569a16.037 16.037 0 01-6.947-12.606c-.396-10.567 3.348-21.456 11.698-29.806l21.054-21.055c5.521-5.521 14.182-6.199 20.584-1.731a152.482 152.482 0 0120.522 17.197zM467.547 44.449c-59.261-59.262-155.69-59.27-214.96 0l-67.2 67.2c-.12.12-.25.25-.36.37-58.566 58.892-59.387 154.781.36 214.59a152.454 152.454 0 0020.521 17.196c6.402 4.468 15.064 3.789 20.584-1.731l21.054-21.055c8.35-8.35 12.094-19.239 11.698-29.806a16.037 16.037 0 00-6.947-12.606c-2.912-2.005-6.64-4.875-10.341-8.569-28.073-28.073-28.191-73.639 0-101.83l67.2-67.19c28.239-28.239 74.3-28.069 102.325.51 27.75 28.3 26.872 73.934-1.155 101.96l-13.087 13.087c-4.35 4.35-5.769 10.79-3.783 16.612 5.864 17.194 9.042 34.999 9.69 52.721.509 13.906 17.454 20.446 27.294 10.606l37.106-37.106c59.271-59.259 59.271-155.699.001-214.959z" />
    </symbol>
    <symbol id="FaLock" viewBox="0 0 24 24">
      <circle cx="12" cy="12" r="10" fill="currentColor" opacity="0.1" />
      <circle cx="12" cy="12" r="10" fill="none" stroke="currentColor" stroke-width="1" />
      <text x="12" y="16" text-anchor="middle" font-family="system-ui, sans-serif" font-size="8" font-weight="bold" fill="currentColor">L</text>
    </symbol>
    <symbol id="FaMapMarker" viewBox="0 0 384 512">
      <path d="M172.268 501.67C26.97 291.031 0 269.413 0 192 0 85.961 85.961 0 192 0s192 85.961 192 192c0 77.413-26.97 99.031-172.268 309.67-9.535 13.774-29.93 13.773-39.464 0zM192 272c44.183 0 80-35.817 80-80s-35.817-80-80-80-80 35.817-80 80 35.817 80 80 80z" />
    </symbol>
    <symbol id="FaMeh" viewBox="0 0 24 24">
      <circle cx="12" cy="12" r="10" fill="currentColor" opacity="0.1" />
      <circle cx="12" cy="12" r="10" fill="none" stroke="currentColor" stroke-width="1" />
      <text x="12" y="16" text-anchor="middle" font-family="system-ui, sans-serif" font-size="8" font-weight="bold" fill="currentColor">M</text>
    </symbol>
    <symbol id="FaMinus" viewBox="0 0 24 24">
      <circle cx="12" cy="12" r="10" fill="currentColor" opacity="0.1" />
      <circle cx="12" cy="12" r="10" fill="none" stroke="currentColor" stroke-width="1" />
      <text x="12" y="16" text-anchor="middle" font-family="system-ui, sans-serif" font-size="8" font-weight="bold" fill="currentColor">M</text>
    </symbol>
    <symbol id="FaMobile" viewBox="0 0 384 512">
      <path d="M80 0C44.7 0 16 28.7 16 64V448c0 35.3 28.7 64 64 64H304c35.3 0 64-28.7 64-64V64c0-35.3-28.7-64-64-64H80zM96 64H288c8.8 0 16 7.2 16 16V432c0 8.8-7.2 16-16 16H96c-8.8 0-16-7.2-16-16V80c0-8.8 7.2-16 16-16z" />
    </symbol>
    <symbol id="FaPalette" viewBox="0 0 512 512">
      <path d="M204.3 5C104.9 24.4 24.8 104.3 5.2 203.4c-37 187 131.7 326.4 258.8 306.7 41.2-6.4 61.4-54.6 42.5-91.7-23.1-45.4 9.9-98.4 60.9-98.4h79.7c35.8 0 64.8-29.6 64.9-65.3C511.5 97.1 368.1-26.9 204.3 5zM96 320c-17.7 0-32-14.3-32-32s14.3-32 32-32 32 14.3 32 32-14.3 32-32 32zm32-128c-17.7 0-32-14.3-32-32s14.3-32 32-32 32 14.3 32 32-14.3 32-32 32zm128-64c-17.7 0-32-14.3-32-32s14.3-32 32-32 32 14.3 32 32-14.3 32-32 32zm128 64c-17.7 0-32-14.3-32-32s14.3-32 32-32 32 14.3 32 32-14.3 32-32 32z" />
    </symbol>
    <symbol id="FaPeace" viewBox="0 0 24 24">
      <circle cx="12" cy="12" r="10" fill="currentColor" opacity="0.1" />
      <circle cx="12" cy="12" r="10" fill="none" stroke="currentColor" stroke-width="1" />
      <text x="12" y="16" text-anchor="middle" font-family="system-ui, sans-serif" font-size="8" font-weight="bold" fill="currentColor">P</text>
    </symbol>
    <symbol id="FaPhone" viewBox="0 0 512 512">
      <path d="M493.4 24.6l-104-24c-11.3-2.6-22.9 3.3-27.5 13.9l-48 112c-4.2 9.8-1.4 21.3 6.9 28l60.6 49.6c-36 76.7-98.9 140.5-177.2 177.2l-49.6-60.6c-6.8-8.3-18.2-11.1-28-6.9l-112 48C7.7 366.5 1.8 378.1 4.4 389.4l24 104C31.1 504.2 39.9 512 50.6 512 306.7 512 512 306.8 512 50.6c0-10.7-7.8-19.5-18.6-22.2z" />
    </symbol>
    <symbol id="FaPlus" viewBox="0 0 448 512">
      <path d="M416 208H272V64c0-17.67-14.33-32-32-32h-32c-17.67 0-32 14.33-32 32v144H32c-17.67 0-32 14.33-32 32v32c0 17.67 14.33 32 32 32h144v144c0 17.67 14.33 32 32 32h32c17.67 0 32-14.33 32-32V304h144c17.67 0 32-14.33 32-32v-32c0-17.67-14.33-32-32-32z" />
    </symbol>
    <symbol id="FaPlusCircle" viewBox="0 0 24 24">
      <circle cx="12" cy="12" r="10" fill="currentColor" opacity="0.1" />
      <circle cx="12" cy="12" r="10" fill="none" stroke="currentColor" stroke-width="1" />
      <text x="12" y="16" text-anchor="middle" font-family="system-ui, sans-serif" font-size="8" font-weight="bold" fill="currentColor">P</text>
    </symbol>
    <symbol id="FaRedo" viewBox="0 0 24 24">
      <circle cx="12" cy="12" r="10" fill="currentColor" opacity="0.1" />
      <circle cx="12" cy="12" r="10" fill="none" stroke="currentColor" stroke-width="1" />
      <text x="12" y="16" text-anchor="middle" font-family="system-ui, sans-serif" font-size="8" font-weight="bold" fill="currentColor">R</text>
    </symbol>
    <symbol id="FaRegStar" viewBox="0 0 576 512">
      <path d="M528.1 171.5L382 150.2 316.7 17.8c-11.7-23.6-45.6-23.9-57.4 0L194 150.2 47.9 171.5c-26.2 3.8-36.7 36.1-17.7 54.6l105.7 103-25 145.5c-4.5 26.3 23.2 46 46.4 33.7L288 439.6l130.7 68.7c23.2 12.2 50.9-7.4 46.4-33.7l-25-145.5 105.7-103c19-18.5 8.5-50.8-17.7-54.6zM405.8 317.8l25 145.5L288 394.6 145.2 463.3l25-145.5L65.5 213.1l146.1-21.3L288 64l76.4 127.8 146.1 21.3-104.7 104.7z" />
    </symbol>
    <symbol id="FaRobot" viewBox="0 0 640 512">
      <path d="M320 0c17.7 0 32 14.3 32 32V96H480c35.3 0 64 28.7 64 64V448c0 35.3-28.7 64-64 64H160c-35.3 0-64-28.7-64-64V160c0-35.3 28.7-64 64-64H288V32c0-17.7 14.3-32 32-32zM208 384c-8.8 0-16 7.2-16 16s7.2 16 16 16h32c8.8 0 16-7.2 16-16s-7.2-16-16-16H208zm96 0c-8.8 0-16 7.2-16 16s7.2 16 16 16h32c8.8 0 16-7.2 16-16s-7.2-16-16-16H304zm96 0c-8.8 0-16 7.2-16 16s7.2 16 16 16h32c8.8 0 16-7.2 16-16s-7.2-16-16-16H400zM264 256c0-22.1-17.9-40-40-40s-40 17.9-40 40s17.9 40 40 40s40-17.9 40-40zm152 40c22.1 0 40-17.9 40-40s-17.9-40-40-40s-40 17.9-40 40s17.9 40 40 40zM48 224H64V416H48c-26.5 0-48-21.5-48-48V272c0-26.5 21.5-48 48-48zm544 0c26.5 0 48 21.5 48 48v96c0 26.5-21.5 48-48 48H576V224h16z" />
    </symbol>
    <symbol id="FaSearch" viewBox="0 0 512 512">
      <path d="M505 442.7L405.3 343c-4.5-4.5-10.6-7-17-7H372c27.6-35.3 44-79.7 44-128C416 93.1 322.9 0 208 0S0 93.1 0 208s93.1 208 208 208c48.3 0 92.7-16.4 128-44v16.3c0 6.4 2.5 12.5 7 17l99.7 99.7c9.4 9.4 24.6 9.4 33.9 0l28.3-28.3c9.4-9.4 9.4-24.6.1-34zM208 336c-70.7 0-128-57.2-128-128 0-70.7 57.2-128 128-128 70.7 0 128 57.2 128 128 0 70.7-57.2 128-128 128z" />
    </symbol>
    <symbol id="FaShare" viewBox="0 0 512 512">
      <path d="M503.691 189.836L327.687 37.851C312.281 24.546 288 35.347 288 56.015v80.053C127.371 137.907 0 170.1 0 322.326c0 61.441 39.581 122.309 83.333 154.132 13.653 9.931 33.111-2.533 28.077-18.631C66.066 312.814 132.917 274.316 288 272.085V360c0 20.7 24.3 31.453 39.687 18.164l176.004-152c11.071-9.562 11.086-26.753 0-36.328z" />
    </symbol>
    <symbol id="FaSignInAlt" viewBox="0 0 24 24">
      <circle cx="12" cy="12" r="10" fill="currentColor" opacity="0.1" />
      <circle cx="12" cy="12" r="10" fill="none" stroke="currentColor" stroke-width="1" />
      <text x="12" y="16" text-anchor="middle" font-family="system-ui, sans-serif" font-size="8" font-weight="bold" fill="currentColor">S</text>
    </symbol>
    <symbol id="FaSignOutAlt" viewBox="0 0 24 24">
      <circle cx="12" cy="12" r="10" fill="currentColor" opacity="0.1" />
      <circle cx="12" cy="12" r="10" fill="none" stroke="currentColor" stroke-width="1" />
      <text x="12" y="16" text-anchor="middle" font-family="system-ui, sans-serif" font-size="8" font-weight="bold" fill="currentColor">S</text>
    </symbol>
    <symbol id="FaSpinner" viewBox="0 0 512 512">
      <path d="M304 48c0 26.51-21.49 48-48 48s-48-21.49-48-48 21.49-48 48-48 48 21.49 48 48zm-48 368c-26.51 0-48 21.49-48 48s21.49 48 48 48 48-21.49 48-48c0-26.509-21.491-48-48-48zm208-208c-26.51 0-48 21.49-48 48s21.49 48 48 48 48-21.49 48-48c0-26.509-21.49-48-48-48zM96 256c0-26.51-21.49-48-48-48S0 229.49 0 256s21.49 48 48 48 48-21.49 48-48zm12.922 99.078c-26.51 0-48 21.49-48 48s21.49 48 48 48 48-21.49 48-48c0-26.509-21.491-48-48-48zm294.156 0c-26.51 0-48 21.49-48 48s21.49 48 48 48 48-21.49 48-48c0-26.509-21.49-48-48-48zM108.922 60.922c-26.51 0-48 21.49-48 48s21.49 48 48 48 48-21.49 48-48-21.49-48-48-48z" />
    </symbol>
    <symbol id="FaStar" viewBox="0 0 576 512">
      <path d="M316.9 18C311.6 7 300.4 0 288.1 0s-23.4 7-28.8 18L195 150.3 51.4 171.5c-12 1.8-22 10.2-25.7 21.7s-.7 24.2 7.9 32.7L137.8 329 113.2 474.7c-2 12 3 24.2 12.9 31.3s23 8 33.8 2.3L288.1 439l128.3 67.3c10.8 5.7 23.9 4.9 33.8-2.3s14.9-19.3 12.9-31.3L438.5 329 542.7 225.9c8.6-8.5 11.7-21.2 7.9-32.7s-13.7-19.9-25.7-21.7L381.2 150.3 316.9 18z" />
    </symbol>
    <symbol id="FaStickyNote" viewBox="0 0 16 16">
      <path d="M2.5 1A1.5 1.5 0 0 0 1 2.5v11A1.5 1.5 0 0 0 2.5 15h6.086a1.5 1.5 0 0 0 1.06-.44l4.915-4.914A1.5 1.5 0 0 0 15 8.586V2.5A1.5 1.5 0 0 0 13.5 1h-11zm6 8.5a1 1 0 0 1 1-1h4.396a.25.25 0 0 1 .177.427l-5.146 5.146a.25.25 0 0 1-.427-.177V9.5z" />
    </symbol>
    <symbol id="FaStore" viewBox="0 0 616 512">
      <path d="M602 118.6L537.1 15C531.3 5.7 521 0 510 0H106C95 0 84.7 5.7 78.9 15L14 118.6c-33.5 53.5-3.8 127.9 58.8 136.4 4.5.6 9.1.9 13.7.9 29.6 0 55.8-13 73.8-33.1 18 20.1 44.3 33.1 73.8 33.1 29.6 0 55.8-13 73.8-33.1 18 20.1 44.3 33.1 73.8 33.1 29.6 0 55.8-13 73.8-33.1 18.1 20.1 44.3 33.1 73.8 33.1 4.7 0 9.2-.3 13.7-.9 62.8-8.4 92.6-82.8 59-136.4zM529.5 288c-10 0-19.9-1.5-29.5-3.8V384H116v-99.8c-9.6 2.2-19.5 3.8-29.5 3.8-6 0-12.1-.4-18-1.2-5.6-.8-11.1-2.1-16.4-3.6V480c0 17.7 14.3 32 32 32h448c17.7 0 32-14.3 32-32V286.2c-5.3 1.5-10.8 2.8-16.4 3.6-5.8.8-11.9 1.2-17.8 1.2z" />
    </symbol>
    <symbol id="FaSun" viewBox="0 0 24 24">
      <circle cx="12" cy="12" r="10" fill="currentColor" opacity="0.1" />
      <circle cx="12" cy="12" r="10" fill="none" stroke="currentColor" stroke-width="1" />
      <text x="12" y="16" text-anchor="middle" font-family="system-ui, sans-serif" font-size="8" font-weight="bold" fill="currentColor">S</text>
    </symbol>
    <symbol id="FaTags" viewBox="0 0 24 24">
      <circle cx="12" cy="12" r="10" fill="currentColor" opacity="0.1" />
      <circle cx="12" cy="12" r="10" fill="none" stroke="currentColor" stroke-width="1" />
      <text x="12" y="16" text-anchor="middle" font-family="system-ui, sans-serif" font-size="8" font-weight="bold" fill="currentColor">T</text>
    </symbol>
    <symbol id="FaThumbsUp" viewBox="0 0 24 24">
      <circle cx="12" cy="12" r="10" fill="currentColor" opacity="0.1" />
      <circle cx="12" cy="12" r="10" fill="none" stroke="currentColor" stroke-width="1" />
      <text x="12" y="16" text-anchor="middle" font-family="system-ui, sans-serif" font-size="8" font-weight="bold" fill="currentColor">T</text>
    </symbol>
    <symbol id="FaTimes" viewBox="0 0 352 512">
      <path d="M242.72 256l100.07-100.07c12.28-12.28 12.28-32.19 0-44.48l-22.24-22.24c-12.28-12.28-32.19-12.28-44.48 0L176 189.28 75.93 89.21c-12.28-12.28-32.19-12.28-44.48 0L9.21 111.45c-12.28 12.28-12.28 32.19 0 44.48L109.28 256 9.21 356.07c-12.28 12.28-12.28 32.19 0 44.48l22.24 22.24c12.28 12.28 32.2 12.28 44.48 0L176 322.72l100.07 100.07c12.28 12.28 32.2 12.28 44.48 0l22.24-22.24c12.28-12.28 12.28-32.19 0-44.48L242.72 256z" />
    </symbol>
    <symbol id="FaTrash" viewBox="0 0 448 512">
      <path d="M432 32H312l-9.4-18.7A24 24 0 0 0 281.1 0H166.8a23.72 23.72 0 0 0-21.4 13.3L136 32H16A16 16 0 0 0 0 48v32a16 16 0 0 0 16 16h416a16 16 0 0 0 16-16V48a16 16 0 0 0-16-16zM53.2 467a48 48 0 0 0 47.9 45h245.8a48 48 0 0 0 47.9-45L416 128H32z" />
    </symbol>
    <symbol id="FaTripadvisor" viewBox="0 0 24 24">
      <path d="M12.006 4.295c-2.67 0-5.338.784-7.645 2.353H0l1.963 2.135a5.997 5.997 0 0 0 4.04 10.43 5.976 5.976 0 0 0 4.075-1.6L12 19.705l1.922-2.09a5.972 5.972 0 0 0 4.072 1.598 6 6 0 0 0 6-5.998 5.982 5.982 0 0 0-1.957-4.432L24 6.648h-4.35a13.573 13.573 0 0 0-7.644-2.353zM12 6.255c1.531 0 3.063.303 4.504.903C13.943 8.138 12 10.43 12 13.1c0-2.671-1.942-4.962-4.504-5.942A11.72 11.72 0 0 1 12 6.256zM6.002 9.157a4.059 4.059 0 1 1 0 8.118 4.059 4.059 0 0 1 0-8.118zm11.992.002a4.057 4.057 0 1 1 .003 8.115 4.057 4.057 0 0 1-.003-8.115zm-11.992 1.93a2.128 2.128 0 0 0 0 4.256 2.128 2.128 0 0 0 0-4.256zm11.992 0a2.128 2.128 0 0 0 0 4.256 2.128 2.128 0 0 0 0-4.256z" />
    </symbol>
    <symbol id="FaTrophy" viewBox="0 0 24 24">
      <circle cx="12" cy="12" r="10" fill="currentColor" opacity="0.1" />
      <circle cx="12" cy="12" r="10" fill="none" stroke="currentColor" stroke-width="1" />
      <text x="12" y="16" text-anchor="middle" font-family="system-ui, sans-serif" font-size="8" font-weight="bold" fill="currentColor">T</text>
    </symbol>
    <symbol id="FaUnlock" viewBox="0 0 24 24">
      <circle cx="12" cy="12" r="10" fill="currentColor" opacity="0.1" />
      <circle cx="12" cy="12" r="10" fill="none" stroke="currentColor" stroke-width="1" />
      <text x="12" y="16" text-anchor="middle" font-family="system-ui, sans-serif" font-size="8" font-weight="bold" fill="currentColor">U</text>
    </symbol>
    <symbol id="FaUpload" viewBox="0 0 512 512">
      <path d="M296 384h-80c-13.3 0-24-10.7-24-24V216h-87.7c-17.8 0-26.7-21.5-14.1-34.1L242.3 29.7c7.5-7.5 19.8-7.5 27.3 0l152.2 152.2c12.6 12.6 3.7 34.1-14.1 34.1H320v144c0 13.3-10.7 24-24 24zm216-8v112c0 13.3-10.7 24-24 24H24c-13.3 0-24-10.7-24-24V376c0-13.3 10.7-24 24-24h146.7l49 49c20.1 20.1 52.5 20.1 72.6 0l49-49H488c13.3 0 24 10.7 24 24zm-124 88c0-11-9-20-20-20s-20 9-20 20 9 20 20 20 20-9 20-20zm64 0c0-11-9-20-20-20s-20 9-20 20 9 20 20 20 20-9 20-20z" />
    </symbol>
    <symbol id="FaUser" viewBox="0 0 448 512">
      <path d="M224 256c70.7 0 128-57.3 128-128S294.7 0 224 0 96 57.3 96 128s57.3 128 128 128zm89.6 32h-16.7c-22.2 10.2-46.9 16-72.9 16s-50.6-5.8-72.9-16h-16.7C60.2 288 0 348.2 0 422.4V464c0 26.5 21.5 48 48 48h352c26.5 0 48-21.5 48-48v-41.6c0-74.2-60.2-134.4-134.4-134.4z" />
    </symbol>
    <symbol id="FaUserCircle" viewBox="0 0 496 512">
      <path d="M248 8C111 8 0 119 0 256s111 248 248 248 248-111 248-248S385 8 248 8zm0 96c48.6 0 88 39.4 88 88s-39.4 88-88 88-88-39.4-88-88 39.4-88 88-88zm0 344c-58.7 0-111.3-26.6-146.5-68.2 18.8-35.4 55.6-59.8 98.5-59.8 2.4 0 4.8.4 7.1 1.1 13 4.2 26.6 6.9 40.9 6.9 14.3 0 28-2.7 40.9-6.9 2.3-.7 4.7-1.1 7.1-1.1 42.9 0 79.7 24.4 98.5 59.8C359.3 421.4 306.7 448 248 448z" />
    </symbol>
    <symbol id="FaUserPlus" viewBox="0 0 640 512">
      <path d="M624 208h-64v-64c0-8.8-7.2-16-16-16h-32c-8.8 0-16 7.2-16 16v64h-64c-8.8 0-16 7.2-16 16v32c0 8.8 7.2 16 16 16h64v64c0 8.8 7.2 16 16 16h32c8.8 0 16-7.2 16-16v-64h64c8.8 0 16-7.2 16-16v-32c0-8.8-7.2-16-16-16zm-400 48c70.7 0 128-57.3 128-128S294.7 0 224 0 96 57.3 96 128s57.3 128 128 128zm89.6 32h-16.7c-22.2 10.2-46.9 16-72.9 16s-50.6-5.8-72.9-16h-16.7C60.2 288 0 348.2 0 422.4V464c0 26.5 21.5 48 48 48h352c26.5 0 48-21.5 48-48v-41.6c0-74.2-60.2-134.4-134.4-134.4z" />
    </symbol>
    <symbol id="FaUsers" viewBox="0 0 640 512">
      <path d="M96 224c35.3 0 64-28.7 64-64s-28.7-64-64-64-64 28.7-64 64 28.7 64 64 64zm448 0c35.3 0 64-28.7 64-64s-28.7-64-64-64-64 28.7-64 64 28.7 64 64 64zm32 32h-64c-17.6 0-33.5 7.1-45.1 18.6 40.3 22.1 68.9 62 75.1 109.4h66c17.7 0 32-14.3 32-32v-32c0-35.3-28.7-64-64-64zm-256 0c61.9 0 112-50.1 112-112S381.9 32 320 32 208 82.1 208 144s50.1 112 112 112zm76.8 32h-8.3c-20.8 10-43.9 16-68.5 16s-47.6-6-68.5-16h-8.3C179.6 288 128 339.6 128 403.2V432c0 26.5 21.5 48 48 48h288c26.5 0 48-21.5 48-48v-28.8c0-63.6-51.6-115.2-115.2-115.2zm-223.7-13.4C161.5 263.1 145.6 256 128 256H64c-35.3 0-64 28.7-64 64v32c0 17.7 14.3 32 32 32h65.9c6.3-47.4 34.9-87.3 75.2-109.4z" />
    </symbol>
    <symbol id="FaVideo" viewBox="0 0 24 24">
      <circle cx="12" cy="12" r="10" fill="currentColor" opacity="0.1" />
      <circle cx="12" cy="12" r="10" fill="none" stroke="currentColor" stroke-width="1" />
      <text x="12" y="16" text-anchor="middle" font-family="system-ui, sans-serif" font-size="8" font-weight="bold" fill="currentColor">V</text>
    </symbol>
    <symbol id="FaWallet" viewBox="0 0 512 512">
      <path d="M461.2 128H80c-8.84 0-16-7.16-16-16s7.16-16 16-16h384c8.84 0 16-7.16 16-16 0-26.51-21.49-48-48-48H64C28.65 32 0 60.65 0 96v320c0 35.35 28.65 64 64 64h397.2c28.02 0 50.8-22.78 50.8-50.8V178.8c0-28.02-22.78-50.8-50.8-50.8zM416 96c8.84 0 16 7.16 16 16s-7.16 16-16 16-16-7.16-16-16 7.16-16 16-16z" />
    </symbol>
    <symbol id="FaWrench" viewBox="0 0 24 24">
      <circle cx="12" cy="12" r="10" fill="currentColor" opacity="0.1" />
      <circle cx="12" cy="12" r="10" fill="none" stroke="currentColor" stroke-width="1" />
      <text x="12" y="16" text-anchor="middle" font-family="system-ui, sans-serif" font-size="8" font-weight="bold" fill="currentColor">W</text>
    </symbol>
    <symbol id="FaYelp" viewBox="0 0 32 32">
      <path d="M13.961 22.279c0.246-0.273 0.601-0.444 0.995-0.444 0.739 0 1.338 0.599 1.338 1.338 0 0.016-0 0.032-0.001 0.048l0-0.002-0.237 6.483c-0.027 0.719-0.616 1.293-1.34 1.293-0.077 0-0.153-0.006-0.226-0.019l0.008 0.001c-1.763-0.303-3.331-0.962-4.69-1.902l0.039 0.025c-0.351-0.245-0.578-0.647-0.578-1.102 0-0.346 0.131-0.661 0.346-0.898l-0.001 0.001 4.345-4.829zM12.853 20.434l-6.301 1.572c-0.097 0.025-0.208 0.039-0.322 0.039-0.687 0-1.253-0.517-1.332-1.183l-0.001-0.006c-0.046-0.389-0.073-0.839-0.073-1.295 0-1.324 0.223-2.597 0.635-3.781l-0.024 0.081c0.183-0.534 0.681-0.911 1.267-0.911 0.214 0 0.417 0.050 0.596 0.14l-0.008-0.004 5.833 2.848c0.45 0.221 0.754 0.677 0.754 1.203 0 0.623-0.427 1.147-1.004 1.294l-0.009 0.002zM13.924 15.223l-6.104-10.574c-0.112-0.191-0.178-0.421-0.178-0.667 0-0.529 0.307-0.987 0.752-1.204l0.008-0.003c1.918-0.938 4.153-1.568 6.511-1.761l0.067-0.004c0.031-0.003 0.067-0.004 0.104-0.004 0.738 0 1.337 0.599 1.337 1.337 0 0.001 0 0.001 0 0.002v-0 12.207c-0 0.739-0.599 1.338-1.338 1.338-0.493 0-0.923-0.266-1.155-0.663l-0.003-0.006zM19.918 20.681l6.176 2.007c0.541 0.18 0.925 0.682 0.925 1.274 0 0.209-0.048 0.407-0.134 0.584l0.003-0.008c-0.758 1.569-1.799 2.889-3.068 3.945l-0.019 0.015c-0.23 0.19-0.527 0.306-0.852 0.306-0.477 0-0.896-0.249-1.134-0.625l-0.003-0.006-3.449-5.51c-0.128-0.201-0.203-0.446-0.203-0.709 0-0.738 0.598-1.336 1.336-1.336 0.147 0 0.289 0.024 0.421 0.068l-0.009-0.003zM26.197 16.742l-6.242 1.791c-0.11 0.033-0.237 0.052-0.368 0.052-0.737 0-1.335-0.598-1.335-1.335 0-0.282 0.087-0.543 0.236-0.758l-0.003 0.004 3.63-5.383c0.244-0.358 0.65-0.59 1.111-0.59 0.339 0 0.649 0.126 0.885 0.334l-0.001-0.001c1.25 1.104 2.25 2.459 2.925 3.99l0.029 0.073c0.070 0.158 0.111 0.342 0.111 0.535 0 0.608-0.405 1.121-0.959 1.286l-0.009 0.002z" />
    </symbol>
    <symbol id="FaAmazon" viewBox="0 0 35.418 35.418">
      <path d="M20.948,9.891c-0.857,0.068-1.847,0.136-2.837,0.269c-1.516,0.195-3.032,0.461-4.284,1.053 c-2.439,0.994-4.088,3.105-4.088,6.209c0,3.898,2.506,5.875,5.669,5.875c1.057,0,1.913-0.129,2.703-0.328 c1.255-0.396,2.31-1.123,3.562-2.441c0.727,0.99,0.923,1.453,2.177,2.509c0.329,0.133,0.658,0.133,0.922-0.066 c0.791-0.659,2.174-1.848,2.901-2.508c0.328-0.267,0.263-0.66,0.066-0.992c-0.727-0.924-1.45-1.718-1.45-3.498v-5.943 c0-2.513,0.195-4.822-1.647-6.537c-1.518-1.391-3.891-1.916-5.735-1.916c-0.264,0-0.527,0-0.792,0 c-3.362,0.197-6.921,1.647-7.714,5.811c-0.13,0.525,0.267,0.726,0.53,0.793l3.691,0.464c0.396-0.07,0.593-0.398,0.658-0.73 c0.333-1.449,1.518-2.176,2.836-2.309c0.067,0,0.133,0,0.265,0c0.79,0,1.646,0.332,2.109,0.987 c0.523,0.795,0.461,1.853,0.461,2.775L20.948,9.891L20.948,9.891z M20.223,17.749c-0.461,0.925-1.253,1.519-2.11,1.718 c-0.131,0-0.327,0.068-0.526,0.068c-1.45,0-2.31-1.123-2.31-2.775c0-2.11,1.254-3.104,2.836-3.565 c0.857-0.197,1.847-0.265,2.836-0.265v0.793C20.948,15.243,21.01,16.43,20.223,17.749z M35.418,26.918v0.215 c-0.035,1.291-0.716,3.768-2.328,5.131c-0.322,0.25-0.645,0.107-0.503-0.254c0.469-1.145,1.541-3.803,1.04-4.412 c-0.355-0.465-1.826-0.43-3.079-0.322c-0.572,0.072-1.075,0.105-1.469,0.183c-0.357,0.033-0.431-0.287-0.071-0.537 c0.466-0.323,0.969-0.573,1.541-0.756c2.039-0.608,4.406-0.25,4.729,0.146C35.348,26.414,35.418,26.629,35.418,26.918z M32.016,29.428c-0.466,0.357-0.965,0.682-1.468,0.973c-3.761,2.261-8.631,3.441-12.856,3.441c-6.807,0-12.895-2.512-17.514-6.709 c-0.396-0.324-0.073-0.789,0.393-0.539C5.549,29.5,11.709,31.26,18.084,31.26c4.013,0,8.342-0.754,12.463-2.371 c0.285-0.104,0.608-0.252,0.895-0.356C32.087,28.242,32.661,28.965,32.016,29.428z" />
    </symbol>
    <symbol id="SiG2" viewBox="0 0 512 512">
      <path d="M445.242 151.214h-76.489c2.078-12.016 9.473-18.718 24.495-26.343l14.097-7.165c25.188-12.938 38.589-27.498 38.589-51.301 0-15.02-5.777-26.806-17.33-35.356-11.323-8.55-25.188-12.709-41.132-12.709-12.712 0-24.265 3.233-34.896 9.935-10.398 6.472-18.256 14.79-23.107 25.188l22.184 22.188c8.55-17.333 21.029-25.883 37.437-25.883 13.864 0 22.414 7.165 22.414 17.1 0 8.32-4.159 15.252-20.103 23.34l-9.013 4.391c-19.644 9.935-33.278 21.259-41.136 34.201-7.855 12.709-11.783 29.116-11.783 48.76v5.314h115.773v-31.66zM435.017 219.437H308.359l-63.33 109.689h126.659l63.329 109.689 63.329-109.689z M255.941 402.251c-80.643 0-146.251-65.608-146.251-146.251s65.608-146.252 146.251-146.252L306.012 4.969a257.144 257.144 0 0 0-50.071-4.91C114.589.059 0 114.648 0 256s114.589 255.941 255.941 255.941c56.357 0 108.449-18.23 150.731-49.094l-55.446-96.035c-25.616 22.059-58.907 35.439-95.285 35.439z" />
    </symbol>
    <symbol id="SiAngi" viewBox="0 0 24 24">
      <path d="M12 2L2 22h4l1.5-3h9L18 22h4L12 2zm-2.5 13L12 9l2.5 6h-5z" />
    </symbol>
    <symbol id="MdDownload" viewBox="0 0 24 24">
      <path d="M5,20H19V18H5M19,9H15V3H9V9H5L12,16L19,9Z" />
    </symbol>
    <symbol id="MdEvent" viewBox="0 0 24 24">
      <circle cx="12" cy="12" r="10" fill="currentColor" opacity="0.1" />
      <circle cx="12" cy="12" r="10" fill="none" stroke="currentColor" stroke-width="1" />
      <text x="12" y="16" text-anchor="middle" font-family="system-ui, sans-serif" font-size="8" font-weight="bold" fill="currentColor">E</text>
    </symbol>
    <symbol id="MdLocationOn" viewBox="0 0 24 24">
      <circle cx="12" cy="12" r="10" fill="currentColor" opacity="0.1" />
      <circle cx="12" cy="12" r="10" fill="none" stroke="currentColor" stroke-width="1" />
      <text x="12" y="16" text-anchor="middle" font-family="system-ui, sans-serif" font-size="8" font-weight="bold" fill="currentColor">L</text>
    </symbol>
    <symbol id="FiMoreHorizontal" viewBox="0 0 24 24">
      <circle cx="12" cy="12" r="10" fill="currentColor" opacity="0.1" />
      <circle cx="12" cy="12" r="10" fill="none" stroke="currentColor" stroke-width="1" />
      <text x="12" y="16" text-anchor="middle" font-family="system-ui, sans-serif" font-size="8" font-weight="bold" fill="currentColor">M</text>
    </symbol>
    <symbol id="SiTrustpilot" viewBox="0 0 24 24">
      <path d="M12,17.964l5.214-1.321l2.179,6.714L12,17.964z M24,9.286h-9.179L12,0.643L9.179,9.286 H0l7.429,5.357l-2.821,8.643l7.429-5.357l4.571-3.286L24,9.286L24,9.286L24,9.286L24,9.286z" />
    </symbol>
    <symbol id="SiHouzz" viewBox="0 0 24 24">
      <path d="M1.27 0v24h8.05v-7.56h5.36V24h8.05V10.37L6.61 5.75V0H1.27z" />
    </symbol>
    <symbol id="SiHomeadvisor" viewBox="0 0 24 24">
      <path d="M15.98 2.442H8.02L0 10.46h2.275l6.882-6.88 6.881 6.881H24l-8.02-8.018m-.492 9.348L9.157 5.459 4.01 10.605v4.987a1.33 1.33 0 0 0 1.329 1.329h6.077l4.637 4.637v-4.637h2.598a1.33 1.33 0 0 0 1.33-1.33V11.79h-4.494z" />
    </symbol>
    <symbol id="FaDumbbell" viewBox="0 0 512 512">
      <path d="M256 8C119 8 8 119 8 256s111 248 248 248 248-111 248-248S393 8 256 8zm0 448c-110.5 0-200-89.5-200-200S145.5 56 256 56s200 89.5 200 200-89.5 200-200 200z" />
    </symbol>
    <symbol id="FaGlassCheers" viewBox="0 0 512 512">
      <path d="M32 160h448c17.67 0 32 14.33 32 32v192c0 17.67-14.33 32-32 32H32c-17.67 0-32-14.33-32-32V192c0-17.67 14.33-32 32-32zm384 224H64V192h384v192z" />
    </symbol>
    <symbol id="FaPagelines" viewBox="0 0 512 512">
      <path d="M256 8C119 8 8 119 8 256s111 248 248 248 248-111 248-248S393 8 256 8zm0 448c-110.5 0-200-89.5-200-200S145.5 56 256 56s200 89.5 200 200-89.5 200-200 200z" />
    </symbol>
    <symbol id="FaRainbow" viewBox="0 0 512 512">
      <path d="M256 8C119 8 8 119 8 256s111 248 248 248 248-111 248-248S393 8 256 8zm0 448c-110.5 0-200-89.5-200-200S145.5 56 256 56s200 89.5 200 200-89.5 200-200 200z" />
    </symbol>
    <symbol id="FaQuestionCircle" viewBox="0 0 512 512">
      <path d="M504 256c0 136.997-111.043 248-248 248S8 392.997 8 256C8 119.083 119.043 8 256 8s248 111.083 248 248zM262.655 90c-54.497 0-89.255 22.957-116.549 63.758-3.536 5.286-2.353 12.415 2.715 16.258l34.699 26.31c5.205 3.947 12.621 3.008 16.665-2.122 17.864-22.658 30.113-35.797 57.303-35.797 20.429 0 45.698 13.148 45.698 32.958 0 14.976-12.363 22.667-32.534 33.976C247.128 238.528 216 254.941 216 296v4c0 6.627 5.373 12 12 12h56c6.627 0 12-5.373 12-12v-4c0-21.059 1.636-28.188 32.534-44.568C349.039 244.814 376 220.976 376 184c0-54.515-48.185-94-113.345-94zM256 338.013c-22.091 0-40 17.909-40 40s17.909 39.987 40 39.987 40-17.896 40-39.987-17.909-40-40-40z" />
    </symbol>
    <symbol id="FaGift" viewBox="0 0 640 512">
      <path d="M488 192H336v56c0 39.7-32.3 72-72 72s-72-32.3-72-72V126.4l-64.9 39C107.8 176.9 96 197.8 96 220.2v47.3l-80 46.2C.7 322.5-4.6 342.1 4.3 357.4l80 138.6c8.8 15.3 28.4 20.5 43.7 11.7L231.4 448H368c35.3 0 64-28.7 64-64h16c17.7 0 32-14.3 32-32v-64h8c13.3 0 24-10.7 24-24v-48c0-13.3-10.7-24-24-24zm147.7-37.4L555.7 16C546.9.7 527.3-4.5 512 4.3L408.6 64H306.4c-12 0-23.7 3.4-33.9 9.7L239 94.6c-9.4 5.8-15 16.1-15 27.1V248c0 22.1 17.9 40 40 40s40-17.9 40-40v-88h184c30.9 0 56 25.1 56 56v28.5l80-46.2c15.3-8.9 20.5-28.4 11.7-43.7z" />
    </symbol>
    <symbol id="FaSave" viewBox="0 0 448 512">
      <path d="M433.941 129.941l-83.882-83.882A48 48 0 0 0 316.118 32H48C21.49 32 0 53.49 0 80v352c0 26.51 21.49 48 48 48h352c26.51 0 48-21.49 48-48V163.882a48 48 0 0 0-14.059-33.941zM224 416c-35.346 0-64-28.654-64-64 0-35.346 28.654-64 64-64s64 28.654 64 64c0 35.346-28.654 64-64 64zm96-304.52V212c0 6.627-5.373 12-12 12H76c-6.627 0-12-5.373-12-12V108c0-6.627 5.373-12 12-12h228.52c3.183 0 6.235 1.264 8.485 3.515l3.48 3.48A11.996 11.996 0 0 1 320 111.48z" />
    </symbol>
    <symbol id="FaFavorites" viewBox="0 0 512 512">
      <path d="M0 190.9V185.1C0 115.2 50.52 55.58 119.4 44.1C164.1 36.51 211.4 51.37 244 84.02L256 96L267.1 84.02C300.6 51.37 347 36.51 392.6 44.1C461.5 55.58 512 115.2 512 185.1V190.9C512 232.4 494.8 272.1 464.4 300.4L283.7 469.1C276.2 476.1 266.3 480 256 480C245.7 480 235.8 476.1 228.3 469.1L47.59 300.4C17.23 272.1 .0003 232.4 .0003 190.9L0 190.9z" />
    </symbol>
    <symbol id="FaBookmark" viewBox="0 0 384 512">
      <path d="M0 48V487.7C0 501.1 10.9 512 24.3 512c5.8 0 11.5-2.1 15.9-5.9L192 400l151.8 106.1c4.4 3.8 10.1 5.9 15.9 5.9C373.1 512 384 501.1 384 487.7V48c0-26.5-21.5-48-48-48H48C21.5 0 0 21.5 0 48z" />
    </symbol>
  </defs>
</svg>