<?xml version="1.0" encoding="UTF-8"?>
<svg xmlns="http://www.w3.org/2000/svg" style="display: none;">
  <defs>
        <symbol id="FaAddressBook" viewBox="0 0 24 24">
      <circle cx="12" cy="12" r="10" fill="currentColor" opacity="0.2" />
      <circle cx="12" cy="12" r="6" fill="currentColor" opacity="0.4" />
      <circle cx="12" cy="12" r="2" fill="currentColor" />
    </symbol>
    <symbol id="FaAnchor" viewBox="0 0 24 24">
      <circle cx="12" cy="12" r="10" fill="currentColor" opacity="0.2" />
      <circle cx="12" cy="12" r="6" fill="currentColor" opacity="0.4" />
      <circle cx="12" cy="12" r="2" fill="currentColor" />
    </symbol>
    <symbol id="FaAngry" viewBox="0 0 24 24">
      <circle cx="12" cy="12" r="10" fill="currentColor" opacity="0.2" />
      <circle cx="12" cy="12" r="6" fill="currentColor" opacity="0.4" />
      <circle cx="12" cy="12" r="2" fill="currentColor" />
    </symbol>
    <symbol id="FaAnkh" viewBox="0 0 24 24">
      <circle cx="12" cy="12" r="10" fill="currentColor" opacity="0.2" />
      <circle cx="12" cy="12" r="6" fill="currentColor" opacity="0.4" />
      <circle cx="12" cy="12" r="2" fill="currentColor" />
    </symbol>
    <symbol id="FaAppleAlt" viewBox="0 0 24 24">
      <circle cx="12" cy="12" r="10" fill="currentColor" opacity="0.2" />
      <circle cx="12" cy="12" r="6" fill="currentColor" opacity="0.4" />
      <circle cx="12" cy="12" r="2" fill="currentColor" />
    </symbol>
    <symbol id="FaArrowLeft" viewBox="0 0 448 512">
      <path d="M257.5 445.1l-22.2 22.2c-9.4 9.4-24.6 9.4-33.9 0L7 273c-9.4-9.4-9.4-24.6 0-33.9L201.4 44.7c9.4-9.4 24.6-9.4 33.9 0l22.2 22.2c9.5 9.5 9.3 25-.4 34.3L136.6 216H424c13.3 0 24 10.7 24 24v32c0 13.3-10.7 24-24 24H136.6l120.5 114.8c9.8 9.3 10 24.8.4 34.3z" />
    </symbol>
    <symbol id="FaArrowRight" viewBox="0 0 448 512">
      <path d="M190.5 66.9l22.2-22.2c9.4-9.4 24.6-9.4 33.9 0L441 239c9.4 9.4 9.4 24.6 0 33.9L246.6 467.3c-9.4 9.4-24.6 9.4-33.9 0l-22.2-22.2c-9.5-9.5-9.3-25 .4-34.3L311.4 296H24c-13.3 0-24-10.7-24-24v-32c0-13.3 10.7-24 24-24h287.4L190.9 101.2c-9.8-9.3-10-24.8-.4-34.3z" />
    </symbol>
    <symbol id="FaArrowsAlt" viewBox="0 0 640 640">
      <path d="M342.6 73.4C330.1 60.9 309.8 60.9 297.3 73.4L233.3 137.4C220.8 149.9 220.8 170.2 233.3 182.7C245.8 195.2 266.1 195.2 278.6 182.7L288 173.3L288 288L173.3 288L182.7 278.6C195.2 266.1 195.2 245.8 182.7 233.3C170.2 220.8 149.9 220.8 137.4 233.3L73.4 297.3C60.9 309.8 60.9 330.1 73.4 342.6L137.4 406.6C149.9 419.1 170.2 419.1 182.7 406.6C195.2 394.1 195.2 373.8 182.7 361.3L173.3 351.9L288 351.9L288 466.6L278.6 457.2C266.1 444.7 245.8 444.7 233.3 457.2C220.8 469.7 220.8 490 233.3 502.5L297.3 566.5C309.8 579 330.1 579 342.6 566.5L406.6 502.5C419.1 490 419.1 469.7 406.6 457.2C394.1 444.7 373.8 444.7 361.3 457.2L351.9 466.6L351.9 351.9L466.6 351.9L457.2 361.3C444.7 373.8 444.7 394.1 457.2 406.6C469.7 419.1 490 419.1 502.5 406.6L566.5 342.6C579 330.1 579 309.8 566.5 297.3L502.5 233.3C490 220.8 469.7 220.8 457.2 233.3C444.7 245.8 444.7 266.1 457.2 278.6L466.6 288L351.9 288L351.9 173.3L361.3 182.7C373.8 195.2 394.1 195.2 406.6 182.7C419.1 170.2 419.1 149.9 406.6 137.4L342.6 73.4z" />
    </symbol>
    <symbol id="FaBars" viewBox="0 0 448 512">
      <path d="M16 132h416c8.837 0 16-7.163 16-16V76c0-8.837-7.163-16-16-16H16C7.163 60 0 67.163 0 76v40c0 8.837 7.163 16 16 16zm0 160h416c8.837 0 16-7.163 16-16v-40c0-8.837-7.163-16-16-16H16c-8.837 0-16 7.163-16 16v40c0 8.837 7.163 16 16 16zm0 160h416c8.837 0 16-7.163 16-16v-40c0-8.837-7.163-16-16-16H16c-8.837 0-16 7.163-16 16v40c0 8.837 7.163 16 16 16z" />
    </symbol>
    <symbol id="FaBell" viewBox="0 0 448 512">
      <path d="M224 512c35.32 0 63.97-28.65 63.97-64H160.03c0 35.35 28.65 64 63.97 64zm215.39-149.71c-19.32-20.76-55.47-51.99-55.47-154.29 0-77.7-54.48-139.9-127.94-155.16V32c0-17.67-14.32-32-31.98-32s-31.98 14.33-31.98 32v20.84C118.56 68.1 64.08 130.3 64.08 208c0 102.3-36.15 133.53-55.47 154.29-6 6.45-8.66 14.16-8.61 21.71.11 16.4 12.98 32 32.1 32h383.8c19.12 0 32-15.6 32.1-32 .05-7.55-2.61-15.27-8.61-21.71z" />
    </symbol>
    <symbol id="FaBoxOpen" viewBox="0 0 640 512">
      <path d="M58.9 42.1c3-6.1 9.6-9.6 16.3-8.7L320 64 564.8 33.4c6.7-.8 13.3 2.7 16.3 8.7l41.7 83.4c9 17.9-.6 39.6-19.8 45.1L439.6 217.3c-13.9 4-28.8-1.9-36.2-14.3L320 64 236.6 203c-7.4 12.4-22.3 18.3-36.2 14.3L37.1 170.6c-19.3-5.5-28.8-27.2-19.8-45.1L58.9 42.1zM321.1 128l54.9 91.4c14.9 24.8 44.6 36.6 72.5 28.6L576 211.6v167c0 22-15 41.2-36.4 46.6l-204.1 51c-10.2 2.6-20.9 2.6-31 0l-204.1-51C79 419.7 64 400.5 64 378.5v-167L191.6 248c27.8 8 57.6-3.8 72.5-28.6L318.9 128h2.2z" />
    </symbol>
    <symbol id="FaBug" viewBox="0 0 640 640">
      <path d="M224 160C224 107 267 64 320 64C373 64 416 107 416 160L416 163.6C416 179.3 403.3 192 387.6 192L252.5 192C236.8 192 224.1 179.3 224.1 163.6L224.1 160zM569.6 172.8C580.2 186.9 577.3 207 563.2 217.6L465.4 290.9C470.7 299.8 474.7 309.6 477.2 320L576 320C593.7 320 608 334.3 608 352C608 369.7 593.7 384 576 384L480 384L480 416C480 418.6 479.9 421.3 479.8 423.9L563.2 486.4C577.3 497 580.2 517.1 569.6 531.2C559 545.3 538.9 548.2 524.8 537.6L461.7 490.3C438.5 534.5 395.2 566.5 344 574.2L344 344C344 330.7 333.3 320 320 320C306.7 320 296 330.7 296 344L296 574.2C244.8 566.5 201.5 534.5 178.3 490.3L115.2 537.6C101.1 548.2 81 545.3 70.4 531.2C59.8 517.1 62.7 497 76.8 486.4L160.2 423.9C160.1 421.3 160 418.7 160 416L160 384L64 384C46.3 384 32 369.7 32 352C32 334.3 46.3 320 64 320L162.8 320C165.3 309.6 169.3 299.8 174.6 290.9L76.8 217.6C62.7 207 59.8 186.9 70.4 172.8C81 158.7 101.1 155.8 115.2 166.4L224 248C236.3 242.9 249.8 240 264 240L376 240C390.2 240 403.7 242.8 416 248L524.8 166.4C538.9 155.8 559 158.7 569.6 172.8z" />
    </symbol>
    <symbol id="FaBuilding" viewBox="0 0 24 24">
      <circle cx="12" cy="12" r="10" fill="currentColor" opacity="0.2" />
      <circle cx="12" cy="12" r="6" fill="currentColor" opacity="0.4" />
      <circle cx="12" cy="12" r="2" fill="currentColor" />
    </symbol>
    <symbol id="FaBusinessTime" viewBox="0 0 24 24">
      <circle cx="12" cy="12" r="10" fill="currentColor" opacity="0.2" />
      <circle cx="12" cy="12" r="6" fill="currentColor" opacity="0.4" />
      <circle cx="12" cy="12" r="2" fill="currentColor" />
    </symbol>
    <symbol id="FaCalendarAlt" viewBox="0 0 640 640">
      <path d="M224 64C241.7 64 256 78.3 256 96L256 128L384 128L384 96C384 78.3 398.3 64 416 64C433.7 64 448 78.3 448 96L448 128L480 128C515.3 128 544 156.7 544 192L544 480C544 515.3 515.3 544 480 544L160 544C124.7 544 96 515.3 96 480L96 192C96 156.7 124.7 128 160 128L192 128L192 96C192 78.3 206.3 64 224 64zM160 304L160 336C160 344.8 167.2 352 176 352L208 352C216.8 352 224 344.8 224 336L224 304C224 295.2 216.8 288 208 288L176 288C167.2 288 160 295.2 160 304zM288 304L288 336C288 344.8 295.2 352 304 352L336 352C344.8 352 352 344.8 352 336L352 304C352 295.2 344.8 288 336 288L304 288C295.2 288 288 295.2 288 304zM432 288C423.2 288 416 295.2 416 304L416 336C416 344.8 423.2 352 432 352L464 352C472.8 352 480 344.8 480 336L480 304C480 295.2 472.8 288 464 288L432 288zM160 432L160 464C160 472.8 167.2 480 176 480L208 480C216.8 480 224 472.8 224 464L224 432C224 423.2 216.8 416 208 416L176 416C167.2 416 160 423.2 160 432zM304 416C295.2 416 288 423.2 288 432L288 464C288 472.8 295.2 480 304 480L336 480C344.8 480 352 472.8 352 464L352 432C352 423.2 344.8 416 336 416L304 416zM416 432L416 464C416 472.8 423.2 480 432 480L464 480C472.8 480 480 472.8 480 464L480 432C480 423.2 472.8 416 464 416L432 416C423.2 416 416 423.2 416 432z" />
    </symbol>
    <symbol id="FaCamera" viewBox="0 0 512 512">
      <path d="M512 144v288c0 26.5-21.5 48-48 48H48c-26.5 0-48-21.5-48-48V144c0-26.5 21.5-48 48-48h88l12.3-32.9c7-18.7 24.9-31.1 44.9-31.1h125.5c20 0 37.9 12.4 44.9 31.1L376 96h88c26.5 0 48 21.5 48 48zM376 288c0-66.2-53.8-120-120-120s-120 53.8-120 120 53.8 120 120 120 120-53.8 120-120zm-32 0c0 48.5-39.5 88-88 88s-88-39.5-88-88 39.5-88 88-88 88 39.5 88 88z" />
    </symbol>
    <symbol id="FaCaretDown" viewBox="0 0 24 24">
      <circle cx="12" cy="12" r="10" fill="currentColor" opacity="0.2" />
      <circle cx="12" cy="12" r="6" fill="currentColor" opacity="0.4" />
      <circle cx="12" cy="12" r="2" fill="currentColor" />
    </symbol>
    <symbol id="FaCaretUp" viewBox="0 0 24 24">
      <circle cx="12" cy="12" r="10" fill="currentColor" opacity="0.2" />
      <circle cx="12" cy="12" r="6" fill="currentColor" opacity="0.4" />
      <circle cx="12" cy="12" r="2" fill="currentColor" />
    </symbol>
    <symbol id="FaChartLine" viewBox="0 0 640 640">
      <path d="M128 128C128 110.3 113.7 96 96 96C78.3 96 64 110.3 64 128L64 464C64 508.2 99.8 544 144 544L544 544C561.7 544 576 529.7 576 512C576 494.3 561.7 480 544 480L144 480C135.2 480 128 472.8 128 464L128 128zM534.6 214.6C547.1 202.1 547.1 181.8 534.6 169.3C522.1 156.8 501.8 156.8 489.3 169.3L384 274.7L326.6 217.4C314.1 204.9 293.8 204.9 281.3 217.4L185.3 313.4C172.8 325.9 172.8 346.2 185.3 358.7C197.8 371.2 218.1 371.2 230.6 358.7L304 285.3L361.4 342.7C373.9 355.2 394.2 355.2 406.7 342.7L534.7 214.7z"/>
    </symbol>
    <symbol id="FaChartPie" viewBox="0 0 640 640">
      <path d="M544.4 304L368.4 304C350.7 304 336.4 289.7 336.4 272L336.4 96C336.4 78.3 350.8 63.8 368.3 66.1C475.3 80.3 560.1 165.1 574.3 272.1C576.6 289.6 562.1 304 544.4 304zM254.6 101.2C272.7 97.4 288.4 112.2 288.4 130.7L288.4 328C288.4 333.6 290.4 339 293.9 343.3L426 502.7C437.7 516.8 435.2 538.1 419.1 546.8C385 565.4 345.9 576 304.4 576C171.9 576 64.4 468.5 64.4 336C64.4 220.5 145.9 124.1 254.6 101.2zM509.8 352L573.8 352C592.3 352 607.1 367.7 603.3 385.8C593.1 434.2 568.3 477.2 533.7 510C521.4 521.7 502.1 519.2 491.3 506.1L406.9 404.4C389.6 383.5 404.5 352 431.5 352L509.7 352z"/>
    </symbol>
    <symbol id="FaCheck" viewBox="0 0 512 512">
      <path d="M173.898 439.404l-166.4-166.4c-9.997-9.997-9.997-26.206 0-36.204l36.203-36.204c9.997-9.998 26.207-9.998 36.204 0L192 312.69 432.095 72.596c9.997-9.997 26.207-9.997 36.204 0l36.203 36.204c9.997 9.997 9.997 26.206 0 36.204l-294.4 294.401c-9.998 9.997-26.207 9.997-36.204-.001z" />
    </symbol>
    <symbol id="FaCheckCircle" viewBox="0 0 24 24">
      <circle cx="12" cy="12" r="10" fill="currentColor" opacity="0.2" />
      <circle cx="12" cy="12" r="6" fill="currentColor" opacity="0.4" />
      <circle cx="12" cy="12" r="2" fill="currentColor" />
    </symbol>
    <symbol id="FaChevronDown" viewBox="0 0 448 512">
      <path d="M207.029 381.476L12.686 187.132c-9.373-9.373-9.373-24.569 0-33.941l22.667-22.667c9.357-9.357 24.522-9.375 33.901-.04L224 284.505l154.745-154.021c9.379-9.335 24.544-9.317 33.901.04l22.667 22.667c9.373 9.373 9.373 24.569 0 33.941L240.971 381.476c-9.373 9.372-24.569 9.372-33.942 0z" />
    </symbol>
    <symbol id="FaChevronLeft" viewBox="0 0 320 512">
      <path d="M9.4 233.4c-12.5 12.5-12.5 32.8 0 45.3l192 192c12.5 12.5 32.8 12.5 45.3 0s12.5-32.8 0-45.3L77.3 256 246.6 86.6c12.5-12.5 12.5-32.8 0-45.3s-32.8-12.5-45.3 0l-192 192z" />
    </symbol>
    <symbol id="FaChevronRight" viewBox="0 0 320 512">
      <path d="M310.6 233.4c12.5 12.5 12.5 32.8 0 45.3l-192 192c-12.5 12.5-32.8 12.5-45.3 0s-12.5-32.8 0-45.3L242.7 256 73.4 86.6c-12.5-12.5-12.5-32.8 0-45.3s32.8-12.5 45.3 0l192 192z" />
    </symbol>
    <symbol id="FaChevronUp" viewBox="0 0 448 512">
      <path d="M240.971 130.524l194.343 194.343c9.373 9.373 9.373 24.569 0 33.941l-22.667 22.667c-9.357 9.357-24.522 9.375-33.901.04L224 227.495 69.255 381.516c-9.379 9.335-24.544 9.317-33.901-.04l-22.667-22.667c-9.373-9.373-9.373-24.569 0-33.941L207.03 130.525c9.372-9.373 24.568-9.373 33.941-.001z" />
    </symbol>
    <symbol id="FaCircle" viewBox="0 0 24 24">
      <circle cx="12" cy="12" r="10" fill="currentColor" opacity="0.2" />
      <circle cx="12" cy="12" r="6" fill="currentColor" opacity="0.4" />
      <circle cx="12" cy="12" r="2" fill="currentColor" />
    </symbol>
    <symbol id="FaClock" viewBox="0 0 512 512">
      <path d="M256 8C119 8 8 119 8 256s111 248 248 248 248-111 248-248S393 8 256 8zm57.1 350.1L224.9 294c-3.1-2.3-4.9-5.9-4.9-9.7V116c0-6.6 5.4-12 12-12h48c6.6 0 12 5.4 12 12v137.7l63.5 46.2c5.4 3.9 6.5 11.4 2.6 16.8l-28.2 38.8c-3.9 5.3-11.4 6.5-16.8 2.6z" />
    </symbol>
    <symbol id="FaCode" viewBox="0 0 640 512">
      <path d="M392.8 1.2c-17-4.9-34.7 5-39.6 22l-128 448c-4.9 17 5 34.7 22 39.6s34.7-5 39.6-22l128-448c4.9-17-5-34.7-22-39.6zm80.6 120.1c-12.5 12.5-12.5 32.8 0 45.3L562.7 256l-89.4 89.4c-12.5 12.5-12.5 32.8 0 45.3s32.8 12.5 45.3 0l112-112c12.5-12.5 12.5-32.8 0-45.3l-112-112c-12.5-12.5-32.8-12.5-45.3 0zm-306.7 0c-12.5-12.5-32.8-12.5-45.3 0l-112 112c-12.5 12.5-12.5 32.8 0 45.3l112 112c12.5 12.5 32.8 12.5 45.3 0s12.5-32.8 0-45.3L77.3 256l89.4-89.4c12.5-12.5 12.5-32.8 0-45.3z" />
    </symbol>
    <symbol id="FaCodeBranch" viewBox="0 0 24 24">
      <circle cx="12" cy="12" r="10" fill="currentColor" opacity="0.2" />
      <circle cx="12" cy="12" r="6" fill="currentColor" opacity="0.4" />
      <circle cx="12" cy="12" r="2" fill="currentColor" />
    </symbol>
    <symbol id="FaCoffee" viewBox="0 0 24 24">
      <circle cx="12" cy="12" r="10" fill="currentColor" opacity="0.2" />
      <circle cx="12" cy="12" r="6" fill="currentColor" opacity="0.4" />
      <circle cx="12" cy="12" r="2" fill="currentColor" />
    </symbol>
    <symbol id="FaCog" viewBox="0 0 512 512">
      <path d="M487.4 315.7l-42.6-24.6c4.3-23.2 4.3-47.6 0-70.8l42.6-24.6c4.9-2.8 7.1-8.6 5.5-14-11.1-35.6-30-67.8-54.7-94.6-3.8-4.1-10-5.1-14.8-2.3L380.8 110c-17.9-15.4-38.5-27.3-60.8-35.1V25.8c0-5.6-3.9-10.5-9.4-11.7-36.7-8.2-74.3-7.8-109.2 0-5.5 1.2-9.4 6.1-9.4 11.7V75c-22.2 7.9-42.8 19.8-60.8 35.1L88.7 85.5c-4.9-2.8-11-1.9-14.8 2.3-24.7 26.7-43.6 58.9-54.7 94.6-1.7 5.4.6 11.2 5.5 14L67.3 221c-4.3 23.2-4.3 47.6 0 70.8L24.7 316.4c-4.9 2.8-7.1 8.6-5.5 14 11.1 35.6 30 67.8 54.7 94.6 3.8 4.1 10 5.1 14.8 2.3l42.6-24.6c17.9 15.4 38.5 27.3 60.8 35.1v49.2c0 5.6 3.9 10.5 9.4 11.7 36.7 8.2 74.3 7.8 109.2 0 5.5-1.2 9.4-6.1 9.4-11.7v-49.2c22.2-7.9 42.8-19.8 60.8-35.1l42.6 24.6c4.9 2.8 11 1.9 14.8-2.3 24.7-26.7 43.6-58.9 54.7-94.6 1.5-5.5-.7-11.3-5.6-14.1zM256 336c-44.1 0-80-35.9-80-80s35.9-80 80-80 80 35.9 80 80-35.9 80-80 80z" />
    </symbol>
    <symbol id="FaCommentAlt" viewBox="0 0 512 512">
      <path d="M448 0H64C28.7 0 0 28.7 0 64v288c0 35.3 28.7 64 64 64h96v84c0 9.8 11.2 15.5 19.1 9.7L304 416h144c35.3 0 64-28.7 64-64V64c0-35.3-28.7-64-64-64z" />
    </symbol>
    <symbol id="FaCommentDots" viewBox="0 0 512 512">
      <path d="M448 0H64C28.7 0 0 28.7 0 64v288c0 35.3 28.7 64 64 64h96v84c0 9.8 11.2 15.5 19.1 9.7L304 416h144c35.3 0 64-28.7 64-64V64c0-35.3-28.7-64-64-64zM128 240c0-17.7 14.3-32 32-32s32 14.3 32 32-14.3 32-32 32-32-14.3-32-32zm128 0c0-17.7 14.3-32 32-32s32 14.3 32 32-14.3 32-32 32-32-14.3-32-32zm128 0c0-17.7 14.3-32 32-32s32 14.3 32 32-14.3 32-32 32-32-14.3-32-32z" />
    </symbol>
    <symbol id="FaComments" viewBox="0 0 640 640">
      <path d="M416 208C416 305.2 330 384 224 384C197.3 384 171.9 379 148.8 370L67.2 413.2C57.9 418.1 46.5 416.4 39 409C31.5 401.6 29.8 390.1 34.8 380.8L70.4 313.6C46.3 284.2 32 247.6 32 208C32 110.8 118 32 224 32C330 32 416 110.8 416 208zM416 576C321.9 576 243.6 513.9 227.2 432C347.2 430.5 451.5 345.1 463 229.3C546.3 248.5 608 317.6 608 400C608 439.6 593.7 476.2 569.6 505.6L605.2 572.8C610.1 582.1 608.4 593.5 601 601C593.6 608.5 582.1 610.2 572.8 605.2L491.2 562C468.1 571 442.7 576 416 576z"/>
    </symbol>
    <symbol id="FaCopy" viewBox="0 0 24 24">
      <circle cx="12" cy="12" r="10" fill="currentColor" opacity="0.2" />
      <circle cx="12" cy="12" r="6" fill="currentColor" opacity="0.4" />
      <circle cx="12" cy="12" r="2" fill="currentColor" />
    </symbol>
    <symbol id="FaCreditCard" viewBox="0 0 24 24">
      <circle cx="12" cy="12" r="10" fill="currentColor" opacity="0.2" />
      <circle cx="12" cy="12" r="6" fill="currentColor" opacity="0.4" />
      <circle cx="12" cy="12" r="2" fill="currentColor" />
    </symbol>
    <symbol id="FaDatabase" viewBox="0 0 24 24">
      <circle cx="12" cy="12" r="10" fill="currentColor" opacity="0.2" />
      <circle cx="12" cy="12" r="6" fill="currentColor" opacity="0.4" />
      <circle cx="12" cy="12" r="2" fill="currentColor" />
    </symbol>
    <symbol id="FaDownload" viewBox="0 0 640 640">
      <path d="M352 96C352 78.3 337.7 64 320 64C302.3 64 288 78.3 288 96L288 306.7L246.6 265.3C234.1 252.8 213.8 252.8 201.3 265.3C188.8 277.8 188.8 298.1 201.3 310.6L297.3 406.6C309.8 419.1 330.1 419.1 342.6 406.6L438.6 310.6C451.1 298.1 451.1 277.8 438.6 265.3C426.1 252.8 405.8 252.8 393.3 265.3L352 306.7L352 96zM160 384C124.7 384 96 412.7 96 448L96 480C96 515.3 124.7 544 160 544L480 544C515.3 544 544 515.3 544 480L544 448C544 412.7 515.3 384 480 384L433.1 384L376.5 440.6C345.3 471.8 294.6 471.8 263.4 440.6L206.9 384L160 384zM464 440C477.3 440 488 450.7 488 464C488 477.3 477.3 488 464 488C450.7 488 440 477.3 440 464C440 450.7 450.7 440 464 440z" fill="currentColor" />
    </symbol>
    <symbol id="FaEdit" viewBox="0 0 576 512">
      <path d="M402.6 83.2l90.2 90.2c3.8 3.8 3.8 10 0 13.8L274.4 405.6l-92.8 10.3c-12.4 1.4-22.9-9.1-21.5-21.5l10.3-92.8L388.8 83.2c3.8-3.8 10-3.8 13.8 0zm162-22.9l-48.8-48.8c-15.2-15.2-39.9-15.2-55.2 0l-35.4 35.4c-3.8 3.8-3.8 10 0 13.8l90.2 90.2c3.8 3.8 10 3.8 13.8 0l35.4-35.4c15.2-15.3 15.2-40 0-55.2zM384 346.2V448H64V128h229.8c3.2 0 6.2-1.3 8.5-3.5l40-40c7.6-7.6 2.2-20.5-8.5-20.5H48C21.5 64 0 85.5 0 112v352c0 26.5 21.5 48 48 48h352c26.5 0 48-21.5 48-48V306.2c0-10.7-12.9-16-20.5-8.5l-40 40c-2.2 2.3-3.5 5.3-3.5 8.5z" />
    </symbol>
    <symbol id="FaEnvelope" viewBox="0 0 512 512">
      <path d="M502.3 190.8c3.9-3.1 9.7-.2 9.7 4.7V400c0 26.5-21.5 48-48 48H48c-26.5 0-48-21.5-48-48V195.6c0-5 5.7-7.8 9.7-4.7 22.4 17.4 52.1 39.5 154.1 113.6 21.1 15.4 56.7 47.8 92.2 47.6 35.7.3 72-32.8 92.3-47.6 102-74.1 131.6-96.3 154-113.7zM256 320c23.2.4 56.6-29.2 73.4-41.4 132.7-96.3 142.8-104.7 173.4-128.7 5.8-4.5 9.2-11.5 9.2-18.9v-19c0-26.5-21.5-48-48-48H48C21.5 64 0 85.5 0 112v19c0 7.4 3.4 14.3 9.2 18.9 30.6 23.9 40.7 32.4 173.4 128.7 16.8 12.2 50.2 41.8 73.4 41.4z" />
    </symbol>
    <symbol id="FaExclamationTriangle" viewBox="0 0 24 24">
      <circle cx="12" cy="12" r="10" fill="currentColor" opacity="0.2" />
      <circle cx="12" cy="12" r="6" fill="currentColor" opacity="0.4" />
      <circle cx="12" cy="12" r="2" fill="currentColor" />
    </symbol>
    <symbol id="FaExternalLink" viewBox="0 -256 1850 1850">
      <path d="M 1408,608 V 288 Q 1408,169 1323.5,84.5 1239,0 1120,0 H 288 Q 169,0 84.5,84.5 0,169 0,288 v 832 Q 0,1239 84.5,1323.5 169,1408 288,1408 h 704 q 14,0 23,-9 9,-9 9,-23 v -64 q 0,-14 -9,-23 -9,-9 -23,-9 H 288 q -66,0 -113,-47 -47,-47 -47,-113 V 288 q 0,-66 47,-113 47,-47 113,-47 h 832 q 66,0 113,47 47,47 47,113 v 320 q 0,14 9,23 9,9 23,9 h 64 q 14,0 23,-9 9,-9 9,-23 z m 384,864 V 960 q 0,-26 -19,-45 -19,-19 -45,-19 -26,0 -45,19 L 1507,1091 855,439 q -10,-10 -23,-10 -13,0 -23,10 L 695,553 q -10,10 -10,23 0,13 10,23 l 652,652 -176,176 q -19,19 -19,45 0,26 19,45 19,19 45,19 h 512 q 26,0 45,-19 19,-19 19,-45 z" transform="matrix(1,0,0,-1,30.372881,1426.9492)" fill="currentColor"/>
    </symbol>
    <symbol id="FaEye" viewBox="0 0 576 512">
      <path d="M572.52 241.4C518.29 135.59 410.93 64 288 64S57.68 135.64 3.48 241.41a32.35 32.35 0 0 0 0 29.19C57.71 376.41 165.07 448 288 448s230.32-71.64 284.52-177.41a32.35 32.35 0 0 0 0-29.19zM288 400a144 144 0 1 1 144-144 143.93 143.93 0 0 1-144 144zm0-240a95.31 95.31 0 0 0-25.31 3.79 47.85 47.85 0 0 1-66.9 66.9A95.78 95.78 0 1 0 288 160z" />
    </symbol>
    <symbol id="FaEyeSlash" viewBox="0 0 640 512">
      <path d="M320 400c-75.85 0-137.25-58.71-142.9-133.11L72.2 185.82c-13.79 17.3-26.48 35.59-36.72 55.59a32.35 32.35 0 0 0 0 29.19C89.71 376.41 197.07 448 320 448c26.91 0 52.87-4 77.89-10.46L346 397.39a144.13 144.13 0 0 1-26 2.61zm313.82 58.1l-110.55-85.44a331.25 331.25 0 0 0 81.25-102.07 32.35 32.35 0 0 0 0-29.19C550.29 135.59 442.93 64 320 64a308.15 308.15 0 0 0-147.32 37.7L45.46 3.37A16 16 0 0 0 23 6.18L3.37 31.45A16 16 0 0 0 6.18 53.9l588.36 454.73a16 16 0 0 0 22.46-2.81l19.64-25.27a16 16 0 0 0-2.82-22.45zm-183.72-142l-39.3-30.38A94.75 94.75 0 0 0 416 256a94.76 94.76 0 0 0-121.31-92.21A47.65 47.65 0 0 1 304 192a46.64 46.64 0 0 1-1.54 10l-73.61-56.89A142.31 142.31 0 0 1 320 112a143.92 143.92 0 0 1 144 144c0 21.63-5.29 41.79-13.9 60.11z" />
    </symbol>
    <symbol id="FaFacebook" viewBox="0 0 512 512">
      <path d="M504 256C504 119 393 8 256 8S8 119 8 256c0 123.78 90.69 226.38 209.25 245V327.69h-63V256h63v-54.64c0-62.15 37-96.48 93.67-96.48 27.14 0 55.52 4.84 55.52 4.84v61h-31.28c-30.8 0-40.41 19.12-40.41 38.73V256h68.78l-11 71.69h-57.78V501C413.31 482.38 504 379.78 504 256z" />
    </symbol>
    <symbol id="FaFileAlt" viewBox="0 0 384 512">
      <path d="M224 136V0H24C10.7 0 0 10.7 0 24v464c0 13.3 10.7 24 24 24h336c13.3 0 24-10.7 24-24V160H248c-13.2 0-24-10.8-24-24zm160-14.1v6.1H256V0h6.1c6.4 0 12.5 2.5 17 7l97.9 97.9c4.5 4.5 7 10.6 7 16.9z" />
    </symbol>
    <symbol id="FaFilter" viewBox="0 0 512 512">
      <path d="M487.976 0H24.028C2.71 0-8.047 25.866 7.058 40.971L192 225.941V432c0 7.831 3.821 15.17 10.237 19.662l80 55.98C298.02 518.69 320 507.493 320 487.98V225.941l184.947-184.97C520.021 25.896 509.338 0 487.976 0z" />
    </symbol>
    <symbol id="FaFrown" viewBox="0 0 24 24">
      <circle cx="12" cy="12" r="10" fill="currentColor" opacity="0.2" />
      <circle cx="12" cy="12" r="6" fill="currentColor" opacity="0.4" />
      <circle cx="12" cy="12" r="2" fill="currentColor" />
    </symbol>
    <symbol id="FaGlobe" viewBox="0 0 496 512">
      <path d="M248 8C111.03 8 0 119.03 0 256s111.03 248 248 248 248-111.03 248-248S384.97 8 248 8zm82.29 357.6c-3.9 3.88-7.99 7.95-11.31 11.28-2.99 3-5.1 6.7-6.17 10.71-1.51 5.66-2.73 11.38-4.77 16.87l-17.39 46.85c-13.76 3-28.28 4.69-43.65 4.69v-27.38c1.69-12.62-7.64-36.26-22.63-51.25-6-6-9.37-14.14-9.37-22.63v-32.01c0-11.64-6.27-22.34-16.46-27.97-14.37-7.95-34.81-19.06-48.81-26.11-11.48-5.78-22.1-13.14-31.65-21.75l-.8-.72a114.792 114.792 0 01-18.06-20.74c-9.38-13.77-24.66-36.42-34.59-51.14 20.47-45.5 57.36-82.04 103.2-101.89l24.01 12.01C203.48 89.74 216 82.01 216 70.11v-11.3c7.99-1.29 16.12-2.11 24.39-2.42l28.3 28.3c6.25 6.25 6.25 16.38 0 22.63L264 112l-10.34 10.34c-3.12 3.12-3.12 8.19 0 11.31l4.69 4.69c3.12 3.12 3.12 8.19 0 11.31l-8 8a8.008 8.008 0 01-5.66 2.34h-8.99c-2.08 0-4.08.81-5.58 2.27l-9.92 9.65a8.008 8.008 0 00-1.58 9.31l15.59 31.19c2.66 5.32-1.21 11.58-7.15 11.58h-5.64c-1.93 0-3.79-.7-5.24-1.96l-9.28-8.06a16.017 16.017 0 00-15.55-3.1l-31.17 10.39a11.95 11.95 0 00-8.17 11.34c0 4.53 2.56 8.66 6.61 10.69l11.08 5.54c9.41 4.71 19.79 7.16 30.31 7.16s22.59 27.29 32 32h66.75c8.49 0 16.62 3.37 22.63 9.37l13.69 13.69a30.503 30.503 0 018.93 21.57 46.536 46.536 0 01-13.72 32.98zM417 274.25c-5.79-1.45-10.84-5-14.15-9.97l-17.98-26.97a23.97 23.97 0 010-26.62l19.59-29.38c2.32-3.47 5.5-6.29 9.24-8.15l12.98-6.49C440.47 193.59 448 223.87 448 256c0 8.67-.74 17.16-1.82 25.54L417 274.25z" />
    </symbol>
    <symbol id="FaGrinHearts" viewBox="0 0 24 24">
      <circle cx="12" cy="12" r="10" fill="currentColor" opacity="0.2" />
      <circle cx="12" cy="12" r="6" fill="currentColor" opacity="0.4" />
      <circle cx="12" cy="12" r="2" fill="currentColor" />
    </symbol>
    <symbol id="FaGoogle" viewBox="0 0 488 512">
      <path d="M488 261.8C488 403.3 391.1 504 248 504 110.8 504 0 393.2 0 256S110.8 8 248 8c66.8 0 123 24.5 166.3 64.9l-67.5 64.9C258.5 52.6 94.3 116.6 94.3 256c0 86.5 69.1 156.6 153.7 156.6 98.2 0 135-70.4 140.8-106.9H248v-85.3h240z" />
    </symbol>
    <symbol id="FaHandsHelping" viewBox="0 0 640 512">
      <path d="M488 192H336v56c0 39.7-32.3 72-72 72s-72-32.3-72-72V126.4l-64.9 39C107.8 177.1 96 197.9 96 220.6V464c0 26.5 21.5 48 48 48h416c26.5 0 48-21.5 48-48V240c0-26.5-21.5-48-48-48zM160 72c0-39.8 32.2-72 72-72s72 32.2 72 72c0 39.8-32.2 72-72 72s-72-32.2-72-72zm624 208c0 26.5-21.5 48-48 48h-416c-26.5 0-48-21.5-48-48v-56l64-40v96c0 66.2 53.8 120 120 120s120-53.8 120-120v-96l64 40v56zm-336-80h224v40H448v-40z" />
    </symbol>
    <symbol id="FaHandshake" viewBox="0 0 640 640">
      <path d="M300.9 149.2L184.3 278.8C179.7 283.9 179.9 291.8 184.8 296.7C215.3 327.2 264.8 327.2 295.3 296.7L327.1 264.9C331.3 260.7 336.6 258.4 342 258C348.8 257.4 355.8 259.7 361 264.9L537.6 440L608 384L608 96L496 160L472.2 144.1C456.4 133.6 437.9 128 418.9 128L348.5 128C347.4 128 346.2 128 345.1 128.1C328.2 129 312.3 136.6 300.9 149.2zM148.6 246.7L255.4 128L215.8 128C190.3 128 165.9 138.1 147.9 156.1L144 160L32 96L32 384L188.4 514.3C211.4 533.5 240.4 544 270.3 544L286 544L279 537C269.6 527.6 269.6 512.4 279 503.1C288.4 493.8 303.6 493.7 312.9 503.1L353.9 544.1L362.9 544.1C382 544.1 400.7 539.8 417.7 531.8L391 505C381.6 495.6 381.6 480.4 391 471.1C400.4 461.8 415.6 461.7 424.9 471.1L456.9 503.1L474.4 485.6C483.3 476.7 485.9 463.8 482 452.5L344.1 315.7L329.2 330.6C279.9 379.9 200.1 379.9 150.8 330.6C127.8 307.6 126.9 270.7 148.6 246.6z" />
    </symbol>
    <symbol id="FaHeart" viewBox="0 0 512 512">
      <path d="M462.3 62.6C407.5 15.9 326 24.3 275.7 76.2L256 96.5l-19.7-20.3C186.1 24.3 104.5 15.9 49.7 62.6c-62.8 53.6-66.1 149.8-9.9 207.9l193.5 199.8c12.5 12.9 32.8 12.9 45.3 0l193.5-199.8c56.3-58.1 53-154.3-9.8-207.9z" />
    </symbol>
    <symbol id="FaHome" viewBox="0 0 576 512">
      <path d="M280.37 148.26L96 300.11V464a16 16 0 0 0 16 16l112.06-.29a16 16 0 0 0 15.92-16V368a16 16 0 0 1 16-16h64a16 16 0 0 1 16 16v95.64a16 16 0 0 0 16 16.05L464 480a16 16 0 0 0 16-16V300L295.67 148.26a12.19 12.19 0 0 0-15.3 0zM571.6 251.47L488 182.56V44.05a12 12 0 0 0-12-12h-56a12 12 0 0 0-12 12v72.61L318.47 43a48 48 0 0 0-61 0L4.34 251.47a12 12 0 0 0-1.6 16.9l25.5 31A12 12 0 0 0 45.15 301l235.22-193.74a12.19 12.19 0 0 1 15.3 0L530.9 301a12 12 0 0 0 16.9-1.6l25.5-31a12 12 0 0 0-1.7-16.93z" />
    </symbol>
    <symbol id="FaImage" viewBox="0 0 512 512">
      <path d="M464 448H48c-26.51 0-48-21.49-48-48V112c0-26.51 21.49-48 48-48h416c26.51 0 48 21.49 48 48v288c0 26.51-21.49 48-48 48zM112 120c-30.928 0-56 25.072-56 56s25.072 56 56 56 56-25.072 56-56-25.072-56-56-56zM64 384h384V272l-87.515-87.515c-4.686-4.686-12.284-4.686-16.971 0L208 320l-55.515-55.515c-4.686-4.686-12.284-4.686-16.971 0L64 336v48z" />
    </symbol>
    <symbol id="FaImport" viewBox="0 0 640 640">
      <path d="M192 64C156.7 64 128 92.7 128 128L128 368L310.1 368L279.1 337C269.7 327.6 269.7 312.4 279.1 303.1C288.5 293.8 303.7 293.7 313 303.1L385 375.1C394.4 384.5 394.4 399.7 385 409L313 481C303.6 490.4 288.4 490.4 279.1 481C269.8 471.6 269.7 456.4 279.1 447.1L310.1 416.1L128 416.1L128 512.1C128 547.4 156.7 576.1 192 576.1L448 576.1C483.3 576.1 512 547.4 512 512.1L512 234.6C512 217.6 505.3 201.3 493.3 189.3L386.7 82.7C374.7 70.7 358.5 64 341.5 64L192 64zM453.5 240L360 240C346.7 240 336 229.3 336 216L336 122.5L453.5 240z"/>
    </symbol>
    <symbol id="FaInfoCircle" viewBox="0 0 512 512">
      <path d="M256 8C119.043 8 8 119.083 8 256c0 136.997 111.043 248 248 248s248-111.003 248-248C504 119.083 392.957 8 256 8zm0 110c23.196 0 42 18.804 42 42s-18.804 42-42 42-42-18.804-42-42 18.804-42 42-42zm56 254c0 6.627-5.373 12-12 12h-88c-6.627 0-12-5.373-12-12v-24c0-6.627 5.373-12 12-12h12v-64h-12c-6.627 0-12-5.373-12-12v-24c0-6.627 5.373-12 12-12h64c6.627 0 12 5.373 12 12v100h12c6.627 0 12 5.373 12 12v24z" />
    </symbol>
    <symbol id="FaKey" viewBox="0 0 24 24">
      <circle cx="12" cy="12" r="10" fill="currentColor" opacity="0.2" />
      <circle cx="12" cy="12" r="6" fill="currentColor" opacity="0.4" />
      <circle cx="12" cy="12" r="2" fill="currentColor" />
    </symbol>
    <symbol id="FaLeaf" viewBox="0 0 24 24">
      <circle cx="12" cy="12" r="10" fill="currentColor" opacity="0.2" />
      <circle cx="12" cy="12" r="6" fill="currentColor" opacity="0.4" />
      <circle cx="12" cy="12" r="2" fill="currentColor" />
    </symbol>
    <symbol id="FaLightbulb" viewBox="0 0 384 512">
      <path d="M112.1 454.3c0 6.297 1.816 12.44 5.284 17.69l17.14 25.69c5.25 7.875 17.17 14.28 26.64 14.28h61.67c9.438 0 21.36-6.401 26.61-14.28l17.14-25.69c3.500-5.25 5.250-11.39 5.250-17.69 0-10.16-5.875-19.12-15.05-23.28l-7.148-3.35c-7.312-3.438-15.25-5.447-23.27-5.447h-63.99c-8.018 0-15.95 2.009-23.27 5.447l-7.148 3.35C118.0 435.2 112.1 444.1 112.1 454.3zM191.4 .0132C89.44 .3257 0 82.97 0 176.0c0 44.38 16.44 84.84 43.56 115.8 16.53 18.84 42.34 58.23 52.22 91.45.0313 .25 .0938 .5312 .125 .7812h192.2c.0313-.25 .0938-.5312 .125-.7812 9.875-33.22 35.69-72.61 52.22-91.45C367.6 260.8 384 220.4 384 176.0 384 78.61 297.9-0.2837 191.4 .0132zM192 96.01c-44.13 0-80 35.89-80 79.99s35.88 80 80 80s80-35.89 80-80S236.1 96.01 192 96.01z" />
    </symbol>
    <symbol id="FaLink" viewBox="0 0 512 512">
      <path d="M326.612 185.391c59.747 59.809 58.927 155.698.36 214.59-.11.12-.24.25-.36.37l-67.2 67.2c-59.27 59.27-155.699 59.262-214.96 0-59.27-59.26-59.27-155.7 0-214.96l37.106-37.106c9.84-9.84 26.786-3.3 27.294 10.606.648 17.722 3.826 35.527 9.69 52.721 1.986 5.822.567 12.262-3.783 16.612l-13.087 13.087c-28.026 28.026-28.905 73.66-1.155 101.96 28.024 28.579 74.086 28.749 102.325.51l67.2-67.19c28.191-28.191 28.073-73.757 0-101.83-3.701-3.694-7.429-6.564-10.341-8.569a16.037 16.037 0 01-6.947-12.606c-.396-10.567 3.348-21.456 11.698-29.806l21.054-21.055c5.521-5.521 14.182-6.199 20.584-1.731a152.482 152.482 0 0120.522 17.197zM467.547 44.449c-59.261-59.262-155.69-59.27-214.96 0l-67.2 67.2c-.12.12-.25.25-.36.37-58.566 58.892-59.387 154.781.36 214.59a152.454 152.454 0 0020.521 17.196c6.402 4.468 15.064 3.789 20.584-1.731l21.054-21.055c8.35-8.35 12.094-19.239 11.698-29.806a16.037 16.037 0 00-6.947-12.606c-2.912-2.005-6.64-4.875-10.341-8.569-28.073-28.073-28.191-73.639 0-101.83l67.2-67.19c28.239-28.239 74.3-28.069 102.325.51 27.75 28.3 26.872 73.934-1.155 101.96l-13.087 13.087c-4.35 4.35-5.769 10.79-3.783 16.612 5.864 17.194 9.042 34.999 9.69 52.721.509 13.906 17.454 20.446 27.294 10.606l37.106-37.106c59.271-59.259 59.271-155.699.001-214.959z" />
    </symbol>
    <symbol id="FaLock" viewBox="0 0 384 512">
      <path d="M128 96l0 64 128 0 0-64c0-35.3-28.7-64-64-64s-64 28.7-64 64zM64 160l0-64C64 25.3 121.3-32 192-32S320 25.3 320 96l0 64c35.3 0 64 28.7 64 64l0 224c0 35.3-28.7 64-64 64L64 512c-35.3 0-64-28.7-64-64L0 224c0-35.3 28.7-64 64-64z" fill="currentColor"/>
    </symbol>
    <symbol id="FaMapMarker" viewBox="0 0 384 512">
      <path d="M172.268 501.67C26.97 291.031 0 269.413 0 192 0 85.961 85.961 0 192 0s192 85.961 192 192c0 77.413-26.97 99.031-172.268 309.67-9.535 13.774-29.93 13.773-39.464 0zM192 272c44.183 0 80-35.817 80-80s-35.817-80-80-80-80 35.817-80 80 35.817 80 80 80z" />
    </symbol>
    <symbol id="FaMeh" viewBox="0 0 24 24">
      <circle cx="12" cy="12" r="10" fill="currentColor" opacity="0.2" />
      <circle cx="12" cy="12" r="6" fill="currentColor" opacity="0.4" />
      <circle cx="12" cy="12" r="2" fill="currentColor" />
    </symbol>
    <symbol id="FaMinus" viewBox="0 0 24 24">
      <circle cx="12" cy="12" r="10" fill="currentColor" opacity="0.2" />
      <circle cx="12" cy="12" r="6" fill="currentColor" opacity="0.4" />
      <circle cx="12" cy="12" r="2" fill="currentColor" />
    </symbol>
    <symbol id="FaMobile" viewBox="0 0 384 512">
      <path d="M80 0C44.7 0 16 28.7 16 64V448c0 35.3 28.7 64 64 64H304c35.3 0 64-28.7 64-64V64c0-35.3-28.7-64-64-64H80zM96 64H288c8.8 0 16 7.2 16 16V432c0 8.8-7.2 16-16 16H96c-8.8 0-16-7.2-16-16V80c0-8.8 7.2-16 16-16z" />
    </symbol>
    <symbol id="FaPalette" viewBox="0 0 640 640">
      <path d="M576 320C576 320.9 576 321.8 576 322.7C575.6 359.2 542.4 384 505.9 384L408 384C381.5 384 360 405.5 360 432C360 435.4 360.4 438.7 361 441.9C363.1 452.1 367.5 461.9 371.8 471.8C377.9 485.6 383.9 499.3 383.9 513.8C383.9 545.6 362.3 574.5 330.5 575.8C327 575.9 323.5 576 319.9 576C178.5 576 63.9 461.4 63.9 320C63.9 178.6 178.6 64 320 64C461.4 64 576 178.6 576 320zM192 352C192 334.3 177.7 320 160 320C142.3 320 128 334.3 128 352C128 369.7 142.3 384 160 384C177.7 384 192 369.7 192 352zM192 256C209.7 256 224 241.7 224 224C224 206.3 209.7 192 192 192C174.3 192 160 206.3 160 224C160 241.7 174.3 256 192 256zM352 160C352 142.3 337.7 128 320 128C302.3 128 288 142.3 288 160C288 177.7 302.3 192 320 192C337.7 192 352 177.7 352 160zM448 256C465.7 256 480 241.7 480 224C480 206.3 465.7 192 448 192C430.3 192 416 206.3 416 224C416 241.7 430.3 256 448 256z" />
    </symbol>
    <symbol id="FaPeace" viewBox="0 0 24 24">
      <circle cx="12" cy="12" r="10" fill="currentColor" opacity="0.2" />
      <circle cx="12" cy="12" r="6" fill="currentColor" opacity="0.4" />
      <circle cx="12" cy="12" r="2" fill="currentColor" />
    </symbol>
    <symbol id="FaPhone" viewBox="0 0 512 512">
      <path d="M493.4 24.6l-104-24c-11.3-2.6-22.9 3.3-27.5 13.9l-48 112c-4.2 9.8-1.4 21.3 6.9 28l60.6 49.6c-36 76.7-98.9 140.5-177.2 177.2l-49.6-60.6c-6.8-8.3-18.2-11.1-28-6.9l-112 48C7.7 366.5 1.8 378.1 4.4 389.4l24 104C31.1 504.2 39.9 512 50.6 512 306.7 512 512 306.8 512 50.6c0-10.7-7.8-19.5-18.6-22.2z" />
    </symbol>
    <symbol id="FaPlus" viewBox="0 0 448 512">
      <path d="M416 208H272V64c0-17.67-14.33-32-32-32h-32c-17.67 0-32 14.33-32 32v144H32c-17.67 0-32 14.33-32 32v32c0 17.67 14.33 32 32 32h144v144c0 17.67 14.33 32 32 32h32c17.67 0 32-14.33 32-32V304h144c17.67 0 32-14.33 32-32v-32c0-17.67-14.33-32-32-32z" />
    </symbol>
    <symbol id="FaPlusCircle" viewBox="0 0 24 24">
      <circle cx="12" cy="12" r="10" fill="currentColor" opacity="0.2" />
      <circle cx="12" cy="12" r="6" fill="currentColor" opacity="0.4" />
      <circle cx="12" cy="12" r="2" fill="currentColor" />
    </symbol>
    <symbol id="FaRedo" viewBox="0 0 24 24">
      <circle cx="12" cy="12" r="10" fill="currentColor" opacity="0.2" />
      <circle cx="12" cy="12" r="6" fill="currentColor" opacity="0.4" />
      <circle cx="12" cy="12" r="2" fill="currentColor" />
    </symbol>
    <symbol id="FaRegStar" viewBox="0 0 576 512">
      <path d="M528.1 171.5L382 150.2 316.7 17.8c-11.7-23.6-45.6-23.9-57.4 0L194 150.2 47.9 171.5c-26.2 3.8-36.7 36.1-17.7 54.6l105.7 103-25 145.5c-4.5 26.3 23.2 46 46.4 33.7L288 439.6l130.7 68.7c23.2 12.2 50.9-7.4 46.4-33.7l-25-145.5 105.7-103c19-18.5 8.5-50.8-17.7-54.6zM405.8 317.8l25 145.5L288 394.6 145.2 463.3l25-145.5L65.5 213.1l146.1-21.3L288 64l76.4 127.8 146.1 21.3-104.7 104.7z" />
    </symbol>
    <symbol id="FaRobot" viewBox="0 0 640 512">
      <path d="M320 0c17.7 0 32 14.3 32 32V96H480c35.3 0 64 28.7 64 64V448c0 35.3-28.7 64-64 64H160c-35.3 0-64-28.7-64-64V160c0-35.3 28.7-64 64-64H288V32c0-17.7 14.3-32 32-32zM208 384c-8.8 0-16 7.2-16 16s7.2 16 16 16h32c8.8 0 16-7.2 16-16s-7.2-16-16-16H208zm96 0c-8.8 0-16 7.2-16 16s7.2 16 16 16h32c8.8 0 16-7.2 16-16s-7.2-16-16-16H304zm96 0c-8.8 0-16 7.2-16 16s7.2 16 16 16h32c8.8 0 16-7.2 16-16s-7.2-16-16-16H400zM264 256c0-22.1-17.9-40-40-40s-40 17.9-40 40s17.9 40 40 40s40-17.9 40-40zm152 40c22.1 0 40-17.9 40-40s-17.9-40-40-40s-40 17.9-40 40s17.9 40 40 40zM48 224H64V416H48c-26.5 0-48-21.5-48-48V272c0-26.5 21.5-48 48-48zm544 0c26.5 0 48 21.5 48 48v96c0 26.5-21.5 48-48 48H576V224h16z" />
    </symbol>
    <symbol id="FaSearch" viewBox="0 0 512 512">
      <path d="M505 442.7L405.3 343c-4.5-4.5-10.6-7-17-7H372c27.6-35.3 44-79.7 44-128C416 93.1 322.9 0 208 0S0 93.1 0 208s93.1 208 208 208c48.3 0 92.7-16.4 128-44v16.3c0 6.4 2.5 12.5 7 17l99.7 99.7c9.4 9.4 24.6 9.4 33.9 0l28.3-28.3c9.4-9.4 9.4-24.6.1-34zM208 336c-70.7 0-128-57.2-128-128 0-70.7 57.2-128 128-128 70.7 0 128 57.2 128 128 0 70.7-57.2 128-128 128z" />
    </symbol>
    <symbol id="FaShare" viewBox="0 0 512 512">
      <path d="M503.691 189.836L327.687 37.851C312.281 24.546 288 35.347 288 56.015v80.053C127.371 137.907 0 170.1 0 322.326c0 61.441 39.581 122.309 83.333 154.132 13.653 9.931 33.111-2.533 28.077-18.631C66.066 312.814 132.917 274.316 288 272.085V360c0 20.7 24.3 31.453 39.687 18.164l176.004-152c11.071-9.562 11.086-26.753 0-36.328z" />
    </symbol>
    <symbol id="FaSignInAlt" viewBox="0 0 24 24">
      <circle cx="12" cy="12" r="10" fill="currentColor" opacity="0.2" />
      <circle cx="12" cy="12" r="6" fill="currentColor" opacity="0.4" />
      <circle cx="12" cy="12" r="2" fill="currentColor" />
    </symbol>
    <symbol id="FaSignOutAlt" viewBox="0 0 24 24">
      <circle cx="12" cy="12" r="10" fill="currentColor" opacity="0.2" />
      <circle cx="12" cy="12" r="6" fill="currentColor" opacity="0.4" />
      <circle cx="12" cy="12" r="2" fill="currentColor" />
    </symbol>
    <symbol id="FaSpinner" viewBox="0 0 512 512">
      <path d="M304 48c0 26.51-21.49 48-48 48s-48-21.49-48-48 21.49-48 48-48 48 21.49 48 48zm-48 368c-26.51 0-48 21.49-48 48s21.49 48 48 48 48-21.49 48-48c0-26.509-21.491-48-48-48zm208-208c-26.51 0-48 21.49-48 48s21.49 48 48 48 48-21.49 48-48c0-26.509-21.49-48-48-48zM96 256c0-26.51-21.49-48-48-48S0 229.49 0 256s21.49 48 48 48 48-21.49 48-48zm12.922 99.078c-26.51 0-48 21.49-48 48s21.49 48 48 48 48-21.49 48-48c0-26.509-21.491-48-48-48zm294.156 0c-26.51 0-48 21.49-48 48s21.49 48 48 48 48-21.49 48-48c0-26.509-21.49-48-48-48zM108.922 60.922c-26.51 0-48 21.49-48 48s21.49 48 48 48 48-21.49 48-48-21.49-48-48-48z" />
    </symbol>
    <symbol id="FaStar" viewBox="0 0 576 512">
      <path d="M316.9 18C311.6 7 300.4 0 288.1 0s-23.4 7-28.8 18L195 150.3 51.4 171.5c-12 1.8-22 10.2-25.7 21.7s-.7 24.2 7.9 32.7L137.8 329 113.2 474.7c-2 12 3 24.2 12.9 31.3s23 8 33.8 2.3L288.1 439l128.3 67.3c10.8 5.7 23.9 4.9 33.8-2.3s14.9-19.3 12.9-31.3L438.5 329 542.7 225.9c8.6-8.5 11.7-21.2 7.9-32.7s-13.7-19.9-25.7-21.7L381.2 150.3 316.9 18z" />
    </symbol>
    <symbol id="FaStickyNote" viewBox="0 0 16 16">
      <path d="M2.5 1A1.5 1.5 0 0 0 1 2.5v11A1.5 1.5 0 0 0 2.5 15h6.086a1.5 1.5 0 0 0 1.06-.44l4.915-4.914A1.5 1.5 0 0 0 15 8.586V2.5A1.5 1.5 0 0 0 13.5 1h-11zm6 8.5a1 1 0 0 1 1-1h4.396a.25.25 0 0 1 .177.427l-5.146 5.146a.25.25 0 0 1-.427-.177V9.5z" />
    </symbol>
    <symbol id="FaStore" viewBox="0 0 616 512">
      <path d="M602 118.6L537.1 15C531.3 5.7 521 0 510 0H106C95 0 84.7 5.7 78.9 15L14 118.6c-33.5 53.5-3.8 127.9 58.8 136.4 4.5.6 9.1.9 13.7.9 29.6 0 55.8-13 73.8-33.1 18 20.1 44.3 33.1 73.8 33.1 29.6 0 55.8-13 73.8-33.1 18 20.1 44.3 33.1 73.8 33.1 29.6 0 55.8-13 73.8-33.1 18.1 20.1 44.3 33.1 73.8 33.1 4.7 0 9.2-.3 13.7-.9 62.8-8.4 92.6-82.8 59-136.4zM529.5 288c-10 0-19.9-1.5-29.5-3.8V384H116v-99.8c-9.6 2.2-19.5 3.8-29.5 3.8-6 0-12.1-.4-18-1.2-5.6-.8-11.1-2.1-16.4-3.6V480c0 17.7 14.3 32 32 32h448c17.7 0 32-14.3 32-32V286.2c-5.3 1.5-10.8 2.8-16.4 3.6-5.8.8-11.9 1.2-17.8 1.2z" />
    </symbol>
    <symbol id="FaSun" viewBox="0 0 24 24">
      <circle cx="12" cy="12" r="10" fill="currentColor" opacity="0.2" />
      <circle cx="12" cy="12" r="6" fill="currentColor" opacity="0.4" />
      <circle cx="12" cy="12" r="2" fill="currentColor" />
    </symbol>
    <symbol id="FaTags" viewBox="0 0 24 24">
      <circle cx="12" cy="12" r="10" fill="currentColor" opacity="0.2" />
      <circle cx="12" cy="12" r="6" fill="currentColor" opacity="0.4" />
      <circle cx="12" cy="12" r="2" fill="currentColor" />
    </symbol>
    <symbol id="FaThumbsUp" viewBox="0 0 24 24">
      <circle cx="12" cy="12" r="10" fill="currentColor" opacity="0.2" />
      <circle cx="12" cy="12" r="6" fill="currentColor" opacity="0.4" />
      <circle cx="12" cy="12" r="2" fill="currentColor" />
    </symbol>
    <symbol id="FaTimes" viewBox="0 0 352 512">
      <path d="M242.72 256l100.07-100.07c12.28-12.28 12.28-32.19 0-44.48l-22.24-22.24c-12.28-12.28-32.19-12.28-44.48 0L176 189.28 75.93 89.21c-12.28-12.28-32.19-12.28-44.48 0L9.21 111.45c-12.28 12.28-12.28 32.19 0 44.48L109.28 256 9.21 356.07c-12.28 12.28-12.28 32.19 0 44.48l22.24 22.24c12.28 12.28 32.2 12.28 44.48 0L176 322.72l100.07 100.07c12.28 12.28 32.2 12.28 44.48 0l22.24-22.24c12.28-12.28 12.28-32.19 0-44.48L242.72 256z" />
    </symbol>
    <symbol id="FaTrash" viewBox="0 0 448 512">
      <path d="M432 32H312l-9.4-18.7A24 24 0 0 0 281.1 0H166.8a23.72 23.72 0 0 0-21.4 13.3L136 32H16A16 16 0 0 0 0 48v32a16 16 0 0 0 16 16h416a16 16 0 0 0 16-16V48a16 16 0 0 0-16-16zM53.2 467a48 48 0 0 0 47.9 45h245.8a48 48 0 0 0 47.9-45L416 128H32z" />
    </symbol>
    <symbol id="FaTripadvisor" viewBox="0 0 24 24">
      <path d="M12.006 4.295c-2.67 0-5.338.784-7.645 2.353H0l1.963 2.135a5.997 5.997 0 0 0 4.04 10.43 5.976 5.976 0 0 0 4.075-1.6L12 19.705l1.922-2.09a5.972 5.972 0 0 0 4.072 1.598 6 6 0 0 0 6-5.998 5.982 5.982 0 0 0-1.957-4.432L24 6.648h-4.35a13.573 13.573 0 0 0-7.644-2.353zM12 6.255c1.531 0 3.063.303 4.504.903C13.943 8.138 12 10.43 12 13.1c0-2.671-1.942-4.962-4.504-5.942A11.72 11.72 0 0 1 12 6.256zM6.002 9.157a4.059 4.059 0 1 1 0 8.118 4.059 4.059 0 0 1 0-8.118zm11.992.002a4.057 4.057 0 1 1 .003 8.115 4.057 4.057 0 0 1-.003-8.115zm-11.992 1.93a2.128 2.128 0 0 0 0 4.256 2.128 2.128 0 0 0 0-4.256zm11.992 0a2.128 2.128 0 0 0 0 4.256 2.128 2.128 0 0 0 0-4.256z" />
    </symbol>
    <symbol id="FaTrophy" viewBox="0 0 24 24">
      <circle cx="12" cy="12" r="10" fill="currentColor" opacity="0.2" />
      <circle cx="12" cy="12" r="6" fill="currentColor" opacity="0.4" />
      <circle cx="12" cy="12" r="2" fill="currentColor" />
    </symbol>
    <symbol id="FaUnlock" viewBox="0 0 24 24">
      <circle cx="12" cy="12" r="10" fill="currentColor" opacity="0.2" />
      <circle cx="12" cy="12" r="6" fill="currentColor" opacity="0.4" />
      <circle cx="12" cy="12" r="2" fill="currentColor" />
    </symbol>
    <symbol id="FaUpload" viewBox="0 0 512 512">
      <path d="M296 384h-80c-13.3 0-24-10.7-24-24V216h-87.7c-17.8 0-26.7-21.5-14.1-34.1L242.3 29.7c7.5-7.5 19.8-7.5 27.3 0l152.2 152.2c12.6 12.6 3.7 34.1-14.1 34.1H320v144c0 13.3-10.7 24-24 24zm216-8v112c0 13.3-10.7 24-24 24H24c-13.3 0-24-10.7-24-24V376c0-13.3 10.7-24 24-24h146.7l49 49c20.1 20.1 52.5 20.1 72.6 0l49-49H488c13.3 0 24 10.7 24 24zm-124 88c0-11-9-20-20-20s-20 9-20 20 9 20 20 20 20-9 20-20zm64 0c0-11-9-20-20-20s-20 9-20 20 9 20 20 20 20-9 20-20z" />
    </symbol>
    <symbol id="FaUser" viewBox="0 0 448 512">
      <path d="M224 256c70.7 0 128-57.3 128-128S294.7 0 224 0 96 57.3 96 128s57.3 128 128 128zm89.6 32h-16.7c-22.2 10.2-46.9 16-72.9 16s-50.6-5.8-72.9-16h-16.7C60.2 288 0 348.2 0 422.4V464c0 26.5 21.5 48 48 48h352c26.5 0 48-21.5 48-48v-41.6c0-74.2-60.2-134.4-134.4-134.4z" />
    </symbol>
    <symbol id="FaUserCircle" viewBox="0 0 496 512">
      <path d="M248 8C111 8 0 119 0 256s111 248 248 248 248-111 248-248S385 8 248 8zm0 96c48.6 0 88 39.4 88 88s-39.4 88-88 88-88-39.4-88-88 39.4-88 88-88zm0 344c-58.7 0-111.3-26.6-146.5-68.2 18.8-35.4 55.6-59.8 98.5-59.8 2.4 0 4.8.4 7.1 1.1 13 4.2 26.6 6.9 40.9 6.9 14.3 0 28-2.7 40.9-6.9 2.3-.7 4.7-1.1 7.1-1.1 42.9 0 79.7 24.4 98.5 59.8C359.3 421.4 306.7 448 248 448z" />
    </symbol>
    <symbol id="FaUserPlus" viewBox="0 0 640 512">
      <path d="M624 208h-64v-64c0-8.8-7.2-16-16-16h-32c-8.8 0-16 7.2-16 16v64h-64c-8.8 0-16 7.2-16 16v32c0 8.8 7.2 16 16 16h64v64c0 8.8 7.2 16 16 16h32c8.8 0 16-7.2 16-16v-64h64c8.8 0 16-7.2 16-16v-32c0-8.8-7.2-16-16-16zm-400 48c70.7 0 128-57.3 128-128S294.7 0 224 0 96 57.3 96 128s57.3 128 128 128zm89.6 32h-16.7c-22.2 10.2-46.9 16-72.9 16s-50.6-5.8-72.9-16h-16.7C60.2 288 0 348.2 0 422.4V464c0 26.5 21.5 48 48 48h352c26.5 0 48-21.5 48-48v-41.6c0-74.2-60.2-134.4-134.4-134.4z" />
    </symbol>
    <symbol id="FaUsers" viewBox="0 0 640 512">
      <path d="M96 224c35.3 0 64-28.7 64-64s-28.7-64-64-64-64 28.7-64 64 28.7 64 64 64zm448 0c35.3 0 64-28.7 64-64s-28.7-64-64-64-64 28.7-64 64 28.7 64 64 64zm32 32h-64c-17.6 0-33.5 7.1-45.1 18.6 40.3 22.1 68.9 62 75.1 109.4h66c17.7 0 32-14.3 32-32v-32c0-35.3-28.7-64-64-64zm-256 0c61.9 0 112-50.1 112-112S381.9 32 320 32 208 82.1 208 144s50.1 112 112 112zm76.8 32h-8.3c-20.8 10-43.9 16-68.5 16s-47.6-6-68.5-16h-8.3C179.6 288 128 339.6 128 403.2V432c0 26.5 21.5 48 48 48h288c26.5 0 48-21.5 48-48v-28.8c0-63.6-51.6-115.2-115.2-115.2zm-223.7-13.4C161.5 263.1 145.6 256 128 256H64c-35.3 0-64 28.7-64 64v32c0 17.7 14.3 32 32 32h65.9c6.3-47.4 34.9-87.3 75.2-109.4z" />
    </symbol>
    <symbol id="FaVideo" viewBox="0 0 576 512">
      <path d="M336.2 64H47.8C21.4 64 0 85.4 0 111.8v288.4C0 426.6 21.4 448 47.8 448h288.4c26.4 0 47.8-21.4 47.8-47.8V111.8c0-26.4-21.4-47.8-47.8-47.8zm189.4 37.7L416 177.3v157.4l109.6 75.5c21.2 14.6 50.4-.3 50.4-25.8V127.5c0-25.4-29.1-40.4-50.4-25.8z" />
    </symbol>
    <symbol id="FaWallet" viewBox="0 0 512 512">
      <path d="M461.2 128H80c-8.84 0-16-7.16-16-16s7.16-16 16-16h384c8.84 0 16-7.16 16-16 0-26.51-21.49-48-48-48H64C28.65 32 0 60.65 0 96v320c0 35.35 28.65 64 64 64h397.2c28.02 0 50.8-22.78 50.8-50.8V178.8c0-28.02-22.78-50.8-50.8-50.8zM416 96c8.84 0 16 7.16 16 16s-7.16 16-16 16-16-7.16-16-16 7.16-16 16-16z" />
    </symbol>
    <symbol id="FaWrench" viewBox="0 0 24 24">
      <circle cx="12" cy="12" r="10" fill="currentColor" opacity="0.2" />
      <circle cx="12" cy="12" r="6" fill="currentColor" opacity="0.4" />
      <circle cx="12" cy="12" r="2" fill="currentColor" />
    </symbol>
    <symbol id="FaYelp" viewBox="0 0 32 32">
      <path d="M13.961 22.279c0.246-0.273 0.601-0.444 0.995-0.444 0.739 0 1.338 0.599 1.338 1.338 0 0.016-0 0.032-0.001 0.048l0-0.002-0.237 6.483c-0.027 0.719-0.616 1.293-1.34 1.293-0.077 0-0.153-0.006-0.226-0.019l0.008 0.001c-1.763-0.303-3.331-0.962-4.69-1.902l0.039 0.025c-0.351-0.245-0.578-0.647-0.578-1.102 0-0.346 0.131-0.661 0.346-0.898l-0.001 0.001 4.345-4.829zM12.853 20.434l-6.301 1.572c-0.097 0.025-0.208 0.039-0.322 0.039-0.687 0-1.253-0.517-1.332-1.183l-0.001-0.006c-0.046-0.389-0.073-0.839-0.073-1.295 0-1.324 0.223-2.597 0.635-3.781l-0.024 0.081c0.183-0.534 0.681-0.911 1.267-0.911 0.214 0 0.417 0.050 0.596 0.14l-0.008-0.004 5.833 2.848c0.45 0.221 0.754 0.677 0.754 1.203 0 0.623-0.427 1.147-1.004 1.294l-0.009 0.002zM13.924 15.223l-6.104-10.574c-0.112-0.191-0.178-0.421-0.178-0.667 0-0.529 0.307-0.987 0.752-1.204l0.008-0.003c1.918-0.938 4.153-1.568 6.511-1.761l0.067-0.004c0.031-0.003 0.067-0.004 0.104-0.004 0.738 0 1.337 0.599 1.337 1.337 0 0.001 0 0.001 0 0.002v-0 12.207c-0 0.739-0.599 1.338-1.338 1.338-0.493 0-0.923-0.266-1.155-0.663l-0.003-0.006zM19.918 20.681l6.176 2.007c0.541 0.18 0.925 0.682 0.925 1.274 0 0.209-0.048 0.407-0.134 0.584l0.003-0.008c-0.758 1.569-1.799 2.889-3.068 3.945l-0.019 0.015c-0.23 0.19-0.527 0.306-0.852 0.306-0.477 0-0.896-0.249-1.134-0.625l-0.003-0.006-3.449-5.51c-0.128-0.201-0.203-0.446-0.203-0.709 0-0.738 0.598-1.336 1.336-1.336 0.147 0 0.289 0.024 0.421 0.068l-0.009-0.003zM26.197 16.742l-6.242 1.791c-0.11 0.033-0.237 0.052-0.368 0.052-0.737 0-1.335-0.598-1.335-1.335 0-0.282 0.087-0.543 0.236-0.758l-0.003 0.004 3.63-5.383c0.244-0.358 0.65-0.59 1.111-0.59 0.339 0 0.649 0.126 0.885 0.334l-0.001-0.001c1.25 1.104 2.25 2.459 2.925 3.99l0.029 0.073c0.070 0.158 0.111 0.342 0.111 0.535 0 0.608-0.405 1.121-0.959 1.286l-0.009 0.002z" />
    </symbol>
    <symbol id="FaAmazon" viewBox="0 0 35.418 35.418">
      <path d="M20.948,9.891c-0.857,0.068-1.847,0.136-2.837,0.269c-1.516,0.195-3.032,0.461-4.284,1.053 c-2.439,0.994-4.088,3.105-4.088,6.209c0,3.898,2.506,5.875,5.669,5.875c1.057,0,1.913-0.129,2.703-0.328 c1.255-0.396,2.31-1.123,3.562-2.441c0.727,0.99,0.923,1.453,2.177,2.509c0.329,0.133,0.658,0.133,0.922-0.066 c0.791-0.659,2.174-1.848,2.901-2.508c0.328-0.267,0.263-0.66,0.066-0.992c-0.727-0.924-1.45-1.718-1.45-3.498v-5.943 c0-2.513,0.195-4.822-1.647-6.537c-1.518-1.391-3.891-1.916-5.735-1.916c-0.264,0-0.527,0-0.792,0 c-3.362,0.197-6.921,1.647-7.714,5.811c-0.13,0.525,0.267,0.726,0.53,0.793l3.691,0.464c0.396-0.07,0.593-0.398,0.658-0.73 c0.333-1.449,1.518-2.176,2.836-2.309c0.067,0,0.133,0,0.265,0c0.79,0,1.646,0.332,2.109,0.987 c0.523,0.795,0.461,1.853,0.461,2.775L20.948,9.891L20.948,9.891z M20.223,17.749c-0.461,0.925-1.253,1.519-2.11,1.718 c-0.131,0-0.327,0.068-0.526,0.068c-1.45,0-2.31-1.123-2.31-2.775c0-2.11,1.254-3.104,2.836-3.565 c0.857-0.197,1.847-0.265,2.836-0.265v0.793C20.948,15.243,21.01,16.43,20.223,17.749z M35.418,26.918v0.215 c-0.035,1.291-0.716,3.768-2.328,5.131c-0.322,0.25-0.645,0.107-0.503-0.254c0.469-1.145,1.541-3.803,1.04-4.412 c-0.355-0.465-1.826-0.43-3.079-0.322c-0.572,0.072-1.075,0.105-1.469,0.183c-0.357,0.033-0.431-0.287-0.071-0.537 c0.466-0.323,0.969-0.573,1.541-0.756c2.039-0.608,4.406-0.25,4.729,0.146C35.348,26.414,35.418,26.629,35.418,26.918z M32.016,29.428c-0.466,0.357-0.965,0.682-1.468,0.973c-3.761,2.261-8.631,3.441-12.856,3.441c-6.807,0-12.895-2.512-17.514-6.709 c-0.396-0.324-0.073-0.789,0.393-0.539C5.549,29.5,11.709,31.26,18.084,31.26c4.013,0,8.342-0.754,12.463-2.371 c0.285-0.104,0.608-0.252,0.895-0.356C32.087,28.242,32.661,28.965,32.016,29.428z" />
    </symbol>
    <symbol id="SiG2" viewBox="0 0 512 512">
      <path d="M445.242 151.214h-76.489c2.078-12.016 9.473-18.718 24.495-26.343l14.097-7.165c25.188-12.938 38.589-27.498 38.589-51.301 0-15.02-5.777-26.806-17.33-35.356-11.323-8.55-25.188-12.709-41.132-12.709-12.712 0-24.265 3.233-34.896 9.935-10.398 6.472-18.256 14.79-23.107 25.188l22.184 22.188c8.55-17.333 21.029-25.883 37.437-25.883 13.864 0 22.414 7.165 22.414 17.1 0 8.32-4.159 15.252-20.103 23.34l-9.013 4.391c-19.644 9.935-33.278 21.259-41.136 34.201-7.855 12.709-11.783 29.116-11.783 48.76v5.314h115.773v-31.66zM435.017 219.437H308.359l-63.33 109.689h126.659l63.329 109.689 63.329-109.689z M255.941 402.251c-80.643 0-146.251-65.608-146.251-146.251s65.608-146.252 146.251-146.252L306.012 4.969a257.144 257.144 0 0 0-50.071-4.91C114.589.059 0 114.648 0 256s114.589 255.941 255.941 255.941c56.357 0 108.449-18.23 150.731-49.094l-55.446-96.035c-25.616 22.059-58.907 35.439-95.285 35.439z" />
    </symbol>
    <symbol id="SiAngi" viewBox="0 0 24 24">
      <path d="M12 2L2 22h4l1.5-3h9L18 22h4L12 2zm-2.5 13L12 9l2.5 6h-5z" />
    </symbol>
    <symbol id="MdDownload" viewBox="0 0 24 24">
      <path d="M5,20H19V18H5M19,9H15V3H9V9H5L12,16L19,9Z" />
    </symbol>
    <symbol id="MdEvent" viewBox="0 0 24 24">
      <circle cx="12" cy="12" r="10" fill="currentColor" opacity="0.2" />
      <circle cx="12" cy="12" r="6" fill="currentColor" opacity="0.4" />
      <circle cx="12" cy="12" r="2" fill="currentColor" />
    </symbol>
    <symbol id="MdLocationOn" viewBox="0 0 24 24">
      <circle cx="12" cy="12" r="10" fill="currentColor" opacity="0.2" />
      <circle cx="12" cy="12" r="6" fill="currentColor" opacity="0.4" />
      <circle cx="12" cy="12" r="2" fill="currentColor" />
    </symbol>
    <symbol id="FiMoreHorizontal" viewBox="0 0 24 24">
      <path d="M12 12h.01M21 12h.01M3 12h.01" fill="none" stroke="currentColor" stroke-width="2" stroke-linecap="round" stroke-linejoin="round" />
    </symbol>
    <symbol id="SiTrustpilot" viewBox="0 0 24 24">
      <path d="M12,17.964l5.214-1.321l2.179,6.714L12,17.964z M24,9.286h-9.179L12,0.643L9.179,9.286 H0l7.429,5.357l-2.821,8.643l7.429-5.357l4.571-3.286L24,9.286L24,9.286L24,9.286L24,9.286z" />
    </symbol>
    <symbol id="SiHouzz" viewBox="0 0 24 24">
      <path d="M1.27 0v24h8.05v-7.56h5.36V24h8.05V10.37L6.61 5.75V0H1.27z" />
    </symbol>
    <symbol id="SiHomeadvisor" viewBox="0 0 24 24">
      <path d="M15.98 2.442H8.02L0 10.46h2.275l6.882-6.88 6.881 6.881H24l-8.02-8.018m-.492 9.348L9.157 5.459 4.01 10.605v4.987a1.33 1.33 0 0 0 1.329 1.329h6.077l4.637 4.637v-4.637h2.598a1.33 1.33 0 0 0 1.33-1.33V11.79h-4.494z" />
    </symbol>
    <symbol id="FaDumbbell" viewBox="0 0 512 512">
      <path d="M256 8C119 8 8 119 8 256s111 248 248 248 248-111 248-248S393 8 256 8zm0 448c-110.5 0-200-89.5-200-200S145.5 56 256 56s200 89.5 200 200-89.5 200-200 200z" />
    </symbol>
    <symbol id="FaGlassCheers" viewBox="0 0 512 512">
      <path d="M32 160h448c17.67 0 32 14.33 32 32v192c0 17.67-14.33 32-32 32H32c-17.67 0-32-14.33-32-32V192c0-17.67 14.33-32 32-32zm384 224H64V192h384v192z" />
    </symbol>
    <symbol id="FaPagelines" viewBox="0 0 512 512">
      <path d="M256 8C119 8 8 119 8 256s111 248 248 248 248-111 248-248S393 8 256 8zm0 448c-110.5 0-200-89.5-200-200S145.5 56 256 56s200 89.5 200 200-89.5 200-200 200z" />
    </symbol>
    <symbol id="FaRainbow" viewBox="0 0 512 512">
      <path d="M256 8C119 8 8 119 8 256s111 248 248 248 248-111 248-248S393 8 256 8zm0 448c-110.5 0-200-89.5-200-200S145.5 56 256 56s200 89.5 200 200-89.5 200-200 200z" />
    </symbol>
    <symbol id="FaQuestionCircle" viewBox="0 0 512 512">
      <path d="M504 256c0 136.997-111.043 248-248 248S8 392.997 8 256C8 119.083 119.043 8 256 8s248 111.083 248 248zM262.655 90c-54.497 0-89.255 22.957-116.549 63.758-3.536 5.286-2.353 12.415 2.715 16.258l34.699 26.31c5.205 3.947 12.621 3.008 16.665-2.122 17.864-22.658 30.113-35.797 57.303-35.797 20.429 0 45.698 13.148 45.698 32.958 0 14.976-12.363 22.667-32.534 33.976C247.128 238.528 216 254.941 216 296v4c0 6.627 5.373 12 12 12h56c6.627 0 12-5.373 12-12v-4c0-21.059 1.636-28.188 32.534-44.568C349.039 244.814 376 220.976 376 184c0-54.515-48.185-94-113.345-94zM256 338.013c-22.091 0-40 17.909-40 40s17.909 39.987 40 39.987 40-17.896 40-39.987-17.909-40-40-40z" />
    </symbol>
    <symbol id="FaGift" viewBox="0 0 640 640">
      <path d="M385.5 132.8C393.1 119.9 406.9 112 421.8 112L424 112C446.1 112 464 129.9 464 152C464 174.1 446.1 192 424 192L350.7 192L385.5 132.8zM254.5 132.8L289.3 192L216 192C193.9 192 176 174.1 176 152C176 129.9 193.9 112 216 112L218.2 112C233.1 112 247 119.9 254.5 132.8zM344.1 108.5L320 149.5L295.9 108.5C279.7 80.9 250.1 64 218.2 64L216 64C167.4 64 128 103.4 128 152C128 166.4 131.5 180 137.6 192L96 192C78.3 192 64 206.3 64 224L64 256C64 273.7 78.3 288 96 288L544 288C561.7 288 576 273.7 576 256L576 224C576 206.3 561.7 192 544 192L502.4 192C508.5 180 512 166.4 512 152C512 103.4 472.6 64 424 64L421.8 64C389.9 64 360.3 80.9 344.1 108.4zM544 336L344 336L344 544L480 544C515.3 544 544 515.3 544 480L544 336zM296 336L96 336L96 480C96 515.3 124.7 544 160 544L296 544L296 336z" />
    </symbol>
    <symbol id="FaBbb" viewBox="0 0 562 961">
      <path d="M438.82,541.64H122.78l-11.45,37.79h84.26l15.98,52.1h138.43l16.08-52.1h84.17zM174.39,329.5c-24.21,33.38-16.79,80.07 16.58,104.29l75.68,54.96c8.4,6.05 10.26,17.79 4.14,26.15l11.35,8.19 39.96-55.06c9.28-12.69 14.29-27.99 14.31-43.71-0.03-3.998-0.36-7.989-0.99-11.939-3.02-19.53-13.67-37.06-29.6-48.74l-75.58-54.86c-4.21-2.82-7.06-7.24-7.89-12.24-0.099-0.99-0.099-1.97 0-2.96 0.026-3.93 1.27-7.76 3.55-10.95l-11.35-8.29zm45.59-220.82c-13.4,18.4-20.62,40.58-20.62,63.35-0.03,5.78 0.43,11.56 1.38,17.27 4.41,28.39 20.01,53.84 43.32,70.65l95.12,69.07c12.46,9 20.81,22.61 23.19,37.79 0.51,3.07 0.77,6.17 0.79,9.28-0.048,12.15-3.95,23.96-11.15,33.75l9.18,6.61 74.89-103.51c35.83-49.5 25.02-117.12-23.31-152.28L297.13,78.28c-7.18-5.2-11.97-13.05-13.32-21.81-1.46-8.75 0.67-17.72 5.92-24.86l-9.08-6.61zM25.79,663.1h86.63c17.79-1.18 35.32,4.75 48.74,16.48 8.43,8.35 13.04,19.81 12.73,31.67v0.59c0.48,17.04-9.11,32.77-24.47,40.16 21.51,8.29 34.83,20.82 34.83,45.88 0,34.14-27.63,51.21-69.76,51.21H25.69zm78.15,75.38c18.06,0 29.6-5.92 29.6-19.73 0-12.33-9.87-19.73-26.94-19.73H65.75v39.47zm10.85,75.09c18.16,0 29.01-6.41 29.01-19.73v-0.59c0-12.43-9.28-19.73-30.29-19.73H65.75v41.05zM202.61,663.1h86.63c17.79-1.18 35.32,4.75 48.74,16.48 8.39,8.37 12.96,19.83 12.63,31.67v0.59c0.48,17.04-9.11,32.77-24.47,40.16 21.61,8.29 34.93,20.82 34.93,45.88 0,34.14-27.73,51.21-69.86,51.21h-88.61zm77.85,75.38c18.06,0 29.6-5.92 29.6-19.73 0-12.33-9.87-19.73-26.84-19.73h-41.15v39.47zm10.85,75.09c18.16,0 29.01-6.41 29.01-19.73v-0.59c0-12.43-9.28-19.73-30.29-19.73h-47.95v41.05zM378.44,663.1h86.63c17.79-1.18 35.32,4.75 48.74,16.48 8.43,8.35 13.04,19.81 12.73,31.67v0.59c0.48,17.04-9.11,32.77-24.47,40.16 21.61,8.29 34.93,20.82 34.93,45.88 0,34.14-27.73,51.21-69.86,51.21h-88.8zm77.85,75.38c18.06,0 29.6-5.92 29.6-19.73 0-12.33-9.87-19.73-26.84-19.73h-40.65v39.47zm10.85,75.09c18.16,0 29.11-6.41 29.11-19.73v-0.59c0-12.43-9.37-19.73-30.39-19.73h-47.46v41.05z" />
    </symbol>
    <symbol id="FaSave" viewBox="0 0 448 512">
      <path d="M433.941 129.941l-83.882-83.882A48 48 0 0 0 316.118 32H48C21.49 32 0 53.49 0 80v352c0 26.51 21.49 48 48 48h352c26.51 0 48-21.49 48-48V163.882a48 48 0 0 0-14.059-33.941zM224 416c-35.346 0-64-28.654-64-64 0-35.346 28.654-64 64-64s64 28.654 64 64c0 35.346-28.654 64-64 64zm96-304.52V212c0 6.627-5.373 12-12 12H76c-6.627 0-12-5.373-12-12V108c0-6.627 5.373-12 12-12h228.52c3.183 0 6.235 1.264 8.485 3.515l3.48 3.48A11.996 11.996 0 0 1 320 111.48z" />
    </symbol>
    <symbol id="FaFavorites" viewBox="0 0 512 512">
      <path d="M0 190.9V185.1C0 115.2 50.52 55.58 119.4 44.1C164.1 36.51 211.4 51.37 244 84.02L256 96L267.1 84.02C300.6 51.37 347 36.51 392.6 44.1C461.5 55.58 512 115.2 512 185.1V190.9C512 232.4 494.8 272.1 464.4 300.4L283.7 469.1C276.2 476.1 266.3 480 256 480C245.7 480 235.8 476.1 228.3 469.1L47.59 300.4C17.23 272.1 .0003 232.4 .0003 190.9L0 190.9z" />
    </symbol>
    <symbol id="FaBookmark" viewBox="0 0 384 512">
      <path d="M0 48V487.7C0 501.1 10.9 512 24.3 512c5.8 0 11.5-2.1 15.9-5.9L192 400l151.8 106.1c4.4 3.8 10.1 5.9 15.9 5.9C373.1 512 384 501.1 384 487.7V48c0-26.5-21.5-48-48-48H48C21.5 0 0 21.5 0 48z" />
    </symbol>
    <symbol id="FiMenu" viewBox="0 0 24 24">
      <path d="M3 12h18M3 6h18M3 18h18" fill="none" stroke="currentColor" stroke-width="2" stroke-linecap="round" stroke-linejoin="round" />
    </symbol>
    <symbol id="FiX" viewBox="0 0 24 24">
      <path d="M18 6L6 18M6 6l12 12" fill="none" stroke="currentColor" stroke-width="2" stroke-linecap="round" stroke-linejoin="round" />
    </symbol>
    <symbol id="FaFeather" viewBox="0 0 640 640">
      <path d="M416 64C457 64 496.3 80.3 525.2 109.2L530.7 114.7C559.7 143.7 576 183 576 223.9C576 248 570.3 271.5 559.8 292.7C557.9 296.4 554.5 299.2 550.5 300.4L438.5 334C434.6 335.2 432 338.7 432 342.8C432 347.9 436.1 352 441.2 352L473.4 352C487.7 352 494.8 369.2 484.7 379.3L462.3 401.7C460.4 403.6 458.1 404.9 455.6 405.7L374.6 430C370.7 431.2 368.1 434.7 368.1 438.8C368.1 443.9 372.2 448 377.3 448C390.5 448 396.2 463.7 385.1 470.9C344 497.5 295.8 512 246.1 512L160.1 512L112.1 560C103.3 568.8 88.9 568.8 80.1 560C71.3 551.2 71.3 536.8 80.1 528L320 288C328.8 279.2 328.8 264.8 320 256C311.2 247.2 296.8 247.2 288 256L143.5 400.5C137.8 406.2 128 402.2 128 394.1C128 326.2 155 261.1 203 213.1L306.8 109.2C335.7 80.3 375 64 416 64z" />
    </symbol>
    <symbol id="FaSmile" viewBox="0 0 496 512">
      <path d="M248 8C111 8 0 119 0 256s111 248 248 248 248-111 248-248S385 8 248 8zm80 168c17.7 0 32 14.3 32 32s-14.3 32-32 32-32-14.3-32-32 14.3-32 32-32zm-160 0c17.7 0 32 14.3 32 32s-14.3 32-32 32-32-14.3-32-32 14.3-32 32-32zm194.8 170.2C334.3 380.4 292.5 400 248 400s-86.3-19.6-114.8-53.8c-13.6-16.3 11-36.7 24.6-20.5 22.4 26.9 55.2 42.2 90.2 42.2s67.8-15.4 90.2-42.2c13.4-16.2 38.1 4.2 24.6 20.5z" />
    </symbol>
    <symbol id="FaHelpBubble" viewBox="0 0 404.943 404.943">
      <path d="M391.691,18.284H13.25C5.932,18.284,0,24.219,0,31.536v242.48c0,7.32,5.932,13.252,13.25,13.252h202.674v86.137c0,5.359,3.229,10.193,8.182,12.244c1.639,0.68,3.359,1.01,5.066,1.01c3.446,0,6.838-1.348,9.372-3.883l96.173-95.508h56.975c7.32,0,13.252-5.932,13.252-13.252V31.535C404.943,24.218,399.012,18.284,391.691,18.284z M202.472,250.071c-11.226,0-20.357-9.133-20.357-20.357c0-11.226,9.132-20.357,20.357-20.357s20.357,9.132,20.357,20.357C222.829,240.938,213.698,250.071,202.472,250.071z M223.797,153.233c-2.673,1.828-4.521,3.174-5.523,4.021v21.272c0,8.712-7.088,15.8-15.8,15.8c-8.714,0-15.802-7.088-15.802-15.8v-22.918c0-15.281,11.153-22.903,19.297-28.467c8.789-6.005,14.594-9.972,14.594-22.361c0-9.975-8.114-18.09-18.089-18.09c-9.976,0-18.09,8.115-18.09,18.09c0,8.713-7.089,15.801-15.802,15.801s-15.802-7.088-15.802-15.801c0-27.4,22.292-49.692,49.693-49.692c27.399,0,49.691,22.292,49.691,49.692C252.164,133.852,234.407,145.984,223.797,153.233z" />
    </symbol>
    <symbol id="FaMegaphone" viewBox="0 0 16 16">
      <path d="M13 2.5a1.5 1.5 0 0 1 3 0v11a1.5 1.5 0 0 1-3 0v-11zm-1 .724c-2.067.95-4.539 1.481-7 1.656v6.237a25.222 25.222 0 0 1 1.088.085c2.053.204 4.038.668 5.912 1.56V3.224zm-8 7.841V4.934c-.68.027-1.399.043-2.008.053A2.02 2.02 0 0 0 0 7v2c0 1.106.896 1.996 1.994 2.009a68.14 68.14 0 0 1 .496.008 64 64 0 0 1 1.51.048zm1.39 1.081c.285.021.569.047.85.078l.253 1.69a1 1 0 0 1-.983 1.187h-.548a1 1 0 0 1-.916-.599l-1.314-2.48a65.81 65.81 0 0 1 1.692.064c.327.017.65.037.966.06z"/>
    </symbol>
    <symbol id="prompty" viewBox="0 0 60 60">
      <path fill="currentColor" fill-rule="evenodd" d="M 23.195312 2.695312 C 21.628906 3.039062 20.648438 3.996094 19.089844 6.710938 C 17.46875 9.53125 15.710938 13.765625 15.710938 14.847656 C 15.710938 15.09375 15.75 15.164062 16.066406 15.457031 C 16.753906 16.105469 17.929688 16.800781 19.738281 17.640625 C 20.367188 17.929688 20.542969 18.054688 20.453125 18.148438 C 20.390625 18.210938 18.976562 17.84375 18.316406 17.589844 C 16.628906 16.945312 15.824219 16.4375 13.054688 14.277344 C 10.1875 12.03125 9.53125 11.617188 8.351562 11.289062 C 7.675781 11.097656 6.777344 11.039062 6.234375 11.144531 C 5.667969 11.253906 4.785156 11.671875 4.265625 12.070312 C 3.417969 12.722656 2.636719 13.964844 2.269531 15.238281 C 1.914062 16.476562 1.878906 17.820312 2.167969 19.324219 C 2.75 22.363281 4.652344 25.203125 7.25 26.90625 L 7.878906 27.316406 L 7.878906 28.765625 L 7.507812 28.882812 C 6.703125 29.136719 6.140625 29.730469 5.976562 30.503906 C 5.878906 30.953125 5.878906 37.082031 5.976562 37.851562 C 6.015625 38.167969 6.105469 38.550781 6.171875 38.703125 C 6.425781 39.277344 6.921875 39.675781 7.65625 39.898438 C 7.929688 39.976562 7.949219 40 7.949219 40.226562 C 7.949219 41.039062 8.101562 43.667969 8.1875 44.371094 C 8.316406 45.421875 8.441406 46.027344 8.695312 46.78125 C 9.558594 49.359375 11.304688 51.007812 13.984375 51.773438 C 15.757812 52.28125 14.746094 52.246094 29.132812 52.277344 C 43.871094 52.304688 44.128906 52.296875 45.964844 51.839844 C 47.300781 51.511719 48.558594 50.863281 49.445312 50.046875 C 50.539062 49.046875 51.425781 47.371094 51.800781 45.609375 C 51.992188 44.71875 52.222656 42.496094 52.222656 41.570312 C 52.222656 41.257812 52.242188 40.8125 52.265625 40.582031 C 52.304688 40.203125 52.328125 40.160156 52.488281 40.121094 C 52.960938 40.007812 53.589844 39.546875 53.847656 39.121094 C 54.21875 38.511719 54.21875 38.535156 54.203125 34.34375 L 54.191406 30.460938 L 54.023438 30.109375 C 53.734375 29.515625 53.355469 29.234375 52.375 28.894531 C 52.328125 28.875 52.285156 28.800781 52.28125 28.726562 C 52.273438 28.605469 52.265625 28.484375 52.257812 28.363281 C 52.246094 28.242188 52.253906 27.949219 52.273438 27.714844 L 52.308594 27.285156 L 52.90625 26.875 C 55.460938 25.125 57.3125 22.417969 57.929688 19.527344 C 58.417969 17.242188 58.191406 15.277344 57.242188 13.59375 C 56.558594 12.375 55.253906 11.359375 54.09375 11.140625 C 53.242188 10.980469 51.914062 11.207031 50.886719 11.6875 C 50.175781 12.023438 49.644531 12.382812 47.714844 13.855469 C 44.492188 16.308594 44.253906 16.46875 42.824219 17.113281 C 41.417969 17.742188 39.6875 18.21875 39.6875 17.972656 C 39.6875 17.941406 40.1875 17.695312 40.796875 17.425781 C 41.40625 17.15625 42.175781 16.777344 42.507812 16.582031 C 43.328125 16.09375 44.179688 15.398438 44.34375 15.074219 C 44.464844 14.835938 44.46875 14.773438 44.394531 14.363281 C 44 12.214844 41.730469 7.324219 39.992188 4.875 C 39.332031 3.945312 38.714844 3.363281 38.046875 3.046875 C 37.257812 2.671875 36.53125 2.539062 35.570312 2.585938 C 34.597656 2.636719 34.160156 2.738281 32.878906 3.214844 C 31.117188 3.867188 30.820312 3.941406 30.050781 3.945312 C 29.28125 3.945312 28.855469 3.832031 27.375 3.238281 C 26.167969 2.75 25.636719 2.625 24.636719 2.59375 C 23.976562 2.574219 23.652344 2.597656 23.195312 2.695312 M 26.679688 13.640625 C 24.320312 13.707031 22.101562 13.867188 20.617188 14.078125 C 19.964844 14.171875 19.152344 14.4375 19.152344 14.558594 C 19.152344 14.707031 20.050781 15.125 21.125 15.472656 C 22.828125 16.03125 24.167969 16.324219 25.792969 16.492188 C 29.867188 16.914062 33.917969 16.742188 36.886719 16.011719 C 38.3125 15.660156 40.816406 14.777344 41.183594 14.492188 L 41.351562 14.363281 L 41.082031 14.292969 C 40.34375 14.097656 38.011719 13.859375 35.671875 13.734375 C 34.332031 13.664062 28.128906 13.601562 26.679688 13.640625 M 17.210938 20.144531 C 13.554688 20.484375 11.53125 21.691406 10.578125 24.101562 C 10.09375 25.328125 10.046875 26.324219 10.097656 34.410156 C 10.132812 40.664062 10.199219 43.492188 10.332031 44.523438 C 10.675781 47.160156 12.148438 48.964844 14.640625 49.800781 C 15.78125 50.183594 15.570312 50.179688 30.003906 50.179688 C 44.203125 50.179688 44.277344 50.175781 45.4375 49.84375 C 46.484375 49.539062 47.449219 48.957031 48.175781 48.183594 C 49.230469 47.066406 49.707031 45.785156 49.917969 43.46875 C 50.046875 42.035156 50.046875 26.347656 49.914062 25.488281 C 49.660156 23.824219 48.90625 22.484375 47.738281 21.625 C 46.667969 20.832031 45.007812 20.320312 42.925781 20.144531 C 41.953125 20.058594 18.105469 20.0625 17.210938 20.144531 M 17.585938 22.738281 C 16.097656 22.789062 15.476562 22.910156 14.65625 23.304688 C 13.90625 23.667969 13.414062 24.132812 13.09375 24.765625 C 12.636719 25.675781 12.632812 25.75 12.597656 30.015625 C 12.558594 35.394531 12.679688 43.570312 12.8125 44.28125 C 13.136719 46.035156 14.085938 47.050781 15.847656 47.535156 L 16.425781 47.691406 L 29.984375 47.691406 C 44.578125 47.691406 43.945312 47.707031 44.925781 47.34375 C 46.074219 46.917969 46.925781 45.910156 47.285156 44.558594 C 47.5 43.75 47.535156 42.363281 47.546875 34.171875 C 47.554688 26.582031 47.546875 26.003906 47.4375 25.589844 C 47.234375 24.84375 46.949219 24.347656 46.46875 23.898438 C 45.785156 23.261719 45.035156 22.953125 43.757812 22.796875 C 43.097656 22.714844 19.742188 22.660156 17.585938 22.738281 M 21.820312 27.972656 C 20.9375 28.128906 20.097656 28.828125 19.609375 29.816406 C 19.175781 30.699219 19.085938 31.113281 19.085938 32.265625 C 19.085938 33.113281 19.105469 33.324219 19.242188 33.761719 C 19.601562 34.90625 20.199219 35.695312 21.007812 36.089844 C 21.390625 36.28125 21.511719 36.304688 22.042969 36.308594 C 22.601562 36.3125 22.675781 36.296875 23.15625 36.058594 C 24.015625 35.632812 24.667969 34.78125 24.988281 33.660156 C 25.214844 32.871094 25.214844 31.316406 24.988281 30.53125 C 24.472656 28.738281 23.21875 27.726562 21.820312 27.972656 M 37.660156 27.972656 C 36.617188 28.195312 35.601562 29.382812 35.214844 30.835938 C 35.046875 31.457031 35.046875 33.015625 35.210938 33.625 C 35.480469 34.621094 36.0625 35.496094 36.742188 35.929688 C 37.164062 36.199219 37.546875 36.292969 38.179688 36.289062 C 38.613281 36.289062 38.761719 36.253906 39.105469 36.085938 C 39.65625 35.8125 39.976562 35.535156 40.308594 35.046875 C 40.910156 34.160156 41.128906 33.394531 41.132812 32.125 C 41.132812 31.65625 41.097656 31.089844 41.054688 30.867188 C 40.796875 29.574219 40.0625 28.523438 39.125 28.109375 C 38.757812 27.945312 38.082031 27.882812 37.660156 27.972656 M 24.261719 38.988281 C 24.035156 39.046875 23.753906 39.277344 23.640625 39.5 C 23.375 40.015625 23.675781 40.730469 24.546875 41.664062 C 25.492188 42.675781 26.742188 43.363281 28.210938 43.683594 C 28.859375 43.828125 30.457031 43.878906 31.253906 43.785156 C 32.964844 43.582031 34.539062 42.84375 35.664062 41.710938 C 36.78125 40.589844 37.03125 39.808594 36.460938 39.242188 C 36.019531 38.796875 35.199219 38.867188 34.832031 39.382812 C 34.6875 39.589844 34.539062 39.796875 34.390625 40.003906 C 34.25 40.199219 33.984375 40.480469 33.796875 40.636719 C 33.332031 41.027344 32.351562 41.5 31.652344 41.675781 C 31.140625 41.800781 30.945312 41.8125 29.949219 41.78125 C 28.648438 41.738281 28.066406 41.613281 27.222656 41.1875 C 26.503906 40.824219 25.9375 40.335938 25.476562 39.679688 C 25.011719 39.015625 24.75 38.867188 24.261719 38.988281 "/>
    </symbol>
    <symbol id="PromptPageIcon" viewBox="0 0 24 24">
      <!-- [P] icon for Prompt Pages -->
      <text x="12" y="15" font-family="Inter, system-ui, -apple-system, sans-serif" font-size="14" font-weight="700" text-anchor="middle" fill="currentColor">[P]</text>
    </symbol>
    <symbol id="CustomerIcon" viewBox="0 0 107.4084 230.4448">
      <!-- Customer with arms raised icon -->
      <path fill="currentColor" d="M86.8651,120.29c0.2493,3.3261,0.4326,6.7546,0.5295,10.2818c0.0967,3.5278,2.9863,6.3218,6.4941,6.3218c0.0596,0,0.1201-0.001,0.1816-0.0024c3.5879-0.0986,6.417-3.0874,6.3184-6.6758c-0.0791-2.8838-0.215-5.6995-0.3913-8.4558L86.8651,120.29z"/>
      <path fill="currentColor" d="M55.6787,93.978c8.54-10.8865,16.5322-32.6918,18.0428-36.9388L64.753,49.157C63.4044,68.7402,57.928,87.1077,55.6787,93.978z"/>
      <path fill="currentColor" d="M20.545,120.2898l-13.1342,1.4698c-0.1763,2.7563-0.3122,5.572-0.3913,8.4557c-0.0986,3.5884,2.7305,6.5771,6.3184,6.6758c0.0615,0.0015,0.1211,0.0024,0.1816,0.0024c3.5078,0,6.3975-2.7939,6.4941-6.3218C20.1104,127.0464,20.2944,123.6177,20.545,120.2898z"/>
      <path fill="currentColor" d="M42.6562,49.1567l-8.9698,7.8824c1.5109,4.2474,9.5044,26.056,18.0451,36.9417C49.4828,87.1129,44.005,68.7428,42.6562,49.1567z"/>
      <path fill="currentColor" d="M53.7041,119.4738c-4.4898,6.3796-13.8355,17.17-28.4952,22.5884l-8.0527,77.346c-0.5723,5.4932,3.418,10.4102,8.9111,10.9819c0.3516,0.0366,0.7012,0.0547,1.0469,0.0547c5.0576,0,9.3994-3.8242,9.9346-8.9653l8.23-79.0486c3.3999-5.8443,6.5693-7.6791,8.4272-7.6791c1.8599,0,5.0356,1.84,8.4404,7.702l8.2266,79.0257c0.5352,5.1411,4.876,8.9653,9.9336,8.9653c0.3467,0,0.6963-0.0181,1.0479-0.0547c5.4932-0.5718,9.4834-5.4888,8.9111-10.9819l-8.0513-77.3405C67.5461,136.6509,58.1954,125.8555,53.7041,119.4738z"/>
      <path fill="currentColor" d="M53.7042,52.8959c-1.0634,0-1.9254,0.8619-1.9254,1.9253c0,1.0633,0.862,1.9253,1.9254,1.9253c1.0633,0,1.9253-0.862,1.9253-1.9253C55.6295,53.7578,54.7675,52.8959,53.7042,52.8959z"/>
      <path fill="currentColor" d="M53.7042,69.2342c1.0633,0,1.9253-0.862,1.9253-1.9253c0-1.0634-0.862-1.9253-1.9253-1.9253c-1.0634,0-1.9254,0.8619-1.9254,1.9253C51.7789,68.3722,52.6409,69.2342,53.7042,69.2342z"/>
      <path fill="currentColor" d="M53.7042,81.7219c1.0633,0,1.9253-0.862,1.9253-1.9253c0-1.0634-0.862-1.9253-1.9253-1.9253c-1.0634,0-1.9254,0.8619-1.9254,1.9253C51.7789,80.8599,52.6409,81.7219,53.7042,81.7219z"/>
      <path fill="currentColor" d="M75.2042,21.5c0-11.8741-9.6259-21.5-21.5-21.5s-21.5,9.6259-21.5,21.5S41.83,43,53.7042,43S75.2042,33.3741,75.2042,21.5zM43.5609,28.9776h20.2866c-2.1021,3.405-5.8566,5.6864-10.1433,5.6864C49.4175,34.664,45.663,32.3826,43.5609,28.9776z"/>
      <path fill="currentColor" d="M20.9206,115.8874c1.8389-19.2365,5.8632-34.588,8.7068-43.5957c2.4692,7.2062,2.8541,15.2776,2.2819,20.9247c-0.8779,8.6638-2.0297,12.9877-3.2631,19.8423l-8.6337,28.2557c17.5688-4.7244,28.2902-17.9381,32.6051-24.3477h2.173c4.3149,6.4095,15.0363,19.6233,32.6051,24.3477l-8.6273-28.2347c-1.2382-6.8668-2.3868-11.1906-3.2661-19.8633c-0.5723-5.65-0.1849-13.7266,2.2858-20.9357c2.8445,8.9873,6.8666,24.3163,8.7029,43.607l14.8189,1.6583l1.2357-1.7984l4.8627-7.0771l-5.8241-1.8335l-3.1509-0.9919C94.6817,77.592,87.03,59.306,86.623,58.3491c-0.7085-1.6642-2.0288-2.8789-3.5864-3.4966c-2.2582-1.3129-7.136-3.749-14.4139-5.3561l7.7795,6.8362l-0.25,0.7285C75.743,58.254,66.0116,86.4,55.6024,97.6198c-0.2266,0.2441-0.5342,0.3677-0.8428,0.3677c-0.2803,0-0.5605-0.1016-0.7822-0.3066c-0.1241-0.1152-0.212-0.2526-0.2734-0.3991c-0.0615,0.1465-0.1493,0.2839-0.2734,0.3991c-0.2217,0.2051-0.502,0.3066-0.7822,0.3066c-0.3086,0-0.6162-0.1235-0.8428-0.3677C41.3964,86.4,31.6649,58.254,31.2557,57.0612l-0.25-0.7285l7.7792-6.8354c-7.2691,1.6057-12.1429,4.0382-14.4036,5.3517c-1.562,0.6167-2.8862,1.8328-3.5962,3.5001c-0.407,0.9568-8.0587,19.2429-11.8104,47.496l-3.1509,0.9919L0,108.6705l4.8625,7.0768l1.2359,1.7986L20.9206,115.8874z"/>
      <polygon fill="currentColor" points="30.2986,25.7866 29.0436,22.4878 27.066,27.686 29.0436,32.8842 30.8516,28.1317 31.0212,27.686"/>
      <polygon fill="currentColor" points="76.5568,28.1319 78.3647,32.8842 80.3422,27.686 78.3647,22.4878 77.11,25.7857 76.3871,27.686"/>
    </symbol>
    <symbol id="FaQrcode" viewBox="0 0 448 512">
      <path d="M0 224V32C0 14.3 14.3 0 32 0H224c17.7 0 32 14.3 32 32V224c0 17.7-14.3 32-32 32H32c-17.7 0-32-14.3-32-32zM64 64V192H192V64H64zM256 32c0-17.7 14.3-32 32-32H416c17.7 0 32 14.3 32 32V160c0 17.7-14.3 32-32 32H288c-17.7 0-32-14.3-32-32V32zM320 64V128h64V64H320zM0 288c0-17.7 14.3-32 32-32H160c17.7 0 32 14.3 32 32V480c0 17.7-14.3 32-32 32H32c-17.7 0-32-14.3-32-32V288zM64 320V448h64V320H64zM288 288H416c17.7 0 32 14.3 32 32V352c0 17.7-14.3 32-32 32H384v64c0 17.7-14.3 32-32 32H288c-17.7 0-32-14.3-32-32V320C256 302.3 270.3 288 288 288zm32 64V416h32V352H320zm128 64V352H416v64h32zm0 64V448H384v32h64z"/>
    </symbol>
  </defs>
</svg>