<?xml version="1.0" encoding="UTF-8"?>
<svg xmlns="http://www.w3.org/2000/svg" style="display: none;">
  <defs>
        <symbol id="FaAddressBook" viewBox="0 0 24 24">
      <circle cx="12" cy="12" r="10" fill="currentColor" opacity="0.2" />
      <circle cx="12" cy="12" r="6" fill="currentColor" opacity="0.4" />
      <circle cx="12" cy="12" r="2" fill="currentColor" />
    </symbol>
    <symbol id="FaAnchor" viewBox="0 0 24 24">
      <circle cx="12" cy="12" r="10" fill="currentColor" opacity="0.2" />
      <circle cx="12" cy="12" r="6" fill="currentColor" opacity="0.4" />
      <circle cx="12" cy="12" r="2" fill="currentColor" />
    </symbol>
    <symbol id="FaAngry" viewBox="0 0 24 24">
      <circle cx="12" cy="12" r="10" fill="currentColor" opacity="0.2" />
      <circle cx="12" cy="12" r="6" fill="currentColor" opacity="0.4" />
      <circle cx="12" cy="12" r="2" fill="currentColor" />
    </symbol>
    <symbol id="FaAnkh" viewBox="0 0 24 24">
      <circle cx="12" cy="12" r="10" fill="currentColor" opacity="0.2" />
      <circle cx="12" cy="12" r="6" fill="currentColor" opacity="0.4" />
      <circle cx="12" cy="12" r="2" fill="currentColor" />
    </symbol>
    <symbol id="FaAppleAlt" viewBox="0 0 24 24">
      <circle cx="12" cy="12" r="10" fill="currentColor" opacity="0.2" />
      <circle cx="12" cy="12" r="6" fill="currentColor" opacity="0.4" />
      <circle cx="12" cy="12" r="2" fill="currentColor" />
    </symbol>
    <symbol id="FaArrowLeft" viewBox="0 0 448 512">
      <path d="M257.5 445.1l-22.2 22.2c-9.4 9.4-24.6 9.4-33.9 0L7 273c-9.4-9.4-9.4-24.6 0-33.9L201.4 44.7c9.4-9.4 24.6-9.4 33.9 0l22.2 22.2c9.5 9.5 9.3 25-.4 34.3L136.6 216H424c13.3 0 24 10.7 24 24v32c0 13.3-10.7 24-24 24H136.6l120.5 114.8c9.8 9.3 10 24.8.4 34.3z" />
    </symbol>
    <symbol id="FaArrowRight" viewBox="0 0 448 512">
      <path d="M190.5 66.9l22.2-22.2c9.4-9.4 24.6-9.4 33.9 0L441 239c9.4 9.4 9.4 24.6 0 33.9L246.6 467.3c-9.4 9.4-24.6 9.4-33.9 0l-22.2-22.2c-9.5-9.5-9.3-25 .4-34.3L311.4 296H24c-13.3 0-24-10.7-24-24v-32c0-13.3 10.7-24 24-24h287.4L190.9 101.2c-9.8-9.3-10-24.8-.4-34.3z" />
    </symbol>
    <symbol id="FaArrowsAlt" viewBox="0 0 640 640">
      <path d="M342.6 73.4C330.1 60.9 309.8 60.9 297.3 73.4L233.3 137.4C220.8 149.9 220.8 170.2 233.3 182.7C245.8 195.2 266.1 195.2 278.6 182.7L288 173.3L288 288L173.3 288L182.7 278.6C195.2 266.1 195.2 245.8 182.7 233.3C170.2 220.8 149.9 220.8 137.4 233.3L73.4 297.3C60.9 309.8 60.9 330.1 73.4 342.6L137.4 406.6C149.9 419.1 170.2 419.1 182.7 406.6C195.2 394.1 195.2 373.8 182.7 361.3L173.3 351.9L288 351.9L288 466.6L278.6 457.2C266.1 444.7 245.8 444.7 233.3 457.2C220.8 469.7 220.8 490 233.3 502.5L297.3 566.5C309.8 579 330.1 579 342.6 566.5L406.6 502.5C419.1 490 419.1 469.7 406.6 457.2C394.1 444.7 373.8 444.7 361.3 457.2L351.9 466.6L351.9 351.9L466.6 351.9L457.2 361.3C444.7 373.8 444.7 394.1 457.2 406.6C469.7 419.1 490 419.1 502.5 406.6L566.5 342.6C579 330.1 579 309.8 566.5 297.3L502.5 233.3C490 220.8 469.7 220.8 457.2 233.3C444.7 245.8 444.7 266.1 457.2 278.6L466.6 288L351.9 288L351.9 173.3L361.3 182.7C373.8 195.2 394.1 195.2 406.6 182.7C419.1 170.2 419.1 149.9 406.6 137.4L342.6 73.4z" />
    </symbol>
    <symbol id="FaBars" viewBox="0 0 448 512">
      <path d="M16 132h416c8.837 0 16-7.163 16-16V76c0-8.837-7.163-16-16-16H16C7.163 60 0 67.163 0 76v40c0 8.837 7.163 16 16 16zm0 160h416c8.837 0 16-7.163 16-16v-40c0-8.837-7.163-16-16-16H16c-8.837 0-16 7.163-16 16v40c0 8.837 7.163 16 16 16zm0 160h416c8.837 0 16-7.163 16-16v-40c0-8.837-7.163-16-16-16H16c-8.837 0-16 7.163-16 16v40c0 8.837 7.163 16 16 16z" />
    </symbol>
    <symbol id="FaBell" viewBox="0 0 448 512">
      <path d="M224 512c35.32 0 63.97-28.65 63.97-64H160.03c0 35.35 28.65 64 63.97 64zm215.39-149.71c-19.32-20.76-55.47-51.99-55.47-154.29 0-77.7-54.48-139.9-127.94-155.16V32c0-17.67-14.32-32-31.98-32s-31.98 14.33-31.98 32v20.84C118.56 68.1 64.08 130.3 64.08 208c0 102.3-36.15 133.53-55.47 154.29-6 6.45-8.66 14.16-8.61 21.71.11 16.4 12.98 32 32.1 32h383.8c19.12 0 32-15.6 32.1-32 .05-7.55-2.61-15.27-8.61-21.71z" />
    </symbol>
    <symbol id="FaBoxOpen" viewBox="0 0 640 512">
      <path d="M58.9 42.1c3-6.1 9.6-9.6 16.3-8.7L320 64 564.8 33.4c6.7-.8 13.3 2.7 16.3 8.7l41.7 83.4c9 17.9-.6 39.6-19.8 45.1L439.6 217.3c-13.9 4-28.8-1.9-36.2-14.3L320 64 236.6 203c-7.4 12.4-22.3 18.3-36.2 14.3L37.1 170.6c-19.3-5.5-28.8-27.2-19.8-45.1L58.9 42.1zM321.1 128l54.9 91.4c14.9 24.8 44.6 36.6 72.5 28.6L576 211.6v167c0 22-15 41.2-36.4 46.6l-204.1 51c-10.2 2.6-20.9 2.6-31 0l-204.1-51C79 419.7 64 400.5 64 378.5v-167L191.6 248c27.8 8 57.6-3.8 72.5-28.6L318.9 128h2.2z" />
    </symbol>
    <symbol id="FaBug" viewBox="0 0 24 24">
      <circle cx="12" cy="12" r="10" fill="currentColor" opacity="0.2" />
      <circle cx="12" cy="12" r="6" fill="currentColor" opacity="0.4" />
      <circle cx="12" cy="12" r="2" fill="currentColor" />
    </symbol>
    <symbol id="FaBuilding" viewBox="0 0 24 24">
      <circle cx="12" cy="12" r="10" fill="currentColor" opacity="0.2" />
      <circle cx="12" cy="12" r="6" fill="currentColor" opacity="0.4" />
      <circle cx="12" cy="12" r="2" fill="currentColor" />
    </symbol>
    <symbol id="FaBusinessTime" viewBox="0 0 24 24">
      <circle cx="12" cy="12" r="10" fill="currentColor" opacity="0.2" />
      <circle cx="12" cy="12" r="6" fill="currentColor" opacity="0.4" />
      <circle cx="12" cy="12" r="2" fill="currentColor" />
    </symbol>
    <symbol id="FaCalendarAlt" viewBox="0 0 640 640">
      <path d="M224 64C241.7 64 256 78.3 256 96L256 128L384 128L384 96C384 78.3 398.3 64 416 64C433.7 64 448 78.3 448 96L448 128L480 128C515.3 128 544 156.7 544 192L544 480C544 515.3 515.3 544 480 544L160 544C124.7 544 96 515.3 96 480L96 192C96 156.7 124.7 128 160 128L192 128L192 96C192 78.3 206.3 64 224 64zM160 304L160 336C160 344.8 167.2 352 176 352L208 352C216.8 352 224 344.8 224 336L224 304C224 295.2 216.8 288 208 288L176 288C167.2 288 160 295.2 160 304zM288 304L288 336C288 344.8 295.2 352 304 352L336 352C344.8 352 352 344.8 352 336L352 304C352 295.2 344.8 288 336 288L304 288C295.2 288 288 295.2 288 304zM432 288C423.2 288 416 295.2 416 304L416 336C416 344.8 423.2 352 432 352L464 352C472.8 352 480 344.8 480 336L480 304C480 295.2 472.8 288 464 288L432 288zM160 432L160 464C160 472.8 167.2 480 176 480L208 480C216.8 480 224 472.8 224 464L224 432C224 423.2 216.8 416 208 416L176 416C167.2 416 160 423.2 160 432zM304 416C295.2 416 288 423.2 288 432L288 464C288 472.8 295.2 480 304 480L336 480C344.8 480 352 472.8 352 464L352 432C352 423.2 344.8 416 336 416L304 416zM416 432L416 464C416 472.8 423.2 480 432 480L464 480C472.8 480 480 472.8 480 464L480 432C480 423.2 472.8 416 464 416L432 416C423.2 416 416 423.2 416 432z" />
    </symbol>
    <symbol id="FaCamera" viewBox="0 0 512 512">
      <path d="M512 144v288c0 26.5-21.5 48-48 48H48c-26.5 0-48-21.5-48-48V144c0-26.5 21.5-48 48-48h88l12.3-32.9c7-18.7 24.9-31.1 44.9-31.1h125.5c20 0 37.9 12.4 44.9 31.1L376 96h88c26.5 0 48 21.5 48 48zM376 288c0-66.2-53.8-120-120-120s-120 53.8-120 120 53.8 120 120 120 120-53.8 120-120zm-32 0c0 48.5-39.5 88-88 88s-88-39.5-88-88 39.5-88 88-88 88 39.5 88 88z" />
    </symbol>
    <symbol id="FaCaretDown" viewBox="0 0 24 24">
      <circle cx="12" cy="12" r="10" fill="currentColor" opacity="0.2" />
      <circle cx="12" cy="12" r="6" fill="currentColor" opacity="0.4" />
      <circle cx="12" cy="12" r="2" fill="currentColor" />
    </symbol>
    <symbol id="FaCaretUp" viewBox="0 0 24 24">
      <circle cx="12" cy="12" r="10" fill="currentColor" opacity="0.2" />
      <circle cx="12" cy="12" r="6" fill="currentColor" opacity="0.4" />
      <circle cx="12" cy="12" r="2" fill="currentColor" />
    </symbol>
    <symbol id="FaChartLine" viewBox="0 0 512 512">
      <path fill="currentColor" d="M64 64c0-17.7-14.3-32-32-32S0 46.3 0 64V400c0 44.2 35.8 80 80 80H480c17.7 0 32-14.3 32-32s-14.3-32-32-32H80c-8.8 0-16-7.2-16-16V64zm406.6 86.6c12.5-12.5 12.5-32.8 0-45.3s-32.8-12.5-45.3 0L320 210.7l-57.4-57.4c-12.5-12.5-32.8-12.5-45.3 0l-112 112c-12.5 12.5-12.5 32.8 0 45.3s32.8 12.5 45.3 0L240 221.3l57.4 57.4c12.5 12.5 32.8 12.5 45.3 0l128-128z" />
    </symbol>
    <symbol id="FaCheck" viewBox="0 0 512 512">
      <path d="M173.898 439.404l-166.4-166.4c-9.997-9.997-9.997-26.206 0-36.204l36.203-36.204c9.997-9.998 26.207-9.998 36.204 0L192 312.69 432.095 72.596c9.997-9.997 26.207-9.997 36.204 0l36.203 36.204c9.997 9.997 9.997 26.206 0 36.204l-294.4 294.401c-9.998 9.997-26.207 9.997-36.204-.001z" />
    </symbol>
    <symbol id="FaCheckCircle" viewBox="0 0 24 24">
      <circle cx="12" cy="12" r="10" fill="currentColor" opacity="0.2" />
      <circle cx="12" cy="12" r="6" fill="currentColor" opacity="0.4" />
      <circle cx="12" cy="12" r="2" fill="currentColor" />
    </symbol>
    <symbol id="FaChevronDown" viewBox="0 0 448 512">
      <path d="M207.029 381.476L12.686 187.132c-9.373-9.373-9.373-24.569 0-33.941l22.667-22.667c9.357-9.357 24.522-9.375 33.901-.04L224 284.505l154.745-154.021c9.379-9.335 24.544-9.317 33.901.04l22.667 22.667c9.373 9.373 9.373 24.569 0 33.941L240.971 381.476c-9.373 9.372-24.569 9.372-33.942 0z" />
    </symbol>
    <symbol id="FaChevronLeft" viewBox="0 0 320 512">
      <path d="M9.4 233.4c-12.5 12.5-12.5 32.8 0 45.3l192 192c12.5 12.5 32.8 12.5 45.3 0s12.5-32.8 0-45.3L77.3 256 246.6 86.6c12.5-12.5 12.5-32.8 0-45.3s-32.8-12.5-45.3 0l-192 192z" />
    </symbol>
    <symbol id="FaChevronRight" viewBox="0 0 320 512">
      <path d="M310.6 233.4c12.5 12.5 12.5 32.8 0 45.3l-192 192c-12.5 12.5-32.8 12.5-45.3 0s-12.5-32.8 0-45.3L242.7 256 73.4 86.6c-12.5-12.5-12.5-32.8 0-45.3s32.8-12.5 45.3 0l192 192z" />
    </symbol>
    <symbol id="FaChevronUp" viewBox="0 0 448 512">
      <path d="M240.971 130.524l194.343 194.343c9.373 9.373 9.373 24.569 0 33.941l-22.667 22.667c-9.357 9.357-24.522 9.375-33.901.04L224 227.495 69.255 381.516c-9.379 9.335-24.544 9.317-33.901-.04l-22.667-22.667c-9.373-9.373-9.373-24.569 0-33.941L207.03 130.525c9.372-9.373 24.568-9.373 33.941-.001z" />
    </symbol>
    <symbol id="FaCircle" viewBox="0 0 24 24">
      <circle cx="12" cy="12" r="10" fill="currentColor" opacity="0.2" />
      <circle cx="12" cy="12" r="6" fill="currentColor" opacity="0.4" />
      <circle cx="12" cy="12" r="2" fill="currentColor" />
    </symbol>
    <symbol id="FaClock" viewBox="0 0 512 512">
      <path d="M256 8C119 8 8 119 8 256s111 248 248 248 248-111 248-248S393 8 256 8zm57.1 350.1L224.9 294c-3.1-2.3-4.9-5.9-4.9-9.7V116c0-6.6 5.4-12 12-12h48c6.6 0 12 5.4 12 12v137.7l63.5 46.2c5.4 3.9 6.5 11.4 2.6 16.8l-28.2 38.8c-3.9 5.3-11.4 6.5-16.8 2.6z" />
    </symbol>
    <symbol id="FaCode" viewBox="0 0 640 512">
      <path d="M392.8 1.2c-17-4.9-34.7 5-39.6 22l-128 448c-4.9 17 5 34.7 22 39.6s34.7-5 39.6-22l128-448c4.9-17-5-34.7-22-39.6zm80.6 120.1c-12.5 12.5-12.5 32.8 0 45.3L562.7 256l-89.4 89.4c-12.5 12.5-12.5 32.8 0 45.3s32.8 12.5 45.3 0l112-112c12.5-12.5 12.5-32.8 0-45.3l-112-112c-12.5-12.5-32.8-12.5-45.3 0zm-306.7 0c-12.5-12.5-32.8-12.5-45.3 0l-112 112c-12.5 12.5-12.5 32.8 0 45.3l112 112c12.5 12.5 32.8 12.5 45.3 0s12.5-32.8 0-45.3L77.3 256l89.4-89.4c12.5-12.5 12.5-32.8 0-45.3z" />
    </symbol>
    <symbol id="FaCodeBranch" viewBox="0 0 24 24">
      <circle cx="12" cy="12" r="10" fill="currentColor" opacity="0.2" />
      <circle cx="12" cy="12" r="6" fill="currentColor" opacity="0.4" />
      <circle cx="12" cy="12" r="2" fill="currentColor" />
    </symbol>
    <symbol id="FaCoffee" viewBox="0 0 24 24">
      <circle cx="12" cy="12" r="10" fill="currentColor" opacity="0.2" />
      <circle cx="12" cy="12" r="6" fill="currentColor" opacity="0.4" />
      <circle cx="12" cy="12" r="2" fill="currentColor" />
    </symbol>
    <symbol id="FaCog" viewBox="0 0 512 512">
      <path d="M487.4 315.7l-42.6-24.6c4.3-23.2 4.3-47.6 0-70.8l42.6-24.6c4.9-2.8 7.1-8.6 5.5-14-11.1-35.6-30-67.8-54.7-94.6-3.8-4.1-10-5.1-14.8-2.3L380.8 110c-17.9-15.4-38.5-27.3-60.8-35.1V25.8c0-5.6-3.9-10.5-9.4-11.7-36.7-8.2-74.3-7.8-109.2 0-5.5 1.2-9.4 6.1-9.4 11.7V75c-22.2 7.9-42.8 19.8-60.8 35.1L88.7 85.5c-4.9-2.8-11-1.9-14.8 2.3-24.7 26.7-43.6 58.9-54.7 94.6-1.7 5.4.6 11.2 5.5 14L67.3 221c-4.3 23.2-4.3 47.6 0 70.8L24.7 316.4c-4.9 2.8-7.1 8.6-5.5 14 11.1 35.6 30 67.8 54.7 94.6 3.8 4.1 10 5.1 14.8 2.3l42.6-24.6c17.9 15.4 38.5 27.3 60.8 35.1v49.2c0 5.6 3.9 10.5 9.4 11.7 36.7 8.2 74.3 7.8 109.2 0 5.5-1.2 9.4-6.1 9.4-11.7v-49.2c22.2-7.9 42.8-19.8 60.8-35.1l42.6 24.6c4.9 2.8 11 1.9 14.8-2.3 24.7-26.7 43.6-58.9 54.7-94.6 1.5-5.5-.7-11.3-5.6-14.1zM256 336c-44.1 0-80-35.9-80-80s35.9-80 80-80 80 35.9 80 80-35.9 80-80 80z" />
    </symbol>
    <symbol id="FaColumns" viewBox="0 0 512 512">
      <path d="M464 32H48C21.49 32 0 53.49 0 80v352c0 26.51 21.49 48 48 48h416c26.51 0 48-21.49 48-48V80c0-26.51-21.49-48-48-48zM224 416H64V160h160v256zm224 0H288V160h160v256z" />
    </symbol>
    <symbol id="FaCommentAlt" viewBox="0 0 512 512">
      <path d="M448 0H64C28.7 0 0 28.7 0 64v288c0 35.3 28.7 64 64 64h96v84c0 9.8 11.2 15.5 19.1 9.7L304 416h144c35.3 0 64-28.7 64-64V64c0-35.3-28.7-64-64-64z" />
    </symbol>
    <symbol id="FaCommentDots" viewBox="0 0 512 512">
      <path d="M448 0H64C28.7 0 0 28.7 0 64v288c0 35.3 28.7 64 64 64h96v84c0 9.8 11.2 15.5 19.1 9.7L304 416h144c35.3 0 64-28.7 64-64V64c0-35.3-28.7-64-64-64zM128 240c0-17.7 14.3-32 32-32s32 14.3 32 32-14.3 32-32 32-32-14.3-32-32zm128 0c0-17.7 14.3-32 32-32s32 14.3 32 32-14.3 32-32 32-32-14.3-32-32zm128 0c0-17.7 14.3-32 32-32s32 14.3 32 32-14.3 32-32 32-32-14.3-32-32z" />
    </symbol>
    <symbol id="FaComments" viewBox="0 0 576 512">
      <path d="M416 192c0-88.4-93.1-160-208-160S0 103.6 0 192c0 34.3 14.1 65.9 38 92-13.4 30.2-35.5 54.2-35.8 54.5-2.2 2.3-2.8 5.7-1.5 8.7S4.8 352 8 352c36.6 0 66.9-12.3 88.7-25 32.2 15.7 70.3 25 111.3 25 114.9 0 208-71.6 208-160zm122 220c23.9-26 38-57.7 38-92 0-66.9-53.5-124.2-129.3-148.1.9 6.6 1.3 13.3 1.3 20.1 0 105.9-107.7 192-240 192-10.8 0-21.3-.8-31.7-1.9C207.8 439.6 281.8 480 368 480c41 0 79.1-9.2 111.3-25 21.8 12.7 52.1 25 88.7 25 3.2 0 6.1-1.9 7.3-4.8 1.3-2.9.7-6.3-1.5-8.7-.3-.3-22.4-24.2-35.8-54.5z" fill="currentColor"/>
    </symbol>
    <symbol id="FaCopy" viewBox="0 0 24 24">
      <circle cx="12" cy="12" r="10" fill="currentColor" opacity="0.2" />
      <circle cx="12" cy="12" r="6" fill="currentColor" opacity="0.4" />
      <circle cx="12" cy="12" r="2" fill="currentColor" />
    </symbol>
    <symbol id="FaCreditCard" viewBox="0 0 24 24">
      <circle cx="12" cy="12" r="10" fill="currentColor" opacity="0.2" />
      <circle cx="12" cy="12" r="6" fill="currentColor" opacity="0.4" />
      <circle cx="12" cy="12" r="2" fill="currentColor" />
    </symbol>
    <symbol id="FaDatabase" viewBox="0 0 24 24">
      <circle cx="12" cy="12" r="10" fill="currentColor" opacity="0.2" />
      <circle cx="12" cy="12" r="6" fill="currentColor" opacity="0.4" />
      <circle cx="12" cy="12" r="2" fill="currentColor" />
    </symbol>
    <symbol id="FaEdit" viewBox="0 0 576 512">
      <path d="M402.6 83.2l90.2 90.2c3.8 3.8 3.8 10 0 13.8L274.4 405.6l-92.8 10.3c-12.4 1.4-22.9-9.1-21.5-21.5l10.3-92.8L388.8 83.2c3.8-3.8 10-3.8 13.8 0zm162-22.9l-48.8-48.8c-15.2-15.2-39.9-15.2-55.2 0l-35.4 35.4c-3.8 3.8-3.8 10 0 13.8l90.2 90.2c3.8 3.8 10 3.8 13.8 0l35.4-35.4c15.2-15.3 15.2-40 0-55.2zM384 346.2V448H64V128h229.8c3.2 0 6.2-1.3 8.5-3.5l40-40c7.6-7.6 2.2-20.5-8.5-20.5H48C21.5 64 0 85.5 0 112v352c0 26.5 21.5 48 48 48h352c26.5 0 48-21.5 48-48V306.2c0-10.7-12.9-16-20.5-8.5l-40 40c-2.2 2.3-3.5 5.3-3.5 8.5z" />
    </symbol>
    <symbol id="FaEnvelope" viewBox="0 0 512 512">
      <path d="M502.3 190.8c3.9-3.1 9.7-.2 9.7 4.7V400c0 26.5-21.5 48-48 48H48c-26.5 0-48-21.5-48-48V195.6c0-5 5.7-7.8 9.7-4.7 22.4 17.4 52.1 39.5 154.1 113.6 21.1 15.4 56.7 47.8 92.2 47.6 35.7.3 72-32.8 92.3-47.6 102-74.1 131.6-96.3 154-113.7zM256 320c23.2.4 56.6-29.2 73.4-41.4 132.7-96.3 142.8-104.7 173.4-128.7 5.8-4.5 9.2-11.5 9.2-18.9v-19c0-26.5-21.5-48-48-48H48C21.5 64 0 85.5 0 112v19c0 7.4 3.4 14.3 9.2 18.9 30.6 23.9 40.7 32.4 173.4 128.7 16.8 12.2 50.2 41.8 73.4 41.4z" />
    </symbol>
    <symbol id="FaExclamationTriangle" viewBox="0 0 24 24">
      <circle cx="12" cy="12" r="10" fill="currentColor" opacity="0.2" />
      <circle cx="12" cy="12" r="6" fill="currentColor" opacity="0.4" />
      <circle cx="12" cy="12" r="2" fill="currentColor" />
    </symbol>
    <symbol id="FaEye" viewBox="0 0 576 512">
      <path d="M572.52 241.4C518.29 135.59 410.93 64 288 64S57.68 135.64 3.48 241.41a32.35 32.35 0 0 0 0 29.19C57.71 376.41 165.07 448 288 448s230.32-71.64 284.52-177.41a32.35 32.35 0 0 0 0-29.19zM288 400a144 144 0 1 1 144-144 143.93 143.93 0 0 1-144 144zm0-240a95.31 95.31 0 0 0-25.31 3.79 47.85 47.85 0 0 1-66.9 66.9A95.78 95.78 0 1 0 288 160z" />
    </symbol>
    <symbol id="FaEyeSlash" viewBox="0 0 640 512">
      <path d="M320 400c-75.85 0-137.25-58.71-142.9-133.11L72.2 185.82c-13.79 17.3-26.48 35.59-36.72 55.59a32.35 32.35 0 0 0 0 29.19C89.71 376.41 197.07 448 320 448c26.91 0 52.87-4 77.89-10.46L346 397.39a144.13 144.13 0 0 1-26 2.61zm313.82 58.1l-110.55-85.44a331.25 331.25 0 0 0 81.25-102.07 32.35 32.35 0 0 0 0-29.19C550.29 135.59 442.93 64 320 64a308.15 308.15 0 0 0-147.32 37.7L45.46 3.37A16 16 0 0 0 23 6.18L3.37 31.45A16 16 0 0 0 6.18 53.9l588.36 454.73a16 16 0 0 0 22.46-2.81l19.64-25.27a16 16 0 0 0-2.82-22.45zm-183.72-142l-39.3-30.38A94.75 94.75 0 0 0 416 256a94.76 94.76 0 0 0-121.31-92.21A47.65 47.65 0 0 1 304 192a46.64 46.64 0 0 1-1.54 10l-73.61-56.89A142.31 142.31 0 0 1 320 112a143.92 143.92 0 0 1 144 144c0 21.63-5.29 41.79-13.9 60.11z" />
    </symbol>
    <symbol id="FaFacebook" viewBox="0 0 512 512">
      <path d="M504 256C504 119 393 8 256 8S8 119 8 256c0 123.78 90.69 226.38 209.25 245V327.69h-63V256h63v-54.64c0-62.15 37-96.48 93.67-96.48 27.14 0 55.52 4.84 55.52 4.84v61h-31.28c-30.8 0-40.41 19.12-40.41 38.73V256h68.78l-11 71.69h-57.78V501C413.31 482.38 504 379.78 504 256z" />
    </symbol>
    <symbol id="FaFileAlt" viewBox="0 0 384 512">
      <path d="M224 136V0H24C10.7 0 0 10.7 0 24v464c0 13.3 10.7 24 24 24h336c13.3 0 24-10.7 24-24V160H248c-13.2 0-24-10.8-24-24zm160-14.1v6.1H256V0h6.1c6.4 0 12.5 2.5 17 7l97.9 97.9c4.5 4.5 7 10.6 7 16.9z" />
    </symbol>
    <symbol id="FaFilter" viewBox="0 0 512 512">
      <path d="M487.976 0H24.028C2.71 0-8.047 25.866 7.058 40.971L192 225.941V432c0 7.831 3.821 15.17 10.237 19.662l80 55.98C298.02 518.69 320 507.493 320 487.98V225.941l184.947-184.97C520.021 25.896 509.338 0 487.976 0z" />
    </symbol>
    <symbol id="FaFrown" viewBox="0 0 24 24">
      <circle cx="12" cy="12" r="10" fill="currentColor" opacity="0.2" />
      <circle cx="12" cy="12" r="6" fill="currentColor" opacity="0.4" />
      <circle cx="12" cy="12" r="2" fill="currentColor" />
    </symbol>
    <symbol id="FaGlobe" viewBox="0 0 496 512">
      <path d="M248 8C111.03 8 0 119.03 0 256s111.03 248 248 248 248-111.03 248-248S384.97 8 248 8zm82.29 357.6c-3.9 3.88-7.99 7.95-11.31 11.28-2.99 3-5.1 6.7-6.17 10.71-1.51 5.66-2.73 11.38-4.77 16.87l-17.39 46.85c-13.76 3-28.28 4.69-43.65 4.69v-27.38c1.69-12.62-7.64-36.26-22.63-51.25-6-6-9.37-14.14-9.37-22.63v-32.01c0-11.64-6.27-22.34-16.46-27.97-14.37-7.95-34.81-19.06-48.81-26.11-11.48-5.78-22.1-13.14-31.65-21.75l-.8-.72a114.792 114.792 0 01-18.06-20.74c-9.38-13.77-24.66-36.42-34.59-51.14 20.47-45.5 57.36-82.04 103.2-101.89l24.01 12.01C203.48 89.74 216 82.01 216 70.11v-11.3c7.99-1.29 16.12-2.11 24.39-2.42l28.3 28.3c6.25 6.25 6.25 16.38 0 22.63L264 112l-10.34 10.34c-3.12 3.12-3.12 8.19 0 11.31l4.69 4.69c3.12 3.12 3.12 8.19 0 11.31l-8 8a8.008 8.008 0 01-5.66 2.34h-8.99c-2.08 0-4.08.81-5.58 2.27l-9.92 9.65a8.008 8.008 0 00-1.58 9.31l15.59 31.19c2.66 5.32-1.21 11.58-7.15 11.58h-5.64c-1.93 0-3.79-.7-5.24-1.96l-9.28-8.06a16.017 16.017 0 00-15.55-3.1l-31.17 10.39a11.95 11.95 0 00-8.17 11.34c0 4.53 2.56 8.66 6.61 10.69l11.08 5.54c9.41 4.71 19.79 7.16 30.31 7.16s22.59 27.29 32 32h66.75c8.49 0 16.62 3.37 22.63 9.37l13.69 13.69a30.503 30.503 0 018.93 21.57 46.536 46.536 0 01-13.72 32.98zM417 274.25c-5.79-1.45-10.84-5-14.15-9.97l-17.98-26.97a23.97 23.97 0 010-26.62l19.59-29.38c2.32-3.47 5.5-6.29 9.24-8.15l12.98-6.49C440.47 193.59 448 223.87 448 256c0 8.67-.74 17.16-1.82 25.54L417 274.25z" />
    </symbol>
    <symbol id="FaGrinHearts" viewBox="0 0 24 24">
      <circle cx="12" cy="12" r="10" fill="currentColor" opacity="0.2" />
      <circle cx="12" cy="12" r="6" fill="currentColor" opacity="0.4" />
      <circle cx="12" cy="12" r="2" fill="currentColor" />
    </symbol>
    <symbol id="FaGoogle" viewBox="0 0 488 512">
      <path d="M488 261.8C488 403.3 391.1 504 248 504 110.8 504 0 393.2 0 256S110.8 8 248 8c66.8 0 123 24.5 166.3 64.9l-67.5 64.9C258.5 52.6 94.3 116.6 94.3 256c0 86.5 69.1 156.6 153.7 156.6 98.2 0 135-70.4 140.8-106.9H248v-85.3h240z" />
    </symbol>
    <symbol id="FaHandsHelping" viewBox="0 0 640 512">
      <path d="M488 192H336v56c0 39.7-32.3 72-72 72s-72-32.3-72-72V126.4l-64.9 39C107.8 177.1 96 197.9 96 220.6V464c0 26.5 21.5 48 48 48h416c26.5 0 48-21.5 48-48V240c0-26.5-21.5-48-48-48zM160 72c0-39.8 32.2-72 72-72s72 32.2 72 72c0 39.8-32.2 72-72 72s-72-32.2-72-72zm624 208c0 26.5-21.5 48-48 48h-416c-26.5 0-48-21.5-48-48v-56l64-40v96c0 66.2 53.8 120 120 120s120-53.8 120-120v-96l64 40v56zm-336-80h224v40H448v-40z" />
    </symbol>
    <symbol id="FaHandshake" viewBox="0 0 640 640">
      <path d="M300.9 149.2L184.3 278.8C179.7 283.9 179.9 291.8 184.8 296.7C215.3 327.2 264.8 327.2 295.3 296.7L327.1 264.9C331.3 260.7 336.6 258.4 342 258C348.8 257.4 355.8 259.7 361 264.9L537.6 440L608 384L608 96L496 160L472.2 144.1C456.4 133.6 437.9 128 418.9 128L348.5 128C347.4 128 346.2 128 345.1 128.1C328.2 129 312.3 136.6 300.9 149.2zM148.6 246.7L255.4 128L215.8 128C190.3 128 165.9 138.1 147.9 156.1L144 160L32 96L32 384L188.4 514.3C211.4 533.5 240.4 544 270.3 544L286 544L279 537C269.6 527.6 269.6 512.4 279 503.1C288.4 493.8 303.6 493.7 312.9 503.1L353.9 544.1L362.9 544.1C382 544.1 400.7 539.8 417.7 531.8L391 505C381.6 495.6 381.6 480.4 391 471.1C400.4 461.8 415.6 461.7 424.9 471.1L456.9 503.1L474.4 485.6C483.3 476.7 485.9 463.8 482 452.5L344.1 315.7L329.2 330.6C279.9 379.9 200.1 379.9 150.8 330.6C127.8 307.6 126.9 270.7 148.6 246.6z" />
    </symbol>
    <symbol id="FaHeart" viewBox="0 0 512 512">
      <path d="M462.3 62.6C407.5 15.9 326 24.3 275.7 76.2L256 96.5l-19.7-20.3C186.1 24.3 104.5 15.9 49.7 62.6c-62.8 53.6-66.1 149.8-9.9 207.9l193.5 199.8c12.5 12.9 32.8 12.9 45.3 0l193.5-199.8c56.3-58.1 53-154.3-9.8-207.9z" />
    </symbol>
    <symbol id="FaHome" viewBox="0 0 576 512">
      <path d="M280.37 148.26L96 300.11V464a16 16 0 0 0 16 16l112.06-.29a16 16 0 0 0 15.92-16V368a16 16 0 0 1 16-16h64a16 16 0 0 1 16 16v95.64a16 16 0 0 0 16 16.05L464 480a16 16 0 0 0 16-16V300L295.67 148.26a12.19 12.19 0 0 0-15.3 0zM571.6 251.47L488 182.56V44.05a12 12 0 0 0-12-12h-56a12 12 0 0 0-12 12v72.61L318.47 43a48 48 0 0 0-61 0L4.34 251.47a12 12 0 0 0-1.6 16.9l25.5 31A12 12 0 0 0 45.15 301l235.22-193.74a12.19 12.19 0 0 1 15.3 0L530.9 301a12 12 0 0 0 16.9-1.6l25.5-31a12 12 0 0 0-1.7-16.93z" />
    </symbol>
    <symbol id="FaImage" viewBox="0 0 512 512">
      <path d="M464 448H48c-26.51 0-48-21.49-48-48V112c0-26.51 21.49-48 48-48h416c26.51 0 48 21.49 48 48v288c0 26.51-21.49 48-48 48zM112 120c-30.928 0-56 25.072-56 56s25.072 56 56 56 56-25.072 56-56-25.072-56-56-56zM64 384h384V272l-87.515-87.515c-4.686-4.686-12.284-4.686-16.971 0L208 320l-55.515-55.515c-4.686-4.686-12.284-4.686-16.971 0L64 336v48z" />
    </symbol>
    <symbol id="FaInfoCircle" viewBox="0 0 512 512">
      <path d="M256 8C119.043 8 8 119.083 8 256c0 136.997 111.043 248 248 248s248-111.003 248-248C504 119.083 392.957 8 256 8zm0 110c23.196 0 42 18.804 42 42s-18.804 42-42 42-42-18.804-42-42 18.804-42 42-42zm56 254c0 6.627-5.373 12-12 12h-88c-6.627 0-12-5.373-12-12v-24c0-6.627 5.373-12 12-12h12v-64h-12c-6.627 0-12-5.373-12-12v-24c0-6.627 5.373-12 12-12h64c6.627 0 12 5.373 12 12v100h12c6.627 0 12 5.373 12 12v24z" />
    </symbol>
    <symbol id="FaKey" viewBox="0 0 200 200">
      <g transform="rotate(40 100 100)">
        <path d="M 100 16 A 34 34 0 1 1 100 84 A 34 34 0 1 1 100 16 M 100 33 A 17 17 0 1 0 100 67 A 17 17 0 1 0 100 33" fill="currentColor" fill-rule="evenodd"/>

        <rect x="89" y="75" width="23" height="110" rx="3" fill="currentColor"/>

        <path d="M 60 143 L 84 143 L 84 179 L 60 179 L 60 167 L 72 167 L 72 157 L 60 157 Z" fill="currentColor"/>
      </g>
    </symbol>
    <symbol id="FaLeaf" viewBox="0 0 24 24">
      <circle cx="12" cy="12" r="10" fill="currentColor" opacity="0.2" />
      <circle cx="12" cy="12" r="6" fill="currentColor" opacity="0.4" />
      <circle cx="12" cy="12" r="2" fill="currentColor" />
    </symbol>
    <symbol id="FaLightbulb" viewBox="0 0 384 512">
      <path d="M112.1 454.3c0 6.297 1.816 12.44 5.284 17.69l17.14 25.69c5.25 7.875 17.17 14.28 26.64 14.28h61.67c9.438 0 21.36-6.401 26.61-14.28l17.14-25.69c3.500-5.25 5.250-11.39 5.250-17.69 0-10.16-5.875-19.12-15.05-23.28l-7.148-3.35c-7.312-3.438-15.25-5.447-23.27-5.447h-63.99c-8.018 0-15.95 2.009-23.27 5.447l-7.148 3.35C118.0 435.2 112.1 444.1 112.1 454.3zM191.4 .0132C89.44 .3257 0 82.97 0 176.0c0 44.38 16.44 84.84 43.56 115.8 16.53 18.84 42.34 58.23 52.22 91.45.0313 .25 .0938 .5312 .125 .7812h192.2c.0313-.25 .0938-.5312 .125-.7812 9.875-33.22 35.69-72.61 52.22-91.45C367.6 260.8 384 220.4 384 176.0 384 78.61 297.9-0.2837 191.4 .0132zM192 96.01c-44.13 0-80 35.89-80 79.99s35.88 80 80 80s80-35.89 80-80S236.1 96.01 192 96.01z" />
    </symbol>
    <symbol id="FaLink" viewBox="0 0 512 512">
      <path d="M326.612 185.391c59.747 59.809 58.927 155.698.36 214.59-.11.12-.24.25-.36.37l-67.2 67.2c-59.27 59.27-155.699 59.262-214.96 0-59.27-59.26-59.27-155.7 0-214.96l37.106-37.106c9.84-9.84 26.786-3.3 27.294 10.606.648 17.722 3.826 35.527 9.69 52.721 1.986 5.822.567 12.262-3.783 16.612l-13.087 13.087c-28.026 28.026-28.905 73.66-1.155 101.96 28.024 28.579 74.086 28.749 102.325.51l67.2-67.19c28.191-28.191 28.073-73.757 0-101.83-3.701-3.694-7.429-6.564-10.341-8.569a16.037 16.037 0 01-6.947-12.606c-.396-10.567 3.348-21.456 11.698-29.806l21.054-21.055c5.521-5.521 14.182-6.199 20.584-1.731a152.482 152.482 0 0120.522 17.197zM467.547 44.449c-59.261-59.262-155.69-59.27-214.96 0l-67.2 67.2c-.12.12-.25.25-.36.37-58.566 58.892-59.387 154.781.36 214.59a152.454 152.454 0 0020.521 17.196c6.402 4.468 15.064 3.789 20.584-1.731l21.054-21.055c8.35-8.35 12.094-19.239 11.698-29.806a16.037 16.037 0 00-6.947-12.606c-2.912-2.005-6.64-4.875-10.341-8.569-28.073-28.073-28.191-73.639 0-101.83l67.2-67.19c28.239-28.239 74.3-28.069 102.325.51 27.75 28.3 26.872 73.934-1.155 101.96l-13.087 13.087c-4.35 4.35-5.769 10.79-3.783 16.612 5.864 17.194 9.042 34.999 9.69 52.721.509 13.906 17.454 20.446 27.294 10.606l37.106-37.106c59.271-59.259 59.271-155.699.001-214.959z" />
    </symbol>
    <symbol id="FaLock" viewBox="0 0 24 24">
      <circle cx="12" cy="12" r="10" fill="currentColor" opacity="0.2" />
      <circle cx="12" cy="12" r="6" fill="currentColor" opacity="0.4" />
      <circle cx="12" cy="12" r="2" fill="currentColor" />
    </symbol>
    <symbol id="FaMapMarker" viewBox="0 0 384 512">
      <path d="M172.268 501.67C26.97 291.031 0 269.413 0 192 0 85.961 85.961 0 192 0s192 85.961 192 192c0 77.413-26.97 99.031-172.268 309.67-9.535 13.774-29.93 13.773-39.464 0zM192 272c44.183 0 80-35.817 80-80s-35.817-80-80-80-80 35.817-80 80 35.817 80 80 80z" />
    </symbol>
    <symbol id="FaMeh" viewBox="0 0 24 24">
      <circle cx="12" cy="12" r="10" fill="currentColor" opacity="0.2" />
      <circle cx="12" cy="12" r="6" fill="currentColor" opacity="0.4" />
      <circle cx="12" cy="12" r="2" fill="currentColor" />
    </symbol>
    <symbol id="FaMinus" viewBox="0 0 24 24">
      <circle cx="12" cy="12" r="10" fill="currentColor" opacity="0.2" />
      <circle cx="12" cy="12" r="6" fill="currentColor" opacity="0.4" />
      <circle cx="12" cy="12" r="2" fill="currentColor" />
    </symbol>
    <symbol id="FaMobile" viewBox="0 0 384 512">
      <path d="M80 0C44.7 0 16 28.7 16 64V448c0 35.3 28.7 64 64 64H304c35.3 0 64-28.7 64-64V64c0-35.3-28.7-64-64-64H80zM96 64H288c8.8 0 16 7.2 16 16V432c0 8.8-7.2 16-16 16H96c-8.8 0-16-7.2-16-16V80c0-8.8 7.2-16 16-16z" />
    </symbol>
    <symbol id="FaPalette" viewBox="0 0 640 640">
      <path d="M576 320C576 320.9 576 321.8 576 322.7C575.6 359.2 542.4 384 505.9 384L408 384C381.5 384 360 405.5 360 432C360 435.4 360.4 438.7 361 441.9C363.1 452.1 367.5 461.9 371.8 471.8C377.9 485.6 383.9 499.3 383.9 513.8C383.9 545.6 362.3 574.5 330.5 575.8C327 575.9 323.5 576 319.9 576C178.5 576 63.9 461.4 63.9 320C63.9 178.6 178.6 64 320 64C461.4 64 576 178.6 576 320zM192 352C192 334.3 177.7 320 160 320C142.3 320 128 334.3 128 352C128 369.7 142.3 384 160 384C177.7 384 192 369.7 192 352zM192 256C209.7 256 224 241.7 224 224C224 206.3 209.7 192 192 192C174.3 192 160 206.3 160 224C160 241.7 174.3 256 192 256zM352 160C352 142.3 337.7 128 320 128C302.3 128 288 142.3 288 160C288 177.7 302.3 192 320 192C337.7 192 352 177.7 352 160zM448 256C465.7 256 480 241.7 480 224C480 206.3 465.7 192 448 192C430.3 192 416 206.3 416 224C416 241.7 430.3 256 448 256z" />
    </symbol>
    <symbol id="FaPeace" viewBox="0 0 24 24">
      <circle cx="12" cy="12" r="10" fill="currentColor" opacity="0.2" />
      <circle cx="12" cy="12" r="6" fill="currentColor" opacity="0.4" />
      <circle cx="12" cy="12" r="2" fill="currentColor" />
    </symbol>
    <symbol id="FaPhone" viewBox="0 0 512 512">
      <path d="M493.4 24.6l-104-24c-11.3-2.6-22.9 3.3-27.5 13.9l-48 112c-4.2 9.8-1.4 21.3 6.9 28l60.6 49.6c-36 76.7-98.9 140.5-177.2 177.2l-49.6-60.6c-6.8-8.3-18.2-11.1-28-6.9l-112 48C7.7 366.5 1.8 378.1 4.4 389.4l24 104C31.1 504.2 39.9 512 50.6 512 306.7 512 512 306.8 512 50.6c0-10.7-7.8-19.5-18.6-22.2z" />
    </symbol>
    <symbol id="FaPlus" viewBox="0 0 448 512">
      <path d="M416 208H272V64c0-17.67-14.33-32-32-32h-32c-17.67 0-32 14.33-32 32v144H32c-17.67 0-32 14.33-32 32v32c0 17.67 14.33 32 32 32h144v144c0 17.67 14.33 32 32 32h32c17.67 0 32-14.33 32-32V304h144c17.67 0 32-14.33 32-32v-32c0-17.67-14.33-32-32-32z" />
    </symbol>
    <symbol id="FaPlusCircle" viewBox="0 0 24 24">
      <circle cx="12" cy="12" r="10" fill="currentColor" opacity="0.2" />
      <circle cx="12" cy="12" r="6" fill="currentColor" opacity="0.4" />
      <circle cx="12" cy="12" r="2" fill="currentColor" />
    </symbol>
    <symbol id="FaRedo" viewBox="0 0 24 24">
      <circle cx="12" cy="12" r="10" fill="currentColor" opacity="0.2" />
      <circle cx="12" cy="12" r="6" fill="currentColor" opacity="0.4" />
      <circle cx="12" cy="12" r="2" fill="currentColor" />
    </symbol>
    <symbol id="FaRegStar" viewBox="0 0 576 512">
      <path d="M528.1 171.5L382 150.2 316.7 17.8c-11.7-23.6-45.6-23.9-57.4 0L194 150.2 47.9 171.5c-26.2 3.8-36.7 36.1-17.7 54.6l105.7 103-25 145.5c-4.5 26.3 23.2 46 46.4 33.7L288 439.6l130.7 68.7c23.2 12.2 50.9-7.4 46.4-33.7l-25-145.5 105.7-103c19-18.5 8.5-50.8-17.7-54.6zM405.8 317.8l25 145.5L288 394.6 145.2 463.3l25-145.5L65.5 213.1l146.1-21.3L288 64l76.4 127.8 146.1 21.3-104.7 104.7z" />
    </symbol>
    <symbol id="FaRocket" viewBox="0 0 640 640">
      <path d="M192 384L88.5 384C63.6 384 48.3 356.9 61.1 335.5L114 247.3C122.7 232.8 138.3 224 155.2 224L250.2 224C326.3 95.1 439.8 88.6 515.7 99.7C528.5 101.6 538.5 111.6 540.3 124.3C551.4 200.2 544.9 313.7 416 389.8L416 484.8C416 501.7 407.2 517.3 392.7 526L304.5 578.9C283.2 591.7 256 576.3 256 551.5L256 448C256 412.7 227.3 384 192 384L191.9 384zM464 224C464 197.5 442.5 176 416 176C389.5 176 368 197.5 368 224C368 250.5 389.5 272 416 272C442.5 272 464 250.5 464 224z" />
    </symbol>
    <symbol id="prompty" viewBox="0 0 640 512">
      <path d="M320 0c17.7 0 32 14.3 32 32V96H480c35.3 0 64 28.7 64 64V448c0 35.3-28.7 64-64 64H160c-35.3 0-64-28.7-64-64V160c0-35.3 28.7-64 64-64H288V32c0-17.7 14.3-32 32-32zM208 384c-8.8 0-16 7.2-16 16s7.2 16 16 16h32c8.8 0 16-7.2 16-16s-7.2-16-16-16H208zm96 0c-8.8 0-16 7.2-16 16s7.2 16 16 16h32c8.8 0 16-7.2 16-16s-7.2-16-16-16H304zm96 0c-8.8 0-16 7.2-16 16s7.2 16 16 16h32c8.8 0 16-7.2 16-16s-7.2-16-16-16H400zM264 256c0-22.1-17.9-40-40-40s-40 17.9-40 40s17.9 40 40 40s40-17.9 40-40zm152 40c22.1 0 40-17.9 40-40s-17.9-40-40-40s-40 17.9-40 40s17.9 40 40 40zM48 224H64V416H48c-26.5 0-48-21.5-48-48V272c0-26.5 21.5-48 48-48zm544 0c26.5 0 48 21.5 48 48v96c0 26.5-21.5 48-48 48H576V224h16z" />
    </symbol>
    <symbol id="mushroom" viewBox="0 0 450 450">
      <path fill="currentColor" fill-rule="evenodd" d="M209.043 19.25c-19.984 3.766-42.086 12.094-61.508 23.176-6.324 3.61-19.969 12.164-20.328 12.75-.168.27.945 1.129 2.48 1.902 8.133 4.125 11.778 11.7 8.793 18.281-2.285 5.036-9.183 9.938-15.722 11.172-3.66.692-16.86.278-20.074-.629-1.11-.312-3.211-1.562-4.668-2.773l-2.653-2.211-9.633 9.773c-28.335 28.754-49.808 59.829-64.808 93.79-10.488 23.757-11.75 37.664-4.43 48.988 4.32 6.687 11.688 13.488 19.871 18.351 8.703 5.168 28.14 12.371 43.457 16.102 15.727 3.828 42.59 7.98 58.848 9.094 4.488.308 8.402.714 8.703.898.719.445.465 1.996-3.984 24.371-5.184 26.04-5.485 28.063-5.785 38.988-.422 15.336.484 28.696 2.437 35.973 4.395 16.367 9.649 26.621 18.05 35.227 8.747 8.957 18.317 13.562 33.38 16.058 13.058 2.168 17.195 2.422 39.539 2.434 25.715.015 42.222-1.238 57.258-4.34 21.523-4.45 35.261-21.055 42.214-51.027 1.48-6.387 1.536-7.16 1.723-24.989l.192-18.394-3.282-16.203c-1.804-8.91-5.414-27.32-8.02-40.91a20614.839 20614.839 0 0 0-5.19-27.028c-.536-2.715-.317-3.101 1.257-2.199 1.473.844 20.727.707 26.64-.188 12.938-1.96 39.005-14.726 55.157-27.007 5.11-3.887 20.777-19.004 25.969-25.055 3.539-4.125 8.203-12.414 10.12-17.992 2.419-7.035 1.876-18.54-1.339-28.36-9.074-27.699-33.61-55.734-70.016-80.011-8.902-5.934-24.171-15.399-24.843-15.399-.22 0 .441 1.39 1.464 3.09 3.22 5.348 3.81 7.848 3.817 16.133l.008 7.414-2.336 4.668c-4.426 8.855-12.008 16.066-22.38 21.277-15.331 7.703-40.1 9.262-57.358 3.606-21.458-7.031-34.649-21.54-34.61-38.067.012-6.445 3.95-16.918 8.074-21.484 2.192-2.422 10.977-8.973 16.797-12.512 5.926-3.61 13.82-5.804 24.813-6.906 7.574-.758 7.633-.809 2.746-2.293-7.215-2.195-23.246-6.078-28.832-6.984-14.844-2.414-31.02-2.625-42.008-.555m167.492 83.648c-2.875.704-7.086 2.793-8.7 4.325-3.147 2.988-3.929 5.297-3.929 11.64 0 5.301.133 6.024 1.63 8.98 1.874 3.708 4.624 6.266 8.913 8.298 11.543 5.464 26.656 3.336 33.961-4.786 2.64-2.94 3.54-5.308 3.543-9.351.008-4.77-1.797-7.629-7.683-12.184-6.204-4.797-13.907-7.465-21.31-7.379-2.628.032-5.519.239-6.425.457m-194.82 7.754c-5.27.735-14.895 3.98-19.024 6.41-4.535 2.676-11.62 9.602-13.382 13.083-3.305 6.523-3.871 11.656-2.032 18.3 2.067 7.457 4.328 10.79 11.176 16.465 15.594 12.93 23.45 13.922 46.992 5.942 10.957-3.715 16.032-6.528 21.485-11.903 6.261-6.172 8.746-12.457 7.968-20.144-.468-4.63-1.53-7.383-4.39-11.39-5.11-7.157-14.305-12.743-25.86-15.712-5.12-1.316-17.097-1.863-22.933-1.05M340.559 151.3c-5.137.426-16.825 2.82-18.72 3.836-.534.285-1.82 1.57-2.866 2.851-2.664 3.282-12.63 18.38-14.286 21.649-1.335 2.636-1.343 2.738-.335 3.37 1.546.962 3.156 4.493 3.582 7.852.562 4.399.878 4.578 4.68 2.664 13.734-6.933 29.152-18.066 40.5-29.238 6.265-6.168 9.015-10.043 7.718-10.879-1.266-.816-4.918-1.703-9.008-2.187-4.308-.512-4.086-.516-11.265.082m-53.536 17.262c-11.836 5.476-13.714 6.5-13.914 7.59-.261 1.413 1.313 2.949 3.434 3.347 2.176.406 9.562-.566 10.555-1.39.78-.65 7.797-11.141 8.265-12.36.16-.418.078-.758-.183-.754-.258.004-3.93 1.61-8.157 3.566m78.22 4.754c-6.407 6.254-14.602 13.371-18.235 15.84-1.11.754-2.086 1.676-2.172 2.043-.082.367-7.688 6.266-16.899 13.102-9.214 6.836-16.816 12.484-16.894 12.558-.465.426 2.871 12.516 3.52 12.766.972.375 14.421-8.621 22.433-15 7.477-5.953 24.77-23.172 29.024-28.902 3.664-4.93 5.492-8.77 6.421-13.485.645-3.277.485-5.05-.453-5.05-.258 0-3.293 2.757-6.746 6.128m-302.281-.078c-11.063 1.172-25.785 6.918-32.195 12.555-5.72 5.035-8.196 17.64-4.828 24.59 1.378 2.851 6.933 7.976 11.335 10.453 5.391 3.035 9.446 3.742 21.57 3.738 12.91 0 15.032-.472 24.094-5.367 7.59-4.098 13.586-9.371 15.368-13.512 1.039-2.418 1.105-3.14.632-6.742-.289-2.215-.804-5.02-1.144-6.226-.883-3.145-5.91-12.77-7.777-14.895-3.54-4.031-14.621-5.914-27.055-4.594m154.594 33.082c-8.364 4.989-27.149 14.094-35.422 17.172-7.375 2.742-9.567 3.91-10.133 5.41-.406 1.059-9.113 43.496-18.27 89.032l-2.32 11.535-.015 19.492-.016 19.496 1.516 5.621c5.195 19.235 13.128 30.988 24.843 36.797 5.965 2.96 16.578 5.355 27.364 6.18 9.195.699 38.43.703 50.617 0 10.562-.606 25.828-2.39 30.754-3.598 7.207-1.762 14.57-6.781 19.394-13.227 5.375-7.175 9.117-16.597 12.012-30.253 1.379-6.493 1.492-7.98 1.504-20.192.015-15.95 1.043-9.805-15.047-89.836-6.352-31.586-11.547-57.597-11.547-57.797 0-.203-15.262-.34-33.91-.308l-33.91.054Zm-67.825 28.055c-.906.398-5.105 1.777-9.335 3.063-4.227 1.285-7.918 2.558-8.196 2.828-.71.68 2.235 1.816 10.653 4.117 4.421 1.207 8.027 1.887 9.48 1.781l2.34-.172.426-3.293c.23-1.812.355-4.531.273-6.043-.148-2.715-.168-2.746-2.07-2.87-1.059-.075-2.664.194-3.57.589m-57.66 12.734c-17.59 2.77-18.348 2.973-15.368 4.106 4.535 1.722 31.504 7.617 45.188 9.875 6.996 1.156 27.925 2.933 28.718 2.441.274-.168.496-.969.496-1.781-.003-1.469-.058-1.488-8.925-3.309-10.59-2.175-23.282-5.777-32.477-9.214-7.68-2.872-10.613-3.223-17.633-2.118" />
    </symbol>
    <symbol id="FaSearch" viewBox="0 0 512 512">
      <path d="M505 442.7L405.3 343c-4.5-4.5-10.6-7-17-7H372c27.6-35.3 44-79.7 44-128C416 93.1 322.9 0 208 0S0 93.1 0 208s93.1 208 208 208c48.3 0 92.7-16.4 128-44v16.3c0 6.4 2.5 12.5 7 17l99.7 99.7c9.4 9.4 24.6 9.4 33.9 0l28.3-28.3c9.4-9.4 9.4-24.6.1-34zM208 336c-70.7 0-128-57.2-128-128 0-70.7 57.2-128 128-128 70.7 0 128 57.2 128 128 0 70.7-57.2 128-128 128z" />
    </symbol>
    <symbol id="FaShare" viewBox="0 0 512 512">
      <path d="M503.691 189.836L327.687 37.851C312.281 24.546 288 35.347 288 56.015v80.053C127.371 137.907 0 170.1 0 322.326c0 61.441 39.581 122.309 83.333 154.132 13.653 9.931 33.111-2.533 28.077-18.631C66.066 312.814 132.917 274.316 288 272.085V360c0 20.7 24.3 31.453 39.687 18.164l176.004-152c11.071-9.562 11.086-26.753 0-36.328z" />
    </symbol>
    <symbol id="FaSignInAlt" viewBox="0 0 24 24">
      <circle cx="12" cy="12" r="10" fill="currentColor" opacity="0.2" />
      <circle cx="12" cy="12" r="6" fill="currentColor" opacity="0.4" />
      <circle cx="12" cy="12" r="2" fill="currentColor" />
    </symbol>
    <symbol id="FaSignOutAlt" viewBox="0 0 24 24">
      <circle cx="12" cy="12" r="10" fill="currentColor" opacity="0.2" />
      <circle cx="12" cy="12" r="6" fill="currentColor" opacity="0.4" />
      <circle cx="12" cy="12" r="2" fill="currentColor" />
    </symbol>
    <symbol id="FaSparkles" viewBox="0 0 512 512">
      <path d="M327.5 85.2c-4.5 1.7-7.5 6-7.5 10.8s3 9.1 7.5 10.8L384 128l21.2 56.5c1.7 4.5 6 7.5 10.8 7.5s9.1-3 10.8-7.5L448 128l56.5-21.2c4.5-1.7 7.5-6 7.5-10.8s-3-9.1-7.5-10.8L448 64 426.8 7.5C425.1 3 420.8 0 416 0s-9.1 3-10.8 7.5L384 64 327.5 85.2zM205.1 73.3c-2.6-5.7-8.3-9.3-14.5-9.3s-11.9 3.6-14.5 9.3L123.3 187.3 9.3 240C3.6 242.6 0 248.3 0 254.6s3.6 11.9 9.3 14.5l114.1 52.7L176 435.8c2.6 5.7 8.3 9.3 14.5 9.3s11.9-3.6 14.5-9.3l52.7-114.1 114.1-52.7c5.7-2.6 9.3-8.3 9.3-14.5s-3.6-11.9-9.3-14.5L257.8 187.4 205.1 73.3zM384 384l-56.5 21.2c-4.5 1.7-7.5 6-7.5 10.8s3 9.1 7.5 10.8L384 448l21.2 56.5c1.7 4.5 6 7.5 10.8 7.5s9.1-3 10.8-7.5L448 448l56.5-21.2c4.5-1.7 7.5-6 7.5-10.8s-3-9.1-7.5-10.8L448 384l-21.2-56.5c-1.7-4.5-6-7.5-10.8-7.5s-9.1 3-10.8 7.5L384 384z" fill="currentColor"/>
    </symbol>
    <symbol id="FaSpinner" viewBox="0 0 512 512">
      <path d="M304 48c0 26.51-21.49 48-48 48s-48-21.49-48-48 21.49-48 48-48 48 21.49 48 48zm-48 368c-26.51 0-48 21.49-48 48s21.49 48 48 48 48-21.49 48-48c0-26.509-21.491-48-48-48zm208-208c-26.51 0-48 21.49-48 48s21.49 48 48 48 48-21.49 48-48c0-26.509-21.49-48-48-48zM96 256c0-26.51-21.49-48-48-48S0 229.49 0 256s21.49 48 48 48 48-21.49 48-48zm12.922 99.078c-26.51 0-48 21.49-48 48s21.49 48 48 48 48-21.49 48-48c0-26.509-21.491-48-48-48zm294.156 0c-26.51 0-48 21.49-48 48s21.49 48 48 48 48-21.49 48-48c0-26.509-21.49-48-48-48zM108.922 60.922c-26.51 0-48 21.49-48 48s21.49 48 48 48 48-21.49 48-48-21.49-48-48-48z" />
    </symbol>
    <symbol id="FaStar" viewBox="0 0 576 512">
      <path d="M316.9 18C311.6 7 300.4 0 288.1 0s-23.4 7-28.8 18L195 150.3 51.4 171.5c-12 1.8-22 10.2-25.7 21.7s-.7 24.2 7.9 32.7L137.8 329 113.2 474.7c-2 12 3 24.2 12.9 31.3s23 8 33.8 2.3L288.1 439l128.3 67.3c10.8 5.7 23.9 4.9 33.8-2.3s14.9-19.3 12.9-31.3L438.5 329 542.7 225.9c8.6-8.5 11.7-21.2 7.9-32.7s-13.7-19.9-25.7-21.7L381.2 150.3 316.9 18z" />
    </symbol>
    <symbol id="FaStickyNote" viewBox="0 0 16 16">
      <path d="M2.5 1A1.5 1.5 0 0 0 1 2.5v11A1.5 1.5 0 0 0 2.5 15h6.086a1.5 1.5 0 0 0 1.06-.44l4.915-4.914A1.5 1.5 0 0 0 15 8.586V2.5A1.5 1.5 0 0 0 13.5 1h-11zm6 8.5a1 1 0 0 1 1-1h4.396a.25.25 0 0 1 .177.427l-5.146 5.146a.25.25 0 0 1-.427-.177V9.5z" />
    </symbol>
    <symbol id="FaStore" viewBox="0 0 616 512">
      <path d="M602 118.6L537.1 15C531.3 5.7 521 0 510 0H106C95 0 84.7 5.7 78.9 15L14 118.6c-33.5 53.5-3.8 127.9 58.8 136.4 4.5.6 9.1.9 13.7.9 29.6 0 55.8-13 73.8-33.1 18 20.1 44.3 33.1 73.8 33.1 29.6 0 55.8-13 73.8-33.1 18 20.1 44.3 33.1 73.8 33.1 29.6 0 55.8-13 73.8-33.1 18.1 20.1 44.3 33.1 73.8 33.1 4.7 0 9.2-.3 13.7-.9 62.8-8.4 92.6-82.8 59-136.4zM529.5 288c-10 0-19.9-1.5-29.5-3.8V384H116v-99.8c-9.6 2.2-19.5 3.8-29.5 3.8-6 0-12.1-.4-18-1.2-5.6-.8-11.1-2.1-16.4-3.6V480c0 17.7 14.3 32 32 32h448c17.7 0 32-14.3 32-32V286.2c-5.3 1.5-10.8 2.8-16.4 3.6-5.8.8-11.9 1.2-17.8 1.2z" />
    </symbol>
    <symbol id="FaSun" viewBox="0 0 24 24">
      <circle cx="12" cy="12" r="10" fill="currentColor" opacity="0.2" />
      <circle cx="12" cy="12" r="6" fill="currentColor" opacity="0.4" />
      <circle cx="12" cy="12" r="2" fill="currentColor" />
    </symbol>
    <symbol id="FaTags" viewBox="0 0 24 24">
      <circle cx="12" cy="12" r="10" fill="currentColor" opacity="0.2" />
      <circle cx="12" cy="12" r="6" fill="currentColor" opacity="0.4" />
      <circle cx="12" cy="12" r="2" fill="currentColor" />
    </symbol>
    <symbol id="FaThumbsUp" viewBox="0 0 24 24">
      <circle cx="12" cy="12" r="10" fill="currentColor" opacity="0.2" />
      <circle cx="12" cy="12" r="6" fill="currentColor" opacity="0.4" />
      <circle cx="12" cy="12" r="2" fill="currentColor" />
    </symbol>
    <symbol id="FaTimes" viewBox="0 0 352 512">
      <path d="M242.72 256l100.07-100.07c12.28-12.28 12.28-32.19 0-44.48l-22.24-22.24c-12.28-12.28-32.19-12.28-44.48 0L176 189.28 75.93 89.21c-12.28-12.28-32.19-12.28-44.48 0L9.21 111.45c-12.28 12.28-12.28 32.19 0 44.48L109.28 256 9.21 356.07c-12.28 12.28-12.28 32.19 0 44.48l22.24 22.24c12.28 12.28 32.2 12.28 44.48 0L176 322.72l100.07 100.07c12.28 12.28 32.2 12.28 44.48 0l22.24-22.24c12.28-12.28 12.28-32.19 0-44.48L242.72 256z" />
    </symbol>
    <symbol id="FaTrash" viewBox="0 0 448 512">
      <path d="M432 32H312l-9.4-18.7A24 24 0 0 0 281.1 0H166.8a23.72 23.72 0 0 0-21.4 13.3L136 32H16A16 16 0 0 0 0 48v32a16 16 0 0 0 16 16h416a16 16 0 0 0 16-16V48a16 16 0 0 0-16-16zM53.2 467a48 48 0 0 0 47.9 45h245.8a48 48 0 0 0 47.9-45L416 128H32z" />
    </symbol>
    <symbol id="FaTripadvisor" viewBox="0 0 24 24">
      <path d="M12.006 4.295c-2.67 0-5.338.784-7.645 2.353H0l1.963 2.135a5.997 5.997 0 0 0 4.04 10.43 5.976 5.976 0 0 0 4.075-1.6L12 19.705l1.922-2.09a5.972 5.972 0 0 0 4.072 1.598 6 6 0 0 0 6-5.998 5.982 5.982 0 0 0-1.957-4.432L24 6.648h-4.35a13.573 13.573 0 0 0-7.644-2.353zM12 6.255c1.531 0 3.063.303 4.504.903C13.943 8.138 12 10.43 12 13.1c0-2.671-1.942-4.962-4.504-5.942A11.72 11.72 0 0 1 12 6.256zM6.002 9.157a4.059 4.059 0 1 1 0 8.118 4.059 4.059 0 0 1 0-8.118zm11.992.002a4.057 4.057 0 1 1 .003 8.115 4.057 4.057 0 0 1-.003-8.115zm-11.992 1.93a2.128 2.128 0 0 0 0 4.256 2.128 2.128 0 0 0 0-4.256zm11.992 0a2.128 2.128 0 0 0 0 4.256 2.128 2.128 0 0 0 0-4.256z" />
    </symbol>
    <symbol id="FaTrophy" viewBox="0 0 24 24">
      <circle cx="12" cy="12" r="10" fill="currentColor" opacity="0.2" />
      <circle cx="12" cy="12" r="6" fill="currentColor" opacity="0.4" />
      <circle cx="12" cy="12" r="2" fill="currentColor" />
    </symbol>
    <symbol id="FaUnlock" viewBox="0 0 24 24">
      <circle cx="12" cy="12" r="10" fill="currentColor" opacity="0.2" />
      <circle cx="12" cy="12" r="6" fill="currentColor" opacity="0.4" />
      <circle cx="12" cy="12" r="2" fill="currentColor" />
    </symbol>
    <symbol id="FaUpload" viewBox="0 0 512 512">
      <path d="M296 384h-80c-13.3 0-24-10.7-24-24V216h-87.7c-17.8 0-26.7-21.5-14.1-34.1L242.3 29.7c7.5-7.5 19.8-7.5 27.3 0l152.2 152.2c12.6 12.6 3.7 34.1-14.1 34.1H320v144c0 13.3-10.7 24-24 24zm216-8v112c0 13.3-10.7 24-24 24H24c-13.3 0-24-10.7-24-24V376c0-13.3 10.7-24 24-24h146.7l49 49c20.1 20.1 52.5 20.1 72.6 0l49-49H488c13.3 0 24 10.7 24 24zm-124 88c0-11-9-20-20-20s-20 9-20 20 9 20 20 20 20-9 20-20zm64 0c0-11-9-20-20-20s-20 9-20 20 9 20 20 20 20-9 20-20z" />
    </symbol>
    <symbol id="FaUser" viewBox="0 0 448 512">
      <path d="M224 256c70.7 0 128-57.3 128-128S294.7 0 224 0 96 57.3 96 128s57.3 128 128 128zm89.6 32h-16.7c-22.2 10.2-46.9 16-72.9 16s-50.6-5.8-72.9-16h-16.7C60.2 288 0 348.2 0 422.4V464c0 26.5 21.5 48 48 48h352c26.5 0 48-21.5 48-48v-41.6c0-74.2-60.2-134.4-134.4-134.4z" />
    </symbol>
    <symbol id="FaUserCircle" viewBox="0 0 496 512">
      <path d="M248 8C111 8 0 119 0 256s111 248 248 248 248-111 248-248S385 8 248 8zm0 96c48.6 0 88 39.4 88 88s-39.4 88-88 88-88-39.4-88-88 39.4-88 88-88zm0 344c-58.7 0-111.3-26.6-146.5-68.2 18.8-35.4 55.6-59.8 98.5-59.8 2.4 0 4.8.4 7.1 1.1 13 4.2 26.6 6.9 40.9 6.9 14.3 0 28-2.7 40.9-6.9 2.3-.7 4.7-1.1 7.1-1.1 42.9 0 79.7 24.4 98.5 59.8C359.3 421.4 306.7 448 248 448z" />
    </symbol>
    <symbol id="FaUserPlus" viewBox="0 0 640 512">
      <path d="M624 208h-64v-64c0-8.8-7.2-16-16-16h-32c-8.8 0-16 7.2-16 16v64h-64c-8.8 0-16 7.2-16 16v32c0 8.8 7.2 16 16 16h64v64c0 8.8 7.2 16 16 16h32c8.8 0 16-7.2 16-16v-64h64c8.8 0 16-7.2 16-16v-32c0-8.8-7.2-16-16-16zm-400 48c70.7 0 128-57.3 128-128S294.7 0 224 0 96 57.3 96 128s57.3 128 128 128zm89.6 32h-16.7c-22.2 10.2-46.9 16-72.9 16s-50.6-5.8-72.9-16h-16.7C60.2 288 0 348.2 0 422.4V464c0 26.5 21.5 48 48 48h352c26.5 0 48-21.5 48-48v-41.6c0-74.2-60.2-134.4-134.4-134.4z" />
    </symbol>
    <symbol id="FaUsers" viewBox="0 0 640 512">
      <path d="M96 224c35.3 0 64-28.7 64-64s-28.7-64-64-64-64 28.7-64 64 28.7 64 64 64zm448 0c35.3 0 64-28.7 64-64s-28.7-64-64-64-64 28.7-64 64 28.7 64 64 64zm32 32h-64c-17.6 0-33.5 7.1-45.1 18.6 40.3 22.1 68.9 62 75.1 109.4h66c17.7 0 32-14.3 32-32v-32c0-35.3-28.7-64-64-64zm-256 0c61.9 0 112-50.1 112-112S381.9 32 320 32 208 82.1 208 144s50.1 112 112 112zm76.8 32h-8.3c-20.8 10-43.9 16-68.5 16s-47.6-6-68.5-16h-8.3C179.6 288 128 339.6 128 403.2V432c0 26.5 21.5 48 48 48h288c26.5 0 48-21.5 48-48v-28.8c0-63.6-51.6-115.2-115.2-115.2zm-223.7-13.4C161.5 263.1 145.6 256 128 256H64c-35.3 0-64 28.7-64 64v32c0 17.7 14.3 32 32 32h65.9c6.3-47.4 34.9-87.3 75.2-109.4z" />
    </symbol>
    <symbol id="FaVideo" viewBox="0 0 576 512">
      <path d="M336.2 64H47.8C21.4 64 0 85.4 0 111.8v288.4C0 426.6 21.4 448 47.8 448h288.4c26.4 0 47.8-21.4 47.8-47.8V111.8c0-26.4-21.4-47.8-47.8-47.8zm189.4 37.7L416 177.3v157.4l109.6 75.5c21.2 14.6 50.4-.3 50.4-25.8V127.5c0-25.4-29.1-40.4-50.4-25.8z" />
    </symbol>
    <symbol id="FaWallet" viewBox="0 0 512 512">
      <path d="M461.2 128H80c-8.84 0-16-7.16-16-16s7.16-16 16-16h384c8.84 0 16-7.16 16-16 0-26.51-21.49-48-48-48H64C28.65 32 0 60.65 0 96v320c0 35.35 28.65 64 64 64h397.2c28.02 0 50.8-22.78 50.8-50.8V178.8c0-28.02-22.78-50.8-50.8-50.8zM416 96c8.84 0 16 7.16 16 16s-7.16 16-16 16-16-7.16-16-16 7.16-16 16-16z" />
    </symbol>
    <symbol id="FaWrench" viewBox="0 0 24 24">
      <circle cx="12" cy="12" r="10" fill="currentColor" opacity="0.2" />
      <circle cx="12" cy="12" r="6" fill="currentColor" opacity="0.4" />
      <circle cx="12" cy="12" r="2" fill="currentColor" />
    </symbol>
    <symbol id="FaYelp" viewBox="0 0 32 32">
      <path d="M13.961 22.279c0.246-0.273 0.601-0.444 0.995-0.444 0.739 0 1.338 0.599 1.338 1.338 0 0.016-0 0.032-0.001 0.048l0-0.002-0.237 6.483c-0.027 0.719-0.616 1.293-1.34 1.293-0.077 0-0.153-0.006-0.226-0.019l0.008 0.001c-1.763-0.303-3.331-0.962-4.69-1.902l0.039 0.025c-0.351-0.245-0.578-0.647-0.578-1.102 0-0.346 0.131-0.661 0.346-0.898l-0.001 0.001 4.345-4.829zM12.853 20.434l-6.301 1.572c-0.097 0.025-0.208 0.039-0.322 0.039-0.687 0-1.253-0.517-1.332-1.183l-0.001-0.006c-0.046-0.389-0.073-0.839-0.073-1.295 0-1.324 0.223-2.597 0.635-3.781l-0.024 0.081c0.183-0.534 0.681-0.911 1.267-0.911 0.214 0 0.417 0.050 0.596 0.14l-0.008-0.004 5.833 2.848c0.45 0.221 0.754 0.677 0.754 1.203 0 0.623-0.427 1.147-1.004 1.294l-0.009 0.002zM13.924 15.223l-6.104-10.574c-0.112-0.191-0.178-0.421-0.178-0.667 0-0.529 0.307-0.987 0.752-1.204l0.008-0.003c1.918-0.938 4.153-1.568 6.511-1.761l0.067-0.004c0.031-0.003 0.067-0.004 0.104-0.004 0.738 0 1.337 0.599 1.337 1.337 0 0.001 0 0.001 0 0.002v-0 12.207c-0 0.739-0.599 1.338-1.338 1.338-0.493 0-0.923-0.266-1.155-0.663l-0.003-0.006zM19.918 20.681l6.176 2.007c0.541 0.18 0.925 0.682 0.925 1.274 0 0.209-0.048 0.407-0.134 0.584l0.003-0.008c-0.758 1.569-1.799 2.889-3.068 3.945l-0.019 0.015c-0.23 0.19-0.527 0.306-0.852 0.306-0.477 0-0.896-0.249-1.134-0.625l-0.003-0.006-3.449-5.51c-0.128-0.201-0.203-0.446-0.203-0.709 0-0.738 0.598-1.336 1.336-1.336 0.147 0 0.289 0.024 0.421 0.068l-0.009-0.003zM26.197 16.742l-6.242 1.791c-0.11 0.033-0.237 0.052-0.368 0.052-0.737 0-1.335-0.598-1.335-1.335 0-0.282 0.087-0.543 0.236-0.758l-0.003 0.004 3.63-5.383c0.244-0.358 0.65-0.59 1.111-0.59 0.339 0 0.649 0.126 0.885 0.334l-0.001-0.001c1.25 1.104 2.25 2.459 2.925 3.99l0.029 0.073c0.070 0.158 0.111 0.342 0.111 0.535 0 0.608-0.405 1.121-0.959 1.286l-0.009 0.002z" />
    </symbol>
    <symbol id="FaAmazon" viewBox="0 0 35.418 35.418">
      <path d="M20.948,9.891c-0.857,0.068-1.847,0.136-2.837,0.269c-1.516,0.195-3.032,0.461-4.284,1.053 c-2.439,0.994-4.088,3.105-4.088,6.209c0,3.898,2.506,5.875,5.669,5.875c1.057,0,1.913-0.129,2.703-0.328 c1.255-0.396,2.31-1.123,3.562-2.441c0.727,0.99,0.923,1.453,2.177,2.509c0.329,0.133,0.658,0.133,0.922-0.066 c0.791-0.659,2.174-1.848,2.901-2.508c0.328-0.267,0.263-0.66,0.066-0.992c-0.727-0.924-1.45-1.718-1.45-3.498v-5.943 c0-2.513,0.195-4.822-1.647-6.537c-1.518-1.391-3.891-1.916-5.735-1.916c-0.264,0-0.527,0-0.792,0 c-3.362,0.197-6.921,1.647-7.714,5.811c-0.13,0.525,0.267,0.726,0.53,0.793l3.691,0.464c0.396-0.07,0.593-0.398,0.658-0.73 c0.333-1.449,1.518-2.176,2.836-2.309c0.067,0,0.133,0,0.265,0c0.79,0,1.646,0.332,2.109,0.987 c0.523,0.795,0.461,1.853,0.461,2.775L20.948,9.891L20.948,9.891z M20.223,17.749c-0.461,0.925-1.253,1.519-2.11,1.718 c-0.131,0-0.327,0.068-0.526,0.068c-1.45,0-2.31-1.123-2.31-2.775c0-2.11,1.254-3.104,2.836-3.565 c0.857-0.197,1.847-0.265,2.836-0.265v0.793C20.948,15.243,21.01,16.43,20.223,17.749z M35.418,26.918v0.215 c-0.035,1.291-0.716,3.768-2.328,5.131c-0.322,0.25-0.645,0.107-0.503-0.254c0.469-1.145,1.541-3.803,1.04-4.412 c-0.355-0.465-1.826-0.43-3.079-0.322c-0.572,0.072-1.075,0.105-1.469,0.183c-0.357,0.033-0.431-0.287-0.071-0.537 c0.466-0.323,0.969-0.573,1.541-0.756c2.039-0.608,4.406-0.25,4.729,0.146C35.348,26.414,35.418,26.629,35.418,26.918z M32.016,29.428c-0.466,0.357-0.965,0.682-1.468,0.973c-3.761,2.261-8.631,3.441-12.856,3.441c-6.807,0-12.895-2.512-17.514-6.709 c-0.396-0.324-0.073-0.789,0.393-0.539C5.549,29.5,11.709,31.26,18.084,31.26c4.013,0,8.342-0.754,12.463-2.371 c0.285-0.104,0.608-0.252,0.895-0.356C32.087,28.242,32.661,28.965,32.016,29.428z" />
    </symbol>
    <symbol id="SiG2" viewBox="0 0 512 512">
      <path d="M445.242 151.214h-76.489c2.078-12.016 9.473-18.718 24.495-26.343l14.097-7.165c25.188-12.938 38.589-27.498 38.589-51.301 0-15.02-5.777-26.806-17.33-35.356-11.323-8.55-25.188-12.709-41.132-12.709-12.712 0-24.265 3.233-34.896 9.935-10.398 6.472-18.256 14.79-23.107 25.188l22.184 22.188c8.55-17.333 21.029-25.883 37.437-25.883 13.864 0 22.414 7.165 22.414 17.1 0 8.32-4.159 15.252-20.103 23.34l-9.013 4.391c-19.644 9.935-33.278 21.259-41.136 34.201-7.855 12.709-11.783 29.116-11.783 48.76v5.314h115.773v-31.66zM435.017 219.437H308.359l-63.33 109.689h126.659l63.329 109.689 63.329-109.689z M255.941 402.251c-80.643 0-146.251-65.608-146.251-146.251s65.608-146.252 146.251-146.252L306.012 4.969a257.144 257.144 0 0 0-50.071-4.91C114.589.059 0 114.648 0 256s114.589 255.941 255.941 255.941c56.357 0 108.449-18.23 150.731-49.094l-55.446-96.035c-25.616 22.059-58.907 35.439-95.285 35.439z" />
    </symbol>
    <symbol id="SiAngi" viewBox="0 0 24 24">
      <path d="M12 2L2 22h4l1.5-3h9L18 22h4L12 2zm-2.5 13L12 9l2.5 6h-5z" />
    </symbol>
    <symbol id="MdDownload" viewBox="0 0 24 24">
      <path d="M5,20H19V18H5M19,9H15V3H9V9H5L12,16L19,9Z" />
    </symbol>
    <symbol id="MdEvent" viewBox="0 0 24 24">
      <circle cx="12" cy="12" r="10" fill="currentColor" opacity="0.2" />
      <circle cx="12" cy="12" r="6" fill="currentColor" opacity="0.4" />
      <circle cx="12" cy="12" r="2" fill="currentColor" />
    </symbol>
    <symbol id="MdLocationOn" viewBox="0 0 24 24">
      <circle cx="12" cy="12" r="10" fill="currentColor" opacity="0.2" />
      <circle cx="12" cy="12" r="6" fill="currentColor" opacity="0.4" />
      <circle cx="12" cy="12" r="2" fill="currentColor" />
    </symbol>
    <symbol id="FiMoreHorizontal" viewBox="0 0 24 24">
      <path d="M12 12h.01M21 12h.01M3 12h.01" fill="none" stroke="currentColor" stroke-width="2" stroke-linecap="round" stroke-linejoin="round" />
    </symbol>
    <symbol id="SiTrustpilot" viewBox="0 0 24 24">
      <path d="M12,17.964l5.214-1.321l2.179,6.714L12,17.964z M24,9.286h-9.179L12,0.643L9.179,9.286 H0l7.429,5.357l-2.821,8.643l7.429-5.357l4.571-3.286L24,9.286L24,9.286L24,9.286L24,9.286z" />
    </symbol>
    <symbol id="SiHouzz" viewBox="0 0 24 24">
      <path d="M1.27 0v24h8.05v-7.56h5.36V24h8.05V10.37L6.61 5.75V0H1.27z" />
    </symbol>
    <symbol id="SiHomeadvisor" viewBox="0 0 24 24">
      <path d="M15.98 2.442H8.02L0 10.46h2.275l6.882-6.88 6.881 6.881H24l-8.02-8.018m-.492 9.348L9.157 5.459 4.01 10.605v4.987a1.33 1.33 0 0 0 1.329 1.329h6.077l4.637 4.637v-4.637h2.598a1.33 1.33 0 0 0 1.33-1.33V11.79h-4.494z" />
    </symbol>
    <symbol id="FaDumbbell" viewBox="0 0 512 512">
      <path d="M256 8C119 8 8 119 8 256s111 248 248 248 248-111 248-248S393 8 256 8zm0 448c-110.5 0-200-89.5-200-200S145.5 56 256 56s200 89.5 200 200-89.5 200-200 200z" />
    </symbol>
    <symbol id="FaGlassCheers" viewBox="0 0 512 512">
      <path d="M32 160h448c17.67 0 32 14.33 32 32v192c0 17.67-14.33 32-32 32H32c-17.67 0-32-14.33-32-32V192c0-17.67 14.33-32 32-32zm384 224H64V192h384v192z" />
    </symbol>
    <symbol id="FaPagelines" viewBox="0 0 512 512">
      <path d="M256 8C119 8 8 119 8 256s111 248 248 248 248-111 248-248S393 8 256 8zm0 448c-110.5 0-200-89.5-200-200S145.5 56 256 56s200 89.5 200 200-89.5 200-200 200z" />
    </symbol>
    <symbol id="FaRainbow" viewBox="0 0 512 512">
      <path d="M256 8C119 8 8 119 8 256s111 248 248 248 248-111 248-248S393 8 256 8zm0 448c-110.5 0-200-89.5-200-200S145.5 56 256 56s200 89.5 200 200-89.5 200-200 200z" />
    </symbol>
    <symbol id="FaQuestionCircle" viewBox="0 0 512 512">
      <path d="M504 256c0 136.997-111.043 248-248 248S8 392.997 8 256C8 119.083 119.043 8 256 8s248 111.083 248 248zM262.655 90c-54.497 0-89.255 22.957-116.549 63.758-3.536 5.286-2.353 12.415 2.715 16.258l34.699 26.31c5.205 3.947 12.621 3.008 16.665-2.122 17.864-22.658 30.113-35.797 57.303-35.797 20.429 0 45.698 13.148 45.698 32.958 0 14.976-12.363 22.667-32.534 33.976C247.128 238.528 216 254.941 216 296v4c0 6.627 5.373 12 12 12h56c6.627 0 12-5.373 12-12v-4c0-21.059 1.636-28.188 32.534-44.568C349.039 244.814 376 220.976 376 184c0-54.515-48.185-94-113.345-94zM256 338.013c-22.091 0-40 17.909-40 40s17.909 39.987 40 39.987 40-17.896 40-39.987-17.909-40-40-40z" />
    </symbol>
    <symbol id="FaGift" viewBox="0 0 640 640">
      <path d="M385.5 132.8C393.1 119.9 406.9 112 421.8 112L424 112C446.1 112 464 129.9 464 152C464 174.1 446.1 192 424 192L350.7 192L385.5 132.8zM254.5 132.8L289.3 192L216 192C193.9 192 176 174.1 176 152C176 129.9 193.9 112 216 112L218.2 112C233.1 112 247 119.9 254.5 132.8zM344.1 108.5L320 149.5L295.9 108.5C279.7 80.9 250.1 64 218.2 64L216 64C167.4 64 128 103.4 128 152C128 166.4 131.5 180 137.6 192L96 192C78.3 192 64 206.3 64 224L64 256C64 273.7 78.3 288 96 288L544 288C561.7 288 576 273.7 576 256L576 224C576 206.3 561.7 192 544 192L502.4 192C508.5 180 512 166.4 512 152C512 103.4 472.6 64 424 64L421.8 64C389.9 64 360.3 80.9 344.1 108.4zM544 336L344 336L344 544L480 544C515.3 544 544 515.3 544 480L544 336zM296 336L96 336L96 480C96 515.3 124.7 544 160 544L296 544L296 336z" />
    </symbol>
    <symbol id="FaBbb" viewBox="0 0 562 961">
      <path d="M438.82,541.64H122.78l-11.45,37.79h84.26l15.98,52.1h138.43l16.08-52.1h84.17zM174.39,329.5c-24.21,33.38-16.79,80.07 16.58,104.29l75.68,54.96c8.4,6.05 10.26,17.79 4.14,26.15l11.35,8.19 39.96-55.06c9.28-12.69 14.29-27.99 14.31-43.71-0.03-3.998-0.36-7.989-0.99-11.939-3.02-19.53-13.67-37.06-29.6-48.74l-75.58-54.86c-4.21-2.82-7.06-7.24-7.89-12.24-0.099-0.99-0.099-1.97 0-2.96 0.026-3.93 1.27-7.76 3.55-10.95l-11.35-8.29zm45.59-220.82c-13.4,18.4-20.62,40.58-20.62,63.35-0.03,5.78 0.43,11.56 1.38,17.27 4.41,28.39 20.01,53.84 43.32,70.65l95.12,69.07c12.46,9 20.81,22.61 23.19,37.79 0.51,3.07 0.77,6.17 0.79,9.28-0.048,12.15-3.95,23.96-11.15,33.75l9.18,6.61 74.89-103.51c35.83-49.5 25.02-117.12-23.31-152.28L297.13,78.28c-7.18-5.2-11.97-13.05-13.32-21.81-1.46-8.75 0.67-17.72 5.92-24.86l-9.08-6.61zM25.79,663.1h86.63c17.79-1.18 35.32,4.75 48.74,16.48 8.43,8.35 13.04,19.81 12.73,31.67v0.59c0.48,17.04-9.11,32.77-24.47,40.16 21.51,8.29 34.83,20.82 34.83,45.88 0,34.14-27.63,51.21-69.76,51.21H25.69zm78.15,75.38c18.06,0 29.6-5.92 29.6-19.73 0-12.33-9.87-19.73-26.94-19.73H65.75v39.47zm10.85,75.09c18.16,0 29.01-6.41 29.01-19.73v-0.59c0-12.43-9.28-19.73-30.29-19.73H65.75v41.05zM202.61,663.1h86.63c17.79-1.18 35.32,4.75 48.74,16.48 8.39,8.37 12.96,19.83 12.63,31.67v0.59c0.48,17.04-9.11,32.77-24.47,40.16 21.61,8.29 34.93,20.82 34.93,45.88 0,34.14-27.73,51.21-69.86,51.21h-88.61zm77.85,75.38c18.06,0 29.6-5.92 29.6-19.73 0-12.33-9.87-19.73-26.84-19.73h-41.15v39.47zm10.85,75.09c18.16,0 29.01-6.41 29.01-19.73v-0.59c0-12.43-9.28-19.73-30.29-19.73h-47.95v41.05zM378.44,663.1h86.63c17.79-1.18 35.32,4.75 48.74,16.48 8.43,8.35 13.04,19.81 12.73,31.67v0.59c0.48,17.04-9.11,32.77-24.47,40.16 21.61,8.29 34.93,20.82 34.93,45.88 0,34.14-27.73,51.21-69.86,51.21h-88.8zm77.85,75.38c18.06,0 29.6-5.92 29.6-19.73 0-12.33-9.87-19.73-26.84-19.73h-40.65v39.47zm10.85,75.09c18.16,0 29.11-6.41 29.11-19.73v-0.59c0-12.43-9.37-19.73-30.39-19.73h-47.46v41.05z" />
    </symbol>
    <symbol id="FaSave" viewBox="0 0 448 512">
      <path d="M433.941 129.941l-83.882-83.882A48 48 0 0 0 316.118 32H48C21.49 32 0 53.49 0 80v352c0 26.51 21.49 48 48 48h352c26.51 0 48-21.49 48-48V163.882a48 48 0 0 0-14.059-33.941zM224 416c-35.346 0-64-28.654-64-64 0-35.346 28.654-64 64-64s64 28.654 64 64c0 35.346-28.654 64-64 64zm96-304.52V212c0 6.627-5.373 12-12 12H76c-6.627 0-12-5.373-12-12V108c0-6.627 5.373-12 12-12h228.52c3.183 0 6.235 1.264 8.485 3.515l3.48 3.48A11.996 11.996 0 0 1 320 111.48z" />
    </symbol>
    <symbol id="FaFavorites" viewBox="0 0 512 512">
      <path d="M0 190.9V185.1C0 115.2 50.52 55.58 119.4 44.1C164.1 36.51 211.4 51.37 244 84.02L256 96L267.1 84.02C300.6 51.37 347 36.51 392.6 44.1C461.5 55.58 512 115.2 512 185.1V190.9C512 232.4 494.8 272.1 464.4 300.4L283.7 469.1C276.2 476.1 266.3 480 256 480C245.7 480 235.8 476.1 228.3 469.1L47.59 300.4C17.23 272.1 .0003 232.4 .0003 190.9L0 190.9z" />
    </symbol>
    <symbol id="FaBookmark" viewBox="0 0 384 512">
      <path d="M0 48V487.7C0 501.1 10.9 512 24.3 512c5.8 0 11.5-2.1 15.9-5.9L192 400l151.8 106.1c4.4 3.8 10.1 5.9 15.9 5.9C373.1 512 384 501.1 384 487.7V48c0-26.5-21.5-48-48-48H48C21.5 0 0 21.5 0 48z" />
    </symbol>
    <symbol id="FiMenu" viewBox="0 0 24 24">
      <path d="M3 12h18M3 6h18M3 18h18" fill="none" stroke="currentColor" stroke-width="2" stroke-linecap="round" stroke-linejoin="round" />
    </symbol>
    <symbol id="FiX" viewBox="0 0 24 24">
      <path d="M18 6L6 18M6 6l12 12" fill="none" stroke="currentColor" stroke-width="2" stroke-linecap="round" stroke-linejoin="round" />
    </symbol>
    <symbol id="FaFeather" viewBox="0 0 640 640">
      <path d="M416 64C457 64 496.3 80.3 525.2 109.2L530.7 114.7C559.7 143.7 576 183 576 223.9C576 248 570.3 271.5 559.8 292.7C557.9 296.4 554.5 299.2 550.5 300.4L438.5 334C434.6 335.2 432 338.7 432 342.8C432 347.9 436.1 352 441.2 352L473.4 352C487.7 352 494.8 369.2 484.7 379.3L462.3 401.7C460.4 403.6 458.1 404.9 455.6 405.7L374.6 430C370.7 431.2 368.1 434.7 368.1 438.8C368.1 443.9 372.2 448 377.3 448C390.5 448 396.2 463.7 385.1 470.9C344 497.5 295.8 512 246.1 512L160.1 512L112.1 560C103.3 568.8 88.9 568.8 80.1 560C71.3 551.2 71.3 536.8 80.1 528L320 288C328.8 279.2 328.8 264.8 320 256C311.2 247.2 296.8 247.2 288 256L143.5 400.5C137.8 406.2 128 402.2 128 394.1C128 326.2 155 261.1 203 213.1L306.8 109.2C335.7 80.3 375 64 416 64z" />
    </symbol>
    <symbol id="FaSmile" viewBox="0 0 496 512">
      <path d="M248 8C111 8 0 119 0 256s111 248 248 248 248-111 248-248S385 8 248 8zm80 168c17.7 0 32 14.3 32 32s-14.3 32-32 32-32-14.3-32-32 14.3-32 32-32zm-160 0c17.7 0 32 14.3 32 32s-14.3 32-32 32-32-14.3-32-32 14.3-32 32-32zm194.8 170.2C334.3 380.4 292.5 400 248 400s-86.3-19.6-114.8-53.8c-13.6-16.3 11-36.7 24.6-20.5 22.4 26.9 55.2 42.2 90.2 42.2s67.8-15.4 90.2-42.2c13.4-16.2 38.1 4.2 24.6 20.5z" />
    </symbol>
    <symbol id="FaSentimentAnalyzer" viewBox="0 0 224.87999 225">
      <path d="M 11.070312 27.113281 C 9.605469 28.09375 7.789062 30.125 7.035156 31.625 C 5.753906 34.167969 5.660156 39.550781 5.664062 110.066406 C 5.664062 183.777344 5.703125 185.847656 7.195312 188.292969 C 8.039062 189.671875 9.890625 191.4375 11.3125 192.214844 C 13.753906 193.546875 19.214844 193.636719 110.664062 193.832031 C 173.128906 193.96875 208.460938 193.765625 210.332031 193.261719 C 211.929688 192.832031 214.457031 191.21875 215.953125 189.675781 L 218.671875 186.871094 L 218.871094 110.222656 C 219.070312 34.828125 219.046875 33.53125 217.507812 31.015625 C 216.644531 29.609375 214.789062 27.757812 213.382812 26.898438 C 210.867188 25.363281 209.230469 25.339844 112.28125 25.335938 L 13.738281 25.332031 Z M 14.765625 35.988281 C 14.503906 36.671875 14.289062 69.835938 14.289062 109.683594 C 14.289062 174.503906 14.417969 182.269531 15.523438 183.371094 C 16.628906 184.476562 26.492188 184.601562 112.363281 184.601562 C 198.230469 184.601562 208.09375 184.476562 209.203125 183.371094 C 210.304688 182.265625 210.433594 174.476562 210.433594 109.382812 C 210.433594 53.84375 210.210938 36.410156 209.492188 35.691406 C 208.769531 34.96875 186.027344 34.75 111.898438 34.75 C 24.484375 34.75 15.195312 34.867188 14.765625 35.988281 M 25.949219 43.308594 L 24.097656 44.808594 L 24.097656 68.78125 C 24.097656 90.746094 24.214844 92.867188 25.496094 94.152344 C 26.824219 95.480469 31.359375 95.554688 112.367188 95.550781 C 193.277344 95.546875 197.90625 95.472656 199.230469 94.148438 C 200.507812 92.871094 200.628906 90.722656 200.628906 68.78125 L 200.628906 44.808594 L 198.773438 43.308594 C 196.976562 41.851562 194.449219 41.808594 112.363281 41.808594 C 30.273438 41.808594 27.746094 41.851562 25.949219 43.308594 M 31.550781 57.894531 L 31.550781 66.132812 L 53.019531 66.132812 C 73.300781 66.132812 74.601562 66.21875 76.484375 67.699219 C 77.582031 68.5625 78.628906 69.269531 78.816406 69.269531 C 79 69.269531 80.679688 66.003906 82.546875 62.011719 C 84.417969 58.019531 86.472656 54.136719 87.113281 53.382812 C 87.757812 52.625 89.230469 52.007812 90.394531 52.007812 C 91.554688 52.007812 93.058594 52.625 93.738281 53.382812 C 94.417969 54.136719 96.03125 57.402344 97.324219 60.640625 C 98.617188 63.875 100.429688 68.203125 101.347656 70.25 C 102.269531 72.300781 103.183594 73.976562 103.382812 73.976562 C 103.582031 73.976562 104.835938 72.207031 106.167969 70.042969 C 107.5 67.878906 109.238281 65.757812 110.03125 65.335938 C 110.824219 64.910156 112.066406 64.5625 112.792969 64.5625 C 113.519531 64.5625 115.511719 66.0625 117.222656 67.898438 C 119.78125 70.640625 120.464844 71.023438 121.085938 70.054688 C 121.5 69.40625 123.324219 66.230469 125.144531 62.992188 C 128.109375 57.707031 128.710938 57.082031 131.046875 56.859375 C 132.476562 56.722656 134.179688 57.050781 134.824219 57.585938 C 135.472656 58.125 137.5625 60.972656 139.464844 63.914062 L 142.925781 69.265625 L 145.492188 67.703125 C 147.898438 66.238281 149.464844 66.136719 170.226562 66.132812 L 192.390625 66.132812 L 192.390625 49.65625 L 31.550781 49.65625 Z M 87.671875 69.023438 C 86.414062 71.84375 84.722656 74.992188 83.910156 76.023438 C 82.878906 77.335938 81.640625 77.898438 79.804688 77.898438 C 78.144531 77.898438 76.316406 77.175781 74.84375 75.9375 L 72.515625 73.976562 L 31.488281 73.976562 L 31.714844 80.84375 L 31.941406 87.707031 L 112.164062 87.90625 L 192.390625 88.105469 L 192.390625 73.976562 L 149.777344 73.976562 L 147.140625 75.988281 C 145.292969 77.398438 143.75 77.925781 141.96875 77.753906 C 139.8125 77.542969 138.921875 76.738281 136.082031 72.40625 C 134.238281 69.601562 132.433594 67.207031 132.074219 67.082031 C 131.710938 66.960938 130.089844 69.382812 128.46875 72.46875 C 126.847656 75.554688 124.855469 78.746094 124.039062 79.558594 C 123.226562 80.375 121.78125 81.039062 120.824219 81.039062 C 119.847656 81.039062 117.644531 79.621094 115.777344 77.785156 L 112.460938 74.53125 L 110.253906 78.28125 C 109.039062 80.34375 107.363281 82.691406 106.523438 83.496094 C 105.6875 84.300781 104.277344 84.949219 103.386719 84.9375 C 102.496094 84.921875 101.199219 84.476562 100.503906 83.945312 C 99.804688 83.414062 98.1875 80.867188 96.90625 78.28125 C 95.625 75.699219 93.769531 71.550781 92.78125 69.058594 C 91.792969 66.570312 90.753906 64.394531 90.472656 64.21875 C 90.1875 64.042969 88.929688 66.207031 87.671875 69.023438 M 54.929688 104.523438 C 52.46875 105.308594 48.859375 106.886719 46.910156 108.027344 C 44.964844 109.167969 41.585938 111.917969 39.402344 114.136719 C 37.148438 116.425781 34.261719 120.566406 32.71875 123.726562 C 31.160156 126.917969 29.625 131.660156 29.113281 134.847656 C 28.4375 139.066406 28.453125 141.746094 29.167969 145.984375 C 29.683594 149.058594 31.316406 154.085938 32.789062 157.164062 C 34.519531 160.777344 37.070312 164.355469 39.984375 167.265625 C 42.953125 170.234375 46.625 172.824219 50.714844 174.847656 C 56.578125 177.742188 57.414062 177.933594 65.230469 178.175781 C 71.996094 178.386719 74.355469 178.144531 78.035156 176.855469 C 80.515625 175.984375 84.484375 173.988281 86.851562 172.414062 C 89.21875 170.84375 92.78125 167.75 94.765625 165.542969 C 96.75 163.335938 99.230469 159.84375 100.273438 157.78125 C 101.320312 155.71875 102.703125 152.007812 103.34375 149.539062 C 103.988281 147.066406 104.515625 142.90625 104.515625 140.289062 C 104.515625 137.671875 103.871094 133.203125 103.082031 130.355469 C 102.289062 127.507812 100.660156 123.496094 99.457031 121.445312 C 98.257812 119.394531 96.054688 116.367188 94.5625 114.714844 C 93.070312 113.066406 90.003906 110.488281 87.746094 108.992188 C 85.488281 107.492188 81.464844 105.53125 78.804688 104.636719 C 75.226562 103.429688 72.070312 103.019531 66.683594 103.050781 C 61.902344 103.078125 57.867188 103.582031 54.929688 104.523438 M 145.3125 104.84375 C 142.507812 105.839844 138.800781 107.550781 137.074219 108.648438 C 135.351562 109.746094 132.066406 112.632812 129.78125 115.058594 C 127.492188 117.484375 124.589844 121.679688 123.328125 124.378906 C 122.066406 127.082031 120.632812 131.996094 120.140625 135.308594 C 119.410156 140.246094 119.464844 142.382812 120.445312 147.183594 C 121.101562 150.402344 122.640625 155.097656 123.867188 157.621094 C 125.09375 160.148438 128.203125 164.359375 130.800781 167.003906 C 134.0625 170.328125 137.398438 172.726562 141.675781 174.832031 C 147.242188 177.570312 148.578125 177.902344 155.285156 178.195312 C 160.742188 178.433594 164.0625 178.15625 167.769531 177.152344 C 170.546875 176.402344 174.839844 174.472656 177.308594 172.867188 C 179.777344 171.257812 183.445312 168.171875 185.457031 166 C 187.472656 163.832031 190 160.320312 191.078125 158.195312 C 192.152344 156.070312 193.640625 152.246094 194.382812 149.699219 C 195.382812 146.253906 195.625 143.351562 195.324219 138.355469 C 195.074219 134.21875 194.253906 129.890625 193.183594 127.074219 C 192.230469 124.5625 189.804688 120.324219 187.800781 117.660156 C 185.628906 114.777344 182.148438 111.472656 179.203125 109.496094 C 176.480469 107.671875 171.941406 105.464844 169.117188 104.59375 C 165.609375 103.507812 161.828125 103.011719 157.195312 103.023438 C 152.152344 103.035156 149.109375 103.503906 145.3125 104.84375 M 58.953125 111.875 C 56.980469 112.433594 53.785156 113.820312 51.847656 114.957031 C 49.914062 116.089844 46.816406 118.660156 44.96875 120.664062 C 43.121094 122.667969 40.785156 126.136719 39.777344 128.367188 C 38.769531 130.601562 37.710938 134.386719 37.421875 136.777344 C 37.136719 139.167969 37.28125 143.179688 37.746094 145.695312 C 38.210938 148.207031 39.390625 151.898438 40.367188 153.898438 C 41.34375 155.898438 43.773438 159.183594 45.765625 161.195312 C 47.757812 163.210938 51.125 165.738281 53.246094 166.8125 C 55.367188 167.886719 59.242188 169.1875 61.863281 169.703125 C 65.5625 170.429688 67.660156 170.429688 71.253906 169.695312 C 73.796875 169.175781 77.929688 167.667969 80.441406 166.34375 C 82.949219 165.019531 86.523438 162.238281 88.382812 160.167969 C 90.246094 158.097656 92.59375 154.71875 93.601562 152.65625 C 95.164062 149.460938 95.4375 147.671875 95.464844 140.589844 C 95.492188 132.609375 95.382812 132.058594 92.746094 126.890625 C 90.699219 122.871094 88.828125 120.5625 85.375 117.78125 C 82.832031 115.734375 79.125 113.492188 77.136719 112.800781 C 75.152344 112.105469 71.054688 111.386719 68.03125 111.199219 C 64.824219 111 61.050781 111.28125 58.953125 111.875 M 150.039062 112.0625 C 147.679688 112.722656 144.304688 114.109375 142.542969 115.140625 C 140.78125 116.175781 137.828125 118.660156 135.980469 120.664062 C 134.132812 122.667969 131.6875 126.3125 130.546875 128.761719 C 128.789062 132.53125 128.46875 134.296875 128.460938 140.273438 C 128.453125 146.585938 128.71875 147.894531 130.941406 152.59375 C 132.308594 155.484375 135.011719 159.433594 136.949219 161.371094 C 138.882812 163.308594 142.199219 165.769531 144.316406 166.839844 C 146.429688 167.914062 150.269531 169.171875 152.847656 169.640625 C 156.222656 170.25 158.832031 170.25 162.179688 169.628906 C 164.734375 169.15625 168.550781 167.898438 170.65625 166.832031 C 172.761719 165.765625 176.074219 163.425781 178.019531 161.632812 C 179.960938 159.84375 182.550781 156.398438 183.773438 153.980469 C 184.992188 151.558594 186.375 147.464844 186.84375 144.878906 C 187.4375 141.613281 187.453125 138.890625 186.898438 135.96875 C 186.460938 133.652344 185.25 129.898438 184.207031 127.625 C 183.167969 125.351562 180.679688 121.855469 178.683594 119.859375 C 176.6875 117.859375 172.808594 115.175781 170.0625 113.890625 C 166.570312 112.257812 163.46875 111.453125 159.707031 111.207031 C 156.25 110.980469 152.804688 111.285156 150.039062 112.0625 M 62.148438 117.03125 C 60.539062 117.503906 60.191406 118.09375 60.210938 120.3125 C 60.222656 121.796875 60.476562 124.425781 60.773438 126.152344 C 61.277344 129.066406 61.148438 129.386719 58.957031 130.644531 C 57.621094 131.410156 55.9375 133.453125 55.074219 135.351562 C 54.238281 137.195312 53.542969 139.617188 53.535156 140.734375 C 53.519531 142.460938 52.8125 143.066406 48.8125 144.792969 C 45.171875 146.363281 44.101562 147.203125 44.101562 148.492188 C 44.101562 149.410156 44.675781 151.289062 45.371094 152.671875 C 46.070312 154.050781 47.367188 155.976562 48.253906 156.945312 C 49.140625 157.917969 50.441406 158.710938 51.136719 158.710938 C 51.835938 158.710938 53.933594 157.15625 55.796875 155.257812 C 59.15625 151.832031 59.207031 151.8125 61.820312 152.90625 C 63.265625 153.507812 65.359375 154.003906 66.464844 154.003906 C 67.570312 154.003906 69.707031 153.488281 71.210938 152.863281 L 73.945312 151.71875 L 77.171875 155.214844 C 79.164062 157.378906 81.070312 158.710938 82.171875 158.710938 C 83.441406 158.710938 84.652344 157.625 86.390625 154.917969 C 87.726562 152.828125 88.824219 150.203125 88.824219 149.078125 C 88.824219 147.953125 88.390625 146.75 87.859375 146.402344 C 87.332031 146.050781 85.300781 145.207031 83.347656 144.523438 C 79.960938 143.332031 79.777344 143.113281 79.269531 139.570312 C 78.980469 137.527344 78.179688 135.003906 77.496094 133.960938 C 76.808594 132.914062 75.335938 131.457031 74.21875 130.726562 C 72.351562 129.503906 72.226562 129.082031 72.6875 125.605469 C 72.964844 123.523438 73.359375 121.371094 73.570312 120.824219 C 73.78125 120.277344 73.503906 119.253906 72.953125 118.550781 C 72.371094 117.800781 70.324219 117.101562 68.03125 116.863281 C 65.875 116.640625 63.226562 116.714844 62.148438 117.03125 M 154.730469 116.882812 C 153.648438 117.101562 152.289062 117.671875 151.707031 118.152344 C 151.011719 118.722656 150.785156 119.988281 151.054688 121.804688 C 151.285156 123.332031 151.703125 125.660156 151.988281 126.976562 C 152.433594 129.027344 152.222656 129.5 150.523438 130.273438 C 149.429688 130.773438 147.902344 132.144531 147.128906 133.328125 C 146.355469 134.507812 145.542969 137.21875 145.320312 139.351562 L 144.921875 143.226562 L 140.214844 144.886719 C 136.273438 146.28125 135.46875 146.878906 135.273438 148.5625 C 135.125 149.828125 136 152.011719 137.625 154.445312 C 139.21875 156.832031 140.890625 158.417969 141.976562 158.570312 C 143.238281 158.75 144.636719 157.835938 146.90625 155.335938 L 150.078125 151.855469 L 152.992188 152.894531 C 154.59375 153.46875 156.710938 153.953125 157.695312 153.96875 C 158.679688 153.988281 160.671875 153.507812 162.121094 152.90625 C 164.730469 151.8125 164.78125 151.832031 168.140625 155.257812 C 170.007812 157.15625 172.152344 158.710938 172.90625 158.710938 C 173.664062 158.710938 175.003906 157.9375 175.886719 156.992188 C 176.765625 156.046875 178.234375 153.734375 179.140625 151.855469 C 180.652344 148.730469 180.691406 148.320312 179.558594 147.070312 C 178.878906 146.320312 176.542969 145.066406 174.371094 144.285156 C 170.664062 142.949219 170.421875 142.695312 170.421875 140.15625 C 170.421875 138.667969 169.898438 136.441406 169.257812 135.203125 C 168.621094 133.96875 166.976562 132.082031 165.609375 131.011719 L 163.117188 129.058594 L 163.890625 124.242188 C 164.445312 120.808594 164.417969 119.082031 163.789062 118.226562 C 163.308594 117.566406 161.511719 116.902344 159.800781 116.753906 C 158.089844 116.605469 155.808594 116.664062 154.730469 116.882812 M 63.894531 137.179688 C 62.6875 138.027344 62.148438 139.203125 62.148438 141.007812 C 62.148438 142.441406 62.679688 144.054688 63.328125 144.59375 C 63.976562 145.132812 65.402344 145.570312 66.492188 145.570312 C 67.582031 145.570312 69.171875 144.941406 70.019531 144.171875 C 70.871094 143.40625 71.5625 141.949219 71.5625 140.9375 C 71.5625 139.925781 70.859375 138.390625 69.996094 137.527344 C 69.132812 136.664062 67.796875 135.960938 67.03125 135.960938 C 66.265625 135.960938 64.851562 136.507812 63.894531 137.179688 M 154.902344 137.179688 C 153.820312 137.941406 153.160156 139.21875 153.160156 140.5625 C 153.160156 141.75 153.628906 143.363281 154.203125 144.144531 C 154.773438 144.929688 156.199219 145.570312 157.367188 145.570312 C 158.535156 145.570312 160.183594 144.941406 161.03125 144.171875 C 161.878906 143.40625 162.574219 141.949219 162.574219 140.9375 C 162.574219 139.925781 161.867188 138.390625 161.003906 137.527344 C 160.144531 136.664062 158.808594 135.960938 158.042969 135.960938 C 157.277344 135.960938 155.863281 136.507812 154.902344 137.179688 " fill-rule="evenodd" />
    </symbol>
  </defs>
</svg>