<?xml version="1.0" encoding="UTF-8"?>
<svg xmlns="http://www.w3.org/2000/svg" style="display: none;">
  <defs>
        <symbol id="FaAddressBook" viewBox="0 0 24 24">
      <circle cx="12" cy="12" r="10" fill="currentColor" opacity="0.2" />
      <circle cx="12" cy="12" r="6" fill="currentColor" opacity="0.4" />
      <circle cx="12" cy="12" r="2" fill="currentColor" />
    </symbol>
    <symbol id="FaAnchor" viewBox="0 0 24 24">
      <circle cx="12" cy="12" r="10" fill="currentColor" opacity="0.2" />
      <circle cx="12" cy="12" r="6" fill="currentColor" opacity="0.4" />
      <circle cx="12" cy="12" r="2" fill="currentColor" />
    </symbol>
    <symbol id="FaAngry" viewBox="0 0 24 24">
      <circle cx="12" cy="12" r="10" fill="currentColor" opacity="0.2" />
      <circle cx="12" cy="12" r="6" fill="currentColor" opacity="0.4" />
      <circle cx="12" cy="12" r="2" fill="currentColor" />
    </symbol>
    <symbol id="FaAnkh" viewBox="0 0 24 24">
      <circle cx="12" cy="12" r="10" fill="currentColor" opacity="0.2" />
      <circle cx="12" cy="12" r="6" fill="currentColor" opacity="0.4" />
      <circle cx="12" cy="12" r="2" fill="currentColor" />
    </symbol>
    <symbol id="FaAppleAlt" viewBox="0 0 24 24">
      <circle cx="12" cy="12" r="10" fill="currentColor" opacity="0.2" />
      <circle cx="12" cy="12" r="6" fill="currentColor" opacity="0.4" />
      <circle cx="12" cy="12" r="2" fill="currentColor" />
    </symbol>
    <symbol id="FaArrowLeft" viewBox="0 0 448 512">
      <path d="M257.5 445.1l-22.2 22.2c-9.4 9.4-24.6 9.4-33.9 0L7 273c-9.4-9.4-9.4-24.6 0-33.9L201.4 44.7c9.4-9.4 24.6-9.4 33.9 0l22.2 22.2c9.5 9.5 9.3 25-.4 34.3L136.6 216H424c13.3 0 24 10.7 24 24v32c0 13.3-10.7 24-24 24H136.6l120.5 114.8c9.8 9.3 10 24.8.4 34.3z" />
    </symbol>
    <symbol id="FaArrowRight" viewBox="0 0 448 512">
      <path d="M190.5 66.9l22.2-22.2c9.4-9.4 24.6-9.4 33.9 0L441 239c9.4 9.4 9.4 24.6 0 33.9L246.6 467.3c-9.4 9.4-24.6 9.4-33.9 0l-22.2-22.2c-9.5-9.5-9.3-25 .4-34.3L311.4 296H24c-13.3 0-24-10.7-24-24v-32c0-13.3 10.7-24 24-24h287.4L190.9 101.2c-9.8-9.3-10-24.8-.4-34.3z" />
    </symbol>
    <symbol id="FaArrowsAlt" viewBox="0 0 640 640">
      <path d="M342.6 73.4C330.1 60.9 309.8 60.9 297.3 73.4L233.3 137.4C220.8 149.9 220.8 170.2 233.3 182.7C245.8 195.2 266.1 195.2 278.6 182.7L288 173.3L288 288L173.3 288L182.7 278.6C195.2 266.1 195.2 245.8 182.7 233.3C170.2 220.8 149.9 220.8 137.4 233.3L73.4 297.3C60.9 309.8 60.9 330.1 73.4 342.6L137.4 406.6C149.9 419.1 170.2 419.1 182.7 406.6C195.2 394.1 195.2 373.8 182.7 361.3L173.3 351.9L288 351.9L288 466.6L278.6 457.2C266.1 444.7 245.8 444.7 233.3 457.2C220.8 469.7 220.8 490 233.3 502.5L297.3 566.5C309.8 579 330.1 579 342.6 566.5L406.6 502.5C419.1 490 419.1 469.7 406.6 457.2C394.1 444.7 373.8 444.7 361.3 457.2L351.9 466.6L351.9 351.9L466.6 351.9L457.2 361.3C444.7 373.8 444.7 394.1 457.2 406.6C469.7 419.1 490 419.1 502.5 406.6L566.5 342.6C579 330.1 579 309.8 566.5 297.3L502.5 233.3C490 220.8 469.7 220.8 457.2 233.3C444.7 245.8 444.7 266.1 457.2 278.6L466.6 288L351.9 288L351.9 173.3L361.3 182.7C373.8 195.2 394.1 195.2 406.6 182.7C419.1 170.2 419.1 149.9 406.6 137.4L342.6 73.4z" />
    </symbol>
    <symbol id="FaBars" viewBox="0 0 448 512">
      <path d="M16 132h416c8.837 0 16-7.163 16-16V76c0-8.837-7.163-16-16-16H16C7.163 60 0 67.163 0 76v40c0 8.837 7.163 16 16 16zm0 160h416c8.837 0 16-7.163 16-16v-40c0-8.837-7.163-16-16-16H16c-8.837 0-16 7.163-16 16v40c0 8.837 7.163 16 16 16zm0 160h416c8.837 0 16-7.163 16-16v-40c0-8.837-7.163-16-16-16H16c-8.837 0-16 7.163-16 16v40c0 8.837 7.163 16 16 16z" />
    </symbol>
    <symbol id="FaBell" viewBox="0 0 448 512">
      <path d="M224 512c35.32 0 63.97-28.65 63.97-64H160.03c0 35.35 28.65 64 63.97 64zm215.39-149.71c-19.32-20.76-55.47-51.99-55.47-154.29 0-77.7-54.48-139.9-127.94-155.16V32c0-17.67-14.32-32-31.98-32s-31.98 14.33-31.98 32v20.84C118.56 68.1 64.08 130.3 64.08 208c0 102.3-36.15 133.53-55.47 154.29-6 6.45-8.66 14.16-8.61 21.71.11 16.4 12.98 32 32.1 32h383.8c19.12 0 32-15.6 32.1-32 .05-7.55-2.61-15.27-8.61-21.71z" />
    </symbol>
    <symbol id="FaBoxOpen" viewBox="0 0 640 512">
      <path d="M58.9 42.1c3-6.1 9.6-9.6 16.3-8.7L320 64 564.8 33.4c6.7-.8 13.3 2.7 16.3 8.7l41.7 83.4c9 17.9-.6 39.6-19.8 45.1L439.6 217.3c-13.9 4-28.8-1.9-36.2-14.3L320 64 236.6 203c-7.4 12.4-22.3 18.3-36.2 14.3L37.1 170.6c-19.3-5.5-28.8-27.2-19.8-45.1L58.9 42.1zM321.1 128l54.9 91.4c14.9 24.8 44.6 36.6 72.5 28.6L576 211.6v167c0 22-15 41.2-36.4 46.6l-204.1 51c-10.2 2.6-20.9 2.6-31 0l-204.1-51C79 419.7 64 400.5 64 378.5v-167L191.6 248c27.8 8 57.6-3.8 72.5-28.6L318.9 128h2.2z" />
    </symbol>
    <symbol id="FaBug" viewBox="0 0 640 640">
      <path d="M224 160C224 107 267 64 320 64C373 64 416 107 416 160L416 163.6C416 179.3 403.3 192 387.6 192L252.5 192C236.8 192 224.1 179.3 224.1 163.6L224.1 160zM569.6 172.8C580.2 186.9 577.3 207 563.2 217.6L465.4 290.9C470.7 299.8 474.7 309.6 477.2 320L576 320C593.7 320 608 334.3 608 352C608 369.7 593.7 384 576 384L480 384L480 416C480 418.6 479.9 421.3 479.8 423.9L563.2 486.4C577.3 497 580.2 517.1 569.6 531.2C559 545.3 538.9 548.2 524.8 537.6L461.7 490.3C438.5 534.5 395.2 566.5 344 574.2L344 344C344 330.7 333.3 320 320 320C306.7 320 296 330.7 296 344L296 574.2C244.8 566.5 201.5 534.5 178.3 490.3L115.2 537.6C101.1 548.2 81 545.3 70.4 531.2C59.8 517.1 62.7 497 76.8 486.4L160.2 423.9C160.1 421.3 160 418.7 160 416L160 384L64 384C46.3 384 32 369.7 32 352C32 334.3 46.3 320 64 320L162.8 320C165.3 309.6 169.3 299.8 174.6 290.9L76.8 217.6C62.7 207 59.8 186.9 70.4 172.8C81 158.7 101.1 155.8 115.2 166.4L224 248C236.3 242.9 249.8 240 264 240L376 240C390.2 240 403.7 242.8 416 248L524.8 166.4C538.9 155.8 559 158.7 569.6 172.8z" />
    </symbol>
    <symbol id="FaBuilding" viewBox="0 0 24 24">
      <circle cx="12" cy="12" r="10" fill="currentColor" opacity="0.2" />
      <circle cx="12" cy="12" r="6" fill="currentColor" opacity="0.4" />
      <circle cx="12" cy="12" r="2" fill="currentColor" />
    </symbol>
    <symbol id="FaBusinessTime" viewBox="0 0 24 24">
      <circle cx="12" cy="12" r="10" fill="currentColor" opacity="0.2" />
      <circle cx="12" cy="12" r="6" fill="currentColor" opacity="0.4" />
      <circle cx="12" cy="12" r="2" fill="currentColor" />
    </symbol>
    <symbol id="FaCalendarAlt" viewBox="0 0 640 640">
      <path d="M224 64C241.7 64 256 78.3 256 96L256 128L384 128L384 96C384 78.3 398.3 64 416 64C433.7 64 448 78.3 448 96L448 128L480 128C515.3 128 544 156.7 544 192L544 480C544 515.3 515.3 544 480 544L160 544C124.7 544 96 515.3 96 480L96 192C96 156.7 124.7 128 160 128L192 128L192 96C192 78.3 206.3 64 224 64zM160 304L160 336C160 344.8 167.2 352 176 352L208 352C216.8 352 224 344.8 224 336L224 304C224 295.2 216.8 288 208 288L176 288C167.2 288 160 295.2 160 304zM288 304L288 336C288 344.8 295.2 352 304 352L336 352C344.8 352 352 344.8 352 336L352 304C352 295.2 344.8 288 336 288L304 288C295.2 288 288 295.2 288 304zM432 288C423.2 288 416 295.2 416 304L416 336C416 344.8 423.2 352 432 352L464 352C472.8 352 480 344.8 480 336L480 304C480 295.2 472.8 288 464 288L432 288zM160 432L160 464C160 472.8 167.2 480 176 480L208 480C216.8 480 224 472.8 224 464L224 432C224 423.2 216.8 416 208 416L176 416C167.2 416 160 423.2 160 432zM304 416C295.2 416 288 423.2 288 432L288 464C288 472.8 295.2 480 304 480L336 480C344.8 480 352 472.8 352 464L352 432C352 423.2 344.8 416 336 416L304 416zM416 432L416 464C416 472.8 423.2 480 432 480L464 480C472.8 480 480 472.8 480 464L480 432C480 423.2 472.8 416 464 416L432 416C423.2 416 416 423.2 416 432z" />
    </symbol>
    <symbol id="FaCamera" viewBox="0 0 512 512">
      <path d="M512 144v288c0 26.5-21.5 48-48 48H48c-26.5 0-48-21.5-48-48V144c0-26.5 21.5-48 48-48h88l12.3-32.9c7-18.7 24.9-31.1 44.9-31.1h125.5c20 0 37.9 12.4 44.9 31.1L376 96h88c26.5 0 48 21.5 48 48zM376 288c0-66.2-53.8-120-120-120s-120 53.8-120 120 53.8 120 120 120 120-53.8 120-120zm-32 0c0 48.5-39.5 88-88 88s-88-39.5-88-88 39.5-88 88-88 88 39.5 88 88z" />
    </symbol>
    <symbol id="FaCaretDown" viewBox="0 0 24 24">
      <circle cx="12" cy="12" r="10" fill="currentColor" opacity="0.2" />
      <circle cx="12" cy="12" r="6" fill="currentColor" opacity="0.4" />
      <circle cx="12" cy="12" r="2" fill="currentColor" />
    </symbol>
    <symbol id="FaCaretUp" viewBox="0 0 24 24">
      <circle cx="12" cy="12" r="10" fill="currentColor" opacity="0.2" />
      <circle cx="12" cy="12" r="6" fill="currentColor" opacity="0.4" />
      <circle cx="12" cy="12" r="2" fill="currentColor" />
    </symbol>
    <symbol id="FaChartLine" viewBox="0 0 640 640">
      <path d="M128 128C128 110.3 113.7 96 96 96C78.3 96 64 110.3 64 128L64 464C64 508.2 99.8 544 144 544L544 544C561.7 544 576 529.7 576 512C576 494.3 561.7 480 544 480L144 480C135.2 480 128 472.8 128 464L128 128zM534.6 214.6C547.1 202.1 547.1 181.8 534.6 169.3C522.1 156.8 501.8 156.8 489.3 169.3L384 274.7L326.6 217.4C314.1 204.9 293.8 204.9 281.3 217.4L185.3 313.4C172.8 325.9 172.8 346.2 185.3 358.7C197.8 371.2 218.1 371.2 230.6 358.7L304 285.3L361.4 342.7C373.9 355.2 394.2 355.2 406.7 342.7L534.7 214.7z"/>
    </symbol>
    <symbol id="FaChartPie" viewBox="0 0 640 640">
      <path d="M544.4 304L368.4 304C350.7 304 336.4 289.7 336.4 272L336.4 96C336.4 78.3 350.8 63.8 368.3 66.1C475.3 80.3 560.1 165.1 574.3 272.1C576.6 289.6 562.1 304 544.4 304zM254.6 101.2C272.7 97.4 288.4 112.2 288.4 130.7L288.4 328C288.4 333.6 290.4 339 293.9 343.3L426 502.7C437.7 516.8 435.2 538.1 419.1 546.8C385 565.4 345.9 576 304.4 576C171.9 576 64.4 468.5 64.4 336C64.4 220.5 145.9 124.1 254.6 101.2zM509.8 352L573.8 352C592.3 352 607.1 367.7 603.3 385.8C593.1 434.2 568.3 477.2 533.7 510C521.4 521.7 502.1 519.2 491.3 506.1L406.9 404.4C389.6 383.5 404.5 352 431.5 352L509.7 352z"/>
    </symbol>
    <symbol id="FaCheck" viewBox="0 0 512 512">
      <path d="M173.898 439.404l-166.4-166.4c-9.997-9.997-9.997-26.206 0-36.204l36.203-36.204c9.997-9.998 26.207-9.998 36.204 0L192 312.69 432.095 72.596c9.997-9.997 26.207-9.997 36.204 0l36.203 36.204c9.997 9.997 9.997 26.206 0 36.204l-294.4 294.401c-9.998 9.997-26.207 9.997-36.204-.001z" />
    </symbol>
    <symbol id="FaCheckCircle" viewBox="0 0 24 24">
      <circle cx="12" cy="12" r="10" fill="currentColor" opacity="0.2" />
      <circle cx="12" cy="12" r="6" fill="currentColor" opacity="0.4" />
      <circle cx="12" cy="12" r="2" fill="currentColor" />
    </symbol>
    <symbol id="FaChevronDown" viewBox="0 0 448 512">
      <path d="M207.029 381.476L12.686 187.132c-9.373-9.373-9.373-24.569 0-33.941l22.667-22.667c9.357-9.357 24.522-9.375 33.901-.04L224 284.505l154.745-154.021c9.379-9.335 24.544-9.317 33.901.04l22.667 22.667c9.373 9.373 9.373 24.569 0 33.941L240.971 381.476c-9.373 9.372-24.569 9.372-33.942 0z" />
    </symbol>
    <symbol id="FaChevronLeft" viewBox="0 0 320 512">
      <path d="M9.4 233.4c-12.5 12.5-12.5 32.8 0 45.3l192 192c12.5 12.5 32.8 12.5 45.3 0s12.5-32.8 0-45.3L77.3 256 246.6 86.6c12.5-12.5 12.5-32.8 0-45.3s-32.8-12.5-45.3 0l-192 192z" />
    </symbol>
    <symbol id="FaChevronRight" viewBox="0 0 320 512">
      <path d="M310.6 233.4c12.5 12.5 12.5 32.8 0 45.3l-192 192c-12.5 12.5-32.8 12.5-45.3 0s-12.5-32.8 0-45.3L242.7 256 73.4 86.6c-12.5-12.5-12.5-32.8 0-45.3s32.8-12.5 45.3 0l192 192z" />
    </symbol>
    <symbol id="FaChevronUp" viewBox="0 0 448 512">
      <path d="M240.971 130.524l194.343 194.343c9.373 9.373 9.373 24.569 0 33.941l-22.667 22.667c-9.357 9.357-24.522 9.375-33.901.04L224 227.495 69.255 381.516c-9.379 9.335-24.544 9.317-33.901-.04l-22.667-22.667c-9.373-9.373-9.373-24.569 0-33.941L207.03 130.525c9.372-9.373 24.568-9.373 33.941-.001z" />
    </symbol>
    <symbol id="FaCircle" viewBox="0 0 24 24">
      <circle cx="12" cy="12" r="10" fill="currentColor" opacity="0.2" />
      <circle cx="12" cy="12" r="6" fill="currentColor" opacity="0.4" />
      <circle cx="12" cy="12" r="2" fill="currentColor" />
    </symbol>
    <symbol id="FaClock" viewBox="0 0 512 512">
      <path d="M256 8C119 8 8 119 8 256s111 248 248 248 248-111 248-248S393 8 256 8zm57.1 350.1L224.9 294c-3.1-2.3-4.9-5.9-4.9-9.7V116c0-6.6 5.4-12 12-12h48c6.6 0 12 5.4 12 12v137.7l63.5 46.2c5.4 3.9 6.5 11.4 2.6 16.8l-28.2 38.8c-3.9 5.3-11.4 6.5-16.8 2.6z" />
    </symbol>
    <symbol id="FaCode" viewBox="0 0 640 512">
      <path d="M392.8 1.2c-17-4.9-34.7 5-39.6 22l-128 448c-4.9 17 5 34.7 22 39.6s34.7-5 39.6-22l128-448c4.9-17-5-34.7-22-39.6zm80.6 120.1c-12.5 12.5-12.5 32.8 0 45.3L562.7 256l-89.4 89.4c-12.5 12.5-12.5 32.8 0 45.3s32.8 12.5 45.3 0l112-112c12.5-12.5 12.5-32.8 0-45.3l-112-112c-12.5-12.5-32.8-12.5-45.3 0zm-306.7 0c-12.5-12.5-32.8-12.5-45.3 0l-112 112c-12.5 12.5-12.5 32.8 0 45.3l112 112c12.5 12.5 32.8 12.5 45.3 0s12.5-32.8 0-45.3L77.3 256l89.4-89.4c12.5-12.5 12.5-32.8 0-45.3z" />
    </symbol>
    <symbol id="FaCodeBranch" viewBox="0 0 24 24">
      <circle cx="12" cy="12" r="10" fill="currentColor" opacity="0.2" />
      <circle cx="12" cy="12" r="6" fill="currentColor" opacity="0.4" />
      <circle cx="12" cy="12" r="2" fill="currentColor" />
    </symbol>
    <symbol id="FaCoffee" viewBox="0 0 24 24">
      <circle cx="12" cy="12" r="10" fill="currentColor" opacity="0.2" />
      <circle cx="12" cy="12" r="6" fill="currentColor" opacity="0.4" />
      <circle cx="12" cy="12" r="2" fill="currentColor" />
    </symbol>
    <symbol id="FaCog" viewBox="0 0 512 512">
      <path d="M487.4 315.7l-42.6-24.6c4.3-23.2 4.3-47.6 0-70.8l42.6-24.6c4.9-2.8 7.1-8.6 5.5-14-11.1-35.6-30-67.8-54.7-94.6-3.8-4.1-10-5.1-14.8-2.3L380.8 110c-17.9-15.4-38.5-27.3-60.8-35.1V25.8c0-5.6-3.9-10.5-9.4-11.7-36.7-8.2-74.3-7.8-109.2 0-5.5 1.2-9.4 6.1-9.4 11.7V75c-22.2 7.9-42.8 19.8-60.8 35.1L88.7 85.5c-4.9-2.8-11-1.9-14.8 2.3-24.7 26.7-43.6 58.9-54.7 94.6-1.7 5.4.6 11.2 5.5 14L67.3 221c-4.3 23.2-4.3 47.6 0 70.8L24.7 316.4c-4.9 2.8-7.1 8.6-5.5 14 11.1 35.6 30 67.8 54.7 94.6 3.8 4.1 10 5.1 14.8 2.3l42.6-24.6c17.9 15.4 38.5 27.3 60.8 35.1v49.2c0 5.6 3.9 10.5 9.4 11.7 36.7 8.2 74.3 7.8 109.2 0 5.5-1.2 9.4-6.1 9.4-11.7v-49.2c22.2-7.9 42.8-19.8 60.8-35.1l42.6 24.6c4.9 2.8 11 1.9 14.8-2.3 24.7-26.7 43.6-58.9 54.7-94.6 1.5-5.5-.7-11.3-5.6-14.1zM256 336c-44.1 0-80-35.9-80-80s35.9-80 80-80 80 35.9 80 80-35.9 80-80 80z" />
    </symbol>
    <symbol id="FaCommentAlt" viewBox="0 0 512 512">
      <path d="M448 0H64C28.7 0 0 28.7 0 64v288c0 35.3 28.7 64 64 64h96v84c0 9.8 11.2 15.5 19.1 9.7L304 416h144c35.3 0 64-28.7 64-64V64c0-35.3-28.7-64-64-64z" />
    </symbol>
    <symbol id="FaCommentDots" viewBox="0 0 512 512">
      <path d="M448 0H64C28.7 0 0 28.7 0 64v288c0 35.3 28.7 64 64 64h96v84c0 9.8 11.2 15.5 19.1 9.7L304 416h144c35.3 0 64-28.7 64-64V64c0-35.3-28.7-64-64-64zM128 240c0-17.7 14.3-32 32-32s32 14.3 32 32-14.3 32-32 32-32-14.3-32-32zm128 0c0-17.7 14.3-32 32-32s32 14.3 32 32-14.3 32-32 32-32-14.3-32-32zm128 0c0-17.7 14.3-32 32-32s32 14.3 32 32-14.3 32-32 32-32-14.3-32-32z" />
    </symbol>
    <symbol id="FaComments" viewBox="0 0 640 640">
      <path d="M416 208C416 305.2 330 384 224 384C197.3 384 171.9 379 148.8 370L67.2 413.2C57.9 418.1 46.5 416.4 39 409C31.5 401.6 29.8 390.1 34.8 380.8L70.4 313.6C46.3 284.2 32 247.6 32 208C32 110.8 118 32 224 32C330 32 416 110.8 416 208zM416 576C321.9 576 243.6 513.9 227.2 432C347.2 430.5 451.5 345.1 463 229.3C546.3 248.5 608 317.6 608 400C608 439.6 593.7 476.2 569.6 505.6L605.2 572.8C610.1 582.1 608.4 593.5 601 601C593.6 608.5 582.1 610.2 572.8 605.2L491.2 562C468.1 571 442.7 576 416 576z"/>
    </symbol>
    <symbol id="FaCopy" viewBox="0 0 24 24">
      <circle cx="12" cy="12" r="10" fill="currentColor" opacity="0.2" />
      <circle cx="12" cy="12" r="6" fill="currentColor" opacity="0.4" />
      <circle cx="12" cy="12" r="2" fill="currentColor" />
    </symbol>
    <symbol id="FaCreditCard" viewBox="0 0 24 24">
      <circle cx="12" cy="12" r="10" fill="currentColor" opacity="0.2" />
      <circle cx="12" cy="12" r="6" fill="currentColor" opacity="0.4" />
      <circle cx="12" cy="12" r="2" fill="currentColor" />
    </symbol>
    <symbol id="FaDatabase" viewBox="0 0 24 24">
      <circle cx="12" cy="12" r="10" fill="currentColor" opacity="0.2" />
      <circle cx="12" cy="12" r="6" fill="currentColor" opacity="0.4" />
      <circle cx="12" cy="12" r="2" fill="currentColor" />
    </symbol>
    <symbol id="FaDownload" viewBox="0 0 640 640">
      <path d="M352 96C352 78.3 337.7 64 320 64C302.3 64 288 78.3 288 96L288 306.7L246.6 265.3C234.1 252.8 213.8 252.8 201.3 265.3C188.8 277.8 188.8 298.1 201.3 310.6L297.3 406.6C309.8 419.1 330.1 419.1 342.6 406.6L438.6 310.6C451.1 298.1 451.1 277.8 438.6 265.3C426.1 252.8 405.8 252.8 393.3 265.3L352 306.7L352 96zM160 384C124.7 384 96 412.7 96 448L96 480C96 515.3 124.7 544 160 544L480 544C515.3 544 544 515.3 544 480L544 448C544 412.7 515.3 384 480 384L433.1 384L376.5 440.6C345.3 471.8 294.6 471.8 263.4 440.6L206.9 384L160 384zM464 440C477.3 440 488 450.7 488 464C488 477.3 477.3 488 464 488C450.7 488 440 477.3 440 464C440 450.7 450.7 440 464 440z" fill="currentColor" />
    </symbol>
    <symbol id="FaEdit" viewBox="0 0 576 512">
      <path d="M402.6 83.2l90.2 90.2c3.8 3.8 3.8 10 0 13.8L274.4 405.6l-92.8 10.3c-12.4 1.4-22.9-9.1-21.5-21.5l10.3-92.8L388.8 83.2c3.8-3.8 10-3.8 13.8 0zm162-22.9l-48.8-48.8c-15.2-15.2-39.9-15.2-55.2 0l-35.4 35.4c-3.8 3.8-3.8 10 0 13.8l90.2 90.2c3.8 3.8 10 3.8 13.8 0l35.4-35.4c15.2-15.3 15.2-40 0-55.2zM384 346.2V448H64V128h229.8c3.2 0 6.2-1.3 8.5-3.5l40-40c7.6-7.6 2.2-20.5-8.5-20.5H48C21.5 64 0 85.5 0 112v352c0 26.5 21.5 48 48 48h352c26.5 0 48-21.5 48-48V306.2c0-10.7-12.9-16-20.5-8.5l-40 40c-2.2 2.3-3.5 5.3-3.5 8.5z" />
    </symbol>
    <symbol id="FaEnvelope" viewBox="0 0 512 512">
      <path d="M502.3 190.8c3.9-3.1 9.7-.2 9.7 4.7V400c0 26.5-21.5 48-48 48H48c-26.5 0-48-21.5-48-48V195.6c0-5 5.7-7.8 9.7-4.7 22.4 17.4 52.1 39.5 154.1 113.6 21.1 15.4 56.7 47.8 92.2 47.6 35.7.3 72-32.8 92.3-47.6 102-74.1 131.6-96.3 154-113.7zM256 320c23.2.4 56.6-29.2 73.4-41.4 132.7-96.3 142.8-104.7 173.4-128.7 5.8-4.5 9.2-11.5 9.2-18.9v-19c0-26.5-21.5-48-48-48H48C21.5 64 0 85.5 0 112v19c0 7.4 3.4 14.3 9.2 18.9 30.6 23.9 40.7 32.4 173.4 128.7 16.8 12.2 50.2 41.8 73.4 41.4z" />
    </symbol>
    <symbol id="FaExclamationTriangle" viewBox="0 0 24 24">
      <circle cx="12" cy="12" r="10" fill="currentColor" opacity="0.2" />
      <circle cx="12" cy="12" r="6" fill="currentColor" opacity="0.4" />
      <circle cx="12" cy="12" r="2" fill="currentColor" />
    </symbol>
    <symbol id="FaExternalLink" viewBox="0 -256 1850 1850">
      <path d="M 1408,608 V 288 Q 1408,169 1323.5,84.5 1239,0 1120,0 H 288 Q 169,0 84.5,84.5 0,169 0,288 v 832 Q 0,1239 84.5,1323.5 169,1408 288,1408 h 704 q 14,0 23,-9 9,-9 9,-23 v -64 q 0,-14 -9,-23 -9,-9 -23,-9 H 288 q -66,0 -113,-47 -47,-47 -47,-113 V 288 q 0,-66 47,-113 47,-47 113,-47 h 832 q 66,0 113,47 47,47 47,113 v 320 q 0,14 9,23 9,9 23,9 h 64 q 14,0 23,-9 9,-9 9,-23 z m 384,864 V 960 q 0,-26 -19,-45 -19,-19 -45,-19 -26,0 -45,19 L 1507,1091 855,439 q -10,-10 -23,-10 -13,0 -23,10 L 695,553 q -10,10 -10,23 0,13 10,23 l 652,652 -176,176 q -19,19 -19,45 0,26 19,45 19,19 45,19 h 512 q 26,0 45,-19 19,-19 19,-45 z" transform="matrix(1,0,0,-1,30.372881,1426.9492)" fill="currentColor"/>
    </symbol>
    <symbol id="FaEye" viewBox="0 0 576 512">
      <path d="M572.52 241.4C518.29 135.59 410.93 64 288 64S57.68 135.64 3.48 241.41a32.35 32.35 0 0 0 0 29.19C57.71 376.41 165.07 448 288 448s230.32-71.64 284.52-177.41a32.35 32.35 0 0 0 0-29.19zM288 400a144 144 0 1 1 144-144 143.93 143.93 0 0 1-144 144zm0-240a95.31 95.31 0 0 0-25.31 3.79 47.85 47.85 0 0 1-66.9 66.9A95.78 95.78 0 1 0 288 160z" />
    </symbol>
    <symbol id="FaEyeSlash" viewBox="0 0 640 512">
      <path d="M320 400c-75.85 0-137.25-58.71-142.9-133.11L72.2 185.82c-13.79 17.3-26.48 35.59-36.72 55.59a32.35 32.35 0 0 0 0 29.19C89.71 376.41 197.07 448 320 448c26.91 0 52.87-4 77.89-10.46L346 397.39a144.13 144.13 0 0 1-26 2.61zm313.82 58.1l-110.55-85.44a331.25 331.25 0 0 0 81.25-102.07 32.35 32.35 0 0 0 0-29.19C550.29 135.59 442.93 64 320 64a308.15 308.15 0 0 0-147.32 37.7L45.46 3.37A16 16 0 0 0 23 6.18L3.37 31.45A16 16 0 0 0 6.18 53.9l588.36 454.73a16 16 0 0 0 22.46-2.81l19.64-25.27a16 16 0 0 0-2.82-22.45zm-183.72-142l-39.3-30.38A94.75 94.75 0 0 0 416 256a94.76 94.76 0 0 0-121.31-92.21A47.65 47.65 0 0 1 304 192a46.64 46.64 0 0 1-1.54 10l-73.61-56.89A142.31 142.31 0 0 1 320 112a143.92 143.92 0 0 1 144 144c0 21.63-5.29 41.79-13.9 60.11z" />
    </symbol>
    <symbol id="FaFacebook" viewBox="0 0 512 512">
      <path d="M504 256C504 119 393 8 256 8S8 119 8 256c0 123.78 90.69 226.38 209.25 245V327.69h-63V256h63v-54.64c0-62.15 37-96.48 93.67-96.48 27.14 0 55.52 4.84 55.52 4.84v61h-31.28c-30.8 0-40.41 19.12-40.41 38.73V256h68.78l-11 71.69h-57.78V501C413.31 482.38 504 379.78 504 256z" />
    </symbol>
    <symbol id="FaFileAlt" viewBox="0 0 384 512">
      <path d="M224 136V0H24C10.7 0 0 10.7 0 24v464c0 13.3 10.7 24 24 24h336c13.3 0 24-10.7 24-24V160H248c-13.2 0-24-10.8-24-24zm160-14.1v6.1H256V0h6.1c6.4 0 12.5 2.5 17 7l97.9 97.9c4.5 4.5 7 10.6 7 16.9z" />
    </symbol>
    <symbol id="FaFilter" viewBox="0 0 512 512">
      <path d="M487.976 0H24.028C2.71 0-8.047 25.866 7.058 40.971L192 225.941V432c0 7.831 3.821 15.17 10.237 19.662l80 55.98C298.02 518.69 320 507.493 320 487.98V225.941l184.947-184.97C520.021 25.896 509.338 0 487.976 0z" />
    </symbol>
    <symbol id="FaFrown" viewBox="0 0 24 24">
      <circle cx="12" cy="12" r="10" fill="currentColor" opacity="0.2" />
      <circle cx="12" cy="12" r="6" fill="currentColor" opacity="0.4" />
      <circle cx="12" cy="12" r="2" fill="currentColor" />
    </symbol>
    <symbol id="FaGlobe" viewBox="0 0 496 512">
      <path d="M248 8C111.03 8 0 119.03 0 256s111.03 248 248 248 248-111.03 248-248S384.97 8 248 8zm82.29 357.6c-3.9 3.88-7.99 7.95-11.31 11.28-2.99 3-5.1 6.7-6.17 10.71-1.51 5.66-2.73 11.38-4.77 16.87l-17.39 46.85c-13.76 3-28.28 4.69-43.65 4.69v-27.38c1.69-12.62-7.64-36.26-22.63-51.25-6-6-9.37-14.14-9.37-22.63v-32.01c0-11.64-6.27-22.34-16.46-27.97-14.37-7.95-34.81-19.06-48.81-26.11-11.48-5.78-22.1-13.14-31.65-21.75l-.8-.72a114.792 114.792 0 01-18.06-20.74c-9.38-13.77-24.66-36.42-34.59-51.14 20.47-45.5 57.36-82.04 103.2-101.89l24.01 12.01C203.48 89.74 216 82.01 216 70.11v-11.3c7.99-1.29 16.12-2.11 24.39-2.42l28.3 28.3c6.25 6.25 6.25 16.38 0 22.63L264 112l-10.34 10.34c-3.12 3.12-3.12 8.19 0 11.31l4.69 4.69c3.12 3.12 3.12 8.19 0 11.31l-8 8a8.008 8.008 0 01-5.66 2.34h-8.99c-2.08 0-4.08.81-5.58 2.27l-9.92 9.65a8.008 8.008 0 00-1.58 9.31l15.59 31.19c2.66 5.32-1.21 11.58-7.15 11.58h-5.64c-1.93 0-3.79-.7-5.24-1.96l-9.28-8.06a16.017 16.017 0 00-15.55-3.1l-31.17 10.39a11.95 11.95 0 00-8.17 11.34c0 4.53 2.56 8.66 6.61 10.69l11.08 5.54c9.41 4.71 19.79 7.16 30.31 7.16s22.59 27.29 32 32h66.75c8.49 0 16.62 3.37 22.63 9.37l13.69 13.69a30.503 30.503 0 018.93 21.57 46.536 46.536 0 01-13.72 32.98zM417 274.25c-5.79-1.45-10.84-5-14.15-9.97l-17.98-26.97a23.97 23.97 0 010-26.62l19.59-29.38c2.32-3.47 5.5-6.29 9.24-8.15l12.98-6.49C440.47 193.59 448 223.87 448 256c0 8.67-.74 17.16-1.82 25.54L417 274.25z" />
    </symbol>
    <symbol id="FaGrinHearts" viewBox="0 0 24 24">
      <circle cx="12" cy="12" r="10" fill="currentColor" opacity="0.2" />
      <circle cx="12" cy="12" r="6" fill="currentColor" opacity="0.4" />
      <circle cx="12" cy="12" r="2" fill="currentColor" />
    </symbol>
    <symbol id="FaGoogle" viewBox="0 0 488 512">
      <path d="M488 261.8C488 403.3 391.1 504 248 504 110.8 504 0 393.2 0 256S110.8 8 248 8c66.8 0 123 24.5 166.3 64.9l-67.5 64.9C258.5 52.6 94.3 116.6 94.3 256c0 86.5 69.1 156.6 153.7 156.6 98.2 0 135-70.4 140.8-106.9H248v-85.3h240z" />
    </symbol>
    <symbol id="FaHandsHelping" viewBox="0 0 640 512">
      <path d="M488 192H336v56c0 39.7-32.3 72-72 72s-72-32.3-72-72V126.4l-64.9 39C107.8 177.1 96 197.9 96 220.6V464c0 26.5 21.5 48 48 48h416c26.5 0 48-21.5 48-48V240c0-26.5-21.5-48-48-48zM160 72c0-39.8 32.2-72 72-72s72 32.2 72 72c0 39.8-32.2 72-72 72s-72-32.2-72-72zm624 208c0 26.5-21.5 48-48 48h-416c-26.5 0-48-21.5-48-48v-56l64-40v96c0 66.2 53.8 120 120 120s120-53.8 120-120v-96l64 40v56zm-336-80h224v40H448v-40z" />
    </symbol>
    <symbol id="FaHandshake" viewBox="0 0 640 640">
      <path d="M300.9 149.2L184.3 278.8C179.7 283.9 179.9 291.8 184.8 296.7C215.3 327.2 264.8 327.2 295.3 296.7L327.1 264.9C331.3 260.7 336.6 258.4 342 258C348.8 257.4 355.8 259.7 361 264.9L537.6 440L608 384L608 96L496 160L472.2 144.1C456.4 133.6 437.9 128 418.9 128L348.5 128C347.4 128 346.2 128 345.1 128.1C328.2 129 312.3 136.6 300.9 149.2zM148.6 246.7L255.4 128L215.8 128C190.3 128 165.9 138.1 147.9 156.1L144 160L32 96L32 384L188.4 514.3C211.4 533.5 240.4 544 270.3 544L286 544L279 537C269.6 527.6 269.6 512.4 279 503.1C288.4 493.8 303.6 493.7 312.9 503.1L353.9 544.1L362.9 544.1C382 544.1 400.7 539.8 417.7 531.8L391 505C381.6 495.6 381.6 480.4 391 471.1C400.4 461.8 415.6 461.7 424.9 471.1L456.9 503.1L474.4 485.6C483.3 476.7 485.9 463.8 482 452.5L344.1 315.7L329.2 330.6C279.9 379.9 200.1 379.9 150.8 330.6C127.8 307.6 126.9 270.7 148.6 246.6z" />
    </symbol>
    <symbol id="FaHeart" viewBox="0 0 512 512">
      <path d="M462.3 62.6C407.5 15.9 326 24.3 275.7 76.2L256 96.5l-19.7-20.3C186.1 24.3 104.5 15.9 49.7 62.6c-62.8 53.6-66.1 149.8-9.9 207.9l193.5 199.8c12.5 12.9 32.8 12.9 45.3 0l193.5-199.8c56.3-58.1 53-154.3-9.8-207.9z" />
    </symbol>
    <symbol id="FaHome" viewBox="0 0 576 512">
      <path d="M280.37 148.26L96 300.11V464a16 16 0 0 0 16 16l112.06-.29a16 16 0 0 0 15.92-16V368a16 16 0 0 1 16-16h64a16 16 0 0 1 16 16v95.64a16 16 0 0 0 16 16.05L464 480a16 16 0 0 0 16-16V300L295.67 148.26a12.19 12.19 0 0 0-15.3 0zM571.6 251.47L488 182.56V44.05a12 12 0 0 0-12-12h-56a12 12 0 0 0-12 12v72.61L318.47 43a48 48 0 0 0-61 0L4.34 251.47a12 12 0 0 0-1.6 16.9l25.5 31A12 12 0 0 0 45.15 301l235.22-193.74a12.19 12.19 0 0 1 15.3 0L530.9 301a12 12 0 0 0 16.9-1.6l25.5-31a12 12 0 0 0-1.7-16.93z" />
    </symbol>
    <symbol id="FaImage" viewBox="0 0 512 512">
      <path d="M464 448H48c-26.51 0-48-21.49-48-48V112c0-26.51 21.49-48 48-48h416c26.51 0 48 21.49 48 48v288c0 26.51-21.49 48-48 48zM112 120c-30.928 0-56 25.072-56 56s25.072 56 56 56 56-25.072 56-56-25.072-56-56-56zM64 384h384V272l-87.515-87.515c-4.686-4.686-12.284-4.686-16.971 0L208 320l-55.515-55.515c-4.686-4.686-12.284-4.686-16.971 0L64 336v48z" />
    </symbol>
    <symbol id="FaImport" viewBox="0 0 640 640">
      <path d="M192 64C156.7 64 128 92.7 128 128L128 368L310.1 368L279.1 337C269.7 327.6 269.7 312.4 279.1 303.1C288.5 293.8 303.7 293.7 313 303.1L385 375.1C394.4 384.5 394.4 399.7 385 409L313 481C303.6 490.4 288.4 490.4 279.1 481C269.8 471.6 269.7 456.4 279.1 447.1L310.1 416.1L128 416.1L128 512.1C128 547.4 156.7 576.1 192 576.1L448 576.1C483.3 576.1 512 547.4 512 512.1L512 234.6C512 217.6 505.3 201.3 493.3 189.3L386.7 82.7C374.7 70.7 358.5 64 341.5 64L192 64zM453.5 240L360 240C346.7 240 336 229.3 336 216L336 122.5L453.5 240z"/>
    </symbol>
    <symbol id="FaInfoCircle" viewBox="0 0 512 512">
      <path d="M256 8C119.043 8 8 119.083 8 256c0 136.997 111.043 248 248 248s248-111.003 248-248C504 119.083 392.957 8 256 8zm0 110c23.196 0 42 18.804 42 42s-18.804 42-42 42-42-18.804-42-42 18.804-42 42-42zm56 254c0 6.627-5.373 12-12 12h-88c-6.627 0-12-5.373-12-12v-24c0-6.627 5.373-12 12-12h12v-64h-12c-6.627 0-12-5.373-12-12v-24c0-6.627 5.373-12 12-12h64c6.627 0 12 5.373 12 12v100h12c6.627 0 12 5.373 12 12v24z" />
    </symbol>
    <symbol id="FaKey" viewBox="0 0 24 24">
      <circle cx="12" cy="12" r="10" fill="currentColor" opacity="0.2" />
      <circle cx="12" cy="12" r="6" fill="currentColor" opacity="0.4" />
      <circle cx="12" cy="12" r="2" fill="currentColor" />
    </symbol>
    <symbol id="FaLeaf" viewBox="0 0 24 24">
      <circle cx="12" cy="12" r="10" fill="currentColor" opacity="0.2" />
      <circle cx="12" cy="12" r="6" fill="currentColor" opacity="0.4" />
      <circle cx="12" cy="12" r="2" fill="currentColor" />
    </symbol>
    <symbol id="FaLightbulb" viewBox="0 0 384 512">
      <path d="M112.1 454.3c0 6.297 1.816 12.44 5.284 17.69l17.14 25.69c5.25 7.875 17.17 14.28 26.64 14.28h61.67c9.438 0 21.36-6.401 26.61-14.28l17.14-25.69c3.500-5.25 5.250-11.39 5.250-17.69 0-10.16-5.875-19.12-15.05-23.28l-7.148-3.35c-7.312-3.438-15.25-5.447-23.27-5.447h-63.99c-8.018 0-15.95 2.009-23.27 5.447l-7.148 3.35C118.0 435.2 112.1 444.1 112.1 454.3zM191.4 .0132C89.44 .3257 0 82.97 0 176.0c0 44.38 16.44 84.84 43.56 115.8 16.53 18.84 42.34 58.23 52.22 91.45.0313 .25 .0938 .5312 .125 .7812h192.2c.0313-.25 .0938-.5312 .125-.7812 9.875-33.22 35.69-72.61 52.22-91.45C367.6 260.8 384 220.4 384 176.0 384 78.61 297.9-0.2837 191.4 .0132zM192 96.01c-44.13 0-80 35.89-80 79.99s35.88 80 80 80s80-35.89 80-80S236.1 96.01 192 96.01z" />
    </symbol>
    <symbol id="FaLink" viewBox="0 0 512 512">
      <path d="M326.612 185.391c59.747 59.809 58.927 155.698.36 214.59-.11.12-.24.25-.36.37l-67.2 67.2c-59.27 59.27-155.699 59.262-214.96 0-59.27-59.26-59.27-155.7 0-214.96l37.106-37.106c9.84-9.84 26.786-3.3 27.294 10.606.648 17.722 3.826 35.527 9.69 52.721 1.986 5.822.567 12.262-3.783 16.612l-13.087 13.087c-28.026 28.026-28.905 73.66-1.155 101.96 28.024 28.579 74.086 28.749 102.325.51l67.2-67.19c28.191-28.191 28.073-73.757 0-101.83-3.701-3.694-7.429-6.564-10.341-8.569a16.037 16.037 0 01-6.947-12.606c-.396-10.567 3.348-21.456 11.698-29.806l21.054-21.055c5.521-5.521 14.182-6.199 20.584-1.731a152.482 152.482 0 0120.522 17.197zM467.547 44.449c-59.261-59.262-155.69-59.27-214.96 0l-67.2 67.2c-.12.12-.25.25-.36.37-58.566 58.892-59.387 154.781.36 214.59a152.454 152.454 0 0020.521 17.196c6.402 4.468 15.064 3.789 20.584-1.731l21.054-21.055c8.35-8.35 12.094-19.239 11.698-29.806a16.037 16.037 0 00-6.947-12.606c-2.912-2.005-6.64-4.875-10.341-8.569-28.073-28.073-28.191-73.639 0-101.83l67.2-67.19c28.239-28.239 74.3-28.069 102.325.51 27.75 28.3 26.872 73.934-1.155 101.96l-13.087 13.087c-4.35 4.35-5.769 10.79-3.783 16.612 5.864 17.194 9.042 34.999 9.69 52.721.509 13.906 17.454 20.446 27.294 10.606l37.106-37.106c59.271-59.259 59.271-155.699.001-214.959z" />
    </symbol>
    <symbol id="FaLock" viewBox="0 0 384 512">
      <path d="M128 96l0 64 128 0 0-64c0-35.3-28.7-64-64-64s-64 28.7-64 64zM64 160l0-64C64 25.3 121.3-32 192-32S320 25.3 320 96l0 64c35.3 0 64 28.7 64 64l0 224c0 35.3-28.7 64-64 64L64 512c-35.3 0-64-28.7-64-64L0 224c0-35.3 28.7-64 64-64z" fill="currentColor"/>
    </symbol>
    <symbol id="FaMapMarker" viewBox="0 0 384 512">
      <path d="M172.268 501.67C26.97 291.031 0 269.413 0 192 0 85.961 85.961 0 192 0s192 85.961 192 192c0 77.413-26.97 99.031-172.268 309.67-9.535 13.774-29.93 13.773-39.464 0zM192 272c44.183 0 80-35.817 80-80s-35.817-80-80-80-80 35.817-80 80 35.817 80 80 80z" />
    </symbol>
    <symbol id="FaMeh" viewBox="0 0 24 24">
      <circle cx="12" cy="12" r="10" fill="currentColor" opacity="0.2" />
      <circle cx="12" cy="12" r="6" fill="currentColor" opacity="0.4" />
      <circle cx="12" cy="12" r="2" fill="currentColor" />
    </symbol>
    <symbol id="FaMinus" viewBox="0 0 24 24">
      <circle cx="12" cy="12" r="10" fill="currentColor" opacity="0.2" />
      <circle cx="12" cy="12" r="6" fill="currentColor" opacity="0.4" />
      <circle cx="12" cy="12" r="2" fill="currentColor" />
    </symbol>
    <symbol id="FaMobile" viewBox="0 0 384 512">
      <path d="M80 0C44.7 0 16 28.7 16 64V448c0 35.3 28.7 64 64 64H304c35.3 0 64-28.7 64-64V64c0-35.3-28.7-64-64-64H80zM96 64H288c8.8 0 16 7.2 16 16V432c0 8.8-7.2 16-16 16H96c-8.8 0-16-7.2-16-16V80c0-8.8 7.2-16 16-16z" />
    </symbol>
    <symbol id="FaPalette" viewBox="0 0 640 640">
      <path d="M576 320C576 320.9 576 321.8 576 322.7C575.6 359.2 542.4 384 505.9 384L408 384C381.5 384 360 405.5 360 432C360 435.4 360.4 438.7 361 441.9C363.1 452.1 367.5 461.9 371.8 471.8C377.9 485.6 383.9 499.3 383.9 513.8C383.9 545.6 362.3 574.5 330.5 575.8C327 575.9 323.5 576 319.9 576C178.5 576 63.9 461.4 63.9 320C63.9 178.6 178.6 64 320 64C461.4 64 576 178.6 576 320zM192 352C192 334.3 177.7 320 160 320C142.3 320 128 334.3 128 352C128 369.7 142.3 384 160 384C177.7 384 192 369.7 192 352zM192 256C209.7 256 224 241.7 224 224C224 206.3 209.7 192 192 192C174.3 192 160 206.3 160 224C160 241.7 174.3 256 192 256zM352 160C352 142.3 337.7 128 320 128C302.3 128 288 142.3 288 160C288 177.7 302.3 192 320 192C337.7 192 352 177.7 352 160zM448 256C465.7 256 480 241.7 480 224C480 206.3 465.7 192 448 192C430.3 192 416 206.3 416 224C416 241.7 430.3 256 448 256z" />
    </symbol>
    <symbol id="FaPeace" viewBox="0 0 24 24">
      <circle cx="12" cy="12" r="10" fill="currentColor" opacity="0.2" />
      <circle cx="12" cy="12" r="6" fill="currentColor" opacity="0.4" />
      <circle cx="12" cy="12" r="2" fill="currentColor" />
    </symbol>
    <symbol id="FaPhone" viewBox="0 0 512 512">
      <path d="M493.4 24.6l-104-24c-11.3-2.6-22.9 3.3-27.5 13.9l-48 112c-4.2 9.8-1.4 21.3 6.9 28l60.6 49.6c-36 76.7-98.9 140.5-177.2 177.2l-49.6-60.6c-6.8-8.3-18.2-11.1-28-6.9l-112 48C7.7 366.5 1.8 378.1 4.4 389.4l24 104C31.1 504.2 39.9 512 50.6 512 306.7 512 512 306.8 512 50.6c0-10.7-7.8-19.5-18.6-22.2z" />
    </symbol>
    <symbol id="FaPlus" viewBox="0 0 448 512">
      <path d="M416 208H272V64c0-17.67-14.33-32-32-32h-32c-17.67 0-32 14.33-32 32v144H32c-17.67 0-32 14.33-32 32v32c0 17.67 14.33 32 32 32h144v144c0 17.67 14.33 32 32 32h32c17.67 0 32-14.33 32-32V304h144c17.67 0 32-14.33 32-32v-32c0-17.67-14.33-32-32-32z" />
    </symbol>
    <symbol id="FaPlusCircle" viewBox="0 0 24 24">
      <circle cx="12" cy="12" r="10" fill="currentColor" opacity="0.2" />
      <circle cx="12" cy="12" r="6" fill="currentColor" opacity="0.4" />
      <circle cx="12" cy="12" r="2" fill="currentColor" />
    </symbol>
    <symbol id="FaRedo" viewBox="0 0 24 24">
      <circle cx="12" cy="12" r="10" fill="currentColor" opacity="0.2" />
      <circle cx="12" cy="12" r="6" fill="currentColor" opacity="0.4" />
      <circle cx="12" cy="12" r="2" fill="currentColor" />
    </symbol>
    <symbol id="FaRegStar" viewBox="0 0 576 512">
      <path d="M528.1 171.5L382 150.2 316.7 17.8c-11.7-23.6-45.6-23.9-57.4 0L194 150.2 47.9 171.5c-26.2 3.8-36.7 36.1-17.7 54.6l105.7 103-25 145.5c-4.5 26.3 23.2 46 46.4 33.7L288 439.6l130.7 68.7c23.2 12.2 50.9-7.4 46.4-33.7l-25-145.5 105.7-103c19-18.5 8.5-50.8-17.7-54.6zM405.8 317.8l25 145.5L288 394.6 145.2 463.3l25-145.5L65.5 213.1l146.1-21.3L288 64l76.4 127.8 146.1 21.3-104.7 104.7z" />
    </symbol>
    <symbol id="FaRobot" viewBox="0 0 640 512">
      <path d="M320 0c17.7 0 32 14.3 32 32V96H480c35.3 0 64 28.7 64 64V448c0 35.3-28.7 64-64 64H160c-35.3 0-64-28.7-64-64V160c0-35.3 28.7-64 64-64H288V32c0-17.7 14.3-32 32-32zM208 384c-8.8 0-16 7.2-16 16s7.2 16 16 16h32c8.8 0 16-7.2 16-16s-7.2-16-16-16H208zm96 0c-8.8 0-16 7.2-16 16s7.2 16 16 16h32c8.8 0 16-7.2 16-16s-7.2-16-16-16H304zm96 0c-8.8 0-16 7.2-16 16s7.2 16 16 16h32c8.8 0 16-7.2 16-16s-7.2-16-16-16H400zM264 256c0-22.1-17.9-40-40-40s-40 17.9-40 40s17.9 40 40 40s40-17.9 40-40zm152 40c22.1 0 40-17.9 40-40s-17.9-40-40-40s-40 17.9-40 40s17.9 40 40 40zM48 224H64V416H48c-26.5 0-48-21.5-48-48V272c0-26.5 21.5-48 48-48zm544 0c26.5 0 48 21.5 48 48v96c0 26.5-21.5 48-48 48H576V224h16z" />
    </symbol>
    <symbol id="FaSearch" viewBox="0 0 512 512">
      <path d="M505 442.7L405.3 343c-4.5-4.5-10.6-7-17-7H372c27.6-35.3 44-79.7 44-128C416 93.1 322.9 0 208 0S0 93.1 0 208s93.1 208 208 208c48.3 0 92.7-16.4 128-44v16.3c0 6.4 2.5 12.5 7 17l99.7 99.7c9.4 9.4 24.6 9.4 33.9 0l28.3-28.3c9.4-9.4 9.4-24.6.1-34zM208 336c-70.7 0-128-57.2-128-128 0-70.7 57.2-128 128-128 70.7 0 128 57.2 128 128 0 70.7-57.2 128-128 128z" />
    </symbol>
    <symbol id="FaShare" viewBox="0 0 512 512">
      <path d="M503.691 189.836L327.687 37.851C312.281 24.546 288 35.347 288 56.015v80.053C127.371 137.907 0 170.1 0 322.326c0 61.441 39.581 122.309 83.333 154.132 13.653 9.931 33.111-2.533 28.077-18.631C66.066 312.814 132.917 274.316 288 272.085V360c0 20.7 24.3 31.453 39.687 18.164l176.004-152c11.071-9.562 11.086-26.753 0-36.328z" />
    </symbol>
    <symbol id="FaSignInAlt" viewBox="0 0 24 24">
      <circle cx="12" cy="12" r="10" fill="currentColor" opacity="0.2" />
      <circle cx="12" cy="12" r="6" fill="currentColor" opacity="0.4" />
      <circle cx="12" cy="12" r="2" fill="currentColor" />
    </symbol>
    <symbol id="FaSignOutAlt" viewBox="0 0 24 24">
      <circle cx="12" cy="12" r="10" fill="currentColor" opacity="0.2" />
      <circle cx="12" cy="12" r="6" fill="currentColor" opacity="0.4" />
      <circle cx="12" cy="12" r="2" fill="currentColor" />
    </symbol>
    <symbol id="FaSpinner" viewBox="0 0 512 512">
      <path d="M304 48c0 26.51-21.49 48-48 48s-48-21.49-48-48 21.49-48 48-48 48 21.49 48 48zm-48 368c-26.51 0-48 21.49-48 48s21.49 48 48 48 48-21.49 48-48c0-26.509-21.491-48-48-48zm208-208c-26.51 0-48 21.49-48 48s21.49 48 48 48 48-21.49 48-48c0-26.509-21.49-48-48-48zM96 256c0-26.51-21.49-48-48-48S0 229.49 0 256s21.49 48 48 48 48-21.49 48-48zm12.922 99.078c-26.51 0-48 21.49-48 48s21.49 48 48 48 48-21.49 48-48c0-26.509-21.491-48-48-48zm294.156 0c-26.51 0-48 21.49-48 48s21.49 48 48 48 48-21.49 48-48c0-26.509-21.49-48-48-48zM108.922 60.922c-26.51 0-48 21.49-48 48s21.49 48 48 48 48-21.49 48-48-21.49-48-48-48z" />
    </symbol>
    <symbol id="FaStar" viewBox="0 0 576 512">
      <path d="M316.9 18C311.6 7 300.4 0 288.1 0s-23.4 7-28.8 18L195 150.3 51.4 171.5c-12 1.8-22 10.2-25.7 21.7s-.7 24.2 7.9 32.7L137.8 329 113.2 474.7c-2 12 3 24.2 12.9 31.3s23 8 33.8 2.3L288.1 439l128.3 67.3c10.8 5.7 23.9 4.9 33.8-2.3s14.9-19.3 12.9-31.3L438.5 329 542.7 225.9c8.6-8.5 11.7-21.2 7.9-32.7s-13.7-19.9-25.7-21.7L381.2 150.3 316.9 18z" />
    </symbol>
    <symbol id="FaStickyNote" viewBox="0 0 16 16">
      <path d="M2.5 1A1.5 1.5 0 0 0 1 2.5v11A1.5 1.5 0 0 0 2.5 15h6.086a1.5 1.5 0 0 0 1.06-.44l4.915-4.914A1.5 1.5 0 0 0 15 8.586V2.5A1.5 1.5 0 0 0 13.5 1h-11zm6 8.5a1 1 0 0 1 1-1h4.396a.25.25 0 0 1 .177.427l-5.146 5.146a.25.25 0 0 1-.427-.177V9.5z" />
    </symbol>
    <symbol id="FaStore" viewBox="0 0 616 512">
      <path d="M602 118.6L537.1 15C531.3 5.7 521 0 510 0H106C95 0 84.7 5.7 78.9 15L14 118.6c-33.5 53.5-3.8 127.9 58.8 136.4 4.5.6 9.1.9 13.7.9 29.6 0 55.8-13 73.8-33.1 18 20.1 44.3 33.1 73.8 33.1 29.6 0 55.8-13 73.8-33.1 18 20.1 44.3 33.1 73.8 33.1 29.6 0 55.8-13 73.8-33.1 18.1 20.1 44.3 33.1 73.8 33.1 4.7 0 9.2-.3 13.7-.9 62.8-8.4 92.6-82.8 59-136.4zM529.5 288c-10 0-19.9-1.5-29.5-3.8V384H116v-99.8c-9.6 2.2-19.5 3.8-29.5 3.8-6 0-12.1-.4-18-1.2-5.6-.8-11.1-2.1-16.4-3.6V480c0 17.7 14.3 32 32 32h448c17.7 0 32-14.3 32-32V286.2c-5.3 1.5-10.8 2.8-16.4 3.6-5.8.8-11.9 1.2-17.8 1.2z" />
    </symbol>
    <symbol id="FaSun" viewBox="0 0 24 24">
      <circle cx="12" cy="12" r="10" fill="currentColor" opacity="0.2" />
      <circle cx="12" cy="12" r="6" fill="currentColor" opacity="0.4" />
      <circle cx="12" cy="12" r="2" fill="currentColor" />
    </symbol>
    <symbol id="FaTags" viewBox="0 0 24 24">
      <circle cx="12" cy="12" r="10" fill="currentColor" opacity="0.2" />
      <circle cx="12" cy="12" r="6" fill="currentColor" opacity="0.4" />
      <circle cx="12" cy="12" r="2" fill="currentColor" />
    </symbol>
    <symbol id="FaThumbsUp" viewBox="0 0 24 24">
      <circle cx="12" cy="12" r="10" fill="currentColor" opacity="0.2" />
      <circle cx="12" cy="12" r="6" fill="currentColor" opacity="0.4" />
      <circle cx="12" cy="12" r="2" fill="currentColor" />
    </symbol>
    <symbol id="FaTimes" viewBox="0 0 352 512">
      <path d="M242.72 256l100.07-100.07c12.28-12.28 12.28-32.19 0-44.48l-22.24-22.24c-12.28-12.28-32.19-12.28-44.48 0L176 189.28 75.93 89.21c-12.28-12.28-32.19-12.28-44.48 0L9.21 111.45c-12.28 12.28-12.28 32.19 0 44.48L109.28 256 9.21 356.07c-12.28 12.28-12.28 32.19 0 44.48l22.24 22.24c12.28 12.28 32.2 12.28 44.48 0L176 322.72l100.07 100.07c12.28 12.28 32.2 12.28 44.48 0l22.24-22.24c12.28-12.28 12.28-32.19 0-44.48L242.72 256z" />
    </symbol>
    <symbol id="FaTrash" viewBox="0 0 448 512">
      <path d="M432 32H312l-9.4-18.7A24 24 0 0 0 281.1 0H166.8a23.72 23.72 0 0 0-21.4 13.3L136 32H16A16 16 0 0 0 0 48v32a16 16 0 0 0 16 16h416a16 16 0 0 0 16-16V48a16 16 0 0 0-16-16zM53.2 467a48 48 0 0 0 47.9 45h245.8a48 48 0 0 0 47.9-45L416 128H32z" />
    </symbol>
    <symbol id="FaTripadvisor" viewBox="0 0 24 24">
      <path d="M12.006 4.295c-2.67 0-5.338.784-7.645 2.353H0l1.963 2.135a5.997 5.997 0 0 0 4.04 10.43 5.976 5.976 0 0 0 4.075-1.6L12 19.705l1.922-2.09a5.972 5.972 0 0 0 4.072 1.598 6 6 0 0 0 6-5.998 5.982 5.982 0 0 0-1.957-4.432L24 6.648h-4.35a13.573 13.573 0 0 0-7.644-2.353zM12 6.255c1.531 0 3.063.303 4.504.903C13.943 8.138 12 10.43 12 13.1c0-2.671-1.942-4.962-4.504-5.942A11.72 11.72 0 0 1 12 6.256zM6.002 9.157a4.059 4.059 0 1 1 0 8.118 4.059 4.059 0 0 1 0-8.118zm11.992.002a4.057 4.057 0 1 1 .003 8.115 4.057 4.057 0 0 1-.003-8.115zm-11.992 1.93a2.128 2.128 0 0 0 0 4.256 2.128 2.128 0 0 0 0-4.256zm11.992 0a2.128 2.128 0 0 0 0 4.256 2.128 2.128 0 0 0 0-4.256z" />
    </symbol>
    <symbol id="FaTrophy" viewBox="0 0 24 24">
      <circle cx="12" cy="12" r="10" fill="currentColor" opacity="0.2" />
      <circle cx="12" cy="12" r="6" fill="currentColor" opacity="0.4" />
      <circle cx="12" cy="12" r="2" fill="currentColor" />
    </symbol>
    <symbol id="FaUnlock" viewBox="0 0 24 24">
      <circle cx="12" cy="12" r="10" fill="currentColor" opacity="0.2" />
      <circle cx="12" cy="12" r="6" fill="currentColor" opacity="0.4" />
      <circle cx="12" cy="12" r="2" fill="currentColor" />
    </symbol>
    <symbol id="FaUpload" viewBox="0 0 512 512">
      <path d="M296 384h-80c-13.3 0-24-10.7-24-24V216h-87.7c-17.8 0-26.7-21.5-14.1-34.1L242.3 29.7c7.5-7.5 19.8-7.5 27.3 0l152.2 152.2c12.6 12.6 3.7 34.1-14.1 34.1H320v144c0 13.3-10.7 24-24 24zm216-8v112c0 13.3-10.7 24-24 24H24c-13.3 0-24-10.7-24-24V376c0-13.3 10.7-24 24-24h146.7l49 49c20.1 20.1 52.5 20.1 72.6 0l49-49H488c13.3 0 24 10.7 24 24zm-124 88c0-11-9-20-20-20s-20 9-20 20 9 20 20 20 20-9 20-20zm64 0c0-11-9-20-20-20s-20 9-20 20 9 20 20 20 20-9 20-20z" />
    </symbol>
    <symbol id="FaUser" viewBox="0 0 448 512">
      <path d="M224 256c70.7 0 128-57.3 128-128S294.7 0 224 0 96 57.3 96 128s57.3 128 128 128zm89.6 32h-16.7c-22.2 10.2-46.9 16-72.9 16s-50.6-5.8-72.9-16h-16.7C60.2 288 0 348.2 0 422.4V464c0 26.5 21.5 48 48 48h352c26.5 0 48-21.5 48-48v-41.6c0-74.2-60.2-134.4-134.4-134.4z" />
    </symbol>
    <symbol id="FaUserCircle" viewBox="0 0 496 512">
      <path d="M248 8C111 8 0 119 0 256s111 248 248 248 248-111 248-248S385 8 248 8zm0 96c48.6 0 88 39.4 88 88s-39.4 88-88 88-88-39.4-88-88 39.4-88 88-88zm0 344c-58.7 0-111.3-26.6-146.5-68.2 18.8-35.4 55.6-59.8 98.5-59.8 2.4 0 4.8.4 7.1 1.1 13 4.2 26.6 6.9 40.9 6.9 14.3 0 28-2.7 40.9-6.9 2.3-.7 4.7-1.1 7.1-1.1 42.9 0 79.7 24.4 98.5 59.8C359.3 421.4 306.7 448 248 448z" />
    </symbol>
    <symbol id="FaUserPlus" viewBox="0 0 640 512">
      <path d="M624 208h-64v-64c0-8.8-7.2-16-16-16h-32c-8.8 0-16 7.2-16 16v64h-64c-8.8 0-16 7.2-16 16v32c0 8.8 7.2 16 16 16h64v64c0 8.8 7.2 16 16 16h32c8.8 0 16-7.2 16-16v-64h64c8.8 0 16-7.2 16-16v-32c0-8.8-7.2-16-16-16zm-400 48c70.7 0 128-57.3 128-128S294.7 0 224 0 96 57.3 96 128s57.3 128 128 128zm89.6 32h-16.7c-22.2 10.2-46.9 16-72.9 16s-50.6-5.8-72.9-16h-16.7C60.2 288 0 348.2 0 422.4V464c0 26.5 21.5 48 48 48h352c26.5 0 48-21.5 48-48v-41.6c0-74.2-60.2-134.4-134.4-134.4z" />
    </symbol>
    <symbol id="FaUsers" viewBox="0 0 640 512">
      <path d="M96 224c35.3 0 64-28.7 64-64s-28.7-64-64-64-64 28.7-64 64 28.7 64 64 64zm448 0c35.3 0 64-28.7 64-64s-28.7-64-64-64-64 28.7-64 64 28.7 64 64 64zm32 32h-64c-17.6 0-33.5 7.1-45.1 18.6 40.3 22.1 68.9 62 75.1 109.4h66c17.7 0 32-14.3 32-32v-32c0-35.3-28.7-64-64-64zm-256 0c61.9 0 112-50.1 112-112S381.9 32 320 32 208 82.1 208 144s50.1 112 112 112zm76.8 32h-8.3c-20.8 10-43.9 16-68.5 16s-47.6-6-68.5-16h-8.3C179.6 288 128 339.6 128 403.2V432c0 26.5 21.5 48 48 48h288c26.5 0 48-21.5 48-48v-28.8c0-63.6-51.6-115.2-115.2-115.2zm-223.7-13.4C161.5 263.1 145.6 256 128 256H64c-35.3 0-64 28.7-64 64v32c0 17.7 14.3 32 32 32h65.9c6.3-47.4 34.9-87.3 75.2-109.4z" />
    </symbol>
    <symbol id="FaVideo" viewBox="0 0 576 512">
      <path d="M336.2 64H47.8C21.4 64 0 85.4 0 111.8v288.4C0 426.6 21.4 448 47.8 448h288.4c26.4 0 47.8-21.4 47.8-47.8V111.8c0-26.4-21.4-47.8-47.8-47.8zm189.4 37.7L416 177.3v157.4l109.6 75.5c21.2 14.6 50.4-.3 50.4-25.8V127.5c0-25.4-29.1-40.4-50.4-25.8z" />
    </symbol>
    <symbol id="FaWallet" viewBox="0 0 512 512">
      <path d="M461.2 128H80c-8.84 0-16-7.16-16-16s7.16-16 16-16h384c8.84 0 16-7.16 16-16 0-26.51-21.49-48-48-48H64C28.65 32 0 60.65 0 96v320c0 35.35 28.65 64 64 64h397.2c28.02 0 50.8-22.78 50.8-50.8V178.8c0-28.02-22.78-50.8-50.8-50.8zM416 96c8.84 0 16 7.16 16 16s-7.16 16-16 16-16-7.16-16-16 7.16-16 16-16z" />
    </symbol>
    <symbol id="FaWrench" viewBox="0 0 24 24">
      <circle cx="12" cy="12" r="10" fill="currentColor" opacity="0.2" />
      <circle cx="12" cy="12" r="6" fill="currentColor" opacity="0.4" />
      <circle cx="12" cy="12" r="2" fill="currentColor" />
    </symbol>
    <symbol id="FaYelp" viewBox="0 0 32 32">
      <path d="M13.961 22.279c0.246-0.273 0.601-0.444 0.995-0.444 0.739 0 1.338 0.599 1.338 1.338 0 0.016-0 0.032-0.001 0.048l0-0.002-0.237 6.483c-0.027 0.719-0.616 1.293-1.34 1.293-0.077 0-0.153-0.006-0.226-0.019l0.008 0.001c-1.763-0.303-3.331-0.962-4.69-1.902l0.039 0.025c-0.351-0.245-0.578-0.647-0.578-1.102 0-0.346 0.131-0.661 0.346-0.898l-0.001 0.001 4.345-4.829zM12.853 20.434l-6.301 1.572c-0.097 0.025-0.208 0.039-0.322 0.039-0.687 0-1.253-0.517-1.332-1.183l-0.001-0.006c-0.046-0.389-0.073-0.839-0.073-1.295 0-1.324 0.223-2.597 0.635-3.781l-0.024 0.081c0.183-0.534 0.681-0.911 1.267-0.911 0.214 0 0.417 0.050 0.596 0.14l-0.008-0.004 5.833 2.848c0.45 0.221 0.754 0.677 0.754 1.203 0 0.623-0.427 1.147-1.004 1.294l-0.009 0.002zM13.924 15.223l-6.104-10.574c-0.112-0.191-0.178-0.421-0.178-0.667 0-0.529 0.307-0.987 0.752-1.204l0.008-0.003c1.918-0.938 4.153-1.568 6.511-1.761l0.067-0.004c0.031-0.003 0.067-0.004 0.104-0.004 0.738 0 1.337 0.599 1.337 1.337 0 0.001 0 0.001 0 0.002v-0 12.207c-0 0.739-0.599 1.338-1.338 1.338-0.493 0-0.923-0.266-1.155-0.663l-0.003-0.006zM19.918 20.681l6.176 2.007c0.541 0.18 0.925 0.682 0.925 1.274 0 0.209-0.048 0.407-0.134 0.584l0.003-0.008c-0.758 1.569-1.799 2.889-3.068 3.945l-0.019 0.015c-0.23 0.19-0.527 0.306-0.852 0.306-0.477 0-0.896-0.249-1.134-0.625l-0.003-0.006-3.449-5.51c-0.128-0.201-0.203-0.446-0.203-0.709 0-0.738 0.598-1.336 1.336-1.336 0.147 0 0.289 0.024 0.421 0.068l-0.009-0.003zM26.197 16.742l-6.242 1.791c-0.11 0.033-0.237 0.052-0.368 0.052-0.737 0-1.335-0.598-1.335-1.335 0-0.282 0.087-0.543 0.236-0.758l-0.003 0.004 3.63-5.383c0.244-0.358 0.65-0.59 1.111-0.59 0.339 0 0.649 0.126 0.885 0.334l-0.001-0.001c1.25 1.104 2.25 2.459 2.925 3.99l0.029 0.073c0.070 0.158 0.111 0.342 0.111 0.535 0 0.608-0.405 1.121-0.959 1.286l-0.009 0.002z" />
    </symbol>
    <symbol id="FaAmazon" viewBox="0 0 35.418 35.418">
      <path d="M20.948,9.891c-0.857,0.068-1.847,0.136-2.837,0.269c-1.516,0.195-3.032,0.461-4.284,1.053 c-2.439,0.994-4.088,3.105-4.088,6.209c0,3.898,2.506,5.875,5.669,5.875c1.057,0,1.913-0.129,2.703-0.328 c1.255-0.396,2.31-1.123,3.562-2.441c0.727,0.99,0.923,1.453,2.177,2.509c0.329,0.133,0.658,0.133,0.922-0.066 c0.791-0.659,2.174-1.848,2.901-2.508c0.328-0.267,0.263-0.66,0.066-0.992c-0.727-0.924-1.45-1.718-1.45-3.498v-5.943 c0-2.513,0.195-4.822-1.647-6.537c-1.518-1.391-3.891-1.916-5.735-1.916c-0.264,0-0.527,0-0.792,0 c-3.362,0.197-6.921,1.647-7.714,5.811c-0.13,0.525,0.267,0.726,0.53,0.793l3.691,0.464c0.396-0.07,0.593-0.398,0.658-0.73 c0.333-1.449,1.518-2.176,2.836-2.309c0.067,0,0.133,0,0.265,0c0.79,0,1.646,0.332,2.109,0.987 c0.523,0.795,0.461,1.853,0.461,2.775L20.948,9.891L20.948,9.891z M20.223,17.749c-0.461,0.925-1.253,1.519-2.11,1.718 c-0.131,0-0.327,0.068-0.526,0.068c-1.45,0-2.31-1.123-2.31-2.775c0-2.11,1.254-3.104,2.836-3.565 c0.857-0.197,1.847-0.265,2.836-0.265v0.793C20.948,15.243,21.01,16.43,20.223,17.749z M35.418,26.918v0.215 c-0.035,1.291-0.716,3.768-2.328,5.131c-0.322,0.25-0.645,0.107-0.503-0.254c0.469-1.145,1.541-3.803,1.04-4.412 c-0.355-0.465-1.826-0.43-3.079-0.322c-0.572,0.072-1.075,0.105-1.469,0.183c-0.357,0.033-0.431-0.287-0.071-0.537 c0.466-0.323,0.969-0.573,1.541-0.756c2.039-0.608,4.406-0.25,4.729,0.146C35.348,26.414,35.418,26.629,35.418,26.918z M32.016,29.428c-0.466,0.357-0.965,0.682-1.468,0.973c-3.761,2.261-8.631,3.441-12.856,3.441c-6.807,0-12.895-2.512-17.514-6.709 c-0.396-0.324-0.073-0.789,0.393-0.539C5.549,29.5,11.709,31.26,18.084,31.26c4.013,0,8.342-0.754,12.463-2.371 c0.285-0.104,0.608-0.252,0.895-0.356C32.087,28.242,32.661,28.965,32.016,29.428z" />
    </symbol>
    <symbol id="SiG2" viewBox="0 0 512 512">
      <path d="M445.242 151.214h-76.489c2.078-12.016 9.473-18.718 24.495-26.343l14.097-7.165c25.188-12.938 38.589-27.498 38.589-51.301 0-15.02-5.777-26.806-17.33-35.356-11.323-8.55-25.188-12.709-41.132-12.709-12.712 0-24.265 3.233-34.896 9.935-10.398 6.472-18.256 14.79-23.107 25.188l22.184 22.188c8.55-17.333 21.029-25.883 37.437-25.883 13.864 0 22.414 7.165 22.414 17.1 0 8.32-4.159 15.252-20.103 23.34l-9.013 4.391c-19.644 9.935-33.278 21.259-41.136 34.201-7.855 12.709-11.783 29.116-11.783 48.76v5.314h115.773v-31.66zM435.017 219.437H308.359l-63.33 109.689h126.659l63.329 109.689 63.329-109.689z M255.941 402.251c-80.643 0-146.251-65.608-146.251-146.251s65.608-146.252 146.251-146.252L306.012 4.969a257.144 257.144 0 0 0-50.071-4.91C114.589.059 0 114.648 0 256s114.589 255.941 255.941 255.941c56.357 0 108.449-18.23 150.731-49.094l-55.446-96.035c-25.616 22.059-58.907 35.439-95.285 35.439z" />
    </symbol>
    <symbol id="SiAngi" viewBox="0 0 24 24">
      <path d="M12 2L2 22h4l1.5-3h9L18 22h4L12 2zm-2.5 13L12 9l2.5 6h-5z" />
    </symbol>
    <symbol id="MdDownload" viewBox="0 0 24 24">
      <path d="M5,20H19V18H5M19,9H15V3H9V9H5L12,16L19,9Z" />
    </symbol>
    <symbol id="MdEvent" viewBox="0 0 24 24">
      <circle cx="12" cy="12" r="10" fill="currentColor" opacity="0.2" />
      <circle cx="12" cy="12" r="6" fill="currentColor" opacity="0.4" />
      <circle cx="12" cy="12" r="2" fill="currentColor" />
    </symbol>
    <symbol id="MdLocationOn" viewBox="0 0 24 24">
      <circle cx="12" cy="12" r="10" fill="currentColor" opacity="0.2" />
      <circle cx="12" cy="12" r="6" fill="currentColor" opacity="0.4" />
      <circle cx="12" cy="12" r="2" fill="currentColor" />
    </symbol>
    <symbol id="FiMoreHorizontal" viewBox="0 0 24 24">
      <path d="M12 12h.01M21 12h.01M3 12h.01" fill="none" stroke="currentColor" stroke-width="2" stroke-linecap="round" stroke-linejoin="round" />
    </symbol>
    <symbol id="SiTrustpilot" viewBox="0 0 24 24">
      <path d="M12,17.964l5.214-1.321l2.179,6.714L12,17.964z M24,9.286h-9.179L12,0.643L9.179,9.286 H0l7.429,5.357l-2.821,8.643l7.429-5.357l4.571-3.286L24,9.286L24,9.286L24,9.286L24,9.286z" />
    </symbol>
    <symbol id="SiHouzz" viewBox="0 0 24 24">
      <path d="M1.27 0v24h8.05v-7.56h5.36V24h8.05V10.37L6.61 5.75V0H1.27z" />
    </symbol>
    <symbol id="SiHomeadvisor" viewBox="0 0 24 24">
      <path d="M15.98 2.442H8.02L0 10.46h2.275l6.882-6.88 6.881 6.881H24l-8.02-8.018m-.492 9.348L9.157 5.459 4.01 10.605v4.987a1.33 1.33 0 0 0 1.329 1.329h6.077l4.637 4.637v-4.637h2.598a1.33 1.33 0 0 0 1.33-1.33V11.79h-4.494z" />
    </symbol>
    <symbol id="FaDumbbell" viewBox="0 0 512 512">
      <path d="M256 8C119 8 8 119 8 256s111 248 248 248 248-111 248-248S393 8 256 8zm0 448c-110.5 0-200-89.5-200-200S145.5 56 256 56s200 89.5 200 200-89.5 200-200 200z" />
    </symbol>
    <symbol id="FaGlassCheers" viewBox="0 0 512 512">
      <path d="M32 160h448c17.67 0 32 14.33 32 32v192c0 17.67-14.33 32-32 32H32c-17.67 0-32-14.33-32-32V192c0-17.67 14.33-32 32-32zm384 224H64V192h384v192z" />
    </symbol>
    <symbol id="FaPagelines" viewBox="0 0 512 512">
      <path d="M256 8C119 8 8 119 8 256s111 248 248 248 248-111 248-248S393 8 256 8zm0 448c-110.5 0-200-89.5-200-200S145.5 56 256 56s200 89.5 200 200-89.5 200-200 200z" />
    </symbol>
    <symbol id="FaRainbow" viewBox="0 0 512 512">
      <path d="M256 8C119 8 8 119 8 256s111 248 248 248 248-111 248-248S393 8 256 8zm0 448c-110.5 0-200-89.5-200-200S145.5 56 256 56s200 89.5 200 200-89.5 200-200 200z" />
    </symbol>
    <symbol id="FaQuestionCircle" viewBox="0 0 512 512">
      <path d="M504 256c0 136.997-111.043 248-248 248S8 392.997 8 256C8 119.083 119.043 8 256 8s248 111.083 248 248zM262.655 90c-54.497 0-89.255 22.957-116.549 63.758-3.536 5.286-2.353 12.415 2.715 16.258l34.699 26.31c5.205 3.947 12.621 3.008 16.665-2.122 17.864-22.658 30.113-35.797 57.303-35.797 20.429 0 45.698 13.148 45.698 32.958 0 14.976-12.363 22.667-32.534 33.976C247.128 238.528 216 254.941 216 296v4c0 6.627 5.373 12 12 12h56c6.627 0 12-5.373 12-12v-4c0-21.059 1.636-28.188 32.534-44.568C349.039 244.814 376 220.976 376 184c0-54.515-48.185-94-113.345-94zM256 338.013c-22.091 0-40 17.909-40 40s17.909 39.987 40 39.987 40-17.896 40-39.987-17.909-40-40-40z" />
    </symbol>
    <symbol id="FaGift" viewBox="0 0 640 640">
      <path d="M385.5 132.8C393.1 119.9 406.9 112 421.8 112L424 112C446.1 112 464 129.9 464 152C464 174.1 446.1 192 424 192L350.7 192L385.5 132.8zM254.5 132.8L289.3 192L216 192C193.9 192 176 174.1 176 152C176 129.9 193.9 112 216 112L218.2 112C233.1 112 247 119.9 254.5 132.8zM344.1 108.5L320 149.5L295.9 108.5C279.7 80.9 250.1 64 218.2 64L216 64C167.4 64 128 103.4 128 152C128 166.4 131.5 180 137.6 192L96 192C78.3 192 64 206.3 64 224L64 256C64 273.7 78.3 288 96 288L544 288C561.7 288 576 273.7 576 256L576 224C576 206.3 561.7 192 544 192L502.4 192C508.5 180 512 166.4 512 152C512 103.4 472.6 64 424 64L421.8 64C389.9 64 360.3 80.9 344.1 108.4zM544 336L344 336L344 544L480 544C515.3 544 544 515.3 544 480L544 336zM296 336L96 336L96 480C96 515.3 124.7 544 160 544L296 544L296 336z" />
    </symbol>
    <symbol id="FaBbb" viewBox="0 0 562 961">
      <path d="M438.82,541.64H122.78l-11.45,37.79h84.26l15.98,52.1h138.43l16.08-52.1h84.17zM174.39,329.5c-24.21,33.38-16.79,80.07 16.58,104.29l75.68,54.96c8.4,6.05 10.26,17.79 4.14,26.15l11.35,8.19 39.96-55.06c9.28-12.69 14.29-27.99 14.31-43.71-0.03-3.998-0.36-7.989-0.99-11.939-3.02-19.53-13.67-37.06-29.6-48.74l-75.58-54.86c-4.21-2.82-7.06-7.24-7.89-12.24-0.099-0.99-0.099-1.97 0-2.96 0.026-3.93 1.27-7.76 3.55-10.95l-11.35-8.29zm45.59-220.82c-13.4,18.4-20.62,40.58-20.62,63.35-0.03,5.78 0.43,11.56 1.38,17.27 4.41,28.39 20.01,53.84 43.32,70.65l95.12,69.07c12.46,9 20.81,22.61 23.19,37.79 0.51,3.07 0.77,6.17 0.79,9.28-0.048,12.15-3.95,23.96-11.15,33.75l9.18,6.61 74.89-103.51c35.83-49.5 25.02-117.12-23.31-152.28L297.13,78.28c-7.18-5.2-11.97-13.05-13.32-21.81-1.46-8.75 0.67-17.72 5.92-24.86l-9.08-6.61zM25.79,663.1h86.63c17.79-1.18 35.32,4.75 48.74,16.48 8.43,8.35 13.04,19.81 12.73,31.67v0.59c0.48,17.04-9.11,32.77-24.47,40.16 21.51,8.29 34.83,20.82 34.83,45.88 0,34.14-27.63,51.21-69.76,51.21H25.69zm78.15,75.38c18.06,0 29.6-5.92 29.6-19.73 0-12.33-9.87-19.73-26.94-19.73H65.75v39.47zm10.85,75.09c18.16,0 29.01-6.41 29.01-19.73v-0.59c0-12.43-9.28-19.73-30.29-19.73H65.75v41.05zM202.61,663.1h86.63c17.79-1.18 35.32,4.75 48.74,16.48 8.39,8.37 12.96,19.83 12.63,31.67v0.59c0.48,17.04-9.11,32.77-24.47,40.16 21.61,8.29 34.93,20.82 34.93,45.88 0,34.14-27.73,51.21-69.86,51.21h-88.61zm77.85,75.38c18.06,0 29.6-5.92 29.6-19.73 0-12.33-9.87-19.73-26.84-19.73h-41.15v39.47zm10.85,75.09c18.16,0 29.01-6.41 29.01-19.73v-0.59c0-12.43-9.28-19.73-30.29-19.73h-47.95v41.05zM378.44,663.1h86.63c17.79-1.18 35.32,4.75 48.74,16.48 8.43,8.35 13.04,19.81 12.73,31.67v0.59c0.48,17.04-9.11,32.77-24.47,40.16 21.61,8.29 34.93,20.82 34.93,45.88 0,34.14-27.73,51.21-69.86,51.21h-88.8zm77.85,75.38c18.06,0 29.6-5.92 29.6-19.73 0-12.33-9.87-19.73-26.84-19.73h-40.65v39.47zm10.85,75.09c18.16,0 29.11-6.41 29.11-19.73v-0.59c0-12.43-9.37-19.73-30.39-19.73h-47.46v41.05z" />
    </symbol>
    <symbol id="FaSave" viewBox="0 0 448 512">
      <path d="M433.941 129.941l-83.882-83.882A48 48 0 0 0 316.118 32H48C21.49 32 0 53.49 0 80v352c0 26.51 21.49 48 48 48h352c26.51 0 48-21.49 48-48V163.882a48 48 0 0 0-14.059-33.941zM224 416c-35.346 0-64-28.654-64-64 0-35.346 28.654-64 64-64s64 28.654 64 64c0 35.346-28.654 64-64 64zm96-304.52V212c0 6.627-5.373 12-12 12H76c-6.627 0-12-5.373-12-12V108c0-6.627 5.373-12 12-12h228.52c3.183 0 6.235 1.264 8.485 3.515l3.48 3.48A11.996 11.996 0 0 1 320 111.48z" />
    </symbol>
    <symbol id="FaFavorites" viewBox="0 0 512 512">
      <path d="M0 190.9V185.1C0 115.2 50.52 55.58 119.4 44.1C164.1 36.51 211.4 51.37 244 84.02L256 96L267.1 84.02C300.6 51.37 347 36.51 392.6 44.1C461.5 55.58 512 115.2 512 185.1V190.9C512 232.4 494.8 272.1 464.4 300.4L283.7 469.1C276.2 476.1 266.3 480 256 480C245.7 480 235.8 476.1 228.3 469.1L47.59 300.4C17.23 272.1 .0003 232.4 .0003 190.9L0 190.9z" />
    </symbol>
    <symbol id="FaBookmark" viewBox="0 0 384 512">
      <path d="M0 48V487.7C0 501.1 10.9 512 24.3 512c5.8 0 11.5-2.1 15.9-5.9L192 400l151.8 106.1c4.4 3.8 10.1 5.9 15.9 5.9C373.1 512 384 501.1 384 487.7V48c0-26.5-21.5-48-48-48H48C21.5 0 0 21.5 0 48z" />
    </symbol>
    <symbol id="FiMenu" viewBox="0 0 24 24">
      <path d="M3 12h18M3 6h18M3 18h18" fill="none" stroke="currentColor" stroke-width="2" stroke-linecap="round" stroke-linejoin="round" />
    </symbol>
    <symbol id="FiX" viewBox="0 0 24 24">
      <path d="M18 6L6 18M6 6l12 12" fill="none" stroke="currentColor" stroke-width="2" stroke-linecap="round" stroke-linejoin="round" />
    </symbol>
    <symbol id="FaFeather" viewBox="0 0 640 640">
      <path d="M416 64C457 64 496.3 80.3 525.2 109.2L530.7 114.7C559.7 143.7 576 183 576 223.9C576 248 570.3 271.5 559.8 292.7C557.9 296.4 554.5 299.2 550.5 300.4L438.5 334C434.6 335.2 432 338.7 432 342.8C432 347.9 436.1 352 441.2 352L473.4 352C487.7 352 494.8 369.2 484.7 379.3L462.3 401.7C460.4 403.6 458.1 404.9 455.6 405.7L374.6 430C370.7 431.2 368.1 434.7 368.1 438.8C368.1 443.9 372.2 448 377.3 448C390.5 448 396.2 463.7 385.1 470.9C344 497.5 295.8 512 246.1 512L160.1 512L112.1 560C103.3 568.8 88.9 568.8 80.1 560C71.3 551.2 71.3 536.8 80.1 528L320 288C328.8 279.2 328.8 264.8 320 256C311.2 247.2 296.8 247.2 288 256L143.5 400.5C137.8 406.2 128 402.2 128 394.1C128 326.2 155 261.1 203 213.1L306.8 109.2C335.7 80.3 375 64 416 64z" />
    </symbol>
    <symbol id="FaSmile" viewBox="0 0 496 512">
      <path d="M248 8C111 8 0 119 0 256s111 248 248 248 248-111 248-248S385 8 248 8zm80 168c17.7 0 32 14.3 32 32s-14.3 32-32 32-32-14.3-32-32 14.3-32 32-32zm-160 0c17.7 0 32 14.3 32 32s-14.3 32-32 32-32-14.3-32-32 14.3-32 32-32zm194.8 170.2C334.3 380.4 292.5 400 248 400s-86.3-19.6-114.8-53.8c-13.6-16.3 11-36.7 24.6-20.5 22.4 26.9 55.2 42.2 90.2 42.2s67.8-15.4 90.2-42.2c13.4-16.2 38.1 4.2 24.6 20.5z" />
    </symbol>
    <symbol id="FaHelpBubble" viewBox="0 0 404.943 404.943">
      <path d="M391.691,18.284H13.25C5.932,18.284,0,24.219,0,31.536v242.48c0,7.32,5.932,13.252,13.25,13.252h202.674v86.137c0,5.359,3.229,10.193,8.182,12.244c1.639,0.68,3.359,1.01,5.066,1.01c3.446,0,6.838-1.348,9.372-3.883l96.173-95.508h56.975c7.32,0,13.252-5.932,13.252-13.252V31.535C404.943,24.218,399.012,18.284,391.691,18.284z M202.472,250.071c-11.226,0-20.357-9.133-20.357-20.357c0-11.226,9.132-20.357,20.357-20.357s20.357,9.132,20.357,20.357C222.829,240.938,213.698,250.071,202.472,250.071z M223.797,153.233c-2.673,1.828-4.521,3.174-5.523,4.021v21.272c0,8.712-7.088,15.8-15.8,15.8c-8.714,0-15.802-7.088-15.802-15.8v-22.918c0-15.281,11.153-22.903,19.297-28.467c8.789-6.005,14.594-9.972,14.594-22.361c0-9.975-8.114-18.09-18.089-18.09c-9.976,0-18.09,8.115-18.09,18.09c0,8.713-7.089,15.801-15.802,15.801s-15.802-7.088-15.802-15.801c0-27.4,22.292-49.692,49.693-49.692c27.399,0,49.691,22.292,49.691,49.692C252.164,133.852,234.407,145.984,223.797,153.233z" />
    </symbol>
    <symbol id="Prompty" viewBox="0 0 1024 1536">
      <!-- Background -->
      <path d="M0 0h1024v1536H0z" fill="#FEFEFE"/>
      <!-- Main Prompty logo paths -->
      <path d="M912.043 533.336c7.478 5.752 11.489 14.088 13.332 23.227 18.318 63.479 3.609 105.728-15.075 140.839-1.004 1.894-1.983 3.8-2.959 5.708-10.691 20.718-28.903 51.647-49.75 63.703-3.225 1.946-5.1 3.292-7.258 6.414-1.52 6.855-1.26 14.02-1 20.999.736.104 1.472.209 2.23.316 8.55 2.11 15.117 10.652 19.77 17.668 14.218 23.907 17.349 50.619 17.437 77.937.006.807.012 1.614.019 2.446.075 15.332-1.676 30.481-5.72 45.304-.314 1.16-.314 1.16-.634 2.344-4.868 17.212-13.388 34.545-28.761 44.718-2.356 1.25-2.356 1.25-4.356 1.25.023 1.054.023 1.054.046 2.13.121 10.437-.574 20.779-1.34 31.182-.068.93-.136 1.861-.206 2.802-2.872 39.039-6.744 77.463-36.482 105.868-16.492 14.139-37.103 23.773-58.365 28.064-2.322.468-4.643.937-6.962 1.417-13.034 2.686-25.951 4.501-39.207 5.628-1.887.167-3.774.335-5.661.503-17.708 1.546-35.42 2.788-53.175 3.64-.849.041-1.698.082-2.573.125-40.936 1.981-81.902 2.033-122.875 2.058-4.26.002-8.52.009-12.781.017-34.76.065-69.466-.149-104.19-1.858-1.274-.062-2.548-.125-3.86-.189-128.892-6.515-128.892-6.515-165.347-43.404-.866-.862-1.733-1.725-2.625-2.613-26.934-27.067-29.321-66.444-31.562-102.512-.043-.677-.086-1.353-.13-2.05-.619-9.955-.774-19.858-.677-29.825-.776-.293-1.551-.586-2.35-.888-12.41-5.213-21.724-20.168-26.816-31.996-15.282-38.64-17.019-90.026-.589-128.429 2.97-6.622 6.447-12.784 10.687-18.688.476-.665.952-1.33 1.435-2.01 2.195-2.836 3.75-4.655 7.139-6.004 3.312-1.332 5.083-2.257 7.438-4.98 2.148-6.651 2.438-14.17.996-20.999-2.583-4.025-5.909-5.66-9.996-8.001-2.064-1.735-4.041-3.469-6.001-5.313-.507-.47-1.013-.94-1.535-1.424-14.195-13.278-25.44-28.881-35.393-45.493-.93-1.536-1.893-3.052-2.861-4.564-14.774-23.703-23.693-52.982-29.21-80.207-.247-1.184-.493-2.367-.746-3.586-1.482-8.769-1.488-17.604-1.567-26.477-.018-1.254-.036-2.509-.054-3.802.011-13.208 1.414-26.83 10.948-36.788 5.38-5.699 9.551-6.815 16.555-6.657 4.529.512 7.936 2.093 11.863 4.33 1.26.694 1.26.694 2.546 1.402 8.142 4.812 14.717 11.043 21.453 17.598.501.48 1.002.961 1.518 1.456 5.557 5.333 10.677 10.797 15.395 16.883 2.889 3.676 5.925 7.219 8.961 10.774 2.895 3.412 5.702 6.877 8.476 10.387 8.444 10.337 18.11 19.314 28.621 27.5 1.456 1.182 1.456 1.182 2.942 2.387 31.92 25.449 72.247 42.393 112.058 50.613 1.212.263 2.424.526 3.672.797 7.098 1.493 14.224 2.719 21.391 3.828.779.123 1.557.245 2.359.38 14.544 2.177 29.132 2.217 43.806 2.242 3.445.01 6.889.041 10.333.073 12.8.061 24.863-.634 37.385-3.313 1.013-.205 2.027-.411 3.071-.622 2.36-.491 4.708-1.017 7.055-1.566.778-.177 1.555-.354 2.356-.539 1.841-.42 3.681-.847 5.52-1.274-.735-.09-1.47-.18-2.227-.273-44.058-5.427-88.25-11.579-130.774-24.728-.893-.271-1.787-.543-2.706-.822-18.074-5.537-35.234-13.069-52.168-21.428-.79-.388-1.58-.776-2.393-1.175-5.502-2.774-10.806-5.858-15.733-9.575v-.33c71.744-7.854 71.744-7.854 102.891-9.864 2.151-.14 4.302-.283 6.453-.428 4.28-.287 8.561-.563 12.843-.833 1.191-.076 2.382-.152 3.61-.23 23.193-1.38 46.391-1.808 69.621-1.812 2.171-.001 4.342-.003 6.512-.006 7.658-.009 15.316-.013 22.975-.012 6.228.001 12.457-.007 18.685-.021 67.239-.147 67.239-.147 100.44 2.206 1.823.124 1.823.124 3.683.251 7.195.495 14.381 1.067 21.566 1.687 2.097.178 4.193.355 6.29.532 5.821.496 11.64 1.011 17.46 1.531.742.065 1.485.131 2.249.199 32.152 2.833 67.749 6.211 97.941 18.297 3.191 1.19 5.382 1.77 8.759 1.172 3.856-1.886 7.422-4.045 11.004-6.406.745-.489 1.491-.978 2.259-1.481 14.643-9.72 28.868-21.113 40.118-34.649 1.889-2.253 3.878-4.397 5.871-6.559 3.555-3.928 6.834-7.995 10.064-12.188 15.345-19.791 42.586-49.602 69.733-31.852z" fill="#0E0E0E"/>
      <!-- Secondary shape -->
      <path d="M649 728c1.651.154 3.301.308 4.952.461 66.586 6.268 66.586 6.268 82.736 23.227 22.986 27.828 15.633 77.48 15.574 110.863-.011 6.433-.005 12.865.007 19.297.035 23.246.018 46.475-1.159 69.695-.039.781-.078 1.562-.118 2.358-1.556 30.209-1.556 30.209-5.242 42.528-.217.744-.434 1.488-.657 2.254-4.864 15.911-15.521 30.038-30.265 38.027-10.529 5.042-20.79 7.698-32.328 9.219-1.247.166-2.494.332-3.779.504-54.8 7.14-109.849 9.074-165.061 8.881-5.238-.014-10.475-.019-15.714-.024-29.693-.022-59.293-.461-89-2.325-1.339-.084-2.677-.167-4.016-.25-6.947-.438-13.89-.918-20.831-1.445-3.283-.247-6.567-.482-9.851-.717-63.139-4.637-63.139-4.637-82.201-24.588-.93-.901-.93-.901-1.879-1.82-19.88-20.547-22.086-53.472-23.024-80.441-.069-1.942-.147-3.883-.231-5.825-1.761-41.499-1.89-83.417-.056-125-.052-1.274-.052-1.274-.106-2.574.391-9.13 1.19-18.127 2.515-27.171.12-.822.239-1.644.362-2.49 2.362-15.122 9.002-28.469 21.349-37.831 24.321-16.446 61.503-14.252 89.637-15.935 2.726-.165 5.451-.336 8.176-.508 83.102-5.216 167.846-5.675 260.048 0z" fill="#FEFEFE"/>
      <!-- Third shape -->
      <path d="M449.125 373.125c28.542 12.098 54.07 14.48 83.25 3.125 4.266-1.78 8.498-3.633 12.73-5.492 9.842-4.309 19.383-8.366 29.895-10.758.953-.223 1.905-.446 2.887-.676 18.315-3.673 36.273-1.726 52.113 8.674 3.451 2.538 6.738 5.225 10 8 1.079.878 1.079.878 2.18 1.773 1.65 1.359 3.242 2.786 4.82 4.227v.985c.99.33 1.98.66 3 1 2.581 2.433 4.753 5.26 7 8 .819.994 1.637 1.988 2.48 3.012 11.631 14.348 21.461 29.918 30.52 45.988.475.836.95 1.672 1.439 2.534 20.641 36.571 36.036 75.174 50.15 114.536 1.375 3.838 2.768 7.67 4.164 11.501.832 2.289 1.664 4.578 2.496 6.867.383 1.048.766 2.097 1.161 3.177.344.951.688 1.902 1.043 2.881.451 1.241.451 1.241.911 2.506.636 1.998.636 1.998.636 3.998-.925-.219-1.851-.439-2.805-.664-2.932-.693-5.866-1.38-8.8-2.066-3.758-.879-7.509-1.782-11.258-2.695-11.715-2.82-23.437-5.278-35.324-7.262-1.137-.19-2.273-.38-3.444-.576-3.785-.611-7.574-1.185-11.368-1.736-.808-.118-1.616-.237-2.448-.358-14.819-2.134-29.64-3.491-44.575-4.522-3.539-.245-7.076-.5-10.614-.756-42.366-3.037-84.796-3.553-127.257-3.549-4.068 0-8.137-.007-12.205-.021-28.362-.093-56.582.594-84.897 2.206-1.542.086-3.083.171-4.624.257-28.97 1.616-57.724 3.932-86.418 8.311-6.304.935-12.63 1.693-18.958 2.44 2.111-10.425 4.377-20.781 7.023-31.084 1.123-4.41 2.187-8.82 3.133-13.271 8.835-41.126 21.031-83.445 38.841-121.651.331-.715.661-1.43 1.002-2.166 9.548-20.438 21.308-42.083 43.311-49.897 23.925-7.291 47.134 2.793 69.813 13z" fill="#0D0E0E"/>
      <!-- Fourth shape -->
      <path d="M283.25 694.688c3.459 1.267 6.923 2.519 10.391 3.761.845.306 1.69.612 2.56.928 7.104 2.513 14.302 4.399 21.655 6.044 2.061.472 4.105 1.019 6.144 1.581.495.99.495.99 1 2 -.699.014-1.398.029-2.117.044-32.934.328-32.934.328-60.633 16.555-17.209 18.375-17.043 43.625-17.802 67.402-.042 1.3-.084 2.6-.128 3.939-.424 13.682-.486 27.361-.49 40.988-.002 2.003-.005 4.006-.007 6.009-.008 6.278-.011 12.557-.01 18.835.001 5.62-.006 11.239-.02 16.86-.068 27.962-.043 55.903 1.131 83.847.042.994.084 1.989.127 3.014 1.124 47.651 1.124 47.651 23.968 87.827 27.92 24.484 72.43 21.836 107.482 23.623 3.195.165 6.39.336 9.585.507 8.881.476 17.763.948 26.647 1.376 1.62.08 3.24.163 4.861.249 15.965.84 31.896 1.017 47.881 1.001 3.469-.002 6.938-.001 10.407 0 5.832.002 11.665-.003 17.497-.008 5.902-.005 11.804-.005 17.706 0 46.508.098 46.508.098 93.006-1.13 1.17-.049 2.341-.098 3.547-.149 7.53-.327 15.054-.718 22.578-1.148 1.102-.063 2.204-.126 3.34-.191 15.665-.9 31.292-2.054 46.91-3.559.85-.082 1.7-.164 2.575-.249 5.355-.522 10.704-.988 16.05-1.497 1.041-.117 1.041-.117 2.103-.235 7.592-.869 14.865-1.898 22.084-4.451 1.131-.392 1.131-.392 2.285-.792 16.704-6.024 29.921-16.945 38.215-32.746 7.467-16.298 9.822-34.04 10.828-51.798.042-.737.084-1.474.128-2.233.417-7.511.702-15.025.906-22.546.021-.757.042-1.514.064-2.294.646-24.388.574-48.788.572-73.183 0-4.667.008-9.333.021-14 .067-26.892.013-53.757-1.093-80.63-.04-.98-.08-1.96-.12-3.01-.606-14.869-1.232-29.855-5.995-43.082-.315-.941-.629-1.882-.953-2.858-5.637-15.096-16.006-28.409-30.738-35.235-2.729-1.141-5.466-2.142-8.309-2.965 1-2 1-2 3.492-2.859 1.116-.294 2.233-.588 3.383-.891 4.32-1.162 8.564-2.372 12.789-3.844 13.334-4.607 24.301-6.913 37.715-.884 9.416 5.334 14.445 13.826 17.895 23.844 3.959 14.385 3.07 30.79 3.727 45.641.047 1.057.094 2.113.143 3.202 10.066 229.967 10.066 229.967-7.813 285.188-.26.752-.52 1.505-.788 2.281-3.527 9.808-8.666 19.481-16.525 26.531h-1.25v1c-11.599 9.723-25.589 15.885-39.938 20.313-1.105.345-1.105.345-2.232.699-15.801 4.581-32.524 5.89-48.831 7.489-1.621.16-1.621.16-3.275.323-90.447 8.852-182.685 10.016-303.724 4.26-1.693-.094-1.693-.094-3.42-.189-23.671-1.32-47.128-3.285-70.58-6.81-.813-.113-1.626-.226-2.463-.342-25.113-3.504-52.246-13.464-68.981-33.502-17.373-24.094-18.661-56.892-20.195-85.465-.039-.719-.078-1.438-.118-2.179-.04-.738-.079-1.477-.12-2.239-.122-2.268-.249-4.537-.377-6.805-1.577-28.167-2.033-56.25-1.942-84.457.011-4.165.01-8.33.011-12.496.001-37.791.435-75.604 2.019-113.366.122-2.945.232-5.89.342-8.835.379-9.726.896-19.442 1.651-29.147.058-.875.115-1.751.174-2.654 1.02-11.914 6.173-21.166 14.822-29.264 15.51-12.716 32.48-6.899 49.438 0z" fill="#FCFCFC"/>
      <!-- Fifth shape -->
      <path d="M402.313 796.563c1.86 1.125 1.86 1.125 3.687 2.437.666.474 1.331.949 2.016 1.438 11.888 9.454 17.656 24.666 19.707 39.378 1.894 21.804-1.023 43.846-15.34 61.136-5.065 5.555-10.273 8.589-17.795 9.426-7.166.238-12.661-.221-18.594-4.378-.846-.537-1.691-1.073-2.563-1.625-14.04-13.681-18.135-32.657-18.789-51.541-.209-17.58 4.517-35.441 16.424-48.733 8.638-8.015 19.543-12.809 31.247-7.538z" fill="#0E0F0E"/>
      <!-- Sixth shape -->
      <path d="M643.813 797.438c12.847 8.01 18.534 20.648 21.983 34.867 4.88 21.416 2.03 42.725-8.546 62.008-4.494 7.084-11.011 13.525-19.256 15.687-8.889.946-15.856.635-23.031-5-1.029-.802-1.029-.802-2.078-1.621-6.321-5.609-9.56-12.774-12.922-20.378-.361-.794-.722-1.588-1.094-2.407-6.966-19.935-5.344-43.376 2.648-62.686 3.694-7.598 8.48-14.117 15.455-18.973.582-.412 1.163-.825 1.763-1.25 7.757-4.683 17.102-4.28 25.078-.247z" fill="#0E0F0E"/>
      <!-- Seventh shape -->
      <path d="M443 938c2.409 1.46 4.186 2.731 6.25 4.563 1.126.927 2.256 1.849 3.391 2.766.561.456 1.123.911 1.701 1.381 20.784 16.182 48.12 18.803 73.5 16.982 5.21-.797 10.212-2.072 15.221-3.692.652-.209 1.304-.418 1.976-.633 11.292-3.76 22.254-9.584 30.836-17.929 2.528-2.285 4.339-2.91 7.75-3.125 4.878-.325 7.122 1.532 10.438 5.012 1.642 3.283 1.642 6.465 1 10-8.484 16.497-30.568 26.234-47.225 31.863-12.223 3.682-23.889 4.415-36.586 4.449-1.311.006-2.622.011-3.972.017-7.927-.059-15.434-.736-22.746-2.29-1.114-.223-2.228-.446-3.375-.677-19.845-4.809-39.03-14.537-51.625-30.937-1.614-3.229-1.593-6.51-1-10 3.568-6.217 8.498-8.057 15.516-7z" fill="#0F0F0F"/>
      <!-- Small accent shapes -->
      <path d="M866 540c0 3 0 3-2.625 5.918-1.117 1.098-2.243 2.187-3.375 3.27-.572.558-1.145.117-1.734.693-1.415 1.38-2.839 2.751-4.266 4.119-.66-.66-1.32-1.32-2-2 1.768-1.795 3.532-3.586 5.295-5.375.5-.508 1-.016 1.514-.539 2.299-2.314 4.449-4.269 7.191-6.086z" fill="#1B1B1A"/>
      <path d="M365 369h2c-1.418 3.544-2.676 4.338-6 6-1.268 2.034-1.268 2.034-2 4h-3c1.124-1.292 2.249-2.584 3.374-3.875.627-.719 1.253-1.439 1.899-2.18 1.201-1.353 2.447-2.666 3.727-3.945z" fill="#1E1E1D"/>
      <path d="M377 799c.66.33 1.32.66 2 1h-3c.33-.33.66-.66 1-1zm-1 2c-1.393 3.367-2.979 4.986-6 7 0-3 0-3 1.875-5.188 2.125-1.812 2.125-1.812 4.125-1.812z" fill="#1F1F1F"/>
      <path d="M849 557c.99.33 1.98.66 3 1-2.31 2.31-4.62 4.62-7 7-.66-.33-1.32-.66-2-1 1.98-2.31 3.96-4.62 6-7z" fill="#1E1E1E"/>
      <path d="M826 584c.99.33 1.98.66 3 1-1.98 1.98-3.96 3.96-6 6-.66-.33-1.32-.66-2-1 1.65-1.98 3.3-3.96 5-6z" fill="#1E1E1E"/>
      <path d="M271 614c2.25-.25 2.25-.25 5 0 2.313 2 2.313 2 4 4-.33.66-.66 1.32-1 2-1.336-.808-2.669-1.622-4-2.438-.743-.453-1.485-.906-2.25-1.371-.578-.393-1.155-.786-1.75-1.191v-1z" fill="#1D1D1D"/>
      <path d="M112 533c.66.33 1.32.66 2 1-1.616 2.042-3.286 4.041-5 6h-2c1.293-2.884 2.659-4.763 5-7z" fill="#191919"/>
    </symbol>
    <symbol id="prompty" viewBox="0 0 60 60">
      <path fill="currentColor" d="M 21.339844 2.085938 C 19.902344 2.328125 18.65625 3.859375 17.492188 6.808594 C 16.84375 8.445312 15.839844 11.726562 15.34375 13.804688 C 14.847656 15.902344 14.578125 17.089844 14.589844 17.105469 C 14.597656 17.117188 14.96875 17.066406 15.414062 16.992188 C 19.441406 16.3125 25.929688 16.03125 32.945312 16.230469 C 35.394531 16.300781 35.824219 16.324219 38.003906 16.476562 C 40.96875 16.6875 43.796875 17.144531 45.585938 17.703125 C 45.882812 17.796875 46.144531 17.871094 46.171875 17.871094 C 46.355469 17.875 44.277344 12.429688 43.292969 10.335938 C 40.945312 5.332031 38.496094 2.421875 36.351562 2.085938 C 35.535156 1.957031 34.128906 2.125 33.253906 2.457031 C 33.027344 2.539062 32.460938 2.78125 31.992188 2.988281 C 29.390625 4.144531 28.082031 4.144531 25.386719 2.992188 C 23.933594 2.371094 23.273438 2.15625 22.558594 2.082031 C 21.867188 2.007812 21.804688 2.007812 21.339844 2.085938 M 55.101562 13.832031 C 54.292969 14.113281 53.679688 14.648438 52.339844 16.253906 C 50.675781 18.25 49.59375 19.246094 48.175781 20.097656 L 47.554688 20.46875 L 47.042969 20.292969 C 44.691406 19.488281 40.039062 18.898438 34.449219 18.6875 C 32.023438 18.597656 24.25 18.640625 22.285156 18.757812 C 20.523438 18.859375 18.046875 19.070312 16.121094 19.273438 C 15.242188 19.367188 14.277344 19.46875 13.976562 19.496094 L 13.433594 19.546875 L 13.910156 19.828125 C 16.859375 21.582031 21.199219 22.792969 26.644531 23.386719 L 27.730469 23.503906 L 26.984375 23.695312 C 25.6875 24.023438 24.941406 24.109375 23.339844 24.109375 C 19.445312 24.109375 16.085938 23.324219 12.996094 21.695312 C 10.820312 20.550781 9.425781 19.363281 7.457031 16.984375 C 5.242188 14.300781 3.875 13.398438 2.835938 13.925781 C 2.21875 14.238281 1.851562 15.019531 1.761719 16.21875 C 1.542969 19.207031 2.886719 23.253906 5.042969 26.109375 C 5.695312 26.972656 6.515625 27.847656 7.160156 28.367188 L 7.75 28.84375 L 7.714844 29.289062 C 7.691406 29.535156 7.675781 29.847656 7.675781 29.984375 C 7.675781 30.207031 7.644531 30.253906 7.371094 30.414062 C 6.832031 30.726562 6.398438 31.242188 6.007812 32.019531 C 4.871094 34.292969 4.808594 38.648438 5.878906 41.203125 C 6.238281 42.0625 6.964844 42.96875 7.589844 43.339844 C 7.789062 43.453125 7.8125 43.503906 7.8125 43.777344 C 7.816406 44.773438 7.980469 47.074219 8.128906 48.15625 C 8.503906 50.914062 9.527344 52.613281 11.523438 53.796875 C 13.664062 55.0625 16.3125 55.519531 23.207031 55.808594 C 25.09375 55.890625 35.785156 55.847656 37.476562 55.753906 C 43.09375 55.441406 44.792969 55.230469 46.535156 54.625 C 48.957031 53.785156 50.527344 52.246094 51.21875 50.035156 C 51.550781 48.984375 51.777344 47.125 51.917969 44.277344 C 51.960938 43.472656 51.980469 43.371094 52.09375 43.335938 C 52.335938 43.257812 53.0625 42.519531 53.386719 42.019531 C 53.945312 41.164062 54.304688 40.0625 54.507812 38.597656 C 54.59375 37.984375 54.613281 37.476562 54.585938 36.398438 C 54.535156 34.242188 54.21875 32.886719 53.464844 31.59375 C 53.179688 31.101562 52.613281 30.511719 52.238281 30.320312 L 51.949219 30.175781 L 51.949219 28.84375 L 52.523438 28.351562 C 53.691406 27.347656 54.9375 25.734375 55.921875 23.949219 C 56.707031 22.523438 57.539062 20.246094 57.835938 18.71875 C 58.34375 16.078125 57.996094 14.414062 56.820312 13.863281 C 56.390625 13.664062 55.632812 13.648438 55.101562 13.832031 M 11.761719 24.636719 C 10.859375 24.914062 10.148438 25.816406 9.996094 26.871094 C 9.914062 27.445312 9.8125 29.832031 9.710938 33.59375 C 9.550781 39.53125 9.796875 46.550781 10.242188 48.53125 C 10.417969 49.316406 10.722656 50.074219 11.070312 50.582031 C 11.871094 51.757812 13.347656 52.5625 15.523438 53.007812 C 20.433594 54.011719 36.480469 54.070312 43.570312 53.105469 C 44.945312 52.921875 45.976562 52.625 46.921875 52.148438 C 48.457031 51.375 49.324219 50.25 49.671875 48.578125 C 50.191406 46.074219 50.320312 34.363281 49.90625 27.78125 C 49.832031 26.609375 49.675781 26.027344 49.316406 25.550781 C 49.003906 25.144531 48.867188 25.027344 48.441406 24.792969 C 48.148438 24.632812 48.023438 24.609375 47.523438 24.609375 C 47.050781 24.609375 46.820312 24.648438 46.296875 24.824219 C 45.941406 24.945312 45.417969 25.109375 45.136719 25.191406 L 44.628906 25.339844 L 44.910156 25.425781 C 45.710938 25.667969 46.6875 26.582031 47.167969 27.546875 C 47.40625 28.03125 47.644531 28.902344 47.71875 29.566406 C 47.941406 31.582031 47.992188 41.328125 47.796875 44.566406 C 47.613281 47.597656 47.019531 49.003906 45.5 50.003906 C 44.34375 50.765625 43.171875 50.976562 38.566406 51.265625 C 31.875 51.683594 20.742188 51.511719 16.414062 50.921875 C 13.84375 50.574219 12.421875 49.296875 11.964844 46.929688 C 11.675781 45.441406 11.589844 43 11.597656 36.570312 C 11.601562 31.652344 11.664062 29.914062 11.871094 29.003906 C 12.027344 28.300781 12.34375 27.6875 12.792969 27.207031 C 13.570312 26.375 14.332031 26.09375 16.003906 26.027344 C 16.554688 26.003906 17.007812 25.964844 17.007812 25.941406 C 17.007812 25.917969 16.847656 25.855469 16.648438 25.804688 C 16.109375 25.671875 14.765625 25.242188 13.769531 24.886719 C 13.027344 24.625 12.808594 24.574219 12.410156 24.578125 C 12.148438 24.582031 11.855469 24.609375 11.761719 24.636719 M 26.339844 27.039062 C 22.15625 27.140625 17.753906 27.453125 16.296875 27.753906 C 14.550781 28.117188 13.5625 29.359375 13.335938 31.476562 C 13.054688 34.070312 13.097656 42.003906 13.402344 44.121094 C 13.613281 45.613281 14.117188 46.792969 14.882812 47.613281 C 16.035156 48.851562 17.054688 49.109375 22.117188 49.453125 C 26.371094 49.742188 33.023438 49.742188 37.03125 49.453125 C 39.871094 49.25 42.183594 48.960938 42.871094 48.730469 C 44.753906 48.089844 45.761719 46.65625 46.015625 44.257812 C 46.273438 41.824219 46.316406 34.308594 46.089844 31.609375 C 45.960938 30.054688 45.40625 28.945312 44.457031 28.332031 C 43.785156 27.898438 42.863281 27.699219 40.359375 27.449219 C 36.3125 27.042969 31.6875 26.90625 26.339844 27.039062 M 20.90625 32.089844 C 20.382812 32.355469 20.066406 32.714844 19.722656 33.425781 C 19.359375 34.175781 19.230469 34.808594 19.234375 35.851562 C 19.234375 38.085938 20.261719 39.765625 21.632812 39.773438 C 22.667969 39.777344 23.570312 38.847656 23.96875 37.367188 C 24.167969 36.613281 24.167969 35.082031 23.964844 34.324219 C 23.761719 33.574219 23.4375 32.945312 23.035156 32.539062 C 22.613281 32.105469 22.269531 31.9375 21.742188 31.902344 C 21.386719 31.878906 21.273438 31.90625 20.90625 32.089844 M 37.476562 31.96875 C 36.296875 32.410156 35.578125 33.894531 35.585938 35.886719 C 35.589844 37.28125 35.941406 38.367188 36.625 39.09375 C 37.261719 39.765625 38.027344 39.945312 38.757812 39.585938 C 40.152344 38.898438 40.847656 36.414062 40.265625 34.179688 C 40.023438 33.25 39.394531 32.355469 38.769531 32.058594 C 38.449219 31.90625 37.765625 31.859375 37.476562 31.96875 M 24.390625 41.894531 C 24 42.289062 24.082031 42.734375 24.648438 43.277344 C 25.601562 44.191406 26.890625 44.8125 28.320312 45.042969 C 29.148438 45.179688 30.578125 45.179688 31.351562 45.042969 C 32.59375 44.824219 33.777344 44.304688 34.695312 43.574219 C 35.3125 43.082031 35.5 42.808594 35.5 42.398438 C 35.5 42.105469 35.472656 42.035156 35.277344 41.863281 C 34.972656 41.585938 34.625 41.589844 34.265625 41.867188 C 32.976562 42.867188 31.933594 43.296875 30.425781 43.445312 C 29.210938 43.5625 27.847656 43.3125 26.789062 42.78125 C 26.261719 42.515625 26.066406 42.386719 25.53125 41.957031 C 25.050781 41.566406 24.734375 41.550781 24.390625 41.894531 "/>
    </symbol>
  </defs>
</svg>